<svg xmlns="http://www.w3.org/2000/svg" fill="none" viewBox="0 0 40 26"><path d="M29.128 2.415H10.872C5.168 2.415.5 7.179.5 13.002c0 5.823 4.668 10.588 10.372 10.588h18.256c5.704 0 10.372-4.765 10.372-10.588 0-5.823-4.668-10.587-10.372-10.587Z" fill="#fff"/><path d="M29.128 3.273c1.28 0 2.525.259 3.697.767a9.606 9.606 0 0 1 3.034 2.091 9.768 9.768 0 0 1 2.049 3.097 9.776 9.776 0 0 1 .752 3.774 9.827 9.827 0 0 1-2.8 6.871 9.55 9.55 0 0 1-3.035 2.092 9.245 9.245 0 0 1-3.697.767H10.872c-1.28 0-2.525-.26-3.697-.767a9.608 9.608 0 0 1-3.034-2.091 9.769 9.769 0 0 1-2.049-3.097 9.777 9.777 0 0 1-.752-3.775 9.828 9.828 0 0 1 2.8-6.871 9.55 9.55 0 0 1 3.035-2.09 9.245 9.245 0 0 1 3.697-.768h18.256Zm0-.858H10.872C5.168 2.415.5 7.179.5 13.002c0 5.823 4.668 10.588 10.372 10.588h18.256c5.704 0 10.372-4.765 10.372-10.588 0-5.823-4.668-10.587-10.372-10.587Z" fill="#3C4043"/><path d="M19.098 13.754v3.203h-.996v-7.91h2.64c.669 0 1.24.229 1.706.684.477.455.716 1.01.716 1.667 0 .673-.239 1.229-.716 1.678-.462.45-1.032.673-1.706.673h-1.644v.005Zm0-3.732v2.758h1.665c.394 0 .726-.138.985-.408.264-.27.4-.598.4-.968 0-.366-.136-.689-.4-.959a1.279 1.279 0 0 0-.985-.418h-1.665v-.005ZM25.767 11.367c.736 0 1.317.2 1.742.603.426.402.638.953.638 1.652v3.335h-.949v-.752h-.041c-.41.62-.96.926-1.644.926-.586 0-1.074-.174-1.468-.529a1.705 1.705 0 0 1-.591-1.323c0-.562.207-1.006.622-1.334.415-.334.97-.498 1.66-.498.591 0 1.078.111 1.457.334v-.234c0-.354-.135-.65-.41-.9a1.39 1.39 0 0 0-.964-.37c-.555 0-.996.238-1.317.72l-.877-.561c.482-.715 1.198-1.07 2.142-1.07Zm-1.286 3.927c0 .265.109.487.332.662.218.175.477.265.772.265.42 0 .794-.159 1.12-.477.327-.317.493-.688.493-1.117-.31-.248-.741-.375-1.296-.375-.405 0-.742.1-1.012.296-.274.207-.41.455-.41.746ZM33.562 11.541l-3.32 7.793h-1.026l1.234-2.727-2.188-5.066h1.084l1.576 3.886h.021l1.535-3.886h1.084Z" fill="#3C4043"/><path d="M15.137 13.108c0-.331-.029-.648-.083-.953H10.88v1.747h2.404a2.106 2.106 0 0 1-.892 1.407v1.134h1.431c.835-.79 1.314-1.956 1.314-3.335Z" fill="#4285F4"/><path d="M12.393 15.31c-.399.274-.912.434-1.512.434-1.159 0-2.142-.797-2.494-1.872H6.91v1.169c.731 1.481 2.234 2.497 3.97 2.497 1.2 0 2.209-.402 2.942-1.096l-1.43-1.133Z" fill="#34A853"/><path d="M8.248 13.005c0-.302.05-.593.14-.868V10.97H6.91a4.588 4.588 0 0 0-.472 2.036c0 .733.17 1.424.472 2.036l1.476-1.168a2.786 2.786 0 0 1-.139-.868Z" fill="#FABB05"/><path d="M10.881 10.265c.655 0 1.242.23 1.705.68l1.268-1.293a4.221 4.221 0 0 0-2.973-1.181c-1.735 0-3.239 1.016-3.97 2.498l1.476 1.168c.352-1.074 1.335-1.872 2.494-1.872Z" fill="#E94235"/></svg>
