<svg xmlns="http://www.w3.org/2000/svg" fill="none" viewBox="0 0 40 26"><path fill="#fff" d="M0 0h40v26H0z"/><g clip-path="url(#a)"><path d="M34.543 3H5.457A3.457 3.457 0 0 0 2 6.457v13.086A3.457 3.457 0 0 0 5.457 23h29.086A3.457 3.457 0 0 0 38 19.543V6.457A3.457 3.457 0 0 0 34.543 3Z" fill="#FFB3C7"/><path d="M34.635 14.717a.857.857 0 0 0-.853.86c0 .476.382.861.853.861a.857.857 0 0 0 .853-.86.857.857 0 0 0-.853-.861Zm-2.806-.665c0-.651-.551-1.178-1.231-1.178s-1.231.527-1.231 1.178c0 .65.551 1.178 1.231 1.178s1.231-.528 1.231-1.178Zm.005-2.29h1.358v4.58h-1.358v-.293c-.384.264-.848.419-1.347.419a2.406 2.406 0 0 1-2.395-2.416 2.406 2.406 0 0 1 2.395-2.417c.5 0 .963.156 1.347.42v-.293Zm-10.874.596v-.596H19.57v4.58h1.394v-2.139c0-.721.775-1.109 1.313-1.109h.016v-1.332c-.552 0-1.06.239-1.332.596Zm-3.465 1.694c0-.651-.551-1.178-1.231-1.178s-1.232.527-1.232 1.178c0 .65.552 1.178 1.232 1.178.68 0 1.23-.528 1.23-1.178Zm.004-2.29h1.36v4.58h-1.36v-.293c-.383.264-.847.419-1.346.419a2.406 2.406 0 0 1-2.395-2.416 2.406 2.406 0 0 1 2.395-2.417c.5 0 .963.156 1.346.42v-.293Zm8.179-.123c-.543 0-1.057.17-1.4.639v-.516h-1.353v4.58h1.37v-2.407c0-.697.462-1.037 1.02-1.037.597 0 .94.36.94 1.027v2.416h1.357V13.43c0-1.066-.84-1.79-1.934-1.79Zm-13.9 4.702h1.423v-6.62h-1.423v6.62Zm-6.247.002h1.506V9.72H5.531v6.623ZM10.8 9.72a5.293 5.293 0 0 1-1.541 3.76l2.082 2.863H9.48L7.217 13.23l.584-.44a3.815 3.815 0 0 0 1.524-3.07h1.474Z" fill="#0A0B09"/></g><defs><clipPath id="a"><path fill="#fff" transform="translate(2 3)" d="M0 0h36v20H0z"/></clipPath></defs></svg>
