<svg xmlns="http://www.w3.org/2000/svg" fill="none" viewBox="0 0 40 26"><path d="M0 .02h40V26H0V.02Z" fill="#fff"/><g clip-path="url(#a)"><path d="M35.333 20.333H2L4.533 5.667H38l-2.667 14.666Z" fill="#EDEDED"/><path d="M13.058 10.733c-1.497 0-2.634 1.128-2.634 2.47 0 1.216.933 2.064 2.203 2.064 1.498 0 2.627-1.16 2.627-2.503.008-1.223-.925-2.03-2.196-2.03Zm-.337 3.39c-.572 0-.972-.383-.972-.975 0-.656.494-1.28 1.207-1.28.573 0 .973.4.973.992.008.664-.494 1.263-1.208 1.263ZM22.067 10.733c-1.497 0-2.627 1.128-2.627 2.47 0 1.216.933 2.064 2.204 2.064 1.497 0 2.626-1.16 2.626-2.503.008-1.223-.925-2.03-2.203-2.03Zm-.33 3.39c-.572 0-.971-.383-.971-.975 0-.656.494-1.28 1.207-1.28.572 0 .972.4.972.992 0 .664-.494 1.263-1.207 1.263ZM28.678 12.164c0-.815-.62-1.335-1.749-1.335h-1.584l-.697 4.342h1.332l.22-1.367h.063l.705 1.367h1.53l-.98-1.52c.728-.255 1.16-.807 1.16-1.487Zm-2.133.72h-.196l.149-.911h.18c.416 0 .635.127.635.407 0 .328-.313.504-.768.504ZM8.894 12.564c-.51-.264-.62-.328-.62-.472 0-.175.205-.263.48-.263.32 0 .807.04 1.285.503.118-.375.314-.711.565-1.007-.675-.392-1.302-.592-1.874-.592-1.137 0-1.796.624-1.796 1.375 0 .648.478.984 1.043 1.28.51.264.635.352.635.511 0 .176-.212.272-.494.272-.486 0-1.05-.311-1.388-.631l-.196 1.207c.345.256.847.52 1.608.52 1.176 0 1.81-.608 1.81-1.383 0-.64-.407-.984-1.058-1.32ZM18.774 12.732h-1.569l.126-.76h1.678c.22-.455.556-.847.972-1.143h-2.744c-.612 0-1.13.424-1.216 1l-.533 3.35h1.333l.22-1.367h1.584l.117-.744c.008-.12.016-.224.032-.336ZM28.709 10.83c.36.28.58.67.627 1.143h1.114l-.51 3.198h1.333l.51-3.198h1.239l.18-1.144h-4.493Z" fill="#393A41"/></g><defs><clipPath id="a"><path fill="#fff" transform="translate(2 3)" d="M0 0h36v20H0z"/></clipPath></defs></svg>
