<svg viewBox="0 0 24 24" xmlns="http://www.w3.org/2000/svg"><path fill-rule="evenodd" clip-rule="evenodd" d="M23.5 8.64c.276 0 .5.215.5.48v2.4c0 .53-.448.96-1 .96h-1.2a.503.503 0 0 0-.448.265l-.822 1.578c-.251.49-.771.799-1.34.797H4.81a1.495 1.495 0 0 1-1.34-.797l-.823-1.578a.503.503 0 0 0-.447-.265H1c-.552 0-1-.43-1-.96v-2.4a.49.49 0 0 1 .5-.48h23Zm-4.929 4.56c.19 0 .362-.103.447-.265l.5-.96a.463.463 0 0 0-.022-.467.505.505 0 0 0-.425-.228H4.929a.505.505 0 0 0-.425.228.463.463 0 0 0-.022.467l.5.96a.503.503 0 0 0 .447.265h13.142Z"/><path d="M12.64 16.542a1.03 1.03 0 0 0-1.409.123.934.934 0 0 0 .13 1.353c.188.15.275.22-.254 1.268-.446.887-1.2 2.372.254 3.532a1.03 1.03 0 0 0 1.409-.124.934.934 0 0 0-.13-1.352c-.165-.132-.248-.198.268-1.22.452-.897 1.21-2.399-.268-3.58ZM6.378 16.542a1.033 1.033 0 0 0-.986-.162.971.971 0 0 0-.64.738.94.94 0 0 0 .347.9c.19.151.276.22-.253 1.269-.448.887-1.2 2.372.253 3.532.275.22.65.281.986.163.335-.119.58-.4.64-.739a.94.94 0 0 0-.346-.9c-.165-.132-.248-.198.267-1.22.453-.898 1.21-2.399-.268-3.58ZM18.883 16.542a1.033 1.033 0 0 0-.986-.163.972.972 0 0 0-.64.738.94.94 0 0 0 .346.901c.189.15.275.22-.253 1.268-.448.887-1.2 2.372.253 3.532a1.03 1.03 0 0 0 1.409-.124.934.934 0 0 0-.129-1.352c-.165-.132-.248-.198.267-1.22.45-.897 1.21-2.399-.267-3.58Z"/><path fill-rule="evenodd" clip-rule="evenodd" d="M21.5 0h-19C1.12 0 0 1.075 0 2.4v4.32c0 .265.224.48.5.48h23a.49.49 0 0 0 .5-.48V2.4c0-.637-.263-1.247-.732-1.697A2.554 2.554 0 0 0 21.5 0ZM17 5.28c-.552 0-1-.43-1-.96s.448-.96 1-.96 1 .43 1 .96-.448.96-1 .96Zm2.5-.96c0 .53.448.96 1 .96s1-.43 1-.96-.448-.96-1-.96-1 .43-1 .96Z"/></svg>