<svg viewBox="0 0 19.8 20" xmlns="http://www.w3.org/2000/svg"><path d="m7.7 4.6c1.2 0 2.1-.9 2.1-2.1s-.9-2.1-2.1-2.1-2.1.9-2.1 2.1 1 2.1 2.1 2.1zm11.7-.5-2.1-1.4v-1.9c0-.5-.4-.8-.8-.8-.5 0-.8.4-.8.8v1.9l-2.1 1.4c-.2.2-.4.5-.4.7 0 .3.2.6.5.7s.6.1.8-.1l1.2-.8v1.8l-1 .6c-.2.2-.4.5-.4.7 0 .3.2.6.5.7s.6.1.8-.1l.8-.5.8.5c.4.3.9.2 1.2-.2s.2-.9-.2-1.2l-.9-.6v-1.6l1.2.8c.2.2.6.2.8.1.3-.1.4-.4.5-.7 0-.3-.1-.6-.4-.8zm-6.7 4.7c-.5 0-1-.2-1.2-.7-.8-1.4-2.3-2.2-3.9-2.2-4.5 0-5.2 4.1-5.3 5.2 0 .1 0 .1.1.2 0 0 .1.1.2.1h2.1c.1 0 .2-.1.2-.2 0-.9.5-1.8 1.3-2.3h.2c.1 0 .1.1.1.2v2.3c0 .1.1.2.1.2.8.3 1.3 1.1 1.3 1.9v1.5c0 .1.1.2.2.2s.2 0 .2-.1c0 0 0-.1.1-.1 1.2 1.2 2.1 2.7 2.7 4.3.2.7.9 1 1.6.8s1-.9.8-1.6c-.9-2.5-2.5-4.7-4.5-6.4v-2.6c0-.1 0-.2.1-.2s.2 0 .2.1c.7 1.2 2 1.9 3.4 1.9.7 0 1.2-.6 1.2-1.2.1-.8-.5-1.3-1.2-1.3zm-8.9 10c-.1 0-.1 0-.2.1 0 0-.1.1 0 .2.1.5.5.9 1 1s1-.1 1.3-.5c0 0 .1-.2.3-.4 0-.1 0-.1 0-.2s-.1-.1-.2-.1zm-3.8-5.3c0-.6.4-1 1-1h4.7c.6 0 1 .4 1 1v3c0 .6-.4 1-1 1h-4.7c-.6 0-1-.4-1-1z"/></svg>