<svg xmlns="http://www.w3.org/2000/svg" viewBox="0 0 24 24"><path d="M4.5 8.86c.36 0 .7-.19.87-.48a5.27 5.27 0 012.09-2.02.96.96 0 00.52-.82.95.95 0 00-.49-.85c-.31-.17-.7-.17-1 0a7.2 7.2 0 00-2.86 2.74A.94.94 0 004 8.74a1 1 0 00.49.12zM6.43 2.34A1 1 0 005.2 1.7 7.35 7.35 0 00.04 6.64c-.07.24-.05.5.08.73a1 1 0 00.88.5 1 1 0 00.96-.68 5.4 5.4 0 013.8-3.65 1 1 0 00.6-.47.93.93 0 00.07-.73zM19.15 5.87a7.37 7.37 0 00-1.63-1.18c-.32-.2-.71-.2-1.04-.02a.95.95 0 00-.5.86c.01.36.23.68.56.83.88.47 1.6 1.17 2.09 2 .27.46.88.63 1.36.38a.94.94 0 00.38-1.31 7.18 7.18 0 00-1.22-1.56zM23.96 6.64A7.35 7.35 0 0018.8 1.7c-.34-.1-.72-.03-.99.2a.94.94 0 00-.3.94c.1.34.37.6.72.7a5.4 5.4 0 013.8 3.65c.17.5.72.79 1.25.65a1 1 0 00.6-.47.93.93 0 00.07-.73zM13.5 22.3h-3c-.28 0-.5.22-.5.48 0 1.06.9 1.92 2 1.92s2-.86 2-1.92a.49.49 0 00-.5-.48zM18.5 14.76v-.62c0-3.35-2.08-6.22-5-6.98V5.98c0-.8-.67-1.44-1.5-1.44s-1.5.64-1.5 1.44v1.18c-2.92.76-5 3.63-5 6.98v.62c0 2.04-.5 4.06-1.45 5.88a.46.46 0 00.02.47c.1.14.26.23.43.23h15a.5.5 0 00.43-.23c.09-.14.1-.32.02-.46a12.79 12.79 0 01-1.45-5.89z"/></svg>
