<svg viewBox="0 0 21 20" xmlns="http://www.w3.org/2000/svg"><path d="m12.1931 17.0938h-3.5776c-.10166.0001-.18701.0765-.1984.1776-.00871.0738-.01299.148-.0128.2224 0 1.1045.89543 2 2 2 1.1046 0 2-.8955 2-2 .0002-.0744-.0041-.1486-.0128-.2224-.0107-.1014-.0965-.1782-.1984-.1776z"/><path d="m17.9607 15.7138c-.9156-1.8199-1.3939-3.8284-1.3968-5.86563v-.6144c.045-2.41988-1.1137-4.70437-3.0928-6.0976-.5677-.36595-1.2024-.61557-1.8672-.7344v-.9088c0-.662743-.5373-1.200001-1.2-1.200001-.66277 0-1.20002.537258-1.20002 1.200001v.9192c-.8298.15716-1.61107.50709-2.28081 1.0216-1.72937 1.42472-2.71556 3.55963-2.6792 5.8v.6144c-.00291 2.03723-.48119 4.04573-1.3968 5.86563-.06207.1238-.05562.271.01705.389.07267.1179.20121.1899.33975.1902h14.40003c.1388-.0002.2675-.0722.3403-.1904.0727-.1182.0789-.2657.0165-.3896z"/></svg>
