<svg viewBox="0 0 16 16" xmlns="http://www.w3.org/2000/svg">
<path fill-rule="evenodd" clip-rule="evenodd" d="M15.839 13.34L9.24928 0.755543C9.00587 0.291039 8.52477 0 8.00035 0C7.47593 0 6.99484 0.291039 6.75142 0.755543L0.160976 13.34C-0.0679887 13.7771 -0.051781 14.3021 0.203711 14.7243C0.459202 15.1465 0.916798 15.4044 1.41026 15.4043H14.5897C15.0832 15.4044 15.5408 15.1465 15.7963 14.7243C16.0518 14.3021 16.068 13.7771 15.839 13.34ZM7.29487 5.17812C7.29487 4.78875 7.61052 4.47311 7.99988 4.47311C8.38925 4.47311 8.7049 4.78875 8.7049 5.17812V9.40819C8.7049 9.79755 8.38925 10.1132 7.99988 10.1132C7.61052 10.1132 7.29487 9.79755 7.29487 9.40819V5.17812ZM8.01541 13.2927H8.03515C8.31511 13.2882 8.58141 13.171 8.77382 12.9675C8.96622 12.7641 9.06846 12.4917 9.05742 12.2119C9.03472 11.6348 8.56059 11.1784 7.98298 11.1777H7.96324C7.68397 11.1828 7.41848 11.3 7.22649 11.5028C7.0345 11.7057 6.93212 11.9772 6.94238 12.2564C6.96431 12.8336 7.43771 13.2909 8.01541 13.2927Z" />
</svg>
