<svg xmlns="http://www.w3.org/2000/svg" viewBox="0 0 21 24"><path d="M3.05 5.25h9.9a.5.5 0 00.5-.6 3 3 0 00-2.95-2.4h-.83a.25.25 0 01-.23-.32 1.5 1.5 0 10-2.87 0 .25.25 0 01-.24.32H5.5a3 3 0 00-2.94 2.4.5.5 0 00.5.6z"/><path d="M9.25 6.75H14a6 6 0 01.24 12A.25.25 0 0014 19v1.25c0 .6-.35 1.13-.9 1.37a.25.25 0 00-.1.38l.3.4a1 1 0 11-1.6 1.2l-1.24-1.65a.5.5 0 00-.4-.2H5.94a.5.5 0 00-.4.2L4.3 23.6a1 1 0 01-1.6-1.2L3 22a.25.25 0 00-.1-.38 1.5 1.5 0 01-.9-1.37V10.16a.5.5 0 00-.15-.35L.32 8.48A1 1 0 011 6.75h5.75c.28 0 .5.22.5.5V15a.5.5 0 01-.5.5H5A.75.75 0 005 17h6a.75.75 0 000-1.5H9.25a.5.5 0 01-.5-.5V7.25c0-.28.22-.5.5-.5zm4.92 9.84c.11.1.26.14.4.12a4 4 0 000-7.92.5.5 0 00-.57.5v6.92c0 .14.06.28.17.38z"/></svg>
