<svg viewBox="0 0 24 25" xmlns="http://www.w3.org/2000/svg"><path d="m22.924 12.1748-2.757-2.758c-.3791-.37965-.9903-.39245-1.385-.029l-3.363 3.1c-.0735.0682-.1806.0859-.2721.0449-.0916-.0409-.1498-.1326-.1479-.2329v-11c0-.55228-.4477-.999995-1-.999995h-3.99996c-.55229 0-1 .447715-1 .999995v11.016c-.00063.0991-.0595.1886-.15028.2283-.09077.0398-.19645.0224-.26972-.0443l-3.36-3.109c-.39417-.36555-1.00682-.35407-1.387.026l-2.758 2.758c-.390385.3905-.390385 1.0235 0 1.414l10.21896 10.217c.3905.3904 1.0235.3904 1.414 0l10.217-10.217c.3904-.3905.3904-1.0235 0-1.414z"/></svg>