<svg viewBox="0 0 20 20" xmlns="http://www.w3.org/2000/svg"><path clip-rule="evenodd" d="m0 10c0-5.52285 4.47715-10 10-10 5.5204.00597071 9.994 4.47963 10 10 0 5.5228-4.4772 10-10 10-5.52285 0-10-4.4772-10-10zm15.7117.2942c.1626-.1627.1626-.42649 0-.5892l-5.6492-5.64917c-.16271-.16266-.42646-.16266-.58917 0l-1.07416 1.07417c-.16266.16271-.16266.42646 0 .58917l2.67663 2.67583c.0592.05967.0767.14902.0445.2266-.0323.07759-.108.12822-.192.1284h-6.15997c-.23012 0-.41666.18655-.41666.41667v1.66503c0 .2301.18654.4166.41666.4166h6.15997c.084.0002.1597.0508.192.1284.0322.0776.0147.167-.0445.2266l-2.67663 2.6767c-.16266.1627-.16266.4265 0 .5892l1.07416 1.075c.16271.1626.42646.1626.58917 0z" fill-rule="evenodd"/></svg>