<svg viewBox="0 0 12 12" fill="none" xmlns="http://www.w3.org/2000/svg">
    <path d="M11.274 5.28046H2.7185C2.66669 5.27996 2.62052 5.24769 2.60226 5.19921C2.584 5.15073 2.5974 5.09601 2.636 5.06146L6.9545 1.26146C7.23669 0.9954 7.25742 0.553628 7.0014 0.262301C6.74538 -0.0290267 6.3046 -0.0652119 6.0045 0.18046L0.413996 5.09996C0.155695 5.32776 0.00772095 5.65556 0.00772095 5.99996C0.00772095 6.34436 0.155695 6.67216 0.413996 6.89996L6.0035 11.8185C6.30374 12.061 6.74179 12.0236 6.99663 11.7338C7.25146 11.4439 7.23244 11.0047 6.9535 10.738L2.635 6.93796C2.5964 6.90341 2.583 6.84869 2.60126 6.80021C2.61952 6.75173 2.66569 6.71946 2.7175 6.71896H11.274C11.6641 6.70868 11.975 6.38947 11.975 5.99921C11.975 5.60895 11.6641 5.28974 11.274 5.27946V5.28046Z" />
</svg>
