<svg viewBox="0 0 17 16" xmlns="http://www.w3.org/2000/svg"><path clip-rule="evenodd" d="m8.75781-.00000035c4.41829.00000019 7.99999 3.58172035 7.99999 8.00000035-.0048 4.4163-3.5837 7.9952-7.99999 8-4.41828 0-7.999998-3.5817-7.999998-8 0-4.41828 3.581718-8.00000054 7.999998-8.00000035zm-.67 12.17530035.2.2c.12477.1244.29439.1932.47053.1909.17613-.0022.34393-.0754.46547-.2029l3.73999-3.8833c.2543-.27041.2561-.69149.004-.964l-3.67665-3.88133c-.12052-.12829-.28799-.2021-.46398-.20449-.176-.00238-.34541.06685-.46936.19182l-.2.2c-.25573.26702-.26585.68492-.02333.964l1.53333 1.71533c.244.27334.144.49734-.22266.49734h-4.33334c-.36819 0-.66667.29847-.66667.66666v.66667c0 .36819.29848.66667.66667.66667h4.32333c.36667 0 .464.22466.216.49133l-1.584 1.7233c-.24785.276-.23881.697.02067.962z" fill-rule="evenodd"/></svg>
