<svg width="179" height="110" viewBox="0 0 179 110" fill="none" xmlns="http://www.w3.org/2000/svg">
<path d="M0.0136719 86H178.006V106C178.006 108.209 176.215 110 174.006 110H4.01349C1.80445 110 0.0136719 108.209 0.0136719 106V86Z" fill="#F5F5F5"/>
<path d="M16.0251 93.6152H17.4782L14.4783 102.182H13.0018L10.0137 93.6152H11.455L13.242 98.9414C13.3358 99.1953 13.4354 99.5234 13.5409 99.9258C13.6463 100.324 13.7147 100.621 13.7459 100.816C13.7967 100.52 13.8748 100.176 13.9803 99.7852C14.0858 99.3945 14.1717 99.1055 14.2381 98.918L16.0251 93.6152Z" fill="#666666"/>
<path d="M24.2103 98.9297C24.2103 99.9883 23.9388 100.814 23.3959 101.408C22.8529 102.002 22.0971 102.299 21.1284 102.299C20.523 102.299 19.9878 102.162 19.523 101.889C19.0582 101.615 18.7008 101.223 18.4508 100.711C18.2008 100.199 18.0758 99.6055 18.0758 98.9297C18.0758 97.8789 18.3453 97.0586 18.8844 96.4688C19.4234 95.8789 20.1831 95.584 21.1636 95.584C22.101 95.584 22.8432 95.8867 23.39 96.4922C23.9369 97.0938 24.2103 97.9062 24.2103 98.9297ZM19.4937 98.9297C19.4937 100.426 20.0464 101.174 21.1518 101.174C22.2455 101.174 22.7924 100.426 22.7924 98.9297C22.7924 97.4492 22.2416 96.709 21.1401 96.709C20.562 96.709 20.1421 96.9004 19.8804 97.2832C19.6226 97.666 19.4937 98.2148 19.4937 98.9297Z" fill="#666666"/>
<path d="M30.3682 102.182L30.1749 101.332H30.1046C29.9132 101.633 29.6397 101.869 29.2843 102.041C28.9327 102.213 28.5304 102.299 28.0773 102.299C27.2922 102.299 26.7063 102.104 26.3196 101.713C25.9329 101.322 25.7395 100.73 25.7395 99.9375V95.7012H27.1281V99.6973C27.1281 100.193 27.2297 100.566 27.4328 100.816C27.6359 101.062 27.9543 101.186 28.3878 101.186C28.9659 101.186 29.3897 101.014 29.6593 100.67C29.9327 100.322 30.0694 99.7422 30.0694 98.9297V95.7012H31.4521V102.182H30.3682Z" fill="#666666"/>
<path d="M36.0281 102.299C35.0477 102.299 34.3016 102.014 33.7899 101.443C33.2821 100.869 33.0282 100.047 33.0282 98.9766C33.0282 97.8867 33.2939 97.0488 33.8251 96.4629C34.3602 95.877 35.1317 95.584 36.1394 95.584C36.823 95.584 37.4382 95.7109 37.985 95.9648L37.5691 97.0723C36.987 96.8457 36.5066 96.7324 36.1277 96.7324C35.0067 96.7324 34.4461 97.4766 34.4461 98.9648C34.4461 99.6914 34.5848 100.238 34.8621 100.605C35.1434 100.969 35.5535 101.15 36.0926 101.15C36.7058 101.15 37.2859 100.998 37.8327 100.693V101.895C37.5866 102.039 37.323 102.143 37.0417 102.205C36.7644 102.268 36.4265 102.299 36.0281 102.299Z" fill="#666666"/>
<path d="M45.057 102.182H43.6742V98.1973C43.6742 97.6973 43.5727 97.3242 43.3696 97.0781C43.1704 96.832 42.852 96.709 42.4145 96.709C41.8364 96.709 41.4107 96.8828 41.1372 97.2305C40.8677 97.5742 40.733 98.1523 40.733 98.9648V102.182H39.3561V93.0645H40.733V95.3789C40.733 95.75 40.7095 96.1465 40.6627 96.5684H40.7505C40.938 96.2559 41.1978 96.0137 41.5298 95.8418C41.8657 95.6699 42.2563 95.584 42.7016 95.584C44.2719 95.584 45.057 96.375 45.057 97.957V102.182Z" fill="#666666"/>
<path d="M49.8029 102.299C48.7951 102.299 48.0061 102.006 47.4358 101.42C46.8694 100.83 46.5862 100.02 46.5862 98.9883C46.5862 97.9297 46.8499 97.0977 47.3772 96.4922C47.9045 95.8867 48.6291 95.584 49.5509 95.584C50.4064 95.584 51.0821 95.8438 51.5782 96.3633C52.0742 96.8828 52.3223 97.5977 52.3223 98.5078V99.252H48.0041C48.0237 99.8809 48.1936 100.365 48.5139 100.705C48.8342 101.041 49.2853 101.209 49.8673 101.209C50.2501 101.209 50.6056 101.174 50.9337 101.104C51.2657 101.029 51.6211 100.908 52 100.74V101.859C51.6641 102.02 51.3243 102.133 50.9805 102.199C50.6368 102.266 50.2443 102.299 49.8029 102.299ZM49.5509 96.627C49.1134 96.627 48.7619 96.7656 48.4963 97.043C48.2346 97.3203 48.0783 97.7246 48.0276 98.2559H50.9688C50.961 97.7207 50.8321 97.3164 50.5821 97.043C50.3321 96.7656 49.9884 96.627 49.5509 96.627Z" fill="#666666"/>
<path d="M57.1736 95.584C57.451 95.584 57.6795 95.6035 57.8591 95.6426L57.7244 96.9258C57.5291 96.8789 57.326 96.8555 57.115 96.8555C56.5643 96.8555 56.117 97.0352 55.7733 97.3945C55.4335 97.7539 55.2636 98.2207 55.2636 98.7949V102.182H53.8867V95.7012H54.9647L55.1464 96.8438H55.2167C55.4315 96.457 55.7108 96.1504 56.0545 95.9238C56.4022 95.6973 56.7752 95.584 57.1736 95.584Z" fill="#666666"/>
<path d="M58.861 101.449C58.861 101.164 58.9353 100.945 59.0837 100.793C59.2321 100.641 59.447 100.564 59.7282 100.564C60.0133 100.564 60.2301 100.645 60.3786 100.805C60.527 100.961 60.6012 101.176 60.6012 101.449C60.6012 101.727 60.525 101.947 60.3727 102.111C60.2243 102.271 60.0094 102.352 59.7282 102.352C59.447 102.352 59.2321 102.271 59.0837 102.111C58.9353 101.951 58.861 101.73 58.861 101.449Z" fill="#666666"/>
<path d="M65.6576 102.299C64.8373 102.299 64.2006 102.004 63.7475 101.414H63.6655C63.7202 101.961 63.7475 102.293 63.7475 102.41V105.064H62.3707V95.7012H63.4839C63.5151 95.8223 63.5796 96.1113 63.6772 96.5684H63.7475C64.1772 95.9121 64.8217 95.584 65.681 95.584C66.4896 95.584 67.1185 95.877 67.5677 96.4629C68.0208 97.0488 68.2473 97.8711 68.2473 98.9297C68.2473 99.9883 68.0169 100.814 67.556 101.408C67.099 102.002 66.4662 102.299 65.6576 102.299ZM65.3236 96.709C64.7768 96.709 64.3764 96.8691 64.1225 97.1895C63.8725 97.5098 63.7475 98.0215 63.7475 98.7246V98.9297C63.7475 99.7188 63.8725 100.291 64.1225 100.646C64.3725 100.998 64.7807 101.174 65.3471 101.174C65.8236 101.174 66.1908 100.979 66.4486 100.588C66.7064 100.197 66.8353 99.6406 66.8353 98.918C66.8353 98.1914 66.7064 97.6426 66.4486 97.2715C66.1947 96.8965 65.8197 96.709 65.3236 96.709Z" fill="#666666"/>
<path d="M72.0323 102.299C71.2238 102.299 70.5929 102.006 70.1398 101.42C69.6867 100.834 69.4602 100.012 69.4602 98.9531C69.4602 97.8906 69.6887 97.0645 70.1457 96.4746C70.6066 95.8809 71.2433 95.584 72.0558 95.584C72.9073 95.584 73.5557 95.8984 74.001 96.5273H74.0713C74.0049 96.0625 73.9717 95.6953 73.9717 95.4258V93.0645H75.3544V102.182H74.2764L74.0361 101.332H73.9717C73.5303 101.977 72.8838 102.299 72.0323 102.299ZM72.4014 101.186C72.9678 101.186 73.3799 101.027 73.6377 100.711C73.8955 100.391 74.0283 99.873 74.0361 99.1582V98.9648C74.0361 98.1484 73.9033 97.5684 73.6377 97.2246C73.3721 96.8809 72.9561 96.709 72.3897 96.709C71.9054 96.709 71.5323 96.9062 71.2706 97.3008C71.0089 97.6914 70.8781 98.25 70.8781 98.9766C70.8781 99.6953 71.005 100.244 71.2589 100.623C71.5128 100.998 71.8937 101.186 72.4014 101.186Z" fill="#666666"/>
<path d="M80.5749 96.7441H78.9929V102.182H77.6102V96.7441H76.5438V96.0996L77.6102 95.6777V95.2559C77.6102 94.4902 77.7899 93.9238 78.1492 93.5566C78.5086 93.1855 79.0574 93 79.7956 93C80.28 93 80.7565 93.0801 81.2253 93.2402L80.862 94.2832C80.5222 94.1738 80.198 94.1191 79.8894 94.1191C79.5769 94.1191 79.3484 94.2168 79.2039 94.4121C79.0632 94.6035 78.9929 94.8926 78.9929 95.2793V95.7012H80.5749V96.7441Z" fill="#666666"/>
<path d="M0.0139885 18.8235C0.0139885 13.9504 2.68221e-07 10 0.00858859 10H168.006C173.529 10 178.006 10 178.006 10V85H0.0139885V18.8235Z" fill="#FAFBFC"/>
<path d="M0.0136719 4C0.0136719 1.79086 2.21201 0 4.92379 0H172.005C175.319 0 178.006 2.68629 178.006 6V10H0.0136719V4Z" fill="#336699"/>
<path d="M10.0137 18H107.009V20H10.0137V18Z" fill="#C4C4C4"/>
<path d="M10.0137 24H107.009V26H10.0137V24Z" fill="#C4C4C4"/>
<path d="M10.0137 30H107.009V32H10.0137V30Z" fill="#C4C4C4"/>
<path d="M10.0137 38H107.009V76H10.0137V38Z" fill="#C4C4C4" fill-opacity="0.25"/>
</svg>
