<svg viewBox="0 0 24 24" xmlns="http://www.w3.org/2000/svg"><path d="m3.456 15.115a.25.25 0 0 0 -.216-.115.254.254 0 0 0 -.209.124l-2.4 4.14a1 1 0 0 0 1.032 1.487l2.391-.405.833 2.288a1 1 0 0 0 1.8.168l1.974-3.34a.25.25 0 0 0 -.131-.363 10.283 10.283 0 0 1 -5.074-3.984z"/><path d="m23.366 19.266-2.412-4.166a.25.25 0 0 0 -.425-.012 10.3 10.3 0 0 1 -5.069 4 .248.248 0 0 0 -.15.15.251.251 0 0 0 .02.212l1.981 3.353a1 1 0 0 0 1.8-.171l.832-2.287 2.392.405a1 1 0 0 0 1.031-1.488z"/><path d="m20.734 9.455a8.75 8.75 0 1 0 -8.75 8.75 8.761 8.761 0 0 0 8.75-8.75zm-5.258 3.424a.6.6 0 0 1 -.849.745l-2.52-1.42a.251.251 0 0 0 -.246 0l-2.52 1.42a.6.6 0 0 1 -.849-.745l1.026-2.359a.252.252 0 0 0 -.054-.278l-1.852-1.826a.558.558 0 0 1 .388-.974h2.118a.25.25 0 0 0 .225-.141l1.1-2.268a.6.6 0 0 1 1.071 0l1.106 2.267a.25.25 0 0 0 .225.141h2.118a.558.558 0 0 1 .393.974l-1.856 1.827a.25.25 0 0 0 -.054.278z"/></svg>