<svg xmlns="http://www.w3.org/2000/svg" viewBox="0 0 24 24"><path d="M15.72 13.26c.37-.34.49-.9.29-1.38l-1.07-2.55a.26.26 0 01.05-.28l1.93-1.94c.34-.34.45-.86.28-1.31-.18-.45-.6-.73-1.07-.72h-2.17a.24.24 0 01-.22-.15l-1.16-2.66-.01-.02c-.2-.41-.6-.67-1.05-.67-.45 0-.86.27-1.06.69L9.3 4.93a.24.24 0 01-.22.15H6.9c-.46-.01-.89.27-1.07.72-.17.46-.06.98.28 1.31l1.93 1.94c.07.07.1.18.05.28l-1.07 2.55c-.2.48-.08 1.04.3 1.38.37.36.92.42 1.36.16l2.71-1.6a.23.23 0 01.24 0l2.7 1.6c.45.26 1 .2 1.38-.16zM8.94 19.14a1 1 0 00-.6-.79.93.93 0 00-.94.15c-.27.22-.4.57-.36.92l.26 1.86a.25.25 0 01-.2.29l-1.79.26a1 1 0 00-.82 1.06c.04.52.46.93.96.93.1 0-.08.02 2.63-.38.37-.06.72-.27.94-.59.23-.32.33-.72.28-1.11l-.36-2.6z"/><path d="M5.97 20.36c.3-.25.5-.6.54-1l.22-1.96c.05-.36-.09-.72-.36-.94a.93.93 0 00-.97-.12 1 1 0 00-.57.82l-.14 1.21c-.01.07-.04.13-.1.17a.23.23 0 01-.17.05l-1.15-.15a.97.97 0 00-1.05.88 1 1 0 00.82 1.1l1.87.25c.38.05.76-.07 1.06-.31zM3.8 17.19c.35-.16.62-.45.76-.82l.61-1.58c.13-.33.08-.71-.13-1a.94.94 0 00-1.65.25l-.34.89a.24.24 0 01-.31.13l-.84-.35a.95.95 0 00-1.23.56c-.2.5.03 1.08.5 1.3l1.52.63c.36.15.75.15 1.1-.01zM2.6 13.88c.37-.06.71-.27.94-.59l.87-1.2c.26-.38.23-.9-.06-1.24a.93.93 0 00-1.18-.22l-.22-1.91a1 1 0 00-.57-.8.93.93 0 00-.95.1c-.28.22-.42.57-.38.92l.22 2.02a.93.93 0 00-1.08.33c-.32.44-.23 1.07.2 1.4l1.14.9c.3.24.69.34 1.06.29zM17.73 21.83l-1.78-.26a.25.25 0 01-.2-.29l.25-1.86a1 1 0 00-.82-1.13.97.97 0 00-1.08.85l-.36 2.6c-.05.4.05.8.28 1.12.22.31.57.53.94.58 2.7.4 2.53.38 2.63.38.5 0 .92-.4.96-.93a1 1 0 00-.82-1.06z"/><path d="M19.78 18.45l-1.16.14a.23.23 0 01-.17-.05.25.25 0 01-.1-.17l-.13-1.2a.97.97 0 00-1.07-.86 1 1 0 00-.84 1.1l.23 1.95c.1.82.8 1.4 1.6 1.3l1.87-.23a1 1 0 00.82-1.11.97.97 0 00-1.05-.87zM21.14 14.71l-.84.36a.24.24 0 01-.31-.14l-.34-.89a.95.95 0 00-1.25-.55c-.5.2-.73.79-.54 1.3l.61 1.58c.15.37.42.66.78.82.35.16.75.16 1.1.01l1.51-.64c.48-.21.71-.78.52-1.29a.95.95 0 00-1.24-.56zM22.85 11.3a.93.93 0 00-1.08-.34L22 8.94c.04-.35-.1-.7-.38-.91a.93.93 0 00-.95-.12 1 1 0 00-.57.8l-.22 1.92a.93.93 0 00-1.19.21c-.3.36-.32.88-.05 1.26l.87 1.2c.23.31.57.52.95.58.37.06.76-.05 1.06-.28l1.15-.9a1.03 1.03 0 00.19-1.4z"/></svg>
