<svg enable-background="new 0 0 20 20" viewBox="0 0 20 20" xmlns="http://www.w3.org/2000/svg"><path d="m12.9 4.7c0 .1 0 .1.1.1h.2c.4-.1.8-.1 1.2 0h.2c.1 0 .1-.1.1-.2-.3-2.2-2.2-3.8-4.5-3.8s-4.3 1.6-4.5 3.8c0 .1 0 .1.1.2 0 0 .1.1.2 0 .4-.1.8-.1 1.2 0h.2s.1-.1.1-.1c-.1-1.3 1.1-2.3 2.5-2.3s2.6 1 2.9 2.3zm7.1 12.3-.5-7.2c-.1-1.5-1.4-2.6-2.9-2.6h-1.2c-.2 0-.4-.1-.4-.3-.2-.5-.7-.9-1.2-.9-.6 0-1.1.4-1.2.9 0 .2-.2.3-.4.3h-4.3c-.2 0-.4-.1-.4-.3-.2-.5-.7-.9-1.3-.9-.5 0-1 .4-1.2.9 0 .2-.2.3-.4.3h-1.2c-1.5 0-2.8 1.1-2.9 2.6l-.5 7.2c-.1.8.2 1.5.8 2.1.5.6 1.3.9 2.1.9h2.1c.2 0 .4-.2.4-.4v-10.8c0-.2.2-.4.4-.4h.8c.2 0 .4.2.4.4v10.8c0 .2.2.4.4.4h5c.2 0 .4-.2.4-.4v-10.8c0-.2.2-.4.4-.4h.8c.2 0 .4.2.4.4v10.8c0 .2.2.4.4.4h2.1c.8 0 1.6-.3 2.1-.9.8-.6 1-1.3 1-2.1z"/></svg>