<svg viewBox="0 0 16 16" xmlns="http://www.w3.org/2000/svg">
<path fill-rule="evenodd" clip-rule="evenodd" d="M12.8333 7.77947V15.3596C12.8333 15.7131 12.5349 15.9996 12.1667 15.9996H0.666667C0.298477 15.9996 0 15.7131 0 15.3596V14.5571C0 14.2036 0.298477 13.9171 0.666667 13.9171H11.1673C11.3514 13.9171 11.5007 13.7738 11.5007 13.5971V7.70907C11.5006 7.63569 11.4487 7.57168 11.3747 7.55355C9.57043 7.08479 8.42228 5.38816 8.7094 3.61508C8.99652 1.84199 10.627 0.560043 12.4943 0.639218C14.3617 0.718393 15.8681 2.13334 15.9912 3.92383C16.1144 5.71431 14.8149 7.30716 12.9747 7.62139C12.8937 7.63389 12.8339 7.70072 12.8333 7.77947ZM12.9333 2.51163L12.0207 3.67963H12.02C11.9128 3.81682 11.89 3.99849 11.9602 4.15619C12.0304 4.31389 12.1828 4.42368 12.3602 4.44419C12.5375 4.4647 12.7128 4.39282 12.82 4.25563L13.7333 3.08763C13.8405 2.95044 13.8633 2.76878 13.7931 2.61108C13.723 2.45338 13.5705 2.34359 13.3931 2.32308C13.2158 2.30257 13.0405 2.37444 12.9333 2.51163Z" />
<path fill-rule="evenodd" clip-rule="evenodd" d="M4.66602 4.95996H5.33268C6.43725 4.95996 7.33268 5.81957 7.33268 6.87996V7.03996C7.33268 7.12833 7.4073 7.19996 7.49935 7.19996H8.33268C8.88497 7.19996 9.33268 7.62977 9.33268 8.15996V12C9.33268 12.5302 8.88497 12.96 8.33268 12.96H1.66602C1.11373 12.96 0.666016 12.5302 0.666016 12V8.15996C0.666016 7.62977 1.11373 7.19996 1.66602 7.19996H2.49935C2.5914 7.19996 2.66602 7.12833 2.66602 7.03996V6.87996C2.66602 5.81957 3.56145 4.95996 4.66602 4.95996ZM5.83268 7.19996C5.92473 7.19996 5.99935 7.12833 5.99935 7.03996V6.87996C5.99935 6.5265 5.70087 6.23996 5.33268 6.23996H4.66602C4.29783 6.23996 3.99935 6.5265 3.99935 6.87996V7.03996C3.99935 7.12833 4.07397 7.19996 4.16602 7.19996H5.83268Z"/>
</svg>
