<svg viewBox="0 0 20 20" xmlns="http://www.w3.org/2000/svg">
<path d="M17.0827 3.33301H16.2493C16.1343 3.33301 16.041 3.42628 16.041 3.54134V11.1397C16.0412 11.2169 16.084 11.2876 16.1522 11.3236C16.2205 11.3596 16.3031 11.3549 16.3668 11.3113C17.3125 10.5514 18.6206 10.4297 19.6902 11.0022C19.7548 11.0374 19.8332 11.036 19.8965 10.9986C19.9599 10.9612 19.9989 10.8932 19.9993 10.8197V6.24967C19.9993 5.47613 19.6921 4.73426 19.1451 4.18728C18.5981 3.6403 17.8562 3.33301 17.0827 3.33301Z" fill-opacity="0.9"/>
<path fill-rule="evenodd" clip-rule="evenodd" d="M8.18649 14.7425C8.18709 14.7591 8.18002 14.7751 8.16732 14.7858L6.67565 16.1292C6.40747 16.4594 6.25834 16.8704 6.25232 17.2958C6.25005 17.4093 6.15744 17.5 6.04399 17.5H5.41732C5.362 17.5002 5.30888 17.4783 5.26976 17.4392C5.23064 17.4001 5.20877 17.347 5.20899 17.2917V3.54167C5.20899 3.42661 5.30226 3.33333 5.41732 3.33333H5.83399C5.88931 3.33356 5.94243 3.31168 5.98155 3.27256C6.02067 3.23344 6.04254 3.18032 6.04232 3.125V2.5C6.04644 1.121 7.16332 0.0041185 8.54232 0H11.459C12.838 0.0041185 13.9549 1.121 13.959 2.5V3.125C13.9588 3.18032 13.9806 3.23344 14.0198 3.27256C14.0589 3.31168 14.112 3.33356 14.1673 3.33333H14.584C14.6394 3.33311 14.6926 3.35496 14.7318 3.39406C14.7711 3.43315 14.7932 3.48627 14.7932 3.54167V11.7958C14.7931 11.864 14.7596 11.9278 14.7036 11.9666C14.6477 12.0055 14.5762 12.0146 14.5123 11.9908L11.0015 10.6867C10.3742 10.4545 9.67206 10.5549 9.13482 10.9533L8.28649 11.5767C7.79377 11.9354 7.49233 12.4999 7.46828 13.1089C7.44424 13.7179 7.70025 14.3044 8.16315 14.7008C8.17727 14.7101 8.18598 14.7256 8.18649 14.7425ZM8.54232 1.66667C8.08208 1.66667 7.70899 2.03976 7.70899 2.5V3.125C7.70877 3.18032 7.73064 3.23344 7.76976 3.27256C7.80888 3.31168 7.862 3.33356 7.91732 3.33333H12.084C12.1393 3.33356 12.1924 3.31168 12.2315 3.27256C12.2707 3.23344 12.2925 3.18032 12.2923 3.125V2.5C12.2923 2.03976 11.9192 1.66667 11.459 1.66667H8.54232Z" />
<path d="M0 6.24967V14.583C0 16.1938 1.30584 17.4997 2.91667 17.4997H3.75C3.80532 17.4999 3.85844 17.478 3.89756 17.4389C3.93668 17.3998 3.95856 17.3467 3.95833 17.2913V3.54134C3.95833 3.42628 3.86506 3.33301 3.75 3.33301H2.91667C1.30584 3.33301 0 4.63884 0 6.24967Z" fill-opacity="0.9"/>
<path d="M7.64885 16.9074C7.53486 17.0461 7.48115 17.2246 7.49969 17.4032C7.52084 17.5879 7.61658 17.7559 7.76469 17.8682L10.5705 19.8332C10.8607 20.0401 11.2471 20.0513 11.5489 19.8615L19.1847 15.1207C19.6986 14.7965 20.0067 14.2282 19.998 13.6207C19.9982 13.4282 19.9652 13.237 19.9005 13.0557C19.7031 12.4861 19.2264 12.0582 18.6389 11.9232C18.1843 11.8192 17.707 11.9098 17.3222 12.1732L15.333 13.5332C15.2772 13.5713 15.2064 13.58 15.143 13.5565L10.5705 11.854C10.3368 11.768 10.0755 11.8056 9.87552 11.954L9.01469 12.5924C8.97053 12.6279 8.92903 12.6666 8.89052 12.7082C8.76262 12.8646 8.70324 13.066 8.72582 13.2668C8.74841 13.4676 8.85106 13.6508 9.01052 13.7749L9.03719 13.794L11.7497 15.4749C11.8094 15.5118 11.8465 15.5764 11.8483 15.6466C11.8502 15.7168 11.8165 15.7832 11.7589 15.8232L11.0014 16.3515C10.9345 16.3981 10.8467 16.4017 10.7764 16.3607C10.7389 16.3382 9.59135 15.6565 9.55219 15.6449C9.33244 15.5774 9.0935 15.6257 8.91719 15.7732L7.64885 16.9074Z" fill-opacity="0.9"/>
</svg>
