<svg viewBox="0 0 80 69.9" xmlns="http://www.w3.org/2000/svg"><path d="m76 21.9c-.5 0-1-.1-1.4-.3l-34.6-13.2-34.5 13.2c-2.1.8-4.4-.2-5.2-2.3s.2-4.4 2.3-5.2l36-13.8c.9-.4 2-.4 2.9 0l36 13.8c2.1.8 3.1 3.1 2.3 5.2-.7 1.6-2.2 2.6-3.8 2.6z"/><circle cx="16.5" cy="38.3" r="7.6"/><path d="m30.6 56.8h-18.2c-2.2 0-4-1.8-4-4s1.8-4 4-4h14.2v-14.2c0-2.2 1.8-4 4-4s4 1.8 4 4v18.2c.1 2.2-1.7 4-4 4z"/><path d="m71.1 47.6v9.2h-33.6v-18.5h21.1c6.9 0 12.5 1.6 12.5 9.3z"/><path d="m72.8 69.9h-65.6c-2.2 0-4-1.8-4-4s1.8-4 4-4h65.6c2.2 0 4 1.8 4 4 .1 2.2-1.8 4-4 4z"/></svg>