<svg fill="none" xmlns="http://www.w3.org/2000/svg" viewBox="0 0 14 14"><path d="M3.5 10.35a1.46 1.46 0 1 0 0-2.91 1.46 1.46 0 0 0 0 2.91Z"/><path d="M13.42 8.6a.58.58 0 0 0-.59.59v1.75a.3.3 0 0 1-.29.29H1.46a.3.3 0 0 1-.3-.3v-3.2a.58.58 0 0 0-1.16 0v5.69a.58.58 0 1 0 1.17 0v-.15c0-.16.13-.3.29-.3h11.08c.16 0 .3.14.3.3v.15a.58.58 0 0 0 1.16 0V9.19a.58.58 0 0 0-.58-.59Z"/><path d="M6.12 10.35h5.55a.3.3 0 0 0 .29-.29v-.58a1.46 1.46 0 0 0-1.46-1.46H6.42a.58.58 0 0 0-.59.58v1.46c0 .16.13.3.3.3Z"/><path fill-rule="evenodd" clip-rule="evenodd" d="M10.8 6.42a3.2 3.2 0 1 0 0-6.42 3.2 3.2 0 0 0 0 6.42Zm-.15-5.4a.58.58 0 1 1 0 1.17.58.58 0 0 1 0-1.17Zm-.73 2.04c0 .24.2.44.43.44h.15v.88h-.15a.44.44 0 0 0 0 .87h1.17a.44.44 0 0 0 0-.88h-.15V3.35c0-.4-.32-.72-.72-.73h-.3c-.24 0-.43.2-.43.44Z"/></svg>