<svg xmlns="http://www.w3.org/2000/svg" viewBox="0 0 20 14"><path d="M19.173 5.84453c-.5324 0-.7804.4798-.7804.63515v.57176c0 .55228-.4477 1-1 1H2.66171c-.55229 0-1-.44772-1-1V1.50676c0-.15534-.16508-.78801-.86789-.78801C.13448.71875 0 1.35142 0 1.50676V13.1701c0 .165.28315.7098.82798.7098.57208 0 .83373-.5542.83373-.7098V11.309H18.3926v1.8611c0 .1556.2386.7115.8461.7115.5885 0 .7613-.5418.7613-.6974V6.48832c0-.15534-.2385-.64379-.827-.64379z" /><path d="M6.16676 5.51673c0 1.04405-.84609 1.89027-1.89026 1.89027-1.04392 0-1.89027-.84622-1.89027-1.89027 0-1.04392.84635-1.89027 1.89027-1.89027 1.04417 0 1.89026.84635 1.89026 1.89027zM7.1453 7.40733l9.8656-.00013c.1556 0 .2815-.12606.2815-.28153-.0022-2.15344-1.7046-2.94126-3.9012-3.2746l-6.2459-.62646c-.15535 0-.28153.12618-.28153.28153V7.1258c0 .15547.12618.28153.28153.28153z" /></svg>
