<svg viewBox="0 0 15 24" xmlns="http://www.w3.org/2000/svg"><path d="M11.76 21a.24.24 0 0 0 .205-.119.257.257 0 0 0 .01-.243l-1.351-2.809a1.437 1.437 0 0 0-1.3-.829H3.76a1.437 1.437 0 0 0-1.296.829l-1.351 2.809a.258.258 0 0 0 .009.241.24.24 0 0 0 .202.121H11.76ZM1.233 22a.492.492 0 0 0-.483.5c0 .828.648 1.5 1.448 1.5h8.69c.8 0 1.448-.672 1.448-1.5 0-.276-.216-.5-.483-.5H1.233Z"/><path fill-rule="evenodd" clip-rule="evenodd" d="M14.75 8c0-1.657-1.296-3-2.896-3h-.29a.238.238 0 0 1-.179-.082.255.255 0 0 1-.061-.192c.027-.241.043-.483.047-.726 0-1.105-.865-2-1.931-2H7.992a.237.237 0 0 1-.171-.073.255.255 0 0 1-.07-.177v-.5C7.75.56 7.21 0 6.542 0c-.666 0-1.206.56-1.206 1.25v.5c0 .066-.026.13-.071.177a.237.237 0 0 1-.17.073h-1.45c-1.066 0-1.93.895-1.93 2-.035.162.869 9.383.869 9.383.116 1.337 1.195 2.362 2.49 2.367h2.936c1.117-.005 2.097-.773 2.404-1.886a.486.486 0 0 1 .465-.364h.974c1.6 0 2.896-1.343 2.896-3V8ZM3.287 5.558a.512.512 0 0 1 .119-.39.476.476 0 0 1 .36-.168h5.55c.138 0 .27.06.362.166a.512.512 0 0 1 .12.391l-.25 2.25a.489.489 0 0 1-.482.443H4.018a.489.489 0 0 1-.483-.442l-.248-2.25Zm8.566 5.942c.533 0 .965-.448.965-1V8c0-.552-.432-1-.965-1h-.54a.246.246 0 0 0-.238.226l-.379 4c-.007.07.015.14.06.192a.24.24 0 0 0 .18.082h.917Z"/></svg>