<svg viewBox="0 0 16 14" xmlns="http://www.w3.org/2000/svg"><path clip-rule="evenodd" d="m10.56 3.13334c.0006.0754.0496.14101.1197.16.4936.13137.8392.59402.8403 1.12467v1.33333c-.0013.53058-.3469.99309-.8403 1.12467-.0705.01913-.1197.08545-.1197.16133v2.71134c-.0017.67922-.3359 1.31062-.8864 1.67462-.04598.0308-.07373.0838-.0736.1407v.854c0 .6443-.50144 1.1667-1.12 1.1667s-1.12-.5224-1.12-1.1667v-.5027c0-.092-.07163-.1666-.16-.1666h-2.88c-.08837 0-.16.0746-.16.1666v.5027c0 .6443-.50144 1.1667-1.12 1.1667s-1.12-.5224-1.12-1.1667v-.854c.00013-.0569-.02762-.1099-.0736-.1407-.55047-.364-.884658-.9954-.8864-1.67462v-2.71134c.00002-.07588-.049178-.1422-.11968-.16133-.49344-.13158-.83901934-.59409-.84032-1.12467v-1.33333c.00158227-.52996.346824-.99183.83968-1.12333.070756-.01887.120265-.08525.12032-.16134v-.718c0-1.10457.85961-1.999996 1.92-1.999996h5.76c1.06039 0 1.92.895426 1.92 1.999996zm-7.68 6.78467h.64c.2651 0 .48-.22386.48-.5s-.2149-.5-.48-.5h-.64c-.2651 0-.48.22386-.48.5s.2149.5.48.5zm5.76 0h-.64c-.2651 0-.48-.22386-.48-.5s.2149-.5.48-.5h.64c.2651 0 .48.22386.48.5s-.2149.5-.48.5zm.48-2.336c.08836 0 .16-.07462.16-.16667v-5c0-.36819-.28654-.66666-.64-.66666h-5.76c-.35346 0-.64.29847-.64.66666v5c0 .09205.07163.16667.16.16667z" fill-rule="evenodd"/><path d="m13.6003 4.41804c-.8273-.00234-1.5442.59668-1.7214 1.43844-.1773.84176.2331 1.69832.9854 2.05689.0567.02722.0932.08625.0934.15133v4.8533c0 .3682.2865.6667.64.6667s.64-.2985.64-.6667v-4.8513c.0002-.06508.0367-.12411.0934-.15133.7539-.35681 1.1664-1.21331.9902-2.05607-.1761-.84276-.893-1.44315-1.721-1.44126z"/></svg>