<svg width="25" height="15" fill="none" xmlns="http://www.w3.org/2000/svg"><path fill-rule="evenodd" clip-rule="evenodd" d="M23.484 2.341h-2.106a2.222 2.222 0 00-.919.205.268.268 0 01-.204.007L15.863.96a3.565 3.565 0 00-2.628.138l-2.169.997a.269.269 0 01-.246-.008 3.188 3.188 0 00-2.697-.194L5.066 3.13a.264.264 0 01-.294-.065 2.219 2.219 0 00-1.65-.723H1.016c-.423 0-.766.326-.766.727v9.199c0 .4.343.726.766.726h2.106c.702 0 1.36-.324 1.767-.867a.263.263 0 01.204-.101h.95a.27.27 0 01.159.05l2.853 2.131.023.019c.72.682 1.87.733 2.655.119l3.122-2.429a.266.266 0 01.113-.05l3.977-.755a.268.268 0 01.195.038.245.245 0 01.107.158c.184.978 1.082 1.69 2.13 1.688h2.107c.423 0 .766-.325.766-.726v-9.2a.707.707 0 00-.224-.514.788.788 0 00-.542-.213zm-8.39 6.888l-1.158.917-.023.016a.964.964 0 00-.126.097l-.01.008-3.102 2.46a.234.234 0 01-.282 0l-3.268-2.44a1.057 1.057 0 00-.632-.207h-.945a.262.262 0 01-.18-.07.235.235 0 01-.075-.172V5.302a.24.24 0 01.155-.222l3.45-1.394h.006a.24.24 0 01.237.04.21.21 0 01.07.219 2.422 2.422 0 00.102 1.59 2.646 2.646 0 001.445 1.417c.338.138.703.21 1.071.209.347 0 .691-.062 1.014-.183l.162-.063a.265.265 0 01.286.062l1.826 1.908a.234.234 0 01-.025.349l.001-.005zm3.909-.105a.245.245 0 00.204-.237L19.2 4.38a.194.194 0 00-.133-.184L15.145 2.77a1.418 1.418 0 00-1.01.061l-2.611 1.206a.608.608 0 00-.306.786c.064.156.191.28.353.347.162.066.345.07.508.008l.979-.381c.4-.135.845-.04 1.144.246l2.692 2.808.013.016c.301.358.46.806.45 1.264a.237.237 0 00.091.194c.06.048.139.067.215.052l1.34-.254z"/></svg>