<svg viewBox="0 0 26 26"><path d="m7 0c-.6 0-1 .4-1 1v3c0 .6.4 1 1 1s1-.4 1-1v-3c0-.5-.4-1-1-1zm12 0c-.6 0-1 .4-1 1v3c0 .6.4 1 1 1s1-.4 1-1v-3c0-.5-.4-1-1-1zm-16 2c-1.7 0-3 1.3-3 3v18c0 1.7 1.3 3 3 3h20c1.7 0 3-1.3 3-3v-18c0-1.7-1.3-3-3-3h-2v1.9c0 .9-.5 1.7-1.4 2-1.4.4-2.6-.6-2.6-1.9v-2h-8v1.9c0 .9-.5 1.7-1.4 2-1.4.4-2.6-.6-2.6-1.9v-2zm-1 7h22v14c0 .5-.4 1-1 1h-20c-.6 0-1-.5-1-1z"/><path d="m4.1 10.5h3.1v3.1h-3.1z"/><path d="m9.1 10.5h3.1v3.1h-3.1z"/><path d="m14 10.5h3.1v3.1h-3.1z"/><path d="m4.1 15.1h3.1v3.1h-3.1z"/><path d="m9.1 15.1h3.1v3.1h-3.1z"/><path d="m14 15.1h3.1v3.1h-3.1z"/><path d="m18.9 10.5h3.1v3.1h-3.1z"/><path d="m18.9 15.1h3.1v3.1h-3.1z"/><path d="m4.1 19.7h3.1v3.1h-3.1z"/><path d="m9.1 19.7h3.1v3.1h-3.1z"/><path d="m14 19.7h3.1v3.1h-3.1z"/><path d="m18.9 19.7h3.1v3.1h-3.1z"/></svg>
