<svg viewBox="0 0 24 25"><g><path d="m2.5 17.2002c-.27614 0-.5-.2239-.5-.5v-8.5c0-.27615.22386-.5.5-.5h13.5c.2761 0 .5.22385.5.5v2.7c.6411-.2613 1.3589-.2613 2 0v-7.2c0-.55229-.4477-1-1-1h-2.5c-.0664.00026-.1301-.02599-.1771-.07293-.0469-.04695-.0732-.11069-.0729-.17707v-1c0-.41422-.3358-.750005-.75-.750005s-.75.335785-.75.750005v3.75c0 .41421-.3358.75-.75.75s-.75-.33579-.75-.75v-2c0-.27615-.2239-.5-.5-.5h-4.25c-.06639.00026-.13013-.02599-.17707-.07293-.04694-.04695-.0732-.11069-.07293-.17707v-1c0-.41422-.33579-.750005-.75-.750005s-.75.335785-.75.750005v3.75c0 .41421-.33579.75-.75.75s-.75-.33579-.75-.75v-2c0-.27615-.22386-.5-.5-.5h-2.25c-.552285 0-1 .44771-1 1v13.5c0 1.1046.89543 2 2 2h9.256l1.05-2z"/><path clip-rule="evenodd" d="m18.7808 12.972c-.2512-.4742-.7439-.7708-1.2805-.7708-.5367 0-1.0294.2966-1.2805.7708l-5.055 9.634c-.2335.4448-.2156.9797.047 1.408.265.4261.7311.6854 1.233.686h10.111c.5017-.0009.9676-.2602 1.233-.686.2625-.4287.2804-.9638.047-1.409zm-1.281 2.979c.4142 0 .75.3358.75.75v3c0 .4142-.3358.75-.75.75s-.75-.3358-.75-.75v-3.001c.0005-.4138.3362-.749.75-.749zm-1 6c0 .5523.4477 1 1 1s1-.4477 1-1-.4477-1-1-1-1 .4477-1 1z" fill-rule="evenodd"/></g></svg>