<svg viewBox="0 0 20 20" xmlns="http://www.w3.org/2000/svg"><path d="m2.1 13.8c-.2 0-.4-.2-.4-.4v-7.2c0-.2.2-.4.4-.4h11.2c.2 0 .4.2.4.4v1.8c.6-.1 1.1-.1 1.7 0v-5.5c0-.5-.4-.8-.8-.8h-2.1c-.1 0-.2-.1-.2-.2v-.9c0-.3-.3-.6-.6-.6-.4 0-.7.3-.7.6v3.1c0 .3-.3.6-.6.6s-.6-.3-.6-.6v-1.6c0-.2-.2-.4-.4-.4h-3.6c-.1 0-.2-.1-.2-.2v-.9c0-.3-.3-.6-.6-.6s-.6.3-.6.6v3.1c0 .3-.3.6-.6.6s-.7-.2-.7-.5v-1.7c0-.2-.2-.4-.4-.4h-1.9c-.4 0-.8.3-.8.8v11.2c0 .9.7 1.7 1.7 1.7h6.3c-.1-.6-.1-1.1 0-1.7h-5.9zm7.1.8c0-3 2.4-5.4 5.4-5.4s5.4 2.4 5.4 5.4-2.4 5.4-5.4 5.4-5.4-2.4-5.4-5.4zm1.9 1.4c.6 1.4 1.9 2.3 3.5 2.3 2.1 0 3.7-1.7 3.8-3.8 0-1.5-.9-2.9-2.3-3.5s-3-.3-4.1.8-1.5 2.8-.9 4.2zm5.1-2h-1v-1.5c0-.3-.3-.6-.6-.6s-.6.3-.6.6v2.1c0 .3.3.6.6.6h1.7c.3 0 .6-.3.6-.6 0-.4-.3-.6-.7-.6z"/></svg>
