<svg viewBox="0 0 50 38" xmlns="http://www.w3.org/2000/svg"><path d="M30.646 29.117c4.301 0 7.788-3.492 7.788-7.8 0-4.306-3.487-7.798-7.788-7.798-4.302 0-7.789 3.492-7.789 7.799s3.487 7.8 7.789 7.8Z"/><path d="M44.549 6.803h-2.733a1.109 1.109 0 0 1-1-.72c-1.283-2.711-2.61-5.52-5.497-5.52H24.934c-2.224 0-3.398 1.619-5.522 4.558-.798 1.096-1.06 1.682-1.753 1.682H5.197C.913 6.803.011 9.318.011 11.427V33.03a4.691 4.691 0 0 0 1.474 3.75c1.03.964 2.45 1.22 3.835 1.22h39.229c1.385-.001 2.805-.256 3.835-1.22a4.691 4.691 0 0 0 1.473-3.75V11.427c0-2.11-.92-4.624-5.308-4.624Z"/><path d="m5.204 4.646 6.23.034a1.04 1.04 0 0 0 1.039-1.04v-.52A3.118 3.118 0 0 0 9.357 0H7.28a3.118 3.118 0 0 0-3.115 3.12v.486c0 .575.465 1.04 1.039 1.04Z"/><path d="M10.302 14.58a2.5 2.5 0 1 1-5 0 2.5 2.5 0 0 1 5 0Z" fill="#2f7ddd"/><circle cx="30.434" cy="21.5" r="10" stroke="#fff" stroke-width="3"/></svg>
