<svg viewBox="0 0 20 20" xmlns="http://www.w3.org/2000/svg"><path d="m17.7999.208236c-1.0341-.002917-1.9302.745853-2.1517 1.798054-.2216 1.05221.2913 2.1229 1.2317 2.57111.0709.03403.1165.10782.1168.18917v4.19167c0 .11377-.0876.20651-.1968.20833h-4.024c-.0779-.00017-.1487-.04727-.1816-.12083-.2187-.49544-.5996-.89364-1.0744-1.12334-.0709-.03403-.1165-.10781-.1168-.18916v-2.96667c.0003-.08135.0459-.15514.1168-.18917.885-.42359 1.3965-1.40356 1.2568-2.40757-.1397-1.004-.8973-1.792342-1.8613-1.936767-.96401-.1444251-1.90422.389543-2.3099 1.311837-.03267.07389-.1035.12135-.1816.12167h-3.248c-.07809-.00032-.14893-.04778-.1816-.12167-.43099-.979315-1.45863-1.5137007-2.46906-1.283941-1.01043.229761-1.730806 1.161621-1.730806 2.238941s.720376 2.00919 1.730806 2.23895 2.03807-.30463 2.46906-1.28395c.03267-.07389.10351-.12135.1816-.12166h3.248c.07791.00016.1487.04726.1816.12083.21875.49544.5996.89363 1.0744 1.12333.07094.03403.1165.10782.1168.18917v2.96667c-.0003.08135-.04586.15513-.1168.18916-.78177.37059-1.2836 1.1828-1.2836 2.0775s.50183 1.7069 1.2836 2.0775c.07094.034.1165.1078.1168.1892v2.9833c.00053.072-.04001.1375-.1032.1667-.48232.2277-.86971.6289-1.0912 1.13-.03263.0721-.10183.1187-.1784.12h-3.248c-.07809-.0003-.14893-.0478-.1816-.1217-.43099-.9793-1.45863-1.5137-2.46906-1.2839-1.01043.2297-1.730806 1.1616-1.730806 2.2389s.720376 2.0092 1.730806 2.2389c1.01043.2298 2.03807-.3046 2.46906-1.2839.03267-.0739.10351-.1213.1816-.1217h3.248c.0781.0004.14893.0478.1816.1217.40568.9223 1.34589 1.4563 2.3099 1.3118.964-.1444 1.7216-.9327 1.8613-1.9367s-.3718-1.984-1.2568-2.4076c-.0709-.034-.1165-.1078-.1168-.1892v-2.9833c-.0005-.072.04-.1375.1032-.1667.4823-.2277.8697-.6289 1.0912-1.13.0326-.0721.1018-.1187.1784-.12h4.224c.8837 0 1.6-.7462 1.6-1.66663v-4.4c.0003-.08135.0459-.15514.1168-.18917.9398-.44795 1.4528-1.51772 1.2321-2.56947-.2207-1.051759-1.1154-1.801034-2.1489-1.799694z"/></svg>