<svg enable-background="new 0 0 23.8 23" viewBox="0 0 23.8 23" xmlns="http://www.w3.org/2000/svg"><path clip-rule="evenodd" d="m18.7 11.2c0 .9-.8 1.7-1.7 1.7-1 0-1.7-.7-1.7-1.7v-1.5c0-.1-.1-.2-.2-.2h-5.6c-.1 0-.2.1-.2.2v1.4c0 .9-.8 1.7-1.7 1.7s-1.7-.7-1.7-1.7v-1.4c0-.1-.1-.2-.2-.2-1 0-1.7-.7-1.7-1.7v-1.2c-.2-.6.1-1.2.5-1.6 0-.1.1-.1.1-.2s-.1-.1-.1-.2l-.9-.5c-.5-.2-.6-.8-.3-1.2s.9-.6 1.3-.3l.8.4h.2c.1 0 .1-.1.1-.2l.3-1.1c.1-1 1-1.7 2-1.7h8.2c1 0 1.8.7 2 1.7l.1.5.1.7c0 .1.1.1.1.2h.2l.8-.5c.3-.2.7-.2 1 0s.5.5.5.8-.3.6-.6.7l-.8.5c-.1 0-.1.1-.1.2s0 .1.1.2c.4.5.6 1.1.6 1.7v1.2c0 .8-.5 1.4-1.3 1.6-.1 0-.2.1-.2.2zm-11-7.2h.2 8.1c.1 0 .1 0 .2-.1 0-.1.1-.1.1-.2l-.2-1.7c0-.1-.1-.2-.2-.2h-7.8c-.1.1-.2.2-.2.3l-.2 1.7zm-.1 13.3-1.9-1.8c-.4-.5-1.2-.5-1.7-.2-.5.4-.7 1.1-.4 1.7l1.3 2.1c.1.1.1.3.1.5-.1.2-.3.3-.5.3s-.4-.1-.4-.3l-1.3-2.1c-.4-.8-.3-1.7.2-2.4v-.1-2.8c0-.5-.3-1-.7-1.3-.5-.3-1-.3-1.5 0-.5.2-.8.7-.8 1.2v4.9c0 1 .3 1.9 1 2.7l2.6 3.2c.1.1.2.1.4.1h3.9c.3 0 .5-.2.5-.5v-2.9c0-.8-.3-1.6-.8-2.3zm14.7-6.6c-.8 0-1.5.6-1.5 1.4v2.8.1c.5.7.6 1.6.2 2.4l-1.3 2.1c-.1.2-.3.3-.4.3-.2 0-.4-.1-.5-.3s-.1-.4.1-.5l1.3-2.1c.3-.6.2-1.3-.4-1.7-.6-.2-1.3-.2-1.8.3l-1.9 1.8c-.5.7-.8 1.5-.8 2.4v2.9c0 .3.2.5.5.5h3.9c.2 0 .3-.1.4-.2l2.6-3.2c.6-.8 1-1.7 1-2.7v-4.9c0-.4-.2-.7-.4-1-.3-.3-.6-.4-1-.4z" fill-rule="evenodd"/></svg>