<svg enable-background="new 0 0 20 20" viewBox="0 0 20 20" xmlns="http://www.w3.org/2000/svg"><path clip-rule="evenodd" d="m9.8 9.9c1.8-2.2 4.9-2.7 7.3-1.1h.2c.1 0 .1-.1.1-.2s0-.1 0-.2v-1.7c0-.7-.3-1.3-.8-1.8 0 0-.1-.1-.1-.2s0-.1.1-.2l.7-.5c.3-.3.4-.8.1-1.2s-.8-.4-1.1-.1l-.6.5c-.1 0-.1.1-.2 0-.1 0-.1-.1-.1-.2l-.1-.7c-.1-1.3-1.1-2.3-2.4-2.3h-7.4c-1.3 0-2.3 1-2.4 2.3l-.1.7c0 .1-.1.1-.1.2s-.1 0-.2 0l-.6-.5c-.2-.2-.5-.3-.8-.1s-.5.3-.5.6.1.6.3.8l.7.6s.1.1.1.2 0 .1-.1.2c-.5.3-.8 1-.8 1.7v1.9c0 .7.6 1.4 1.4 1.4h7.2c.1 0 .1 0 .2-.1zm-5.3-6 .2-1.5c0-.4.3-.7.8-.7h7.5c.4 0 .8.3.8.8l.2 1.5c0 .1 0 .1-.1.2 0 0-.1.1-.2.1h-9c-.1 0-.1 0-.1-.1-.1-.1-.1-.2-.1-.3zm-1.7 3.4c0 .7.5 1.2 1.2 1.2s1.2-.5 1.2-1.2-.5-1.3-1.2-1.3-1.2.6-1.2 1.3zm3.2 3.5h-3.2c-.1 0-.2.1-.2.2v.2c0 1 .8 1.9 1.8 1.9s1.8-.8 1.8-1.9v-.2c0-.1-.1-.2-.2-.2zm11.7 5.7 2 2.1c.3.3.3.8 0 1.2-.3.3-.8.3-1.1 0l-2-2.1c-.1-.1-.2-.1-.2 0-1.9 1.3-4.4.8-5.8-1s-1.3-4.5.3-6.1c1.6-1.7 4.1-1.8 5.9-.3s2.2 4.1 1 6c-.1 0-.1.1-.1.2zm-6.3-1.6c.4 1.1 1.5 1.8 2.6 1.8 1.5 0 2.8-1.3 2.8-2.9 0-1.2-.7-2.2-1.7-2.7s-2.3-.2-3.1.6-1 2.1-.6 3.2z" fill-rule="evenodd"/></svg>