<svg viewBox="0 0 24 23" xmlns="http://www.w3.org/2000/svg"><path d="m23.7 9.6-10.3-9c-.8-.7-1.9-.7-2.7 0l-10.3 9c-.4.4-.4 1 0 1.3.4.4 1 .4 1.4.1l10-8.8c.2-.2.5-.2.7 0l10 8.8c.4.3 1 .3 1.4-.1s.2-1-.2-1.3zm-6 5c.2.5.7.8 1.2.8 2.3 0 4.1 1.8 4.1 4v.3c0 .7-.5 1.3-1.2 1.4-.1 0-.1 0-.2 0s-.1-.1-.1-.2c-.2-1.5-1.5-2.6-3-2.6-1.6 0-2.9 1.2-3 2.6 0 .1-.1.2-.2.2h-6.6c-.1 0-.2-.1-.2-.2-.1-1.5-1.4-2.6-3-2.6s-2.9 1.1-3 2.6c0 .1 0 .1-.1.2-.1 0-.1.1-.2 0-.7-.1-1.2-.7-1.2-1.4v-1.9c0-.6.3-1.2.7-1.7s1.1-.7 1.8-.7h1.4c.7 0 1.3-.5 1.5-1.2l.4-1.7c.2-1.1 1.3-1.9 2.5-1.9h4.3c1.5 0 2.9.9 3.5 2.3zm-1.6.8c.1 0 .1 0 .1-.1s0-.1 0-.2l-.7-1.8c-.3-.8-1.2-1.4-2.1-1.4h-1c-.3 0-.5.2-.5.5v1.4c0 .8.7 1.4 1.5 1.4h2.7zm-10.6 7.6c1.1 0 2-.9 2-1.9s-.9-1.9-2-1.9-2 .9-2 1.9.9 1.9 2 1.9zm13 0c1.1 0 2-.9 2-1.9s-.9-1.9-2-1.9-2 .9-2 1.9.9 1.9 2 1.9z"/></svg>