<svg enable-background="new 0 0 21 24" viewBox="0 0 21 24" xmlns="http://www.w3.org/2000/svg"><path clip-rule="evenodd" d="m19.6 13.9c0 .1 0 .2.1.2.6.5 1 1.3 1 2.1v2.2c0 1-.8 1.7-1.8 1.8h-16.9c-1 0-1.7-.8-1.8-1.8v-2.2c0-.8.4-1.6 1-2.1.1 0 .1-.1.1-.2s0-.1-.1-.2l-.8-.7c-.4-.3-.5-1-.2-1.4s1-.5 1.4-.2l.7.6c.1.1.2.1.2 0 .1 0 .1-.1.2-.2l.1-.8c.1-1.5 1.4-2.7 3-2.7h9.3c1.6 0 2.9 1.2 3 2.8l.1.9c0 .1.1.2.2.2h.2l.7-.6c.4-.3 1.1-.3 1.4.2.3.4.3 1.1-.2 1.4l-.9.7c0-.1 0 0 0 0zm-14.8-2.7-.2 1.8c0 .1 0 .1.1.2 0 .1.1.1.2.1h11.2c.1 0 .1 0 .2-.1 0-.1.1-.1.1-.2l-.2-1.8c0-.5-.5-.9-1-.9h-9.4c-.5 0-.9.3-1 .9zm-.8 7.3c-.8 0-1.5-.7-1.5-1.5s.7-1.5 1.5-1.5 1.5.7 1.5 1.5-.7 1.5-1.5 1.5zm11.5-1.5c0 .8.7 1.5 1.5 1.5s1.5-.7 1.5-1.5-.7-1.5-1.5-1.5-1.5.7-1.5 1.5zm-9 4.2h-4c-.1 0-.2.1-.2.2v.2c0 1.2 1 2.2 2.3 2.2 1.2 0 2.3-1 2.3-2.2v-.2c-.2 0-.3-.2-.4-.2zm12 0h-4c-.1 0-.2.1-.2.2v.2c0 1.2 1 2.2 2.2 2.2s2.2-1 2.2-2.2v-.2s-.1-.2-.2-.2zm-13.7-16.9c3.2-3.1 8.2-3.1 11.3 0 .4.4 1 .4 1.4 0s.4-1 0-1.4c-1.9-1.9-4.4-2.9-7-2.9s-5.2 1-7 2.9c-.4.4-.4 1 0 1.4.3.4 1 .4 1.3 0zm1.2 1.5c-.2.2-.3.5-.3.7s.1.6.3.8c.4.4 1 .4 1.4 0 1.7-1.7 4.5-1.7 6.2 0 .3.3.6.4 1 .3.3-.1.6-.4.7-.7s0-.7-.3-1c-.6-.6-1.2-1-2-1.3-2.4-1.1-5.2-.6-7 1.2z" fill-rule="evenodd"/></svg>