<svg viewBox="0 0 51 42" xmlns="http://www.w3.org/2000/svg"><path fill-rule="evenodd" clip-rule="evenodd" d="M46.779 16.399a.518.518 0 0 0 .143.434 9.165 9.165 0 0 1 2.654 6.432v4.152c-.007 2.13-1.339 4.038-3.356 4.808a.521.521 0 0 0-.336.484v4.042c0 2.58-2.125 4.672-4.747 4.672S36.39 39.33 36.39 36.75v-3.633a.523.523 0 0 0-.527-.519H14.765a.523.523 0 0 0-.528.52v3.633c0 2.58-2.125 4.67-4.747 4.67s-4.747-2.09-4.747-4.67V32.7a.521.521 0 0 0-.335-.484c-2.018-.77-3.35-2.678-3.357-4.808v-4.152a9.164 9.164 0 0 1 2.648-6.42.518.518 0 0 0 .143-.434.517.517 0 0 0-.26-.376l-1.687-.961a3.089 3.089 0 0 1-1.16-4.256c.873-1.49 2.81-2.002 4.325-1.142l2.242 1.277c.15.084.333.091.49.018a.522.522 0 0 0 .295-.384l.844-4.947c.5-3.01 3.145-5.216 6.243-5.21h20.27c3.098-.007 5.743 2.198 6.244 5.206l.844 4.947a.52.52 0 0 0 .294.384.535.535 0 0 0 .488-.018l2.247-1.277a3.21 3.21 0 0 1 3.167 0 3.107 3.107 0 0 1 1.582 2.7 3.107 3.107 0 0 1-1.584 2.698l-1.688.961a.517.517 0 0 0-.26.376ZM35.453 4.579h-20.28a2.1 2.1 0 0 0-2.08 1.73l-1.01 5.965a.513.513 0 0 0 .118.42c.1.117.248.184.403.184h25.42a.52.52 0 0 0 .521-.598l-1.011-5.965a2.1 2.1 0 0 0-2.08-1.736Zm5.684 22.838c-1.748 0-3.165-1.394-3.165-3.114s1.417-3.114 3.165-3.114 3.165 1.394 3.165 3.114-1.417 3.114-3.165 3.114ZM9.49 21.19c-1.748 0-3.165 1.394-3.165 3.114 0 .826.334 1.618.927 2.202a3.191 3.191 0 0 0 2.238.912c1.748 0 3.165-1.394 3.165-3.114s-1.417-3.114-3.165-3.114Z"/><path d="M41.137 27.407c-1.748 0-3.165-1.395-3.165-3.114 0-1.72 1.417-3.115 3.165-3.115s3.165 1.395 3.165 3.115c0 1.72-1.417 3.114-3.165 3.114ZM6.344 24.282c0-1.72 1.417-3.114 3.165-3.114s3.165 1.394 3.165 3.114-1.417 3.115-3.165 3.115a3.19 3.19 0 0 1-2.238-.913 3.09 3.09 0 0 1-.927-2.202ZM15.108 4.658h20.28a2.1 2.1 0 0 1 2.08 1.736l1.01 5.965a.52.52 0 0 1-.52.598h-25.42a.531.531 0 0 1-.402-.184.513.513 0 0 1-.118-.42l1.01-5.965a2.1 2.1 0 0 1 2.08-1.73Z" fill="#2f7ddd"/></svg>
