<svg enable-background="new 0 0 18 23" viewBox="0 0 18 23" xmlns="http://www.w3.org/2000/svg"><path clip-rule="evenodd" d="m9.9 6.5c-.8 1.3-2.3 2.1-3.9 2.1-2.2 0-4-1.5-4.4-3.5-.4-2.1.8-4.1 2.9-4.8s4.3.1 5.4 1.9c.1.1.3.2.4.2h5.7c.1 0 .3.1.4.1l1.5 1.5c.1.1.1.2.1.3s-.1.2-.1.3l-1.5 1.4c-.1.1-.2.1-.4.1h-5.7c-.1.1-.3.2-.4.4zm-2-2.9c-.3-.7-1.1-1.2-1.9-1.2-1.1 0-2 .9-2 1.9 0 .8.5 1.5 1.2 1.8.8.3 1.7.1 2.2-.4.6-.6.8-1.4.5-2.1zm8.1 9.8.5-.3c.3-.2.7-.2 1 0s.5.5.5.8-.2.7-.5.8l-.8.5c-.1.1-.2.2-.2.3s0 .3.1.4c.3.4.5.9.5 1.4v1c0 .8-.7 1.4-1.5 1.4h-13c-.9 0-1.6-.7-1.6-1.5v-1c0-.5.2-1 .5-1.4.1-.1.1-.2.1-.4 0-.1-.1-.2-.2-.3l-.8-.5c-.4 0-.6-.3-.6-.7 0-.3.2-.7.5-.8.3-.2.7-.2 1 0l.5.3c.1.1.3.1.5 0s.3-.2.3-.4l.1-1c.1-1 1-1.7 2-1.7h8.2c1 0 1.9.7 2 1.7l.1 1c0 .2.1.3.3.4s.3.1.5 0zm-2.8-.7c0-.2-.2-.4-.5-.4h-7.3c-.3 0-.5.2-.5.4l-.2 1.7c0 .1 0 .3.1.4s.2.2.4.2h7.7c.1 0 .3-.1.4-.2s.1-.2.1-.4zm-8.7 7.9h-2c-.3 0-.5.2-.5.5v.5c0 .8.7 1.4 1.5 1.4s1.5-.6 1.5-1.4v-.5c0-.2-.2-.5-.5-.5zm11 0h-2c-.3 0-.5.2-.5.5v.5c0 .8.7 1.4 1.5 1.4s1.5-.6 1.5-1.4v-.5c0-.2-.2-.5-.5-.5z" fill-rule="evenodd"/></svg>