<svg viewBox="0 0 16 14" xmlns="http://www.w3.org/2000/svg">
  <path fill-rule="evenodd" clip-rule="evenodd" d="M15.2907 5.41659H15.3333C15.7015 5.41659 16 5.11811 16 4.74992V4.08325C16 3.71506 15.7015 3.41659 15.3333 3.41659H14.4333C14.1188 3.41742 13.8227 3.56544 13.6333 3.81659C13.6183 3.83607 13.5933 3.84505 13.5693 3.83962C13.5452 3.83418 13.5265 3.81532 13.5213 3.79125L13.2013 2.19125C13.0128 1.25724 12.1928 0.585009 11.24 0.583252H4.76C3.80786 0.585578 2.98872 1.25733 2.8 2.19059L2.48 3.79059C2.47479 3.81465 2.45609 3.83352 2.43207 3.83895C2.40806 3.84438 2.38306 3.8354 2.368 3.81592C2.1786 3.56477 1.88256 3.41675 1.568 3.41592H0.666667C0.298477 3.41592 0 3.7144 0 4.08259V4.74925C0 5.11744 0.298477 5.41592 0.666667 5.41592H0.709333C0.776167 5.41578 0.836621 5.45557 0.862912 5.51702C0.889204 5.57846 0.876249 5.64967 0.83 5.69792C0.298252 6.24876 0.000742801 6.98429 0 7.74992V10.4166C0.00159024 10.8013 0.223747 11.151 0.571333 11.3159C0.629561 11.3435 0.666681 11.4022 0.666667 11.4666V12.4166C0.666667 12.9689 1.11438 13.4166 1.66667 13.4166H3C3.55228 13.4166 4 12.9689 4 12.4166V11.5833C4 11.4912 4.07462 11.4166 4.16667 11.4166H11.8333C11.9254 11.4166 12 11.4912 12 11.5833V12.4166C12 12.9689 12.4477 13.4166 13 13.4166H14.3333C14.8856 13.4166 15.3333 12.9689 15.3333 12.4166V11.4666C15.3333 11.4022 15.3704 11.3435 15.4287 11.3159C15.7763 11.151 15.9984 10.8013 16 10.4166V7.74992C15.9991 6.98452 15.7016 6.24926 15.17 5.69859C15.1238 5.65034 15.1108 5.57913 15.1371 5.51769C15.1634 5.45624 15.2238 5.41644 15.2907 5.41659ZM2.16667 10.7499H1C0.815905 10.7499 0.666667 10.6007 0.666667 10.4166V10.0833C0.666667 9.89916 0.815905 9.74992 1 9.74992H2.16667C2.44281 9.74992 2.66667 9.97378 2.66667 10.2499C2.66667 10.5261 2.44281 10.7499 2.16667 10.7499ZM3.448 8.08325C3.50051 8.08346 3.55 8.05872 3.58133 8.01659V8.01925C3.61488 7.97858 3.62701 7.92434 3.614 7.87325L3.414 7.07325C3.35975 6.88775 3.19311 6.75761 3 6.74992H1.512C1.46369 6.75024 1.41785 6.77135 1.3862 6.80785C1.35455 6.84435 1.34015 6.89271 1.34667 6.94059C1.44146 7.59664 2.0038 8.08344 2.66667 8.08325H3.448ZM10.648 7.85259L10.2853 8.94125C10.0584 9.62178 9.42138 10.0807 8.704 10.0806H7.294C6.57757 10.0808 5.94116 9.62316 5.71333 8.94392L5.35 7.85525C5.31612 7.75354 5.33323 7.64174 5.39598 7.55482C5.45873 7.46789 5.55946 7.41645 5.66667 7.41659H10.3333C10.4405 7.41645 10.5413 7.46789 10.604 7.55482C10.6668 7.64174 10.6839 7.75354 10.65 7.85525L10.648 7.85259ZM12.148 4.74725C12.1979 4.74709 12.2453 4.72489 12.2773 4.68659L12.2793 4.68925C12.3114 4.64968 12.3241 4.59784 12.314 4.54792L11.894 2.44992C11.8306 2.13923 11.5571 1.9162 11.24 1.91659H4.76C4.4429 1.9162 4.16942 2.13923 4.106 2.44992L3.68667 4.54792C3.67682 4.5969 3.68928 4.64772 3.72067 4.68659C3.75272 4.72489 3.80005 4.74709 3.85 4.74725H12.148ZM12.548 8.08059C12.4967 8.08044 12.4482 8.05673 12.4166 8.01628C12.385 7.97582 12.3737 7.9231 12.386 7.87325L12.586 7.07325C12.6402 6.88775 12.8069 6.75761 13 6.74992H14.4853C14.5337 6.74968 14.5797 6.77063 14.6113 6.80725C14.6432 6.84389 14.6575 6.89254 14.6507 6.94059C14.556 7.59564 13.9952 8.08211 13.3333 8.08325L12.548 8.08059ZM14.998 10.7473C15.1821 10.7473 15.3313 10.598 15.3313 10.4139V10.0806L15.3333 10.0833C15.334 9.99439 15.2992 9.90891 15.2367 9.84582C15.1741 9.78273 15.0889 9.74725 15 9.74725H13.8333C13.5572 9.74725 13.3333 9.97111 13.3333 10.2473C13.3333 10.5234 13.5572 10.7473 13.8333 10.7473H14.998Z" />
</svg>