<svg viewBox="0 0 20 20" xmlns="http://www.w3.org/2000/svg"><path clip-rule="evenodd" d="m18.4783 8.18155c-.0088.06367.0121.12784.0566.17417.6717.69161 1.0477 1.61757 1.0484 2.58168v1.6667c-.0028.8548-.5289 1.6207-1.3259 1.93-.0798.0314-.1323.1084-.1325.1941v1.6225c0 1.0356-.8394 1.875-1.875 1.875-1.0355 0-1.875-.8394-1.875-1.875v-1.4583c0-.1151-.0932-.2083-.2083-.2083h-8.33334c-.11506 0-.20833.0932-.20833.2083v1.4583c0 1.0356-.83947 1.875-1.875 1.875-1.03554 0-1.875-.8394-1.875-1.875v-1.6258c-.00018-.0858-.05271-.1627-.1325-.1942-.796932-.3093-1.323057-1.0751-1.325836-1.93v-1.6666c.001276-.96206.376269-1.88595 1.045836-2.57672.04454-.04632.06542-.11049.05666-.17416-.00905-.0634-.04688-.11907-.1025-.15084l-.666663-.38583c-.598309-.34518-.8035114-1.11002-.458333-1.70833.345178-.59831 1.110026-.80351 1.708336-.45834l.88583.5125c.05932.0339.13147.03669.19323.00747s.10536-.08677.11677-.15413l.33333-1.98584c.19721-1.20778 1.24207-2.09373 2.46584-2.09083h8.00667c1.2232-.00303 2.2679.88205 2.4658 2.08917l.3334 1.98583c.0111.06733.0545.12492.1162.15417s.1337.02645.1929-.0075l.8875-.5125c.3871-.22329.8638-.22314 1.2507.0004s.6252.6365.625 1.08333c-.0001.44683-.2386.85964-.6257 1.08293l-.6666.38584c-.0556.03176-.0935.08743-.1025.15083zm-4.4734-4.74417h-8.00997c-.40655-.00001-.75378.29333-.82167.69417l-.39917 2.39417c-.01005.06045.00703.12226.04668.16898.03966.04672.09788.07361.15916.07352h10.03997c.0613.00014.1195-.02668.1592-.07334.0387-.04631.0557-.10699.0467-.16666l-.3992-2.39417c-.0668-.40183-.4143-.69648-.8217-.69667zm2.245 6.66672c.6904 0 1.25.5596 1.25 1.25 0 .6903-.5596 1.25-1.25 1.25-.6903 0-1.25-.5597-1.25-1.25 0-.6904.5597-1.25 1.25-1.25zm-12.49997 0c-.69036 0-1.25.5596-1.25 1.25 0 .3315.13169.6494.36611.8838.23442.2345.55237.3662.88389.3662.69035 0 1.25-.5597 1.25-1.25 0-.6904-.55965-1.25-1.25-1.25z" fill-rule="evenodd"/></svg>