<svg xmlns="http://www.w3.org/2000/svg" viewBox="0 0 24 25"><path d="M21.8 19.57a3 3 0 00-2.3-1.06 1 1 0 100 2 1 1 0 01.98 1.17c-.11.5-.57.85-1.09.83H15.5a.5.5 0 01-.5-.5v-9.94a.5.5 0 00-.65-.47 6.97 6.97 0 01-5.83-.53.5.5 0 00-.71.2l-1.64 3.27c-2.76.42-4.67 2.83-4.67 5.97 0 1.32.5 3.99 2.84 3.99h15.05a3.07 3.07 0 003.07-2.5c.14-.87-.1-1.76-.67-2.43z"/><path fill="#000" fill-rule="evenodd" d="M12 10.5a4.73 4.73 0 004.99-4.43V1.05A.56.56 0 0016.1.6l-2.03 1.45a5.42 5.42 0 00-4.16 0L7.9.6a.56.56 0 00-.88.45v5.02A4.73 4.73 0 0012 10.5zM14 5a1 1 0 110 2 1 1 0 010-2zm-3 1a1 1 0 10-2 0 1 1 0 002 0z" clip-rule="evenodd"/></svg>
