<svg viewBox="0 0 24 25" xmlns="http://www.w3.org/2000/svg"><path clip-rule="evenodd" d="m21.5.700195h-19c-1.38071 0-2.5 1.119285-2.5 2.500005v19c0 .663.263392 1.2989.732233 1.7678.468837.4688 1.104727.7322 1.767767.7322h19c.663 0 1.2989-.2634 1.7678-.7322.4688-.4689.7322-1.1048.7322-1.7678v-19c0-.66305-.2634-1.29893-.7322-1.76777-.4689-.468843-1.1048-.732235-1.7678-.732235zm-3 9.500005h-4.5c-.5523 0-1-.44772-1-1 0-.55229.4477-1 1-1h4.5c.5523 0 1 .44771 1 1 0 .55228-.4477 1-1 1zm0 9c.5523 0 1-.4477 1-1s-.4477-1-1-1h-4.5c-.5523 0-1 .4477-1 1s.4477 1 1 1zm-7.2-12.9-3 4c-.17342.2328-.43946.3788-.729.4h-.071c-.26519-.0001-.51951-.1055-.707-.293l-1.5-1.5c-.39074-.39047-.39097-1.02376-.0005-1.4145.39047-.39075 1.02376-.39097 1.4145-.0005l.685.685 2.308-3.077c.3314-.44183.9582-.53138 1.4-.2.4418.33137.5314.95817.2 1.4zm-3 14 3-4c.3314-.4418.2418-1.0686-.2-1.4s-1.0686-.2418-1.4.2l-2.308 3.078-.685-.685c-.39238-.379-1.01608-.3736-1.40182.0122-.38573.3857-.39115 1.0094-.01218 1.4018l1.5 1.5c.20766.1994.49006.3016.77727.2812.2872-.0204.55233-.1614.72973-.3882z" fill-rule="evenodd"/></svg>