<svg viewBox="0 0 18 18" xmlns="http://www.w3.org/2000/svg"><path clip-rule="evenodd" d="m14.2826 2.25h2.1522c.8644 0 1.5652.67157 1.5652 1.5v12.75c0 .8284-.7008 1.5-1.5652 1.5h-14.86958c-.864448 0-1.56522-.6716-1.56522-1.5v-12.75c0-.82843.700772-1.5 1.56522-1.5h1.17391c.21611 0 .3913.16789.3913.375v1.6875c0 .31066.26279.5625.58696.5625s.58696-.25184.58696-.5625v-3.5625c0-.414214.35038-.75.78261-.75.43222 0 .78261.335786.78261.75v1.31325c.00043.10326.0879.18675.19565.18675h4.89128c.2161 0 .3913.16789.3913.375v1.6875c0 .31066.2628.5625.587.5625.3241 0 .5869-.25184.5869-.5625v-3.5625c0-.414214.3504-.75.7826-.75.4323 0 .7827.335786.7827.75v1.3125c0 .10355.0876.1875.1956.1875zm-12.32608 14.25h14.08698c.2161 0 .3913-.1679.3913-.375v-9c0-.20711-.1752-.375-.3913-.375h-14.08698c-.21611 0-.3913.16789-.3913.375v9c0 .2071.17519.375.3913.375z" fill-rule="evenodd"/><path d="m11.3478 12.5001c0-.2762.2336-.5.5218-.5h2.0869c.2882 0 .5218.2238.5218.5v2c0 .2761-.2336.5-.5218.5h-2.0869c-.2882 0-.5218-.2239-.5218-.5z"/></svg>