<svg viewBox="0 0 24 22" xmlns="http://www.w3.org/2000/svg"><path d="M22.759 17.974h-3.931c.665 0 1.28-.36 1.612-.945a1.915 1.915 0 0 0 0-1.89 1.857 1.857 0 0 0-1.612-.946H5.172c-.665 0-1.28.36-1.612.945a1.915 1.915 0 0 0 0 1.89c.332.585.947.946 1.612.946h-3.93c-.33 0-.645.133-.878.369a1.272 1.272 0 0 0-.364.89v.84c0 .335.131.655.364.891.233.236.548.37.877.37H22.76c.329 0 .644-.134.877-.37.233-.236.364-.556.364-.89v-.84c0-.335-.131-.655-.364-.891a1.234 1.234 0 0 0-.877-.37ZM10.553.334h2.897c.665 0 1.28.36 1.613.945a1.915 1.915 0 0 1 0 1.89 1.857 1.857 0 0 1-1.613.945h-2.896c-.666 0-1.28-.36-1.613-.945a1.915 1.915 0 0 1 0-1.89 1.857 1.857 0 0 1 1.612-.945ZM7.035 6.845c0 .501.197.982.546 1.336a1.85 1.85 0 0 0 1.316.554h6.207c.665 0 1.28-.36 1.613-.945a1.915 1.915 0 0 0 0-1.89 1.857 1.857 0 0 0-1.613-.945H8.897c-.493 0-.967.2-1.316.554-.349.355-.545.835-.546 1.336ZM4.965 11.464c0 .501.197.982.546 1.336a1.85 1.85 0 0 0 1.316.554h10.345c.665 0 1.28-.36 1.612-.945a1.915 1.915 0 0 0 0-1.89 1.857 1.857 0 0 0-1.612-.945H6.827c-.494 0-.967.2-1.316.555-.35.354-.546.834-.546 1.335Z"/></svg>