<svg viewBox="0 0 20 24" xmlns="http://www.w3.org/2000/svg">
<path d="M12.9498 8.28345C13.4322 8.41025 13.8034 8.79388 13.9186 9.28466L15.0909 14.2667C15.1457 14.5007 15.1565 14.7319 15.1217 14.9535C15.1013 15.0807 15.0793 15.2019 15.0565 15.3171C14.9197 15.9955 14.2781 16.4427 13.5989 16.3719C9.88243 15.8673 9.88243 15.8673 6.39898 16.3719C5.71859 16.4431 5.07818 15.9955 4.94177 15.3171C4.91857 15.2015 4.89658 15.0799 4.87657 14.9527C4.84179 14.7315 4.85177 14.5007 4.90737 14.2667L6.07939 9.28424C6.19456 8.79388 6.56576 8.41025 7.04858 8.28345C7.55099 8.15145 8.40458 7.99344 9.61898 7.99344C9.76781 7.99344 9.86179 7.99625 9.87979 7.99705L10.015 8.00145L10.1262 7.99705C10.1442 7.99625 10.2362 7.99344 10.379 7.99344C11.5938 7.99344 12.447 8.15145 12.9498 8.28345Z"/>
<path d="M18.2828 15.4521C18.3824 14.8189 18.3564 14.1733 18.206 13.5337L16.7812 7.48123C16.334 6.04521 14.7324 5.37162 13.1992 5.05844V4H14.3244C14.7456 4 15.1396 3.79319 15.3796 3.4472C15.6192 3.10159 15.6736 2.6596 15.526 2.26642L14.9883 0.83241C14.8015 0.334408 14.3188 0 13.7872 0H6.21115C5.67954 0 5.19673 0.334408 5.00955 0.832785L4.47194 2.26599C4.32433 2.6596 4.37913 3.10159 4.61875 3.4472C4.85833 3.79319 5.25274 4 5.67354 4H6.79915V5.06243C5.26155 5.37963 3.65992 6.06002 3.20955 7.50805L1.7919 13.5337C1.64148 14.1733 1.61588 14.8189 1.71591 15.4525C2.17871 18.3849 3.41594 20 5.19912 20H5.26952L5.33552 19.976C5.35671 19.9685 7.50514 19.2 9.99914 19.2C12.4928 19.2 14.6411 19.9685 14.6627 19.976L14.7287 20H14.7992C16.5824 20.0001 17.8196 18.3849 18.2828 15.4521ZM7.59913 4H12.3991V4.924C11.1483 4.75558 10.1027 4.79599 10.0171 4.80039C9.91593 4.79519 8.85833 4.75478 7.59913 4.92639V4ZM15.912 15.0785C15.8896 15.2177 15.8664 15.3497 15.8408 15.4749C15.6376 16.4861 14.7412 17.1865 13.7408 17.1865C13.6012 17.1865 13.4592 17.1725 13.3168 17.1441C12.1732 16.9157 11.0572 16.8001 9.99918 16.8001C8.94121 16.8001 7.82516 16.9157 6.68197 17.1441C5.52035 17.3777 4.38874 16.6269 4.15717 15.4741C4.13196 15.3485 4.10838 15.2169 4.08677 15.0777C4.03558 14.7537 4.04955 14.4189 4.12839 14.0833L5.30079 9.10124C5.48398 8.32166 6.07559 7.71205 6.84519 7.51001C7.39278 7.36559 8.31918 7.19361 9.61921 7.19361C9.7852 7.19361 9.89001 7.19722 9.91199 7.19801L10.016 7.20242L10.0904 7.19801C10.1036 7.19722 10.21 7.19361 10.3792 7.19361C11.6792 7.19361 12.6052 7.36559 13.1536 7.51001C13.9224 7.712 14.5144 8.32161 14.6976 9.10161L15.87 14.0832C15.9488 14.4189 15.9628 14.7536 15.912 15.0785Z"/>
<path d="M1.5032 17.8108C1.21318 17.9176 0.917584 18.076 0.665208 18.3152C0.223222 18.7332 -0.00079476 19.3 2.11851e-06 20.0224C0.00159587 20.0608 0.263581 23.782 4.79922 23.99V20.7752C3.76881 20.6616 2.37161 20.0512 1.5032 17.8108Z"/>
<path d="M9.99909 20C7.67028 20 5.62667 20.7216 5.60665 20.7288L5.59906 20.7316V24H14.3991V20.7312L14.3911 20.7284C14.3715 20.7216 12.3279 20 9.99909 20Z"/>
<path d="M19.3331 18.3152C19.0803 18.076 18.7847 17.9172 18.4951 17.8108C17.6263 20.0512 16.2295 20.6616 15.1991 20.7752V23.99C19.7343 23.782 19.9963 20.0604 19.9991 20C19.9991 19.3 19.7747 18.7332 19.3331 18.3152Z"/>
</svg>