<svg viewBox="0 0 24 24" xmlns="http://www.w3.org/2000/svg"><path d="M8.288 6.72h10.948a.51.51 0 0 0 .363-.15.469.469 0 0 0 .137-.355C19.466 3.238 16.87.953 13.758.953c-3.112 0-5.708 2.285-5.977 5.262a.47.47 0 0 0 .139.358.51.51 0 0 0 .368.147Z"/><path fill-rule="evenodd" clip-rule="evenodd" d="M22.238 8.16c.382 0 .73.21.9.538.166.33.123.721-.11 1.011l-2.661 3.285a.468.468 0 0 0-.105.295v9.27c0 .796-.672 1.44-1.5 1.44h-10c-.829 0-1.5-.644-1.5-1.44v-3.427a.487.487 0 0 0-.433-.48C3.357 18.204.765 15.363.762 12v-1.92c0-1.06.895-1.92 2-1.92h9.75c.276 0 .5.215.5.48V18a.49.49 0 0 1-.5.48h-.75c-.415 0-.75.322-.75.72 0 .397.335.72.75.72h4.5c.414 0 .75-.323.75-.72 0-.398-.336-.72-.75-.72h-1.25a.49.49 0 0 1-.5-.48V8.64a.49.49 0 0 1 .5-.48h7.226ZM7.073 16.562a.473.473 0 0 0 .189-.376V10.56a.49.49 0 0 0-.5-.48h-3.5a.49.49 0 0 0-.5.48V12c.006 2.232 1.62 4.163 3.888 4.654a.516.516 0 0 0 .423-.092Z"/></svg>
