<svg viewBox="0 0 16 16" xmlns="http://www.w3.org/2000/svg">
<path fill-rule="evenodd" clip-rule="evenodd" d="M8.63353 14.7947C7.38988 14.0693 6.42314 12.9715 5.87908 11.6667H7.27521C7.65486 11.6667 7.96262 11.3683 7.96262 11.0001C7.96262 10.6319 7.65486 10.3334 7.27521 10.3334H5.42883C5.243 9.56885 5.1507 8.78568 5.15387 8.00015C5.15302 7.32866 5.22072 6.65874 5.35597 6.00018C7.03854 6.00018 8.43993 6.00045 9.60761 6.00067H9.60864C13.6944 6.00143 14.9182 6.00166 15.3138 5.98818C15.5465 6.0017 15.7688 5.8928 15.8957 5.70309C16.0226 5.51338 16.0345 5.27215 15.9269 5.07153C14.689 1.99043 11.6162 -0.0279624 8.20665 0.000292886C3.04284 0.324287 0.257456 4.06089 0.0196129 7.44082C-0.13784 9.65346 0.657991 11.8303 2.21744 13.4526C3.77688 15.0749 5.96026 15.9973 8.24721 16H8.25202C8.57625 15.9964 8.85222 15.7701 8.90987 15.4607C8.96953 15.2045 8.85949 14.9393 8.63353 14.7947ZM3.97106 10.3332H1.79416C1.25685 8.94383 1.2131 7.41683 1.67001 6H3.89847C3.78533 6.6608 3.72928 7.32983 3.73091 7.99992C3.72984 8.78367 3.8103 9.56548 3.97106 10.3332ZM10.6106 4.66682C10.139 3.37169 9.27721 2.24837 8.14001 1.44629C6.99908 2.24478 6.13618 3.36928 5.66869 4.66682H10.6106ZM14.0179 4.66676H12.0458C11.7038 3.58967 11.1507 2.58871 10.4177 1.72021C11.9386 2.24628 13.2163 3.29204 14.0179 4.66676ZM4.23608 4.66685C4.57209 3.59552 5.11802 2.59909 5.84314 1.73364C4.3408 2.26984 3.07819 3.30815 2.27625 4.66685H4.23608ZM2.48041 11.6663H4.33983C4.67956 12.6134 5.18788 13.4938 5.84108 14.2661C4.46583 13.7766 3.28748 12.865 2.48041 11.6663Z"/>
<path fill-rule="evenodd" clip-rule="evenodd" d="M12.5 7C10.568 7.00229 9.00231 8.55069 9 10.4614C9 12.6567 12.1199 15.7671 12.2522 15.8987C12.3889 16.0338 12.6104 16.0338 12.7471 15.8987C12.8794 15.7671 16 12.6567 16 10.4614C15.9977 8.55069 14.432 7.00229 12.5 7ZM12.5 9.00171C13.3284 9.00171 14 9.6729 14 10.5009C14 11.3288 13.3284 12 12.5 12C11.6716 12 11 11.3288 11 10.5009C11.0005 9.67282 11.6715 9.00142 12.5 9V9.00171Z"/>
</svg>
