<svg viewBox="0 0 12 12" xmlns="http://www.w3.org/2000/svg">
<g clip-path="url(#clip0)">
<path d="M0.75 2.53415C0.3375 2.53415 0 2.86955 0 3.27949V4.02483H6.71251L7.53749 2.53415H0.75Z"/>
<path d="M12 3.27949C12 2.86955 11.6625 2.53415 11.25 2.53415H8.77502L7.95001 4.02483H12V3.27949Z"/>
<path d="M0 5.5155V9.24221C0 9.65215 0.3375 9.98755 0.75 9.98755H3.375L5.84999 5.5155H0Z"/>
<path d="M7.125 5.5155L4.65001 9.98755H11.25C11.6625 9.98755 12 9.65215 12 9.24221V5.5155H7.125Z"/>
<path d="M2.73753 11.7019L8.73753 0.931679C8.92503 0.633542 8.81253 0.260871 8.47503 0.0745358C8.17503 -0.1118 7.80003 1.63447e-06 7.61253 0.335405L1.65003 11.0683C1.46253 11.3665 1.57503 11.7764 1.87503 11.9255C2.17503 12.1118 2.58753 12 2.73753 11.7019Z"/>
</g>
<defs>
<clipPath id="clip0">
<rect width="12" height="12" fill="white"/>
</clipPath>
</defs>
</svg>
