<svg viewBox="0 0 12 12" xmlns="http://www.w3.org/2000/svg">
<path d="M8.875 2C8.94404 2 9 1.94404 9 1.875C9 1.18464 8.44036 0.625 7.75 0.625H1.25C0.559644 0.625 0 1.18464 0 1.875C0 1.90815 0.0131696 1.93995 0.0366117 1.96339C0.0600537 1.98683 0.0918479 2 0.125 2H8.875Z" />
<path fill-rule="evenodd" clip-rule="evenodd" d="M8.871 3.875H8.75C6.82446 3.8774 5.14022 5.1719 4.6425 7.032C4.62817 7.0868 4.57865 7.12502 4.522 7.125H1.25C0.559644 7.125 0 6.56536 0 5.875V2.875C0 2.80596 0.0559644 2.75 0.125 2.75H8.875C8.94404 2.75 9 2.80596 9 2.875V3.75C9.00005 3.78376 8.98632 3.81608 8.962 3.8395C8.93767 3.86309 8.90487 3.87588 8.871 3.875ZM3.25 5H1.75C1.54289 5 1.375 5.16789 1.375 5.375C1.375 5.58211 1.54289 5.75 1.75 5.75H3.25C3.45711 5.75 3.625 5.58211 3.625 5.375C3.625 5.16789 3.45711 5 3.25 5Z" />
<path fill-rule="evenodd" clip-rule="evenodd" d="M5.5 8.125C5.5 6.33007 6.95507 4.875 8.75 4.875C9.61195 4.875 10.4386 5.21741 11.0481 5.8269C11.6576 6.4364 12 7.26305 12 8.125C12 9.91993 10.5449 11.375 8.75 11.375C6.95507 11.375 5.5 9.91993 5.5 8.125ZM8.984 9.2435L10.434 7.3065L10.436 7.3075C10.5603 7.14181 10.5267 6.90676 10.361 6.7825C10.1953 6.65824 9.96026 6.69181 9.836 6.8575L8.47 8.679C8.44838 8.70819 8.41509 8.72648 8.37885 8.72907C8.34262 8.73167 8.30706 8.71831 8.2815 8.6925L7.6315 8.0425C7.53674 7.94774 7.39861 7.91073 7.26916 7.94541C7.13971 7.9801 7.0386 8.08121 7.00391 8.21066C6.96923 8.34011 7.00624 8.47824 7.101 8.573L7.851 9.323C7.99079 9.46393 8.181 9.54329 8.3795 9.5435H8.434C8.65244 9.52892 8.85348 9.41926 8.984 9.2435Z" />
</svg>
