<svg viewBox="0 0 24 20" xmlns="http://www.w3.org/2000/svg"><path d="M23.702 14.788a.824.824 0 0 0-1.124.113c-.01.011-.322.369-.977.852V3.077c0-.07-.009-.13-.032-.192l-.002-.004c.494-.263.834-.763.834-1.343C22.4.69 21.683 0 20.8 0c-.883 0-1.6.69-1.6 1.538 0 .58.339 1.08.833 1.343l-.002.004a.515.515 0 0 0-.032.192v.77H4v-.77c0-.07-.008-.13-.032-.192l-.002-.004c.495-.263.834-.763.834-1.343C4.8.69 4.083 0 3.2 0c-.882 0-1.6.69-1.6 1.538 0 .58.34 1.08.834 1.343l-.002.004a.514.514 0 0 0-.032.192v12.677c-.654-.483-.966-.84-.975-.85a.822.822 0 0 0-1.124-.12.75.75 0 0 0-.125 1.081c.066.08.867 1.004 2.552 1.958l.008.008c.017.01.036.017.052.026C4.681 18.916 7.666 20 12 20c4.335 0 7.32-1.084 9.212-2.143.017-.009.036-.016.053-.026l.008-.008c1.685-.954 2.486-1.878 2.552-1.958a.748.748 0 0 0-.123-1.077ZM4 16.733v-2.117h16v2.117c-1.709.872-4.319 1.729-8 1.729-3.68 0-6.29-.857-8-1.73Z"/></svg>