<svg viewBox="0 0 16 16" xmlns="http://www.w3.org/2000/svg">
  <path fill-rule="evenodd" clip-rule="evenodd" d="M0.333496 7.99992C0.333496 3.76574 3.76598 0.333252 8.00016 0.333252C12.2324 0.338028 15.6621 3.76772 15.6668 7.99992C15.6668 12.2341 12.2343 15.6666 8.00016 15.6666C3.76598 15.6666 0.333496 12.2341 0.333496 7.99992ZM9.97647 9.31451C9.51962 9.50397 9.22189 9.95 9.22216 10.4446C9.2229 11.1194 9.76998 11.6662 10.4448 11.6666C10.9394 11.6666 11.3853 11.3686 11.5745 10.9117C11.7637 10.4547 11.659 9.92876 11.3092 9.57913C10.9593 9.2295 10.4333 9.12506 9.97647 9.31451ZM11.7335 5.21192L5.21216 11.7333C4.95112 11.9943 4.52788 11.9943 4.26683 11.7333C4.00578 11.4722 4.00578 11.049 4.26683 10.7879L10.7882 4.26659C10.957 4.09772 11.2032 4.03177 11.4338 4.09358C11.6645 4.15539 11.8447 4.33557 11.9065 4.56624C11.9683 4.79692 11.9024 5.04305 11.7335 5.21192ZM5.55949 6.77858C6.23449 6.77785 6.7812 6.23025 6.78083 5.55525H6.77816C6.77779 4.88025 6.2305 4.33325 5.5555 4.33325C4.8805 4.33472 4.33439 4.88292 4.3355 5.55791C4.3366 6.23291 4.88449 6.77932 5.55949 6.77858Z" />
</svg>