<svg xmlns="http://www.w3.org/2000/svg" viewBox="0 0 20 20"><g clip-path="url(#clip0)"><path d="M18.9585 0h-5c-.345 0-.625.28-.625.625v7.20238c0 .345.28.625.625.625s.625-.28.625-.625V5h4.375c.345 0 .625-.28.625-.625V.625c0-.345-.28-.625-.625-.625zM17.5 13.75h-6.25c-.6888 0-1.25-.56-1.25-1.25s.5612-1.25 1.25-1.25h1.365c.2588.7262.945 1.25 1.76 1.25 1.035 0 1.875-.84 1.875-1.875 0-1.035-.84-1.875-1.875-1.875-.815 0-1.5025.52375-1.76 1.25H11.25c-1.37875 0-2.5 1.1212-2.5 2.5 0 1.3787 1.12125 2.5 2.5 2.5h6.25c.69 0 1.25.56 1.25 1.25s-.56 1.25-1.25 1.25H6.135c-.25875-.7262-.945-1.25-1.76-1.25-1.035 0-1.875.84-1.875 1.875C2.5 19.16 3.34 20 4.375 20c.815 0 1.5025-.5238 1.76-1.25H17.5c1.3787 0 2.5-1.1213 2.5-2.5s-1.1213-2.5-2.5-2.5z"/><path d="M4.375 3.22998c-2.4125 0-4.375 1.9625-4.375 4.375C0 10.849 3.51 14.7786 3.91 15.2249c.11875.1312.2875.2075.465.2075.1775 0 .34625-.0763.465-.2075.4-.4463 3.91-4.3759 3.91-7.61992 0-2.4125-1.9625-4.375-4.375-4.375zm0 6.25c-1.035 0-1.875-.84-1.875-1.875 0-1.035.84-1.875 1.875-1.875 1.035 0 1.875.84 1.875 1.875 0 1.035-.84 1.875-1.875 1.875z"/></g><defs><clipPath id="clip0"><path d="M0 0h20v20H0z"/></clipPath></defs></svg>
