<svg viewBox="0 0 20 20" xmlns="http://www.w3.org/2000/svg">
    <path d="M20 8.886a4.948 4.948 0 0 0-1.418-3.47 4.491 4.491 0 0 0-2.757-1.32.198.198 0 0 1-.153-.1C14.379 1.743 11.896.54 9.409.962c-2.488.421-4.476 2.382-5.017 4.946a.204.204 0 0 1-.182.166C2.291 6.217.803 7.88.8 9.883c-.04.995.318 1.964.989 2.675a4.324 4.324 0 0 0 2.884 1.147.785.785 0 0 0 .562-.253.852.852 0 0 0 .226-.593c-.017-.456-.374-.817-.812-.82a2.578 2.578 0 0 1-1.738-.667c-.362-.4-.547-.94-.511-1.49a2.182 2.182 0 0 1 .763-1.672 2.018 2.018 0 0 1 1.734-.439.776.776 0 0 0 .648-.155.844.844 0 0 0 .312-.61c.122-2.163 1.637-3.964 3.679-4.374 2.042-.41 4.09.674 4.977 2.633.13.308.43.497.752.475.82-.041 1.62.276 2.207.874.595.593.93 1.414.928 2.272-.01 1.63-1.195 2.99-2.75 3.16-.42.055-.726.441-.698.88.028.44.38.782.803.78.035 0 .07-.003.105-.008 2.356-.27 4.14-2.343 4.14-4.812Z"/>
    <path d="M13.2 14.539h-1.4c-.11 0-.2-.094-.2-.209V8.29c0-.69-.537-1.25-1.2-1.25-.662 0-1.2.56-1.2 1.25v6.045c0 .115-.089.208-.2.208H7.6a.8.8 0 0 0-.738.514.859.859 0 0 0 .173.908l2.8 2.917a.778.778 0 0 0 1.131 0l2.8-2.917a.859.859 0 0 0 .174-.908.8.8 0 0 0-.74-.514v-.003Z"/>
</svg>