<svg viewBox="0 0 24 24" xmlns="http://www.w3.org/2000/svg">
<path d="M8.61593 1.74111C8.61648 0.938316 9.26713 0.287661 10.0699 0.287109H13.4619C14.2643 0.288212 14.9144 0.938706 14.9149 1.74111V9.96911C14.9149 10.1072 15.0269 10.2191 15.1649 10.2191H18.0649C18.5562 10.181 19.0163 10.4635 19.2046 10.9188C19.3929 11.3742 19.2667 11.8991 18.8919 12.2191L12.7919 18.3191C12.2166 18.8682 11.3113 18.8682 10.7359 18.3191L4.63593 12.2191C4.25977 11.8997 4.13263 11.374 4.32121 10.918C4.50978 10.4619 4.97101 10.1796 5.46293 10.2191H8.36293C8.42931 10.2194 8.49306 10.1931 8.54 10.1462C8.58694 10.0992 8.61319 10.0355 8.61293 9.96911L8.61593 1.74111Z"/>
<path d="M0 19.6774C0.00220496 21.9049 1.80744 23.7102 4.035 23.7124H19.965C22.1926 23.7102 23.9978 21.9049 24 19.6774V17.8004C23.9811 17.1377 23.4384 16.6104 22.7755 16.6104C22.1126 16.6104 21.5699 17.1377 21.551 17.8004V19.6744C21.5499 20.5498 20.8405 21.2593 19.965 21.2604H4.035C3.15953 21.2593 2.4501 20.5498 2.449 19.6744V17.8004C2.43006 17.1377 1.88742 16.6104 1.2245 16.6104C0.56158 16.6104 0.0189386 17.1377 0 17.8004V19.6774Z" />
</svg>
