<svg viewBox="0 0 20 20" xmlns="http://www.w3.org/2000/svg"><path d="m10.0001.00097656c-5.51415 0-10.0001 4.48599344-10.0001 10.00012344 0 5.514 4.48595 9.9998 10.0001 9.9998 5.5137 0 9.9999-4.4858 9.9999-9.9998 0-5.51413-4.4862-10.00012344-9.9999-10.00012344zm0 17.67722344c-4.23345 0-7.67746-3.444-7.67746-7.6772 0-4.23334 3.44405-7.67755 7.67746-7.67755 4.2333 0 7.6773 3.44421 7.6773 7.67755 0 4.2332-3.4441 7.6772-7.6773 7.6772z"/><path d="m10.0003 3.20996c-.0219 0-.04309.00153-.06475.00166v6.72352h6.85315c-.0352-3.71422-3.0662-6.72518-6.7884-6.72518z"/></svg>