<svg viewBox="0 0 14 16" xmlns="http://www.w3.org/2000/svg">
    <path d="M11.8 0.427253C11.4903 0.102598 10.9651 0.0803909 10.627 0.377653C10.2888 0.674914 10.2656 1.17908 10.5753 1.50373C12.9107 3.95412 12.8271 7.73405 10.3855 10.0871C7.94385 12.4401 4.00677 12.5349 1.44529 10.3025C1.22701 10.105 0.914719 10.0359 0.628435 10.1218C0.342151 10.2077 0.126415 10.4352 0.0641327 10.7169C0.00185001 10.9985 0.102711 11.2906 0.327957 11.4807C1.50518 12.5134 2.97486 13.188 4.55129 13.4193C4.62741 13.4303 4.68566 13.49 4.69201 13.5637C4.69837 13.6373 4.65115 13.7055 4.57796 13.7284C4.18907 13.8504 3.81023 14.0001 3.44462 14.1764C3.13889 14.328 2.98048 14.6604 3.06093 14.9815C3.14137 15.3027 3.43986 15.5297 3.78396 15.5313H10.806C11.152 15.5305 11.4523 15.3017 11.5316 14.9783C11.611 14.6549 11.4486 14.3215 11.1393 14.1725C10.3053 13.7729 9.40801 13.509 8.48396 13.3917C8.40819 13.381 8.34978 13.3221 8.34236 13.2489C8.33494 13.1758 8.38043 13.1071 8.45262 13.0826C11.0437 12.2252 13.0107 10.1726 13.6853 7.62248C14.3598 5.07232 13.6511 2.36753 11.8 0.427253Z" />
    <path fill-rule="evenodd" clip-rule="evenodd" d="M10.7088 7.65335C9.88648 9.55947 7.94901 10.8023 5.7999 10.8023C2.86706 10.7991 0.490246 8.51767 0.486572 5.70214C0.486303 3.63901 1.78068 1.77887 3.76612 0.989163C5.75155 0.199455 8.03702 0.6357 9.55676 2.09447C11.0765 3.55324 11.5312 5.74723 10.7088 7.65335ZM6.63124 2.51238C6.63124 2.24835 6.40828 2.0343 6.13324 2.0343V2.03494C3.84159 2.03706 1.98418 3.8196 1.98124 6.01958C1.99105 6.27699 2.21126 6.4808 2.47957 6.4808C2.74788 6.4808 2.9681 6.27699 2.97791 6.01958C2.97974 4.34738 4.39136 2.99223 6.13324 2.99046C6.40828 2.99046 6.63124 2.77642 6.63124 2.51238Z" />
</svg>
