<svg viewBox="0 0 16 20" xmlns="http://www.w3.org/2000/svg">
<path fill-rule="evenodd" clip-rule="evenodd" d="M3.59173 3.50173C2.81173 2.70192 2.81173 1.39967 3.59173 0.599856C4.37173 -0.199952 5.64173 -0.199952 6.42173 0.599856C7.20173 1.39967 7.20173 2.70192 6.42173 3.50173C5.63173 4.31179 4.37173 4.31179 3.59173 3.50173ZM2 14.3604V5.13184H0V14.3604C0 17.1905 2.24 19.4874 5 19.4874H11V17.4366H5C3.34 17.4366 2 16.0626 2 14.3604ZM10.93 13.335L16 18.5338L14.57 20.0001L11.07 16.4112H6C4.34 16.4112 3 15.0372 3 13.335V7.43898C3 6.16749 4.01 5.13184 5.25 5.13184H5.28C5.62 5.13184 5.95 5.22412 6.24 5.36768C6.5 5.49072 6.74 5.66504 6.93 5.88037L8.33 7.46974C9.39 8.66945 11.34 9.58205 13 9.56155V11.7764C11.1 11.7764 8.9 10.7408 7.5 9.56155V13.335H10.93Z"/>
</svg>
