<svg viewBox="0 0 30 30" xmlns="http://www.w3.org/2000/svg"><path d="M14.239 17.96a1.502 1.502 0 002.121 0L27.983 6.337a.6.6 0 00-.337-1.019 2.36 2.36 0 00-.344-.025h-24a2.36 2.36 0 00-.347.025.6.6 0 00-.337 1.019l11.62 11.623z"/><path d="M29.568 7.492a.218.218 0 00-.24.047l-7.44 7.44a.301.301 0 000 .425l6.051 6.051a.9.9 0 11-1.271 1.273l-6.052-6.051a.3.3 0 00-.425 0l-2.555 2.555a3.3 3.3 0 01-4.665 0l-2.557-2.553a.301.301 0 00-.425 0l-6.052 6.052a.9.9 0 01-1.272-1.273l6.052-6.052a.301.301 0 000-.425l-7.44-7.44a.216.216 0 00-.24-.047.218.218 0 00-.135.2v14.4a2.4 2.4 0 002.4 2.4h24a2.4 2.4 0 002.4-2.4v-14.4a.217.217 0 00-.134-.202z"/></svg>