<svg enable-background="new 0 0 18.5 18.5" viewBox="0 0 18.5 18.5" xmlns="http://www.w3.org/2000/svg"><path d="m9.1 9.1c.2-.1.4-.3.6-.4.1 0 .1-.1.1-.2s-.1-.1-.1-.2l-1-.4c-.1 0-.1-.1-.1-.2v-.9c0-.1 0-.1.1-.1.2-.5.4-1.1.4-1.7 0-.1 0-.1.1-.1.3-.3.4-.7.4-1.1 0-.3-.1-.6-.2-.8 0-.1-.1-.1 0-.2.2-.4.2-.9.1-1.3-.3-1.1-1.6-1.5-2.7-1.5-.9-.1-1.8.3-2.4 1 0 .1-.1.1-.2.1-.2 0-.5.1-.6.3-.3.4-.1.9.1 1.3v.2s-.1.1-.1.2c-.2.2-.3.5-.3.8 0 .4.2.8.5 1 .1 0 .1.1.1.1 0 .6.2 1.2.7 1.7 0 0 .1.1.1.1v.9c0 .1 0 .1-.1.2l-3 1.3c-1 .4-1.1 1.3-1.3 2.5 0 .3-.1.6-.2.9 0 .1 0 .2.1.3s.2.1.3.1h6.8c.1 0 .2-.1.2-.2 0-1.3.6-2.7 1.6-3.7zm8.6 4.9c-.2-.1-.4 0-.6.1s-.3.3-.4.5c-.5 1.7-2.3 2.7-4 2.4-1.7-.4-2.9-2-2.7-3.7s1.7-3.1 3.4-3.1c.4 0 .8-.3.8-.8 0-.4-.3-.8-.8-.8-2.6 0-4.7 1.9-5 4.5s1.5 4.9 4 5.4 5-1 5.8-3.4c.2-.5-.1-1-.5-1.1zm-.5-4.2-3.6 3.6s-.1.1-.1.1c-.1 0-.1 0-.1-.1l-.9-.9c-.3-.3-.8-.3-1.1 0s-.3.8 0 1.1l1.2 1.2c.5.5 1.3.5 1.8 0l3.9-3.9c.2-.2.3-.5.2-.7-.1-.3-.3-.5-.5-.5-.4-.2-.7-.1-.8.1z"/></svg>