<svg fill="none" xmlns="http://www.w3.org/2000/svg" viewBox="0 0 14 14"><path d="M13.15 3.57 7.24.13a1.09 1.09 0 0 0-1.05 0L.29 3.58a.6.6 0 0 0-.22.8c.15.28.5.38.76.22l5.8-3.4c.05-.02.1-.02.14 0l5.84 3.4c.27.16.6.06.76-.22a.6.6 0 0 0-.22-.8Z"/><path d="M6.72 7.3c.77 0 1.4-.66 1.4-1.47 0-.8-.63-1.46-1.4-1.46-.77 0-1.4.66-1.4 1.46 0 .8.63 1.46 1.4 1.46Zm0 .28a2 2 0 0 0-1.96 2.04v1.17c0 .16.13.3.28.3h.33c.15 0 .27.1.28.26l.23 2.39c.02.15.14.26.28.26h1.12c.14 0 .27-.11.28-.26l.23-2.4a.28.28 0 0 1 .28-.26h.33c.15 0 .28-.13.28-.29V9.62a2 2 0 0 0-1.96-2.04Zm4.62.3c.7 0 1.26-.6 1.26-1.32 0-.72-.56-1.31-1.26-1.31s-1.26.59-1.26 1.31c0 .73.56 1.32 1.26 1.32Zm0 .29c-1 0-1.82.85-1.82 1.9v1.01c0 .16.13.3.28.3h.26c.15 0 .27.1.28.26l.21 2.1c.01.15.14.26.28.26h1.03c.14 0 .26-.11.28-.26l.2-2.1a.28.28 0 0 1 .28-.26h.26c.16 0 .28-.14.28-.3v-1.02c0-1.04-.81-1.9-1.82-1.9ZM2.1 7.88c.7 0 1.26-.6 1.26-1.32 0-.72-.56-1.31-1.26-1.31S.84 5.84.84 6.56c0 .73.56 1.32 1.26 1.32Zm0 .29c-1 0-1.82.85-1.82 1.9v1.01c0 .16.13.3.28.3h.26c.15 0 .27.1.28.26l.21 2.1c.01.15.14.26.28.26h1.02c.15 0 .27-.11.28-.26l.2-2.1a.28.28 0 0 1 .29-.26h.26c.15 0 .28-.14.28-.3v-1.02c0-1.04-.82-1.9-1.82-1.9Z"/></svg>