<svg viewBox="0 0 20 20" xmlns="http://www.w3.org/2000/svg"><path d="M14.166 1.252a4.354 4.354 0 0 0-2.895 1.202l-9.167 9.19c-.205.21-.374.453-.5.718a.209.209 0 0 1-.264.102l-.433-.173a1.338 1.338 0 0 1-.88-1 1.344 1.344 0 0 1 .416-1.267L9.61.835A3.12 3.12 0 0 1 11.621 0h4.167a1.656 1.656 0 0 1 1.5.955.207.207 0 0 1-.087.272.208.208 0 0 1-.101.026h-2.934Z"/><path d="m2.988 12.53 9.167-9.19a3.275 3.275 0 0 1 2.012-.835h4.167a1.665 1.665 0 0 1 1.667 1.671v4.177a3.292 3.292 0 0 1-.834 2.016L10 19.56A1.425 1.425 0 0 1 8.994 20c-.086 0-.173-.009-.258-.026a1.381 1.381 0 0 1-1-.883L6.578 16.19a.418.418 0 0 0-.232-.232L3.45 14.796a1.338 1.338 0 0 1-.88-1 1.345 1.345 0 0 1 .416-1.267h.002Zm12.43-4.177a1.248 1.248 0 0 0 1.154-.774 1.255 1.255 0 0 0-.91-1.708 1.247 1.247 0 0 0-1.284.533 1.255 1.255 0 0 0 1.04 1.949Z"/></svg>