<svg viewBox="0 0 16 16" xmlns="http://www.w3.org/2000/svg"><path d="m8.00016 5.66668h4.66664c.3682 0 .6667-.29848.6667-.66667s-.2985-.66667-.6667-.66667h-4.66664c-.36819 0-.66666.29848-.66666.66667s.29847.66667.66666.66667z"/><path d="m16 2.94333c.0001-.35382-.1404-.69318-.3907-.94333l-1.6093-1.609333c-.2501-.250229-.5895-.39076829-.9433-.39066695h-7.72336c-.73638 0-1.33333.59695395-1.33333 1.33332995v4.85c-.00076.09029.07106.16449.16133.16667.244.004.692.02267.99.05533.04675.00517.09347-.00999.12829-.04161.03482-.03163.05438-.07669.05371-.12372v-4.57333c0-.1841.14924-.33334.33333-.33334h7.25263c.0883.00002.1729.03502.2354.09734l1.4146 1.41466c.0624.06247.0974.1471.0974.23534v8.91933c0 .1841-.1493.3333-.3334.3333h-4.57196c-.08082.0005-.14912.06-.16067.14-.05004.331-.13129.6564-.24266.972-.01909.05-.01235.1062.01801.1503s.08046.0704.13399.0704h5.15669c.7364 0 1.3333-.597 1.3333-1.3333z"/><path d="m11.6665 8.00001c0-.36819-.2985-.66667-.6667-.66667h-2.66668c-.16032.00028-.31452.06153-.43133.17134-.02949.02667-.04632.06457-.04632.10433s.01683.07766.04632.10433c.29529.26545.56024.56283.79.88667.03074.04283.08062.06777.13333.06667h2.17468c.3682 0 .6667-.29848.6667-.66667z"/><path clip-rule="evenodd" d="m0 11.6667c0-2.39326 1.9401-4.33336 4.33333-4.33336 2.39202.00294 4.3304 1.94132 4.33334 4.33336 0 2.3932-1.9401 4.3333-4.33334 4.3333-2.39323 0-4.33333-1.9401-4.33333-4.3333zm5.39533 1.7673c.19514.1945.51087.1945.706 0 .09376-.0935.14645-.2205.14645-.353 0-.1324-.05269-.2594-.14645-.353l-.94333-.9433c-.06456-.0654-.06456-.1706 0-.236l.94267-.9427c.18357-.197.17815-.504-.01226-.6944-.1904-.19041-.4974-.19583-.69441-.01226l-.94267.94266c-.06542.0646-.17057.0646-.236 0l-.94266-.94266c-.19701-.18357-.50401-.17815-.69442.01226-.19041.1904-.19582.4974-.01225.6944l.94267.9427c.06455.0654.06455.1706 0 .236l-.942.9433c-.18786.1961-.18451.5064.00752.6985.19204.192.50235.1954.69848.0075l.94266-.9427c.06543-.0645.17058-.0645.236 0z" fill-rule="evenodd"/></svg>