<svg viewBox="0 0 15 12" xmlns="http://www.w3.org/2000/svg"><g clip-rule="evenodd" fill-rule="evenodd"><path d="m9.36321 3.45422h-8.0427c-.382053 0-.694641-.33024-.694641-.73387s.312588-.73387.694641-.73387h8.0427c.29889-1.060996 1.22919-1.834686 2.33059-1.834686 1.3427 0 2.4312 1.149986 2.4312 2.568556 0 1.41858-1.0885 2.56856-2.4312 2.56856-1.1014 0-2.0317-.77369-2.33059-1.83469zm.59396-.73387c0-1.01327.77753-1.834682 1.73663-1.834682s1.7366.821412 1.7366 1.834682-.7775 1.83468-1.7366 1.83468-1.73663-.82141-1.73663-1.83468z"/><path d="m5.38678 8.2244h8.04272c.382 0 .6946.33024.6946.73387s-.3126.73388-.6946.73388h-8.04272c-.29888 1.06095-1.22919 1.83465-2.33055 1.83465-1.34273 0-2.43123-1.15-2.43123-2.56853 0-1.41857 1.0885-2.56855 2.43123-2.56855 1.10136 0 2.03167.77369 2.33055 1.83468zm-4.06714.73387c0-1.01326.7775-1.83468 1.73659-1.83468.9591 0 1.7366.82142 1.7366 1.83468 0 1.01327-.7775 1.83473-1.7366 1.83473-.95909 0-1.73659-.82146-1.73659-1.83473z"/></g></svg>