<svg viewBox="0 0 18 20" xmlns="http://www.w3.org/2000/svg"><path clip-rule="evenodd" d="m5.06725 20c-1.3817-2.7736-.64589-4.3629.41604-5.8602 1.16292-1.6398 1.46262-3.263 1.46262-3.263s.91419 1.1465.54848 2.9396c1.61504-1.7343 1.91984-4.49764 1.67596-5.55593 3.65055 2.46113 5.21075 7.79013 3.10815 11.73953 11.1832-6.1041 2.7818-15.23772 1.3191-16.26657.4876 1.02881.58 2.7705-.4049 3.61575-1.6673-6.09919-5.78969-7.34918-5.78969-7.34918.48756 3.14539-1.76734 6.58485-3.94175 9.15488-.07638-1.25422-.15754-2.11969-.84122-3.31991-.15346 2.27842-1.958391 4.13569-2.447163 6.41853-.662062 3.0915.495924 5.3551 4.894373 7.7465" fill-rule="evenodd"/></svg>