<svg viewBox="0 0 64 42" xmlns="http://www.w3.org/2000/svg"><path d="M57.676 14.007H20.778a1.261 1.261 0 0 1-.893-.382l-3.95-3.962a2.522 2.522 0 0 0-1.788-.746H6.6c-.879 0-1.695.457-2.156 1.21a2.558 2.558 0 0 0-.106 2.48l6.324 12.724a2.513 2.513 0 0 0 2.262 1.408h14.874c.257 0 .488.154.586.392a.64.64 0 0 1-.138.694l-9.777 9.828a2.556 2.556 0 0 0-.551 2.774A2.53 2.53 0 0 0 20.254 42h9.071c.671 0 1.315-.268 1.789-.746l14.068-14.141a1.26 1.26 0 0 1 .892-.372h11.602c3.492 0 6.324-2.848 6.324-6.362 0-3.514-2.831-6.362-6.324-6.362v-.01Z" fill="#2f7ddd"/><path d="M30.221 11.08c.237.238.558.372.893.372h11.637a.632.632 0 0 0 .583-.394.639.639 0 0 0-.138-.693L33.634.745A2.522 2.522 0 0 0 31.845 0h-6.531a2.53 2.53 0 0 0-2.337 1.571 2.556 2.556 0 0 0 .548 2.773l6.696 6.736Z" fill="#2f7ddd"/><path d="M53.61 14.007H16.71a1.261 1.261 0 0 1-.893-.382L11.87 9.663a2.522 2.522 0 0 0-1.788-.746H2.532c-.878 0-1.695.457-2.156 1.21a2.558 2.558 0 0 0-.105 2.48l6.324 12.724a2.513 2.513 0 0 0 2.261 1.408h14.875c.256 0 .487.154.585.392a.639.639 0 0 1-.137.694l-9.777 9.828a2.556 2.556 0 0 0-.552 2.774A2.53 2.53 0 0 0 16.187 42h9.072c.67 0 1.314-.268 1.788-.746l14.068-14.141a1.26 1.26 0 0 1 .893-.372h11.601c3.493 0 6.324-2.848 6.324-6.362 0-3.514-2.831-6.362-6.324-6.362v-.01Z"/><path d="M26.154 11.08c.237.238.558.372.893.372h11.637a.632.632 0 0 0 .583-.394.639.639 0 0 0-.138-.693L29.567.745A2.522 2.522 0 0 0 27.778 0h-6.531a2.53 2.53 0 0 0-2.337 1.571 2.556 2.556 0 0 0 .548 2.773l6.696 6.736Z"/></svg>
