<svg viewBox="0 0 14 16" xmlns="http://www.w3.org/2000/svg"><path clip-rule="evenodd" d="m8.24977 10.6667c-.92048 0-1.66667.7462-1.66667 1.6667l-.00267 2.6666c.00095.1537.02339.3065.06667.454.01444.0503.00443.1044-.02701.1462-.03145.0418-.08069.0664-.13299.0665h-1.23733c-.36819 0-.66667-.2985-.66667-.6667v-8.58598l-3.874-3.874c-.378791-.39256-.37308-1.01626.012838-1.40182.385922-.385551 1.009632-.390675 1.401832-.01151l3.46666 3.46666h2.65934c1.47199.00184 2.66483 1.19467 2.66663 2.66667v2.41c-.0048.067-.0182.1331-.04.19666.6952.14742 1.196.75612 1.2067 1.46672v.3333h.8333c.3682 0 .6667.2985.6667.6667v2.6666c0 .3682-.2985.6667-.6667.6667h-4.66663c-.36819 0-.66667-.2985-.66667-.6667v-2.6666c0-.3682.29848-.6667.66667-.6667h.83333v-.3333c.00165-.232.05759-.4603.16333-.6667.07044-.1444.16337-.2768.27534-.392-.17192-.1556-.27061-.37617-.272-.60801v-2.57334c0-.18409-.14924-.33333-.33334-.33333-.18409 0-.33333.14924-.33333.33333v3.40665c0 .0921-.07462.1667-.16667.1667zm2.83333 1v-.3333c0-.2762-.2239-.5-.5-.5s-.5.2238-.5.5v.3333z" fill-rule="evenodd"/><path d="m6.58317 3.66668c.92048 0 1.66667-.7462 1.66667-1.66667s-.74619-1.666666-1.66667-1.666666c-.92047 0-1.66667.746196-1.66667 1.666666s.7462 1.66667 1.66667 1.66667z"/></svg>