<svg viewBox="0 0 23 24" xmlns="http://www.w3.org/2000/svg"><path d="M6.343.84A1.125 1.125 0 0 0 5.27 0c-.496 0-.934.342-1.072.84L.069 15.681a1.877 1.877 0 0 0 .279 1.595c.328.456.843.724 1.39.724h2.095a.49.49 0 0 1 .479.5V23c0 .552.429 1 .958 1 .529 0 .958-.448.958-1v-4.5c0-.276.214-.5.479-.5h2.095c.547 0 1.061-.268 1.39-.724a1.876 1.876 0 0 0 .278-1.594L6.343.84ZM16.768 3c-3.182-.002-5.853 2.498-6.196 5.8-.343 3.3 1.753 6.34 4.861 7.05.22.05.377.253.377.488V23c0 .552.429 1 .958 1 .529 0 .958-.448.958-1v-6.662c0-.235.157-.438.377-.488 3.108-.71 5.204-3.75 4.86-7.05-.342-3.302-3.014-5.802-6.195-5.8Z"/></svg>