<svg viewBox="0 0 24 24" xmlns="http://www.w3.org/2000/svg"><path d="M23.998.923A.923.923 0 0 0 23.076 0H.924a.923.923 0 0 0-.923.923A13.098 13.098 0 0 0 6.32 12.3l-1.75 5.236h-1.8a.923.923 0 1 0 0 1.846h1.183l-1.135 3.4a.925.925 0 0 0 1.754.585L5.9 19.382h9.962a2.77 2.77 0 0 0 2.599 1.846c.085 0 .164-.017.248-.025l.723 2.164a.924.924 0 1 0 1.754-.585l-.785-2.348c.296-.297.521-.656.66-1.052h.169a.923.923 0 0 0 0-1.846h-.17a2.763 2.763 0 0 0-2.235-1.809L17.68 12.3A13.1 13.1 0 0 0 24 .923Zm-6.991 15.19a2.77 2.77 0 0 0-1.146 1.424H6.516l1.485-4.445a10.989 10.989 0 0 0 7.997 0l1.009 3.021Z"/></svg>