<svg viewBox="0 0 20 20" xmlns="http://www.w3.org/2000/svg"><path clip-rule="evenodd" d="m19.735 7.20408c-.1614-.15114-.3763-.23194-.5973-.22459s-.43.10223-.581.26376c-1.5317 1.6375-2.3067 2.81005-2.3067 3.48585v6.25c0 .4602-.3731.8333-.8333.8333-.4603 0-.8334-.3731-.8334-.8333v-11.25002c0-1.15059-.9327-2.08333-2.0833-2.08333h-.2067c-.115 0-.2083-.09327-.2083-.20833v-1.45833c-.0009-.80504-.6533-1.45742-1.4583-1.458338h-9.1667c-.805495.000458-1.45862164.652838-1.46 1.458338v15.83331c.0013762.8049.653489 1.457 1.45833 1.4584h9.16667c.805-.001 1.4574-.6533 1.4583-1.4584v-12.29165c0-.11506.0933-.20833.2084-.20833h.2083c.2301 0 .4167.18655.4167.41666v11.25002c0 1.3807 1.1193 2.5 2.5 2.5s2.5-1.1193 2.5-2.5v-1.8558c-.0004-.0791.0442-.1515.115-.1867l.8608-.4308c.4242-.2107.692-.6439.6908-1.1175v-.9925c0-.6904-.5596-1.25-1.25-1.25h-.2166c-.1144 0-.2075-.0923-.2084-.2067v-.13c.5121-.88823 1.1398-1.70452 1.8667-2.42752.314-.33625.2961-.86332-.04-1.1775zm-10.7775 5.81672c0 .2301-.18655.4166-.41667.4166h-.83333c-.23012 0-.41667-.1865-.41667-.4166v-2.5c0-.2302.18655-.4167.41667-.4167h.83333c.23012 0 .41667.1865.41667.4167zm.41667-6.87505c.23012 0 .41666-.18655.41666-.41667v-2.49999c0-.23012-.18654-.41667-.41666-.41667h-6.66667c-.23012 0-.41667.18655-.41667.41667v2.49999c0 .23012.18655.41667.41667.41667z" fill-rule="evenodd"/></svg>