<svg xmlns="http://www.w3.org/2000/svg" viewBox="0 0 24 24"><path d="M21.28 19.81l2.42 2.42c.4.4.4 1.06 0 1.47-.41.4-1.07.4-1.48 0l-2.41-2.42a5.33 5.33 0 111.47-1.47zm-.66-2.96a3.77 3.77 0 10-7.54 0 3.77 3.77 0 007.54 0zM16.44 4.6h-.26a.35.35 0 01-.31-.2l-1.32-2.6a.72.72 0 00-.63-.38h-.5a.35.35 0 01-.35-.36V.9c0-.5-.4-.89-.88-.89h-1.77c-.5 0-.89.4-.89.89v.17c0 .2-.16.36-.35.36H7.76a.35.35 0 01-.35-.36V.9A.89.89 0 006.52 0H4.75c-.49 0-.88.4-.88.89v.17c0 .2-.16.36-.36.36h-.49a.7.7 0 00-.63.39l-1.3 2.6a.35.35 0 01-.32.2H.53a.53.53 0 000 1.06h15.9a.53.53 0 000-1.07zM6.34 3.2c0 .2-.15.35-.35.35h-.7a.35.35 0 01-.36-.35V1.42c0-.2.16-.36.35-.36H6c.2 0 .36.16.36.36zm5.32.35c.2 0 .35-.16.35-.35V1.42c0-.2-.16-.36-.35-.36h-.71c-.2 0-.35.16-.35.36v1.77c0 .2.15.35.35.35zM1.74 6.73H15.2c.2 0 .35.07.35.27v3.15c-.52.17-.79.26-1.04.37-.26.1-.5.22-1 .46H1.73a.35.35 0 01-.35-.35V7.08c0-.2.16-.35.35-.35zm3.9 3.19c.2 0 .35-.16.35-.36V8.15c0-.2-.16-.36-.35-.36H4.22c-.2 0-.35.16-.35.36v1.41c0 .2.16.36.35.36zm3.9-.36c0 .2-.17.36-.36.36H7.76a.35.35 0 01-.35-.36V8.15c0-.2.16-.36.35-.36h1.42c.2 0 .35.16.35.36zm3.18.36c.2 0 .36-.16.36-.36V8.15c0-.2-.16-.36-.36-.36H11.3c-.2 0-.35.16-.35.36v1.41c0 .2.16.36.35.36z"/><path d="M12.06 12.04H1.76c-.2 0-.36.16-.36.36v3.9c0 .38.32.7.71.7h4.25c.2 0 .35-.16.35-.35v-2.13c0-.39.32-.7.71-.7h2.13c.39 0 .7.31.7.7v.6a7 7 0 011.8-3.08z"/></svg>
