<svg viewBox="0 0 21 14" xmlns="http://www.w3.org/2000/svg">
<path fill-rule="evenodd" clip-rule="evenodd" d="M6.32066 10.9297L11.4223 13.7078L6.80125 10.2718L6.32066 10.9297Z" />
<path fill-rule="evenodd" clip-rule="evenodd" d="M3.88172 13.2692L11.756 14.0003L3.99262 12.465L3.88172 13.2692Z" />
<path fill-rule="evenodd" clip-rule="evenodd" d="M7.65153 4.31342C7.76243 4.1672 7.65153 4.24031 7.98425 4.27687C8.02121 4.67895 8.05818 4.42308 8.16909 4.75206C8.13212 4.75206 8.16909 4.75206 8.13212 4.78862C7.87334 4.93483 7.87334 5.04449 7.57759 5.04449C7.57759 5.00794 7.54062 5.00794 7.54062 5.00794C7.46669 4.93483 7.39275 4.86172 7.28184 4.86172C7.28184 4.86172 7.28184 4.82517 7.24487 4.82517C7.24487 4.71551 7.28184 4.56929 7.28184 4.38653V4.34997C7.35578 4.34997 7.42972 4.34997 7.54062 4.31342H7.65153Z"/>
<path fill-rule="evenodd" clip-rule="evenodd" d="M5.47137 4.64279C5.65621 4.38692 5.5453 4.49658 5.91499 4.46003C5.91499 4.46003 5.95196 4.46003 5.95196 4.49658C6.1368 4.56969 6.06286 4.49658 6.1368 4.75246C6.09983 4.82556 6.09983 4.93522 6.06286 5.08144C6.06286 5.15454 6.06286 5.22765 6.0259 5.33731V5.37387C5.98893 5.37387 5.98893 5.37387 5.98893 5.41042C5.87802 5.41042 5.80408 5.41042 5.65621 5.44697V5.41042C5.32349 5.11799 5.50834 5.1911 5.21259 5.04488H5.17562C5.21259 4.97178 5.21259 4.89867 5.21259 4.78901H5.24956C5.28652 4.75246 5.39743 4.75245 5.39743 4.7159L5.47137 4.64279Z"/>
<path fill-rule="evenodd" clip-rule="evenodd" d="M5.69318 6.47035C5.84105 6.14137 5.73015 6.21448 6.06286 6.21448V6.25103C6.54346 6.39725 6.32164 6.28759 6.46952 6.65312C6.65436 6.87244 6.61739 6.72623 6.58042 7.01866C6.32164 7.16487 6.32164 7.49385 5.91499 7.38419C5.76712 7.34764 5.39743 7.12832 5.36046 6.9821C5.39743 6.58001 5.28652 6.72623 5.61924 6.58001L5.69318 6.47035Z" />
<path fill-rule="evenodd" clip-rule="evenodd" d="M5.54512 9.06504C5.50815 9.02848 5.50815 8.99193 5.47118 8.95538V8.91882C5.54512 8.66295 5.47118 8.80916 5.87784 8.73606C6.02571 8.58984 5.95177 8.66295 6.24752 8.66295C6.76508 8.84572 6.83902 8.77261 6.76508 9.32091C6.83902 9.39402 6.98689 9.57679 6.80205 9.723C6.65418 9.83266 6.21055 10.1616 6.02571 10.0885C5.87784 10.0154 5.32331 9.83266 5.39724 9.61334C5.61906 9.35747 5.54512 9.50368 5.54512 9.21125V9.06504Z" />
<path fill-rule="evenodd" clip-rule="evenodd" d="M2.88242 8.88275C3.06726 8.62688 2.95635 8.69998 3.2521 8.62688V8.66343C3.28907 8.66343 3.65876 8.66343 3.69572 8.80965C3.8436 9.06552 4.06541 9.24829 4.02844 9.57727C3.8436 9.72348 3.9545 9.65038 3.76966 9.72348C3.28907 10.1987 3.43694 10.089 3.03029 9.76004C2.77151 9.76004 2.91938 9.79659 2.77151 9.61382C2.58667 9.21173 2.58667 9.43106 2.73454 9.02897L2.88242 8.88275Z" />
<path fill-rule="evenodd" clip-rule="evenodd" d="M3.28969 11.4411C3.58544 11.5873 3.43757 11.4776 3.62241 11.8431C3.58544 11.8797 3.58544 11.9163 3.58544 11.9894C3.54847 11.9894 3.54847 12.0259 3.54847 12.0259C3.54847 12.2818 3.54847 12.428 3.36363 12.6108C3.21575 12.7204 3.06788 12.5377 2.95697 12.5377C2.62426 12.5011 2.25457 12.6108 2.40245 12.1356C2.43941 11.9894 2.55032 11.6969 2.62426 11.4776C2.66123 11.3314 2.88304 11.2583 3.03091 11.3314C3.14182 11.4411 3.06788 11.368 3.28969 11.4411Z" />
<path fill-rule="evenodd" clip-rule="evenodd" d="M0.368474 13.0864C0.553317 12.8305 0.553317 12.7574 0.73816 13.0498V13.0864C0.849066 13.0864 0.923003 13.0498 0.99694 13.0498C0.99694 13.2691 1.14481 13.525 1.07088 13.6712C0.959971 13.9271 0.812097 13.8174 0.590286 13.7809C0.368474 13.7809 0.294537 13.9636 0.109694 13.854C-0.149086 13.6712 0.109694 13.3788 0.257568 13.2691C0.257568 13.2326 0.257568 13.2326 0.294537 13.196L0.368474 13.0864Z" />
<path fill-rule="evenodd" clip-rule="evenodd" d="M7.42972 6.90837L11.9029 13.8901L8.16909 6.54284L7.42972 6.90837Z" />
<path d="M15.4144 12.5749V10.8569H12.9006V12.5383C12.9006 14.3295 15.4144 14.2929 15.4144 12.5749Z" />
<path d="M19.9999 0H16.3766C15.3045 0 14.75 0.584856 14.4912 1.24282L13.0864 4.75196C12.5319 4.82507 11.5707 5.44648 11.5707 6.65274V10.0888C11.5707 10.6736 12.0143 10.9661 12.6058 10.9661H20.0372L19.9999 0ZM15.6742 4.75196C15.3045 4.75196 15.0457 4.34987 15.1936 3.98433L15.896 2.30287C16.1178 1.90078 16.2287 1.49869 16.6724 1.46214H19.9999V4.75196H15.6742ZM13.3082 7.53003C13.3082 6.87206 13.8258 6.32376 14.4542 6.32376C15.1197 6.32376 15.6372 6.87206 15.6372 7.53003C15.6372 8.18799 15.1197 8.69974 14.4542 8.69974C13.8258 8.69974 13.3082 8.15144 13.3082 7.53003Z"/>
</svg>