<svg xmlns="http://www.w3.org/2000/svg" viewBox="0 0 244 244">
  <path d="M239.8 90.4c17.4 65.1-21.2 131.9-86.2 149.4-65.1 17.4-132-21.2-149.4-86.2-17.5-65.1 21.2-132 86.2-149.4 65.1-17.4 132 21.2 149.4 86.2zm-89.8 136c57.6-15.4 91.8-74.7 76.4-132.3C210.9 36.4 151.7 2.2 94 17.7 36.4 33.1 2.2 92.3 17.6 150s74.7 91.8 132.4 76.4z" class="st0"/>
  <path d="M75.3 124.6c.1-.1 0-.2-.1-.4-.3-.3-.4-.3-.2 0 .1.1.2.3.2.4s.1.1.1 0z"/>
  <path d="M155.3 26.8c-21-9.7-71.4-7-77.9 8-1.4 3.6 4.7-3.3 2.3 0-.5.9.5 2.6-1 3.3-.5.7.5.7 1 .7.3.4.2 1.1.5 2-1.2.9.8 5.2-.6 4-.5-.3-1.1-1.3-1.5-.8-.4-.7.2-2.4-.5-3.3-1.1.9.6 5.1-1.5 4.6-.6-2-1.1-6.3-3.1-7.6-1.4-.3-.2-3.3-2-2.3-4-.4-1.7 3.5-2.2 6.1-.7 1.2.2 1.9 1.1 2.6-.4.6-2.3.3-3-.4-1.9.8 3.9 4.1 4.7 5.2-2 3.1-6.2 3.8-9.7 3.1-.6-1.2-3.2-.8-2.6-2.2-.2.6-1.4 1.1-1.3 0-.8 1.5-1.2 1-1-.8-.1 1-.7 1.3-1.3.5.7-1.2 1.7-4.6-.1-2.3-27.7 19.9-41.8 63.4-31.4 100.9 17.4 97.6 178.9 91.2 184.3 15-3.7.2-3.3 1.8-2.6 4-3.7 2.7-3.1 2-5.9 1.2.4.8-1.2.4-1.2 0-.4-1.3-1.5 3.2-1.6 1.6.7-1.1-.8-.1-1 .3-3 1.9 1.4-1.8 1.2-2.4-.6.7-5.3 3-3.3 1 1-.2.7-.5.1-.8-1.4-.1-.6 1.1-1.7-.5-1.3-.4 1.5-1.8-2-1.5-.5-.6-.1-.2-.4.1-.8.9-2.2 0-1.4-.7-1.7-2.4.9 0 1.6-.8 1-.5-1.2.1-1.3-.7-.2-.5 1.4-1.7.2-1.3-.8.4-.3-1.2-1.6-.8-.3-.1.5-1.6.1-1.5-2.7 3.5-4.4-1.5-2.4-4.3-2.1 1.7-3 .5-5.7 1-.6 1.9-5.6 3.2-2.7 4.2.4-.3 1.8 0 2.1.6-1.4-.1-3.7-.8-1.1 1.1.2 1.1-1.7-.8-2.1-.3-1.7.7 3 .8.7 1.3-1.3.6-.8-1.4-2.4-.8-1.4.3-.6-1.4-1.2-.6-1.9 2.6 7.3 4.7 2.9 4.9-.2.9 1.3 1 1.7.2.9.5 1.9.9 2.8.5 1.2-.8 1.3 2 2.5 1.4 1.1-.4 1.1.7.4 1-1.6.1-1.8-1.8-3.4-.6-.9.6 2.3-.3 1.7.7-.1.7 1.4 1.4.7 2-.3.3-2.4-1.4-2.4-.7.1.2-2 1.4-1 1.2.5.7 1.8.7 2.2 1.2-.5 1-4.3-.2-2.1 1.3 1.3.7 1.6 1.7 2.5 2.7 1.2.9-.7.6-1.2.1-2.2-1.6.3 2.5-1.1 1.6-.7-.7-.4-.9-1.3-1.5-1.9-2.1.1 3.7-2.2.4-.6-3.1-4.8-2-2.6-4.9 1.8-1.2-1.2 0-1.5.1-1.2-1.6-2.9-2.2-4.8-3.4-1.8-2-4.8-1.7-5-4.5-.5-5-2.4-4.7-6.7-6-.7-.3-5.2-.1-3.8-.7 2.8.1-1.7-1.1-2.6-1-3.8 1.2-5.8-3-8.4-5.4-1.6-1-.7 2.1-1.6 2.9-2.5-1.5-1.5-5-2.5-3.9-5.2 3.5-2.1 1.7-1.8 6.6 2.4 2.8 6.1 1.7 7.6 5.6 2.4 2.6 5.1 2 8.1 1.3.2 1.6-1.7 2.3 2.2 2.2 2.7 0 10.6 1.5 7.2 4-2.7-2.6-6.2-1.3-5.1 2.5 1.5-.1 4.9 1.5 2.5 3.1-1.6 1 0 7-3.2 5-.8-1.1-.7 3.3-.7 3.5.5.6 1.5.7 1 1.7 0 3.2-2.8.6-4.8.8-2-.2-8.6-.4-5.3-3.3 1.2 1.1 1.1-2 2.9-.4 2.5-.3 4.5-2.4 6.3-3.3 2.3-1.2-.5-8-3.8-7.1-1.2-.3-1.1-.3-1.5-1.4-.7-1.4-2 1.5-2 0 .3-1-.8-.3-1.2-.3-.4-.5-2.2-2.2-2.1-1.3-2.9 1.6-6.8-2.6-9.6-2.9-3.4-2.1-3.7-6.3-8.8-6.5-2.4-.1-2.2 3.9-5.1 4.3-.8 1.4-1.9 3.6-3.5 3.5-2.8-.1-8.3-2.2-9.1 2.3 2 3.4 1.2 5.3-2.3 8.1-4.2 1-3.7 2.9-5.7 6.3-3.1 3.5 1.3 4.3.7 6.1-2.4 1.2-2 4.2-2.7 5.3-3.6-.6-2.3 4-4.7 4-2.2.8-5.8-.1-8.1 1.5-3 1.4-4.5 4.7-6.6.2-.9-4.1-4.3-1.5-6.9-1.7-4.2.4-1.9-1.5-2.6-3.9.5-2.7-.7-1.7-2-3.2-1.2-3.1 2.2-6.4 2-9.8.2-3.4-1.5-5.8-.4-8.8-5-.2 2-4.6 2.9-4.5.8-1.3 1.8 1.1 2.8.8 1.2-.4 2.9-.4 4-.7 3.1 1.5 7.4.2 10 .4 7.3 3.1 1.8-9.7 4.8-9.6 1.1.9-.4-.8-.9-.8-.7-.4.9-.1.2-.5-.9-.4 0-1-.4-1.4-.6-1.4-4.6-1.8-3.2-4.1-2.2-.1-.8-2.1-2.1-1.8-1.3.5-1.4-1.3-2.2-.9-1 .5-2-1.2-2.8-.2-2-1.3-1.7-.5-.7-1.8-1.7-1-1.4-1.8.7-2.3 4.9-2.2 2.8.7 4.8 0 1.6-1.1.7 1.4 2-.4 2.2 1-.2-2.7-.6-3.9-.2-1.5 2.4-.7 2.4.6.2-1 3.8 1 3.5-1.1.8-2.7 5-2 3.4-6.7 2.1-1 5.8-3.9 5.4-4.4 1.9-2.9.9-7.7 5.9-9.4 2.1-.1 2.6-3.9 5-.7-.5-2.7 1-2.2.5-4.3-.4.1-1.8-.1-.7-.5.3-.3-1.3-3.6-1.9-4.3-2.6.7.1-3.6-1.4-2-2.3-4.2 1.7-6.7 3.8-9.4.6 2-.2 5.3 2.5 5.5 0 .5-.3 2.5-1.2 1.4-.4-.5.3 2.9-.4 2.6.1.7 2.8-1.9 2.9 1.8-.5 1.8-3.5-1.5-3.4-.6.5.7 0 1.5.5 1.8 1.2.6-.9.7.7.8 1.7.8-.1 1.3 2.3 1.3 1.9-.6 2-.4 1.1 1.5.7-.6 1.6.6 1.7-.6.7-1.3 4.1-5.2 4.8-3.8 1.2.9-1.3 2.4.9 1.6l.2.5c2.2 2.3 6.5-8.2 10.4-7.5 1.1 3.1 4.4-.3 3-2.4.7-.9 3.5-.4 2.7-1.8-.3-.7-.3-1.1-.7-1.7 0 .3 0 2.6-.2.9-1.2-2.7-5.5-12.7.4-10.8 5.9 4.9 2.2-6.9.6-4.3-1.9-.2-3.8-3.3-2.1-4.3 1.1-2.6 4.5-3.5 7.5-4.5.5-1.1-1.7-1.9.3-2-.6-.8 1.3-.4.9-1-.3-.6-.1-.8 1.2-1.2 2.2-.7.3-.2-.5-.8-.9 1.2-3 1-3.2-.6-1 1.6-2.5 3-4 3.6-1.6-.3.5.3.1 1-1.4-.1-2.2 2-3.7 3.1-1.2.8-1.7 2.9-1.8.8-.6.3-.8-1.2-1-.6-.4.5-.5.6-.5.1.1-.8-1.1 0-1.6-.2-3.3.8-1.7-4.5-4.2-5.5-.8-1.8-2.5-2.1-1.7-4 .6-1.6-1.6-1.3.9-2.3-.1-1.2-.4-2.1.6-3.6.9-1.7-.5-4.3 1.2-5.8.9-.6-3.1-3.6-3.6-2.4-1 .5-1.5 1.5-2.5 1.4-.4-.1-.4-.2-.4.3 1 1.8-1.1 1.6-.5 2.5.4 4.4 1.6 1.6 1.6 4 0 3.4-1.6 4.5-2.2 6.7-1.3.8 0 3.2-1.5 3.9-.7-.6.8 3.2 1.3 3.5-1.7.3.4 2 .6 3.4.2 1.7 4.2.4 4 1.7.9 1.2 2.6.9.7 3.6 1.6-.7.3.5.6.9 0 .5-.8 3.2-1.3 1.1.1 2.2-1.5 3.2-.4 5.2 1 .9-1 1 0 1.1.7.6.7 2.6 1.1 3.4.2 2.3.9-.7.6-1.2.2-3.3 1 4.4.7 4.5-1.7-2.7-.7-1.5-1.3 1-6.5 1.4-.4 4-4.6 5.3-1 .7-2.2.7-1.8-.6.4-.4-2-2.2-1-.8 1 .6-1.2 1.7 0 2 1.5.6-1 1-.2 1.4.9.8-.8.7.5 1.1 0 2.6-4.6 1.2-2 .2 1.7-.2.4-1.3-.8-1.3 0-.5-2.2-2-1-2.1 2.2-.6-.4-1.1.5-1.2 1.6.1 1.8-1.9 2.4-2 1.1-2-4.5-3.5-4.3-7.1.1-2.3-.5.2-1.5-.5-.2-.4-1.5-3.2-.9-3.2.4 0 .4-.1 0-.4-1.4.8-1.7-1.3-2.4-1.1.4.9.9 2.3-.7 2.8-1.7.9-.9 2.6-2.5 4.2.2.3-5.3 3.1-3.8.5-.8 1.1-5-2.1-3.2-2.7.9.2.4-4.3-.3-1.9-.5 2-1.6.7-1.1-.4.9-.8.9-1.2.5-2.2-.8-.8-2.5-1.3-.4-2-2.2-.2-2.2-2.7-2.3-4.2.2-.9-.8-1.8.3-2.8-.4-.1-1.4-.6-.4-.7 1.2.2 1.3 0 1.1-1 .3-.1 2.3-.7 1-.9-1.8-.2 2.3-1.3.7-1.8-1.6-.8 2.2-1.2 2.9-1.9 2-.6-2.2.1.3-1.7 1.3.8.7-1.7 1.3-2.7.4-1.1.5-3.6 1.7-3.1 1.3.6-.9-.9.4-1.7-2.7 1.1 4.3-3.1.6-1.7-.9-1 .1-3.4.4-3.9-.4.1-1.6 0-.6-.4.1-.6-1.1-2.4 1-3.2-.8-.2-1.1-.6-.5-1.1 2-.2.3-.3.7-3.1-1.7-.9 2.8-2.3.8-2.1-1.8.2.6-1.2.7-2.2.5-.1-.8-1-.5-.1 0 .5-.1.6-.3.2-.6-.8-.7 1.2-1.2 1.2.6-2.7-2-.3-1.2-2.1.7-.3 1.7-2.5 2-.9.2.8.4.8.3 0-.2-1.4 1.5.7 2 .3-.9-.9.9-4.5-1.1-1.5-.7-.4-.7-1.6.2-2-.1 0-1.1-.2-.2-.3.7-1.2 2 .3 1.9-2.2-2.6-.3 2.4-2.9.5-.3.7-.4 1-.9 1.6-1 0-1.1.8 1.1.8-.6-1.8-1.9 1-2.5 2.4-2-.1-1.2-2-1.4-.2-2.6 2.5-.5-.7-.9.4-1.1.4-.3-.8-.8.6-1 .7-.2.7-.2.5-.4-1.6-1 1.7-1.4.7-.1-.5.6.7-.1.1 1.4-.2.7-.2.9 0 .9.2-.5.9 3.5.6.7-.6-7.6 2 1.7 1.3-3.2-1.6-.9 1.5-3.3 1.5-.6.1-1.4.5-1.3 1.7-.6-.6-1.4.9-.8 1.3-.3 3.8-.1-1 3.1 0 2.7.6-.6 1.5 1.6 1.5.4 0-1.5 2.8.1 1.9-2.2 4.4-1.2 1.3 1.4 2.5.8 1.4-.9 1 0 1.5.6.7-2.6 5.2-2.6 7.6-2.3 11.5-2.3 14.6 8.5 1.4 10.9-1 1.2-4.1 0-4.5.1 1.7 1.7 6.1.6 7.2 2.6.1 1.2 1 2.2 2.1 2.8 1.2.2 0 1.5 1.6 1.4 2.5-1.5 3.6 1.4 5.5-1.2.2-2.8-1.6-.2-3.5-1.2-2-.7-2.2-3.3.1-2.7 1.5-.2 5.3-.8 5.2-1.9-.5-1.2-4.6-1-3.7-3.3.7-2.6-.8-6.1 2.6-6.2 2.2.4.3-1.6 0-2.2-1.6-1.4-3.6-1.1-4.6-3.7.1-1.3-5.3-1.1-2.4-1.9 2-1.7 3.9-2.6 6.1-.9-.8 1.1-1.4 2.4-.6 3.6 3.9.3 6.8-1.4 3.7-4.2zM51 71.9c-.8-1.5 1.7-.9 1.9-.1.6.6.7 1.3 1 1.5.9.3-1.1 1.5-.6 1.9.6-.2.1.7.2 1 .2.4 1.3-3.3 1.4-1.6-.2.4 0 .4.4 0 1.1-5.2.9 1.4 2.4-1.9 1.1-.7 1.3-.4 1.7.5.3-2.3 1.3.5 2-.6 2.4-.6 1.3-2.5 2.9-1.6.5.4.5.5.4 1.2.4 0 3-1.9 1.8-.5-2.1 1.1 1.1.5-.2 2 .7.3 1.8.5 2 1.3.2.4-1.4.9-.4.9 2.1.3-1.9 2.5-1.9 3.1-1 1.5-3 .7-4.5 2.7-.9-.3-1.3.5-2.6.5-.5.3-.4 1.3-1.4 1.3-1.9.6-3.9-.8-5.2-1.6-.2-.5-3.9.3-3.4-.5.1-1.4 2.4.1 1.8-1.8.4-2.9-3-1.1-3.6-2.2 2.6-1 4.2-.6 4.7-3-1 0-2.9 1.2-4.5.4-.7-1.8 1.9.4 1.1-.8-.8-.8.6-.3.5-.8.3-.7 1.3-2.1 2-.7 1.1 2 1.3.3.1-.6zM67.3 91c.8.3 2.2 0 2.2-.7 1.2 3.4-.7 5.5-2.2.7zm4.8 12.4c.5-1.9 1.2-.1 2.8-.9 4.2-1.6 0 3.5-.6 4.1 4.6-1.5 7.4-.7 3.6 4.8 2.2.8-2.6 1.6-.9 1.7 3.1-1.6 4.3 2.8 5.2 5 3.3.6 4.3 5.1 4.3 7 2.3-2.5 6.3 1.5 2.9 3.5 1.7.6-3.1 2 1.1 2.3-.2 3.9-6.7 2.3-8.5 3.9.6.8-1.6-.3-1.2.8-.3-.7-1.3-.9-2.3-.7-.9.2-.2 2.9-1.6 1.9-1.8-1.2-2.9 1.4-3.6 1.2-2.5-.5 2.1-2.5 2-4.3 1-1.3 4.4-.4 3.9-2.3-1.1 1.2-3 .3-3.9-.5-1 .9-3.8 0-1.7-1.2 2.3-.7 3.7-4.1.6-3.3 1.6-1.8-1.2-3.1 1.9-2.2 2.7 0 1.6-1.4 2.2-3.3-.6.7-3.2-2.6-.7-3.5-.5-.2-1.3.5-1.9.8-.4.8-1.4-1.1-1.1.1.4 1.3-2.5-1.4-1.3.7 4.2 2.2-2.6 3.3-.9 6 .4 2.7-.8 6.4-4.5 6.3-2.4.8-3.3 1.7-5.3 2.7-1.3.2-6.2 1.9-3.1-.3-2.4.6-1.5.4-2.9-.2-1.1-.7 2.4-1.3.6-1.4-2.3-.1 2-1.3 2.4-2 1.3-.9-1.9.7-.7-.2.6-.4 4.2-3.4 2.4-2.6-3.2-.4-4.5-1.1-.7-2.6.3-.6-2 .5-1-.2.5-.2-.2-.3-.1-.7-2.3-1.2 3.5-1.3 4.5-1-.9-.7 1.1-.8 1.5-1.3.2-.3-1 .2-1.4-.1-1.4-.3.9-1 .8-1.4.5-.6-1.2.1.1-.7 2.6-.7 5.2-.9 7.9-1.2 1-2 .4-3.3.2-5.5-1.6 1.1-.6 2.1-1.2 3.5-1.3 1.8-.3-1.8-.3-2.2.4-.7-.1.3-.3.1.3-.4.6-2.7.2-2.3-.5 1.1-2.8 1.5-1-.1-.6-.2-.8-.1-.5-.7 1-.7.2-1.3 1.7-1.5-.4-.7.3-1.7-1.1-2.9.1-.9.6.2.7-.8 1.3.2-.3-.3.4-.6.1-1.9 1.1 0 .4-1.7zm55.6 68.3c2-3.4 3.1 10.8-1.6 4.6.8-.6-1.2.3-.3-.6-.5-1-.9-.5.6-1.7-.2-1.7.5-1.4 1.3-2.3zM105.9 189c-.2-.6 1.9 1.1.5.7-.3-.1-.5-.3-.5-.7zm-1.8.7c-.5.6-1.3.6-.7 1.1.4 1.1 2-.8.7-1.1zm-1.7 2.8c-.1-.5-.3-.7-.8-.8-.8 0 .7 1 .8.8zm97.2-16c-.7.6-1.3-4 0-2.4 1.9-.4 3.9-.9 5.9-3.3.7.2-2.4 4.5-2.7 5.3-.9.5-1.5.6-2.3.5-.5 1.5-.3.5-.9-.1zm-48.4 16c-1-2.4 2.2.1 1.4.6-.6.8-1.8-.7-1.4-.6zm-83.6-87.7c6-5.1.6 7.2-2.1 6.2-2.4-1.1 2-1.8.6-2-2.8-1.8.6-3.2 1.5-4.2zm65.6-17.6c1.1-1.6 6-1.6 3.6.2.4 1.4-2.5 2.8-2 4.1.3.8-.1 2.1-.6 2-.8-3.4-1.1-1.2-2.4-3.9-1.5-.7.9-.9 1.4-2.4z" class="st0"/>
  <path d="M211.6 120.5c.2 0 5.4.7 11.4 1.4 0 3.6-.2 7.2-.6 10.8-.3-.2-.6-.3-.7-.4-.4-.2-6.1 1.3-6.4 1.9-.2.5-.2.5-.6.5-.3 0-.5 0-.7.2s-.3.2-.6 0c-.6-.3-1.2-.1-1.5.6-.4.7-.8.8-1.4.1-.7-.6-1.1-.6-1.7.2-.4.5-.5.6-1 .7-.7.1-1.1-.1-1.2-.6-.1-.4-.1-.4-.6-.3-.4.1-.5.2-.5.5 0 .5-.4.9-2.3 2-2 1.1-2.1 1.2-2.5 1.9-.1.3-.5.7-.8 1-.4.3-.7.9-1.1 1.9-.7 1.7-1.1 2.3-1.3 2.5-.1.1-.1.3 0 .6s.1.5 0 .6c0 0-.1.1-.2.1l-.4.4c-.3.3-.6.4-1.4.5s-1 .2-1.1.4c-.2.5-.7.8-2 1.3-1.5.5-3.9 1-4.4.9-.6-.1-1.2-.5-1.4-1-.3-.7-.4-.8-.9-1-.3-.1-.6-.3-.8-.4-.2-.3-.3-.3-.8-.1l-.5.2.3-.4c.1-.2.2-.5.2-.7s.1-.4.2-.5c.2-.1.2-.2 0-.6-.6-1.2-.7-1.7-.6-2 .1-.2.1-.4 0-.5-.1-.2.2-.6.8-.7l.4-.1-.3-.9c-.2-.5-.5-1.4-.8-2l-.6-1.1.2-.7c.1-.4.1-.8.1-.9-.1-.5.2-1.2.8-1.5l.6-.4-.2-.8c-.1-.4-.2-.8-.3-.9s-.2-.4-.3-.7c-.1-.5-.2-.6-.4-.5h-.4c-.2-.2-.2-.4 0-.5.4-.1.6-.5.5-.9-.1-.3-.1-.4.1-.4.3-.1.4-.3.6-1.6.1-.7.1-1.2 0-1.4s-.1-.3 0-.3c.2 0 .1-.5-.2-.6s.3-.9.9-1.2c.3-.1.5-.3.4-.4 0-.1.2 0 .4.1.4.2 1 .2.8 0-.1-.1.1-.2.4-.2l.5-.1-.2.4c-.3.6-.1.7.7.4.4-.2.6-.2.8-.1.3.2.8.1 1.1-.4.1-.2.4-.5.7-.6.2-.1.5-.4.6-.6.2-.3.2-.3.5-.2.4.2.5.1.6-.3l.1-.4.1.4c.1.2.2.4.3.5s.1.2-.1.7c-.2.3-.4.6-.5.6s-.2.1-.1.2c0 .1-.1.4-.3.7s-.3.6-.3.7-.1.3-.3.6c-.3.5-.3.7.1.8.2.1.4 0 .7-.3.4-.3.4-.3.9-.2.6.2 1 .1 1.2-.2.1-.1.2-.1.6.1s.5.3.5.7c0 .2.1.5.3.7s.2.3 0 .5c-.3.3-.1.5.3.4h.6c.8.3 1.5-.4 1.7-1.9.2-1.1.6-1.9 1.1-1.9.3 0 .5-.3.4-.8 0-.1 0-.3.2-.5.1-.1.2-.3.1-.4-.2-.4.1-.6.7-.6.5 0 .6 0 .7-.2s.3-.3.4-.3.3-.2.4-.3c.2-.2.2-.3 0-.9-.2-.4-.2-.7-.1-.8s.1-.2 0-.4-.1-.2-.3-.1-.5.3-.7.4c-.3.2-.5.3-.4.5 0 .4-.1.6-.4.4s-.4-.1-.3.3c.1.3-.2.8-.5.9s-1.5-.4-2.5-1c-.5-.3-1-.7-1-.7s.1-.1.3-.1c.4 0 .6-.5.5-1.4 0-.5 0-.9.1-1.2.1-.2.2-.5.2-.6s.1-.4.2-.6c.2-.3.3-.5.6-.5.4-.1.4-.1.4-.6 0-.6.2-.8.6-.6.5.2.7.1.5-.4s.1-1.4.5-1.4c.3 0 .3-.1.2-.6-.1-.7 0-.7.7-1.3.4-.3.5-.3.7-.3.2.1.2 0 .2-.2s.2-.5.8-1 .8-.7.7-1.1c0-.5.5-.8.9-.5.3.2.2.7-.2.8-.2.1-.3.3-.5.7-.1.4-.4.8-.6 1s-.3.5-.3.6v.4c-.1.1-.1.3-.2.5 0 .2-.2.4-.4.4-.6.3-.7.3-.1.7.4.3.6.3 1 .2.3-.1.7-.1 1 0 .2.1.6.1.8.1.2-.1.4 0 .4 0 0 .1-.2.2-.5.2-.5 0-.5.1-.5.3 0 .1-.1.3-.2.3-.3.1-.3.5 0 1 .2.4.2.5.1 1l-.1.6.6.3c.6.3.6.3.4.4-.1.1-.3.2-.4.3-.4.4-.8.6-1.3.8l-.6.2.1.4c.1.3.1.5-.1.7-.3.5.1.6 1.2.3 1-.3 1-.3 1.6.1.6.3.7.3 1.2.1.3-.1.6-.3.7-.4s.3-.1.9.1.8.2 1.1 0c.4-.5 1.3-.7 2.3-.5zM108.2 52.3c.1-.2.1-.2-.2-.3-.2-.1-.4-.1-.4-.1-.1 0 0 .1.1.2s.3.2.3.3c0 0 .1 0 .2-.1zM127.9 89.7s-.1.1-.2.1-.1-.1.1-.1c.1-.1.2 0 .1 0zM192.3 151.1c-.1-.1-.3-.1-.4-.1h-.4c-.1 0-.3.1-.5.2-.2.2-.6.3-.9.4-1.3.2-1.4.3-1.6.7-.2.3-.3.4-.7.6-.6.2-.8.4-.7.8.1.6-.2 1.4-.8 2.2-.3.4-.6.8-.6 1-.1.2 0 .2.1.1s.2-.2.4-.3c.1 0 .4-.3.6-.5.4-.5.6-.6 1-.3.3.2.9 0 1.2-.4.2-.2.2-.3-.1-.4-.2-.2-.3-.2-.1-.4.3-.3.9-.3 1-.1 0 .1.1.2.1.2l.6-.4c.3-.2.9-.5 1.4-.7.9-.4 1.2-.5 1.1-.6 0-.1-.3 0-.6 0-.8.2-.8 0 .1-1 .8-.8.9-1 .5-.9-.5.1-.6 0-.7-.1zM68.6 185.2c-.1.2-.3.2-.3 0 0-.1.1-.2.2-.2s.2.1.1.2zM179.4 169.7c.5-.2.1-.4-.8-.6-1.2-.2-1.4-.2-1.6 0-.1.1-.2.2-.4.3-.1 0-.3.1-.3.2s.2.1.5 0c.4-.2.6-.1.8 0 .2.2.3.2.5 0 .3-.2.4-.2.6.2.1.1.2.2.3.1.1 0 .3-.1.4-.2zM177.9 172c.2-.1.4-.1.5-.1.1.1.2 0 .4-.1s.2-.1.1.1-.2.3-.6.3c-.6.1-.6.3-.2.5.5.2.2.3-.4.1-.2-.1-.8-.1-1.3-.1-.5.1-1.1 0-1.5-.1l-.6-.2.5-.1h.7c.1 0 .3-.1.4-.2.1-.2.2-.2.3-.1.2.2.5.1.5-.2s0-.3.4 0c.4.4.5.4.8.2z"/>
</svg>
