<svg fill="none" viewBox="0 0 101 34" xmlns="http://www.w3.org/2000/svg"><g fill="#369"><path d="m48.9913 13.1778c-1.1962.9422-2.5658 1.8222-5.1576 1.8222-3.1899 0-5.8337-2.3111-5.8337-6.03555 0-3.30667 2.3838-5.96445 5.9031-5.96445 2.6611 0 4.0134 1.27111 4.5941 2.01778l-1.7423 1.84889c-.2427-.32889-1.2049-1.25334-2.7218-1.25334-2.011 0-3.1726 1.44-3.1726 3.30667 0 2.1511 1.3869 3.4756 3.1726 3.4756 1.4216 0 2.2277-.5334 2.4011-.7112v-1.0222h-1.9504v-2.36442h4.5162v4.88002z"/><path d="m53.4627 11.6467c0 .7266.4276 1.1098 1.0135 1.1098.6731 0 1.0611-.487 1.0611-1.1098v-4.6467h2.4627v7.8004h-2.3993v-.7984c-.293.4631-.974.998-1.948.998-2.4151 0-2.6527-2.0758-2.6527-3.6647v-4.31933h2.4627z"/><path d="m60 4.50893c0-.88393.6379-1.50893 1.4914-1.50893.8534 0 1.5086.63393 1.5086 1.50893 0 .86607-.6552 1.49107-1.5086 1.49107-.8448 0-1.4914-.63393-1.4914-1.49107z"/><path d="m60 7h3v8h-3z"/><path clip-rule="evenodd" d="m68.8917 15c1.1642 0 1.9214-.6027 2.1493-.8864v.6825h2.3611v-11.92195h-2.532v3.92672c-.1629-.2216-.9037-.87753-2.1168-.87753-2.296 0-3.7533 1.86142-3.7533 4.54716 0 2.6503 1.6039 4.5295 3.8917 4.5295zm-1.3597-4.5117c0-1.26758.6839-2.14511 1.7098-2.14511 1.0014 0 1.7097.78002 1.7097 2.14511 0 1.1523-.6188 2.1096-1.7097 2.1096-1.0096 0-1.7098-.8244-1.7098-2.1096z" fill-rule="evenodd"/><path clip-rule="evenodd" d="m79.2841 12.7666c-.9801 0-1.696-.6398-1.7557-1.382h5.4546c.017-.1877.017-.3583.017-.5204 0-2.84083-1.4403-4.53849-4.0909-4.53849-2.446 0-4.0909 1.95359-4.0909 4.39339 0 2.4655 1.679 4.3508 4.4233 4.3508 2.1562 0 3.2983-1.3479 3.5369-1.8427l-1.7471-1.3478c-.162.2388-.75.8872-1.7472.8872zm1.0142-3.06263h-2.6932c.0597-.58864.4773-1.23699 1.3466-1.23699.8267 0 1.3125.57157 1.3466 1.23699z" fill-rule="evenodd"/><path d="m89.5702 6.72788h1.3719v2.09516h-1.3719v2.99666c0 .7179.4794.8848 1 .8848.1405 0 .2645 0 .4298-.0167v2.2204s-.3388.0918-.9835.0918c-1.9091 0-3.0165-.8848-3.0165-3.3055v-6.66111-.03339h2.5702z"/><path clip-rule="evenodd" d="m101 10.8648c0-2.42636-1.7585-4.19695-4.2457-4.19695-2.3843 0-4.1983 1.80337-4.1983 4.22155 0 2.41 1.7348 4.1805 4.1983 4.1805 2.4476 0 4.2457-1.7951 4.2457-4.2051zm-2.4635 0c0 1.1476-.7683 1.9673-1.7822 1.9673-.9981 0-1.7348-.7787-1.7348-1.9345 0-1.1722.7209-1.98372 1.7348-1.98372.998 0 1.7822.77873 1.7822 1.95092z" fill-rule="evenodd"/><path d="m41 31.8741h-3v-14h3z"/><path d="m50.1785 28.5343.8019 2.4902c-.6357.4395-1.6039.8496-2.797.8496-3.0416 0-5.1834-2.0703-5.1834-4.9902 0-2.9297 2.22-5.0098 5.1638-5.0098 1.2323 0 2.1614.4004 2.8362.8692l-.8215 2.5586c-.5281-.4395-1.2029-.7129-1.9071-.7129-1.4377 0-2.2396.9961-2.2396 2.2656 0 1.3965.9486 2.3438 2.3472 2.3438.7139.0097 1.3887-.3223 1.7995-.6641z"/><path clip-rule="evenodd" d="m57.0458 29.1133c-1.1074 0-1.9163-.7669-1.9837-1.6565h6.1628c.0193-.225.0193-.4295.0193-.6238 0-3.405-1.6274-5.4398-4.6221-5.4398-2.7636 0-4.6221 2.3416-4.6221 5.266 0 2.9551 1.897 5.2149 4.9976 5.2149 2.4363 0 3.7266-1.6156 3.9962-2.2086l-1.974-1.6156c-.183.2863-.8474 1.0634-1.974 1.0634zm1.1555-3.6709h-3.0429c.0674-.7055.5296-1.4827 1.5215-1.4827.934 0 1.4829.6851 1.5214 1.4827z" fill-rule="evenodd"/><path d="m63 17.8741h3v14h-3z"/><path clip-rule="evenodd" d="m73.4695 25.5753c-.3371-.1431-.9822-.3579-1.8103-.3579-2.2244 0-3.6592 1.3089-3.6592 3.313 0 2.1678 1.6466 3.3437 3.4955 3.3437.9629 0 1.6466-.2863 2.128-.7975l.1637.5521h2.6674v-6.1863c0-2.2803-.8185-4.0492-4.0636-4.0492-1.56 0-2.831.5317-3.8325 1.2372l1.1074 2.1269c.7414-.3783 1.5407-.6238 2.3688-.6238.9726 0 1.4348.4704 1.4348 1.0839zm.0481 2.8427c0 .6646-.5392 1.0225-1.2518 1.0225-.7029 0-1.2711-.3579-1.2711-1.0225 0-.6442.5393-1.0635 1.2518-1.0635.7126 0 1.2711.3784 1.2711 1.0635z" fill-rule="evenodd"/><path d="m84.1945 26.0658c0-.9082-.6109-1.3873-1.448-1.3873-.9615 0-1.5158.6088-1.5158 1.3873v5.8083h-2.9553v-9.7505h2.8648v.9981c.4185-.5789 1.3914-1.2476 2.7828-1.2476 3.4502 0 3.7896 2.5949 3.7896 4.5809v5.3992h-3.5181z"/><path clip-rule="evenodd" d="m94.6028 31.8589c1.377 0 2.2726-.6953 2.5422-1.0225v.7873h2.7925v-13.7531h-2.9947v4.5299c-.1926-.2557-1.0689-1.0123-2.5037-1.0123-2.7154 0-4.4391 2.1473-4.4391 5.2456 0 3.0573 1.897 5.2251 4.6028 5.2251zm-1.6081-5.2047c0-1.4622.8089-2.4745 2.0222-2.4745 1.1844 0 2.0221.8998 2.0221 2.4745 0 1.3293-.7318 2.4336-2.0221 2.4336-1.1941 0-2.0222-.9509-2.0222-2.4336z" fill-rule="evenodd"/><path d="m32 17c0 8.2867-6.7133 15-15 15-8.28671 0-15-6.7133-15-15 .01166-8.28671 6.72494-15 15.0117-15 8.275 0 14.9883 6.71329 14.9883 15z"/></g><path d="m32 17c0 8.2867-6.7133 15-15 15-8.28671 0-15-6.7133-15-15 .01166-8.28671 6.72494-15 15.0117-15 8.275 0 14.9883 6.71329 14.9883 15" stroke="#369" stroke-linejoin="bevel" stroke-width="3"/><path d="m28.25 17.0771-.084-.0136-.0139-.0135.0419-.0813v-.2168-.0542h-.014l-.0559.0542-.084.2439-.07.0813-.0139-.0136.0419-.1084-.1259.0407-.028-.0136.084-.0813v-.0271l-.084-.0135-.1119.0406-.014-.0135-.014.0135.028-.0406.014-.0136.028.0271v-.0542l.1399-.0271.028-.0271.014-.0271.0279-.0542v-.0948l-.0419-.0271-.2659.0542-.2099-.0407-.2379.0678-.0419-.0136.2658-.0813h.2379l.2099-.0677.056-.0542v-.0271l.0559-.0678v-.0542l.056-.0813-.1119-.0813-.056-.0271-.112-.0271-.0699.0678-.07.0135-.0839-.0271h-.112l-.0839.0678-.126.0271-.0559.0948-.028-.0542.028-.0542.1959-.0948.0699-.0678.1959-.0135.084-.122-.042-.0406-.1679-.0271-.056-.0271.014-.0407.1399-.0135.084.0135.0979-.0677.056-.0813-.014-.0407-.042-.0135.014-.0271-.014-.0271.056-.0271.014-.0407v-.0542l-.028-.0271v-.0271l-.028-.0407.014-.0406.07-.0271-.028-.0813.028-.1084-.056-.0271-.0699-.0949-.014.0407h-.042l.014-.1084v-.0136h-.112v.0136l-.0559.0542-.014.0948h-.042l-.014-.0271h-.028l-.014-.1084v-.0542l-.042-.0271h-.0839l-.028-.0135.014-.0271.07-.0407-.042-.0677v-.0271l-.056-.0271h-.0979l-.084.0813h-.028l-.2378-.0678-.3219-.2168-.1679-.1219-.0839-.0949-.014-.0406.0979-.2439-.014-.0678-.2379.0542-.0979.0678-.084.0406-.1679.0136-.0279.0135v.0271l-.056-.0135-.014-.0136-.1259.0949h-.056l-.07.0677h-.028l.028-.0271h-.0559l-.028-.0542.028-.0677.0839-.0949.042-.1084-.056.0271-.028-.0135h-.028-.0139l.0699-.2168.1399-.0542-.0419-.0271.014-.0407.1259-.1084.0979-.2845-.0279-.1897-.028-.0678-.056-.0406v-.0813l-.07-.122-.0979-.0542-.056.0271-.014.0407h-.028l-.0279.0406h-.028l-.014.0678-.028.0406-.056.0271-.056-.0135-.0559-.0949-.07.0271-.056-.0271-.0559.0136-.014-.0407h-.056l-.0839.0271h-.028l.0559-.1219-.0139-.0949.0279-.0677-.1959.0406-.014-.0406-.0559-.0542.0699-.1084.154-.0407.0839-.0813.1539-.149.028-.1491-.1259-.1626v-.0677l.056-.0813.1399-.0678h.0559l.14-.149.0699-.0136.126-.0948.2239-.0813.0559-.0813-.1399.0135-.1539.0813-.112.0136-.0839-.0271-.112-.0949h-.0279l-.14.2033-.0699.0813-.056.0135v.1084l-.056.1084-.0699.0678h-.07l.014.0406-.014.0407-.07.0406h-.0699l-.1399.0542h-.098l-.028-.0135-.028.0135-.028.1084.014.122.014.0406.028.0136v.0406l-.042.0949-.0839.0542-.056-.0271-.028-.0678-.0419-.0542h-.07l-.042-.0406-.028-.0813h-.028l-.0699-.0136-.014-.0542h-.014l-.056.0678-.0699-.0407-.028.0271-.028-.0135-.042.0406.014-.0271-.014-.0677.028-.122-.014-.0135-.056.0406-.0559-.0677v-.0678l.0979-.1219.042-.0949-.042-.2303-.042-.0678-.2099-.0542-.0559.0271v-.0271l.028-.0677h-.028l-.084.0406v-.0406l-.014-.0136-.028.0678-.0279-.0271-.028.0135-.014-.0135.028-.0542-.056-.0271.028-.0271-.028-.0271.028-.0136.014.0136.014-.0136-.028-.0271v-.0677l.042-.0136v-.0271l-.042-.0135.014-.0136.0559-.0135h-.0699l.028-.0407-.028-.0135-.056.0135v-.0271l.014-.0135v-.0407h-.028l-.014-.0271h-.0419l-.056-.0948-.028.0677-.056-.0135-.028.0135.028.0136v.0271l-.042-.0542-.0419-.0136-.014-.0271-.126.0136-.0279-.0271-.028.149-.042.0136-.028-.0542h-.028l.014.0406v.0407l-.0979.0406-.042-.0135-.028-.0542-.056-.0542h-.0279l.0279.0271-.0559-.0136v.0271h-.028l-.014.0271-.028-.0271v-.0406l-.028-.0271-.0699.0135v.0949l-.07.0135-.056-.0135-.0559.149.0559.0407.014.0948.028.0136.056.1355h-.042l.042.1219-.028.0407.028.0406v.1084l.042.0271.0279.0678.014.1084.028.0271-.014.0271.014.0135h.042l-.014.0542.042.0407-.028.0813v.0813l-.056.0813h-.028l-.0279.0677-.126.122-.4198.2032-.0839.0542-.2519.0271-.042-.0135.014-.0407-.0559-.0948-.014-.0949-.042-.0948-.056-.0542-.2099.0135-.014-.0406-.0139.1084h-.042l-.056-.0271-.07.0542-.014.0406-.0419.0136-.014.0813.028.0406v.1355l-.098.1084-.0839-.0135.0279.0542-.0419.0406.028.0271-.028.0949.0419.0271v.0271l-.0979.1084.014.0542-.056.0271-.028.0406-.1959.0271-.2238-.0271-.056-.0406-.028-.0542v-.0949l-.014-.0135-.1119-.1897-.126-.0813-.0699-.0813h-.056l-.07-.0678.014-.0542-.0839-.0677-.1399-.0407-.056.0271-.056.0407-.042-.0271.014-.0407-.0419-.0406h-.042l-.028.0677-.056-.0948-.2099-.0271-.0979.0813-.028.149.042.2168v.1084l.014.0542.028.1626.0979.1897.0979.1084-.0279.0407-.014.0813.0839.1084.014-.0136.028.0271-.014-.0677h.014v.0271l.07.0948.0699.2033.014.0542-.028.0406.028.0678-.028.0271.028.0406-.028.0407-.0559.1761.0419.1626.07.1897v.0949l-.056-.0407v.0136l-.014-.0949.014-.0406-.0699-.0271-.028-.0813-.084-.0813v-.0678-.0542l.014-.0406-.014-.0678h.014l-.042-.0406.014.0271-.0419-.0407-.028.0136.028-.0271.0419-.0407-.014-.2303-.0559-.0678-.028.0136v.0271-.0271h-.014l-.014-.0813-.028-.0407v-.0677l-.0559-.0542.0139-.0407-.0419-.0813-.126-.0406-.0699.0135-.07-.0677h-.056l-.0979-.0407.042-.2574-.014-.0271-.014-.1897-.028-.0542-.07-.0949-.1679.1355-.028-.0542.056-.0813.084-.0677-.14-.1897-.0559-.0271-.07.0406-.07.1084-.0279.0136v-.0271l.0699-.1626-.042-.0813-.0979-.0407h-.07l.028.0407-.042.0948-.1259.122v-.0271-.0407l.028-.0135.014-.122-.056-.0542h-.0699l-.126.1084-.0559.0271v.0271l-.042.1355-.014.122-.098.0271-.014.0271.014.0406-.028.0271-.0419-.0135-.014-.0407-.042-.0135-.056.0135h-.1819l-.014.0271-.0279-.0406-.056.0677-.112.0678-.014.0542.014.0677.042.0949-.014.0813-.028.0406-.1539.0271-.028.0271.014.0542.042.0407.084.1219v.0542l.014.0136v.0271l.0559.0542.014.0948.07.1762-.028.0406.028.0136h-.028l-.028.0271.028.0948-.028.0678-.028.0271.014.0677-.042.0271-.1119.0542-.042-.0271-.1119-.1355-.028.0678.014.0406-.1399.0136-.056-.0407v-.0271h.028l-.042-.0406-.014-.0271.028-.1626-.07.0271-.0419-.1897-.084-.1491h-.014l-.07-.0271-.0839-.0813-.042.0407h-.028l-.028-.1762-.0699-.0542-.042-.0948.028-.0542-.042-.1084-.0839-.1084-.028-.0813h.014l-.028-.0271.028-.0542-.056-.0542-.014-.0813.014-.0136-.042-.0135-.056-.0678-.014-.0948-.0139-.0136v.0271l-.056-.0135h-.014.014l-.07-.0407-.014-.0135-.0559.0406-.042.0542-.056.0136-.1259-.0136-.056.0813h-.028l-.028-.0271-.014.0136h-.0559l-.014.0406.028.0949-.042.149-.014.0136.014.0271h-.014l.028.0135.056.122.0139.0542-.0139.0948.0279.0813.042.2439.056.122-.014.0542.014.0406-.014.0271v.0407l.028.0135.014.122.042.0813-.014.0677.0279.1491-.0279.149-.056.0949.014.1084h-.014l-.028.149-.084.0678-.3078.0813-.1259-.0136-.112-.0135-.014-.0542.028-.1084-.014-.0813.028-.1084-.0559-.0136.0139-.0271-.0419-.0271-.028.0407-.028.0135-.014-.0135.014-.0407-.056.0542-.028.0407h-.0279l-.028.0271-.028.0813h-.028v.0271l-.056.0271-.028.0406-.0699.0542h-.042l-.0979.1355v.0136l-.042.149-.042.0813-.042.1626-.014.0813.056.3659.056.2168-.028.0407-.056-.0271-.0979-.2439-.07-.2575-.028-.0135-.0699.0542.0279.1084-.0139.0677.0279.3794-.0279.0949-.042.0542.014.0677-.056.0678v.0677l.028.0136.028.149.014.1762-.028.149-.042-.0406v-.1084-.1355l.014-.0271-.07-.1084v-.0407l.014-.0135-.0559-.122v-.0542l-.028-.0271.028-.0135-.056-.0271.028-.2168v-.271l-.056-.0813v-.0271h.014l.028-.0542-.028-.0136-.028.0136v-.0271l-.028-.0136-.014-.0542-.0699-.0407-.014-.1084h-.028l-.3218.1627-.056.0135.042-.0542h.0419l.126-.0949.014-.0542.1119-.0813.028-.0542.056-.149v-.0949-.1219l-.056-.0271-.07.0135-.014-.0271-.0419.0542-.014-.0135-.042.0677-.056.0542-.042.0407-.0279-.0136v-.0271l-.014-.0135.1819-.1762v-.0271l.028-.0135-.028-.0271.014-.0271-.168-.0813-.0839.0271-.1259-.0136-.042-.0135-.028-.0271h-.028l-.014-.0407-.028.0136v-.0407.0136l-.0279-.0542.0279-.0136-.0279-.0677-.056-.0542.0699-.0542-.0419-.1762-.112-.0948-.0839-.0136.028-.0271h.0839l.014-.0271.014.0271.084.0407.0419.1626.042.0271.028.0542.028.0135v.0136l.028.0542.0419-.0271.028.0271.1819.0406h.042l.1259-.149.056-.0271.028-.0542v-.0271l-.1119-.0542-.014-.0542v-.0136l-.028.0136v.0135h-.07l-.028-.0135-.014-.0407.1959-.0406.07-.0407.042-.0542.028-.1084.0419-.0135v-.0813l.042-.0542-.014-.0271-.0839-.0407.0839-.0677.014-.0271-.014-.1762-.056-.0542-.2798.0407.028-.0407.1259-.0406.028-.0271-.014-.0271h-.07l-.1399.0406-.0699-.0271-.07.0407-.028-.0136-.056.0271v-.0406l-.0279-.0407h.0279l.126-.0406h.0839l.042-.0136.1959-.0406.084.0135.0279-.0271-.014-.0542-.1399-.0135-.042-.0407h-.0419l-.014.0136-.028-.0136-.014.0136-.07.0135-.014.0271-.014-.0135-.0279.0135-.042-.0271v-.0271l-.042-.0406v-.0678l-.028-.0271v-.0135l.028-.0136.098.0542.0139-.0135-.0839-.2033-.07.0271-.0559-.0135-.028.0677.028.0678v.0813l-.07.0813-.042.0406-.028-.0135v-.0136l.084-.0813v-.0813l-.056-.0677-.0559.0677-.056-.0135-.042-.0678.014-.0135v-.0136l-.028-.0677.042-.0813-.084-.0678.056-.0271.07-.1219-.084-.0407.014-.0542.042-.0406-.126-.0136-.1259-.0406-.056-.0542-.0419-.0271v-.0271h-.042l-.1539.0677.0699-.0677.098-.0407-.014-.0135.042-.0813-.084-.0271.014-.0949-.014-.0271-.0979.0678-.056-.0271-.042.0271-.042-.0136-.014-.0406.028-.122-.028.0136-.0419.1219-.084.0678.042-.122-.014-.0406-.1259.0813-.028-.0271h-.028l.07-.1491v-.0271l-.056-.0135v-.0271l.0839-.0813.014-.0542h-.014l-.0839.0271-.028-.0407.042-.0542-.07-.0542.014-.0677-.07-.0271-.0279-.0271h-.042l-.056-.122-.014-.0135.014-.0813-.028-.122-.0979-.0406-.028.0135.056.1084-.028.0678v.0406l-.056.0542.056-.0813h-.056l-.056-.0406h-.0419l-.014-.0813-.084-.0813h-.06995l-.02798.0135.01399.0813-.05597.0407-.06996.1084h-.06996l-.04198-.0542-.01399-.0678-.11194-.0406-.06997-.1084-.15392-.0678-.05597.0407.05597.0406-.02798.0678-.04198.0271-.11194-.0271-.04198.0135-.04197.0542-.06997-.0813-.08395.0271.12593.2033h.05597l.01399.0135-.01399.122-.06996.0406-.02799.0407-.02798.0135-.16791-.0948-.02799.0135-.02798.0271.06996.0949.12593.0948.11194.0813.11194.0136.014.0135.02798-.0271.12593-.0542.06997-.1219.13992-.0407.05597-.0677-.02798.0948-.08396.0542-.04198.0813.014.0271h.04198l.15391-.0542.11194-.1626.15392-.0271v.0407h-.08395l-.02799.0135-.01399.0813-.08396.1355.02799.0271.06996.0407.15392.0135.11196-.0813.042-.0677-.014-.0407.0699.0271-.028.0271v.0407l.056.0135-.1119.0949-.098.0271-.04195.0813.01399.0135.20986.0136.126-.0407.0559.0271-.1399.0542-.1679.0271v.0542l-.028-.0271-.05596-.0271-.01399.0542.04195.0407.014.0542-.014.0135-.08393-.0677-.04198-.0813-.02798.0135-.08396-.0135-.1819-.1084h-.18191l-.06996.0271v.0406l-.08395-.0135-.08396.0271-.02798.0542-.014.0677.02799.0949.13992.1626.09795.0677.08396.0271.05597.0542.05597.0136.27985.149.04198.0678.12592.0677.084.0136.1539-.0678h.014l-.028.0542-.098.0542-.014-.0135-.0419.0542v.0813l-.014.0406-.014-.0406-.028.0135v.0678l.042.0135.1119.1897.028.2846h.028l.056.0813-.084-.0136-.028.0271v.0813l-.056.0813-.0419.122-.07.0406-.028.0678-.09792.0948-.11194.0407.19586-.1626.07-.1626.056-.0813.014-.0678.0279-.0813v-.1219l-.0419.0406.0279.0678-.0419.0677v-.2303l-.042-.0542-.014.0813-.014-.0271-.028-.0136-.014-.0406.014-.0678-.02796-.0677.01396-.0271h-.02795l-.05597.2168-.04198.0406v.0542l-.05597.0949-.01399.0677-.05597.0542-.014.1084-.05597.0813-.02798.0136v-.0271l.05597-.0949-.02799-.0271.08396-.1355.01399-.0542.04198-.0813.05597-.3252-.01399.0136h-.02799v-.0678l-.04198-.0135-.01399-.0949h-.02798l-.05597-.0406-.014-.1491-.01399.0271h-.05597l-.02798.0271-.02799-.0677h-.02798l-.06997.2303.01399.1084-.02798.0678v.0813l-.04198.1219-.04198.0271-.04197.1084-.014.0136v-.0136l-.04197.0271.09794-.2439.04198-.2303-.02798-.0542-.13993.2303-.08395.0678-.12594.1355.014-.0678.05597-.0406.13992-.1626.09795-.2033v-.1084l-.01399-.0271h-.04198l.01399.0813-.11194.1626.02799.0813-.02799.0136-.02798-.0813.01399-.0813.04198-.0407v-.1355l-.02799-.0542-.09795.2033-.11194.1084-.02798.0542-.01399-.0136-.06997.0407h-.01399l.06996-.0678.04198-.1084.09795-.0677.02798-.271-.02798-.0678-.05597-.0406-.13993.1355-.09794.0542-.02799.0542-.01399-.0949.08395-.0406-.01399.0406.04198-.0271-.01399-.0542.02798-.1084-.06996-.1761-.09795-.0678h-.06996l-.04198-.1084-.1959-.1084-.15391-.0271-.06997.0271v.0542l-.11194-.0135-.13992.149.02798.0271.11194.0136.02799.0271h.02798l.08396.0406.02798.0813.15392.1626-.13992-.0948-.06997-.0949-.06996-.0406-.02798-.0271-.04198-.0136-.06996.0407h-.13993l-.01399.0271.02798.0677.11194.0813.12594.1355v.0407l.02798-.0271.15392.1219.04198.0949-.014.0271.02799.0135-.01399.0271.05597.0136v.0542l-.04198-.0271-.02799.0135v-.0271l-.05597-.0542.02799-.0135-.01399-.122-.014.0407-.04197.0135-.13993-.0677-.08395-.0136-.1959-.1355-.09795-.0135-.06996-.0542-.06996.0271-.06997.1219.014.0949-.014.0406.04198.0136.08396.149.1819.2033.06996.0406.02799.0813.11194.0678h.08395l.06997.0406.02798.0678-.01399.0271.04198-.0136.06996.0407.12593.0271.02799.0271.09794.0271.014.0406.12593.0542-.15392-.0135-.05597-.0407h-.02798l-.04198-.0406h-.08396l-.05597-.0271-.06996-.0136-.06996-.0542-.02799-.0542h-.09794l-.05597.0271.01399.0271-.15392-.0813-.01399-.0677-.26586-.1355-.06996-.0136-.04198.0407-.05597.1219.04198.1626v.1084l.06996.0542.04198.0813.05597.0407.04197.0813.12594.0271.09795.0813.12593.0406.06996-.0271.1959.0542.11194-.0271.11194.0136.19589-.0949.02799.0136.02798.0406-.13992.0678.01399.0271.04198.0271-.014.0542-.22388-.0407-.11194.0542-.22388-.0135-.08395.0406.09795.1626.16791.0949.05597-.0271.11194.0135.05597-.0271.02798.0136-.08395.0542-.06997-.0136-.05597.0271-.09794.0136.01399.0677.04198.0542-.02799.0407-.06996-.0407-.08396-.0813-.01399.0813-.02798-.0271-.014-.0542-.09794.1626-.04198-.0271-.01399-.0813.05597-.1084-.02799-.0542-.02798-.0135-.014-.0813-.02798-.0136-.04198.0271.02799-.0677v-.0271l-.11195-.0813h-.04197l-.06997-.0678-.19589-.0948-.06996-.1084h-.06997l-.12593-.122-.23787-.1355-.02799.0136-.04197.1355.08395.3794.08396.1084.20988.1084.08396.1219v.0407l.01399-.0136.05597.0136.08396.1219-.014.0136-.02798-.0136-.04198-.0406-.01399-.0407-.08396-.0271-.15391-.1355-.25187-.0542-.01399.0271.11194.2439h.04198l.02798.0678.08396.0813.08395.1355.05597.0135.04198.0271.06996-.0135.04198.0271-.09795.0135-.05597.0678-.06996-.0271-.11194-.1084-.04198-.0949-.15392-.0271-.05597-.0813-.09795-.0406-.01399-.0678-.02798-.0406-.30784-.1897-.02798.0135-.014.0949-.11194.0948.014.1491-.02799.0542-.05597.0271-.11194-.0136-.01399.0813-.15392.1084.05597.0542.12593.0136.05597-.0136.30784.0136.04198-.0271.15391.0542.13993.0948.1819.122-.02798-.0542-.12594-.0678-.01399-.0135-.05597-.0542.08396.0542.08395.0542.02799-.0271.12593.0406.01399.0271h-.02798l.02798.0407-.02798.0406-.02799-.0271.02799.0678-.01399.0948.01399.0271.13992.0407.33582-.0136.08396-.1355.16791-.0948.04198.0271.04198-.0271h.05597l.11194-.0271.11194-.0542.08395.0135-.06996-.0677-.01399-.0136.06996-.0406.04198.0542h-.014l.04198.0677.29384.0678.09795-.1355-.02798-.1762.12593-.1626.02799.0271-.02799.0542.01399.1084.12594.0136.06996.0542.08395-.0136.08396-.1084.02798-.0677v-.0271l.02799-.0136-.01399-.0271.02798-.0677h.02799v.0542l.02798.0813.01399.0948.13993-.1355-.01399-.149.01399-.0136.02798.0678-.01399.0135.05597.0271.02799-.0135-.04198.0271-.13993.1626-.02798.0677-.04198.0271v.0271.0271l.04198-.0135h.01399l-.02798.0271-.02799.0135h.06996v.0136l.04198-.0271v.0271l.05597-.0136v.0136l-.01399.0135.01399.0136.02799-.0136.01399.0407-.05597.0271.02798.0135.02799-.0135.02798.0135-.02798.0271.05597-.0135.01399.0406.01399-.0271-.01399-.1219-.01399-.2168-.05597-.1626.01399-.0271-.01399-.0813.05597.0135.05597.0678.08396-.0949.01399.0271-.02799.0678-.08395.1219.05597.271.01399.0136.05597.0406.05597-.0406h.01399l-.01399-.0542.04198-.1762-.01399-.149.01399-.0407.04198.2168-.02799.122.02799.0677h-.02799l.04198.0136h.01399l.05597-.0678.02799-.1355-.02799-.1219.01399-.2033.05597.1491-.02798.0542.04198.0542.02798.1219v.0813l-.02798.0542.01399.0542-.02799.0407.02799.0135v.0407h.06996l.08394-.0678v-.0813-.0406-.0271l.042.0271.014.0542v.0135l-.014.0136.028.0406h.014l.0559-.0542.084-.0948.056-.0813-.014.149-.056.0271-.07.0407.042.0542.1679-.0136.07-.0677.07-.0813.0559-.1084.098-.0678.0559-.0135-.1119.1084-.056.1626v.0135l-.0979.0949-.2939.0542-.0839.0677.014.0136-.028.0271h.028l-.014.0135.014.0271.1399.0542v.0271l.042.0407-.014.0407.028.0271.028-.0407.014.0271-.014.0407.0559-.0136-.014.0271.042.0136v-.0136l.028.0136h.042l.028-.0407.014.0136v-.0678l.0559-.0542.014-.0407.056-.0406v-.0271l.042-.0678-.028-.0948.028-.0407.0559.0407v.0677l.056.0949-.014.0813.07-.0136.014-.0542-.028-.0677.014-.0136.0979.0271v.0271.0136h.028l.014.0813.042.0406h.028v.0271l-.07.0543-.028.0542.098-.0407v.0271l.0699-.0542.14.0542.0279.0271.07.0136.1399-.0813.028.0271v.0135l-.2099.1355-.1819.0136-.0699-.0407-.028.0678-.056.0271v.0406l-.042-.0271-.028.0949-.1399.0271v.0406l-.1539.0813-.084.0813h-.0279v-.1084l-.028.0407-.126.0406-.014-.0135-.2518.0813.0559.0271-.1259.0948-.014-.0271-.014.0136v-.0271l-.06993.0542.01399.0271-.02798.0406-.05597.0271-.014-.0135-.01399.0271-.01399-.0271-.01399.0135h-.04198l-.01399.0271h.04197v.0271l-.02798.0136v.0406h.01399l-.06996.0407.02798.0135-.01399.0136.04198.0406v.0271l.04198-.0135.04197.0406-.08395-.0135h-.01399l-.04198.0135-.02799.0271v.0271l-.01399.0136v-.0407h-.04198l.02799.0407-.02799.0135v.0271l.014-.0135.04197.0271h.06997l.02798.0271.01399-.0271v.0271h.04198l.01399.0271.02799-.0542.04198.0135.02798-.0271.01399.0271-.01399-.0542.02799-.0135.04195.0271v.0677h.056l.014.0271v.0136l.0839.0271v.0677h.028l.028.0271.2379.0407.0699.0542.07.0135.028-.0135.056.0135.2518-.1355.042-.0542.07-.0271v-.0135l.014-.0407.0279.0271.042-.1626.098-.0135.0699.0271.028.0406v.0813l.014.0271v.0136l-.014.0542-.0559.0406v.0542l-.084.0949-.014.0813-.1259.0948.014.0271.0979.0271-.014.0542.014.0407-.056.0677-.0279-.0271h-.2379l-.028-.0271-.07.0136-.2378-.0542v-.0271h-.028l-.042.0271.028.0406-.07-.0406-.0559.0135v-.0135l-.028.0271-.07-.0407v-.0542l-.028.0136-.042-.0271h-.0419l-.084-.0813-.05596.0271-.02799-.0136h-.06996v.0271h-.05597l-.02798.0271-.11194-.0135-.06997-.0407-.04197.0136-.04198.0542.01399.0406-.06996-.0271v.0271l-.05597.0407.01399.0406-.02799.0136.08396.149.01399.0271h-.01399l-.05597-.0948-.04198-.0271-.04198.0135-.01399-.0271-.04198-.0135.014-.0271.02798-.0136h-.04198v-.0271l.04198-.0406-.02798-.0136-.02799.0136-.01399.0271-.01399-.0136-.05597.0271-.02799-.0135.08396-.0678.01399.0136.01399-.0271.05597-.0271-.08395.0135.05597-.0677h-.02799v-.0271l-.02798-.0271-.06997.0406-.08395.0271.04198-.0406.06996-.0136.01399-.0406-.02798-.0271-.04198.0271-.01399.0271-.05597.0135-.11194.122.02798-.0542-.06996.0677-.02799-.0271-.04197.0136.04197.0135.014.0136.08395-.0136.01399.0271.02799-.0271.05597-.0135-.02799.0135v.0271l-.09794.0136-.05597.0542h-.05597l-.02799.0406-.01399-.0271-.04198.0136-.01399.0542-.04198-.0407.01399-.0135-.05597-.0542-.12593.0135-.08396.1762.04198.0135.06997.0407.01399.0406-.04198.0136.01399.0271-.04198.0677h-.01399l.02799-.1084-.02799-.0542h-.02798l-.08396-.0406.02799.0271v.0271l-.02799-.0271-.01399.0135.02798.1626-.01399.0678h-.02798l-.02799-.0271v-.0949h-.02798l-.05597-.0406.12593-.2304.05597-.0406-.02799-.0136h-.11194l-.08395-.0406-.08396.0813-.01399.0948h.01399l.02799.1491-.01399.0677-.06997.0271-.04197-.0406s-.11194.0542-.09795.0135l.02798-.0677-.01399-.0542h-.05597l-.01399-.0542-.08396-.0271-.02798.0406-.09795.0271-.09795-.0406-.05597.0406-.01399.0678-.04198.0406-.06996.0136-.01399-.0136-.06997.0136-.01399.0542-.06996.0542-.02799-.0136h-.05597l-.02798-.0542-.12593-.0271-.05597-.0542-.014-.0406-.02798-.0271h-.05597l-.11194.0542-.04198-.0271-.16791.1761h-.08396l-.02798-.0406v.149l.09795.1897h.01399v.0407l.11194.271.08396.0271.01399.0135.09795.0407.04197.0542.06997-.0407.12593-.0135.13992.0135.014-.0271-.014-.0406.05597-.0542-.02798-.0542.08395-.0949.18191-.0135.05597.0406.11194.0407.06996-.0542.02799-.0813.09794-.0136.18191.0407.27985.1084h.12593l.04198.0406.08395-.0406.15392.0813.12593-.0407.04198.0271.12593.0136.12594.1219.01399-.0135-.13993-.1355.04198-.0136.06996.0136.05597-.0407-.01399.0271.01399.0271.04198-.0135.02799.0406-.04198.0407.05597.0135.01399-.0271.02799.0136-.04198.0542v-.0136l-.02799.0136-.06996-.0271.09795.0677.05597-.0406.08395.0271.05597.0135v-.0135l-.04197.0135-.014-.0271.15392-.1219.02799.0542.05597-.0136v-.0271l.04198-.0135.01399.0542s.08395.0135.08395-.0271v.0406l-.08395.0542.01399.0136.06996-.0271-.01399.0271-.02798.0406h.01399v.0271l-.05597.0136v.0271l.04198.0135.02798-.0406h.01399l.05597.0406.02799-.0406.01399.0135v.0271h.04198l.02798.0271h.014v.0271l-.04198.0407-.02799-.0136-.01399.0271.01399.0271-.04197.0949-.02799-.0136.01399-.0271-.01399-.0135h-.02798l-.04198.1355-.05597.0271v.0813l.06996-.0813.09795-.0407-.01399.0542.02798.0136h.02799l-.05597.0406-.014.0678-.02798.0406.06996-.0271-.01399.0407-.06996-.0136-.02799.0136-.12593-.0949.02798-.0542-.04197.0271-.014.0271.13993.1084v.0407l.04198.0677-.014.0271.04198-.0406h.02799l-.02799.0542-.02798.0135v.0407l.02798-.0271v.0135l-.04198.0542.04198-.0135-.02798.0542h.01399l.01399.0135-.02798.0407.02798-.0136.04198.0407.04198-.0136v.0542l.06996-.1084h.01396v.0271l.014-.0135.042-.0271-.042.0406h.014l-.014.0271.042-.0135v.0271l-.056.0406h-.02795l.02795.0136.056-.0136.014-.0406.014.0406-.028.0136v.0542l.042-.0136v.0271l-.042.0407v.0406h-.014v.0271l-.014.0407-.014.0406.042-.0271.056-.0271c.028-.0135 0 .0949 0 .0949l.028.0271-.014.0271.0279.0135.014-.0271v.0271h.042l.014-.0271.07.0136.014-.0271.014.0406h.0559l.028-.0813v-.0813l.056-.0271.014-.1219-.014-.0271.056-.0678.0279-.0406.028.0135-.042.0813-.0279.0678.014.0135.0139.0407.056-.0542.042.0135.056-.1084.028.0136v-.0136l.0559-.0135-.014.0542-.028.0271.014.0271.098-.1491.014.0271-.014.0271h.028l.028-.0271-.014-.0271h.0279l.028-.0406.056-.0136h.014l.028-.0135.042.0135-.084.122-.07.0542.07-.0136.028.0136.014.0406h-.084l-.0979.0271-.056-.0135-.042.0542-.0699.0271v-.0271l-.112.149v.0678l-.028.0135.014.0136-.014.0677-.0419.0678.014-.1084-.014.0406-.014.1084-.07.0949.1259.1355.014-.0136v.0271l.028-.0271.014.0407.028-.0542.014.0135h.042l.0419.0543.028-.0272.028.0272-.042.0135v.0271l.042.0136-.0839.0135-.014-.0271-.028.0407-.014-.0407-.028.0407h-.028v-.0136l-.042.0136-.0279-.0271h-.014l-.028.0542-.028.0135.028.0271v.0271l-.056.0407-.014-.0271.028-.0271h-.014l-.056.0813-.0979.0677-.014.0542.056-.0406.0559.0271v.0271l.014.0271.084.0135.014.0136.028-.0136.1539-.0135.2239-.1355.0699-.1084.056-.0136.042-.0677.1539-.0813.1399-.0272.1259.0542.182-.0135.0419.0271v.0271l-.0839.0407.014.0271.0559-.0136.028-.0542.056-.0135h.056l.014.0271-.126.0542.028.0542h-.07l-.0419.0135-.07-.0271-.014-.0271h-.056l-.0279.0271-.042-.0135-.014-.0407.014-.0135-.042-.0271v.0406l-.014-.0135-.1819.0813.028.0542h.0839l-.0139.0271-.07.0135-.056-.0271-.0839.0271.014-.0271-.028-.0135-.014.0271-.1679.1761h-.042l-.1259.2168h-.056l.042.0271-.042.0271.028.0407.028-.0271.0279.0135.042-.0406.07.0135.028.0542-.042.0678h.07l.0559.0271.098-.0136.028.0136-.028.0271h-.042l-.056.0135.014.0407-.028.0542h.014l.014-.0271.042.0135.1259-.0406-.0559.0271v.0271h-.028l-.084.0135v.0271l-.056.0407h-.0279l.014-.0271-.028-.0407-.042-.0135-.014.0406.056.0407h-.042l-.014.0271h.028l.014.0271-.028-.0136-.028.0136.07.0813-.07-.0271-.042.0271.014-.0407-.014-.0542-.0559-.0406-.084.0406-.07-.0406.014-.0136v-.0135l-.0559.0406-.07-.0677h-.028l-.042.0406.014.0271.028-.0271.112.0813.0279.0813v-.0135l.07.1084h-.056v.0271l-.014.0271h-.0419v-.0271l-.084.0135-.028-.0135.014-.0271.042.0135.014-.0271.028.0271-.014-.0542h-.028l-.028.0271-.028-.0135.042-.0271v-.0271l-.0979.0542-.028.0813.028-.0136.0559.0136-.014.0271.084.0677.028.0542-.028-.0135-.014.0271-.028-.0407h-.014l-.028.0678-.0559.0135-.014.0136v-.0271h-.028l-.1399.0135-.098.1084h-.042l-.02795.0271-.09795-.0677h-.04198l-.06996.0135-.02799.0271-.06996.0271-.01399.0271-.04198-.0271-.11194.122.02799.0135-.04198.0542-.02799-.0135-.19589-.0271-.02799-.0407-.02798.0407h-.014v-.0407l.014-.0135-.02799-.0407.01399-.0135-.02798-.0271.01399-.0271-.02798-.0407.01399-.0271-.01399-.0406-.04198-.0407v-.0271l-.12593-.149-.09795-.0542h-.02799l.04198.0406h-.02798l.01399.0271h-.02799l.014.0271-.014.0271-.01399.1626.01399.0271-.02798.0542.02798.0271-.02798.0407-.05597.0135v.0813l-.02799.0136.014.0135-.014.0136.02799.0135.04198.0542.16791.0542-.014.0271.02799.0136-.12593.0271v.0406l-.04198.0678v.0542l-.06996.0271-.014.0677.02799.0407.05597.0406-.01399.0949-.06997.0542-.01399.0406.05597.0407.02799.0677.16791-.0813.16791.0542.08395-.0406-.01399-.0407h.01399l.09795.0271.08395-.0677v.0677l.02799.0136.01399-.0678h.02799l.08395-.0677.04198.0135.04198.0407.08395.0135.08396.0542.08395.0136.09792-.0271.5038.0135.0839-.0135.126-.1084.1679.0271.0279.1355.056.0542-.014.0271.042-.0136.028.0271.0699-.0135.084-.0407.2519-.0271.0419-.0271.056.0271h.112l.0419-.0271-.0419-.0542.0279-.0406.084-.0407.2519.0271.3218.2168.2239.0678.9934.8265.3778.4065.2239.1897.1959.0271.3498-.0135.1819.0271.4898.1355.4757.2439c.028 0 .056.0135.056.0135l.1259.0407.4198.2439.084-.0407.1399.0271.1399-.0542.4478.0949h.0979l.098-.0407.0979-.0135.1539-.0678.4758-.1355.3358-.0542.056-.0542.3218-.149.2938-.271.084-.2304.056-.0813-.014-.0135.3638-.4472.1819-.0677.014-.0542h.028l.0139.0271.3359-.122-.014-.0813.042.0542.1399-.0271.0559-.0271v-.0406l.028.0135.028.0407.2939-.0136.2518-.0135.056.0135.1679-.0271.6297-.0813v-.0406l.0559-.0678.014-.0542.2239-.2845.1399-.1355.126-.1626.2658-.3117.126-.0948.4337-.4336.154-.1084.0419-.0136.112-.0542.2658-.1626.084-.0542.3918-.1219v-.0136l.0559-.0135.2379-.0271.2659.0135.042.0136-.084-.0542-.07.0271-.2099-.0136-.0979.0136.028-.0949-.028-.0135.028-.0271-.014-.0136h.028l-.014-.0406.014-.0136.028-.0406.0839-.0136.056.0136.1259.0271.042-.0407.042-.0135.028.0135-.042.0271.014.0136.014.0271.028-.0136.0279.0136.028-.0271v.0271l.042.0135.014-.0271.014.0271.056-.0813.0699-.0135.056.0271.0839.0948.014.0271-.0559.0271-.126.0136-.1679.0406-.028.0271.154-.0271h.1819l.0279.0136.028-.0136.056.0136.014-.0136.042-.0135-.028-.0271.028-.0542.028-.0271.0139.0135.028-.0813.056-.0135-.014-.0407v-.0406h-.028v-.0678l.028-.0542.07-.0948.1959-.1355.0979-.0813.084-.0271.2099-.0678.0559-.0136.028.0136.028-.0406v-.0678l.056-.0407.014-.0135-.028-.0813.042-.1355.0419-.0678-.0419-.0677.0139-.0813.098-.1355.056-.1084.1119-.0813v-.0271h-.028l-.1679.1626-.07.1219-.0559.0407-.056-.0407-.07.0542-.0419-.0406.028-.0813-.014-.0407-.014-.0677.028-.0271-.028-.0136.0419-.0271.028.0271.098-.0406-.014.0271.014.0135.0559-.0271.028-.0135.014.0271.07-.0542-.014-.1084-.042-.0136-.014-.0542-.0699.0136-.028-.0407h-.084l.042-.0406.042-.0136.0559.0136.112-.0271.0979.0406.028-.0135.042.0542.014-.0136.014.0136h.0979l.028-.0271-.0699.0135.0279-.0406v-.0271h-.0279l.0279-.0407-.0419.0407-.042-.0136v-.0271h-.098l-.0559-.0271-.028-.0406v-.0271l-.056-.0136-.042-.0542-.028-.1219h-.0419l-.014-.0678h-.014l-.098-.0406v-.0407l.042-.0135v-.0271l-.028-.0271-.0699-.0271h-.014v-.0136l.0559-.0271.014.0271h.056v.0136.0542l.07.0271.0559.0813.014-.0136v-.0271l.028.0136.014.0813.042-.0136.042.1355.014.0136.0279-.0136.028.0407.028-.0136.056.0407.042-.0136.014.0271.0279-.0271.028.0136.028-.0136.014.0271.042-.0542h.1119l.014-.0135.028.0135.1959-.1626-.014-.0406-.042-.0136v-.0406l-.0559-.0678h-.028l.014-.0271.014-.0542.0559-.0271.014.0271.014-.0271h.014l.014-.0271h.028l.014.0407.1819-.0813.0839.0135-.014-.0406-.0559.0135-.1959-.0948v-.0271l.014-.0136h.0839l.098.0271.028.0271.0419-.0135.112-.122.014-.0948-.014-.0271-.056-.0136-.1259-.0948-.2939-.0271-.1259-.0813.014-.0407.1539.0542.1259.0136.098-.0271.1539.0677.07-.0135.014.0135.0139-.0135h.056l.07-.0407-.014-.0813.014-.0271-.07.0136-.1679-.0407-.07-.0813-.1259-.0542v-.0542l-.042-.0542-.0419-.0271-.014-.0271-.042-.0135-.07.0271-.028-.0271-.0699-.0136-.028.0136-.056-.0407-.1539.0407h-.1119l-.112-.0136.014-.0271-.014-.0271.1819.0136.084-.0136.0699-.0542.098-.0271.042.0136h.028l.0139-.0136-.0979-.1084-.014-.0542.1259.0813.1819.0542.084.0542.014.0271.0839.0542v.0407l.056.0813.2659-.0271.0839-.0271.028-.0813v-.0271l-.042-.0271.014-.0542.126-.0407.0279-.0542.07-.0948z" fill="#fff"/></svg>