<svg viewBox="0 0 11 20" xmlns="http://www.w3.org/2000/svg"><path d="m3.9 5.5c0-.8.6-1.4 1.4-1.4s1.4.6 1.4 1.4-.7 1.4-1.4 1.4c-.8 0-1.4-.6-1.4-1.4zm-3.8 6.7c-.2.4 0 .9.4 1.1.1.1.2.1.3.1.3 0 .6-.2.8-.5.3-.8.8-1.6 1.4-2.3-.1.6-.1 1.1-.2 1.7v.2.1c-.5 2.2-.8 4.3-1.2 6.4-.2 1.1 1.5 1.4 1.7.3.3-1.8.6-3.5.9-5.3h.2c1.5 1.3 1.9 2.8 1.1 4.6-.2.4 0 .9.4 1.2.1.1.2.1.4.1.3 0 .6-.2.8-.5 1.1-2.4.6-4.7-1.4-6.5.1-1.2.3-2.4.5-3.6 1.5-.2 2.9-.9 4.1-2h.7v-7.3h-6l1.9 1.8-2 1.6h5.3v2.4c-.3-.2-.7-.2-1 .1-1 1-2.4 1.6-3.8 1.7h-.1l-.7-.2c-.3-.1-.5-.1-.8.1-1.6 1.2-2.9 2.8-3.7 4.7z"/></svg>