<svg viewBox="0 0 20 10.8" xmlns="http://www.w3.org/2000/svg"><path d="m1.7 1.7h-.9c-.4 0-.8.3-.8.8v5.8c0 .5.4.8.8.8h.8c.2 0 .4-.2.4-.4v-6.6c.1-.2-.1-.4-.3-.4zm4.1-1.7h-2c-.5 0-.9.4-.9.8v9.2c0 .5.4.8.8.8h2.1c.2 0 .4-.2.4-.4v-10c.1-.2-.1-.4-.4-.4zm13.4 1.7h-.8c-.2 0-.4.2-.4.4v6.7c0 .2.2.4.4.4h.8c.5 0 .8-.4.8-.8v-5.9c0-.5-.4-.8-.8-.8zm-3-1.7h-2.1c-.2 0-.4.2-.4.4v10c0 .2.2.4.4.4h2.1c.5 0 .8-.4.8-.8v-9.2c.1-.4-.3-.8-.8-.8zm-9.1 4.7c0-.3.2-.5.5-.5h4.8c.3 0 .5.2.5.5v1.5c0 .3-.2.5-.5.5h-4.8c-.3 0-.5-.2-.5-.5z"/></svg>