<svg viewBox="0 0 24 24" xmlns="http://www.w3.org/2000/svg"><path d="m4.621 2.015-4-1A.5.5 0 0 0 0 1.5v7a.5.5 0 0 0 .621.486l4-1A.5.5 0 0 0 5 7.5v-5a.5.5 0 0 0-.379-.485ZM23.999 23a1 1 0 0 0-1-1h-2.75a1 1 0 0 1-1-1v-2.67a.33.33 0 0 1 .33-.33 1.5 1.5 0 0 0 1.493-1.366l.607-5.918a.5.5 0 0 0-.743-.487 5.723 5.723 0 0 1-3.194.749l-1.511-.263a.5.5 0 0 0-.583.439l-.557 5.223A1.5 1.5 0 0 0 16.586 18h.163a.5.5 0 0 1 .5.5V21a3 3 0 0 0 3 3h2.75a1 1 0 0 0 1-1ZM23 5a5.006 5.006 0 0 0-5-5C17.936 0 6.477 2 6.414 2.008A.5.5 0 0 0 6 2.5v5a.5.5 0 0 0 .414.492L18 10a5.006 5.006 0 0 0 5-5Z"/></svg>
