<svg viewBox="0 0 16 24" xmlns="http://www.w3.org/2000/svg"><path d="M15.143 8.195H.857A.867.867 0 0 0 0 9.073c0 .483.383.879.857.879h14.286A.87.87 0 0 0 16 9.073a.869.869 0 0 0-.857-.878ZM13.143 4.097c0-2.259-1.794-4.097-4-4.097H6.857c-2.205 0-4 1.838-4 4.097v2.927h10.286V4.097ZM4.293 19.317l-.285 1.757h7.982l-.285-1.757H4.293ZM2.355 13.665.838 22.999a.87.87 0 0 0 .185.697c.16.193.395.304.64.304.412 0 .76-.302.826-.717l1.294-7.95a5.237 5.237 0 0 1-1.428-1.668ZM13.643 13.665a5.228 5.228 0 0 1-1.426 1.668l1.291 7.95a.844.844 0 0 0 .829.717.826.826 0 0 0 .637-.305.872.872 0 0 0 .188-.696l-1.52-9.334ZM6.857 15.22h2.286c2.206 0 4-1.838 4-4.098H2.857c0 2.26 1.795 4.098 4 4.098Z"/></svg>