<svg viewBox="0 0 24 21" xmlns="http://www.w3.org/2000/svg"><path fill-rule="evenodd" clip-rule="evenodd" d="M23.575 21H.425A.426.426 0 0 1 0 20.576V.424C0 .191.191 0 .425 0h23.15c.234 0 .425.19.425.424v20.152a.426.426 0 0 1-.425.424ZM6.8 9.122A3.184 3.184 0 0 0 9.985 5.94a3.184 3.184 0 0 0-3.186-3.18 3.184 3.184 0 0 0-3.186 3.18A3.184 3.184 0 0 0 6.8 9.122ZM20.391 5.94a3.184 3.184 0 0 1-3.186 3.182A3.184 3.184 0 0 1 14.02 5.94a3.184 3.184 0 0 1 3.185-3.181 3.184 3.184 0 0 1 3.186 3.181ZM6.8 18.03a3.184 3.184 0 0 0 3.186-3.18A3.184 3.184 0 0 0 6.8 11.667a3.184 3.184 0 0 0-3.186 3.182A3.184 3.184 0 0 0 6.8 18.031Zm13.592-3.18a3.184 3.184 0 0 1-3.186 3.18 3.184 3.184 0 0 1-3.185-3.18 3.184 3.184 0 0 1 3.185-3.183 3.184 3.184 0 0 1 3.186 3.182Z"/></svg>