<svg viewBox="0 0 51 52" xmlns="http://www.w3.org/2000/svg"><path d="M41.889 14.156a.505.505 0 0 0 .57.13.54.54 0 0 0 .325-.502V3.224c0-.598-.466-1.084-1.041-1.084h-7.291c-.575 0-1.042.486-1.042 1.084v1.277c0 .279.104.547.29.748l8.188 8.907ZM49.496 25.568 26.582.638a2.094 2.094 0 0 0-3.01 0L.657 25.568a2.234 2.234 0 0 0-.414 2.354c.328.8 1.084 1.318 1.92 1.316h3.125c.575 0 1.041.485 1.041 1.084v18.426C6.33 50.544 7.73 52 9.454 52h31.247c1.726 0 3.125-1.456 3.125-3.252V30.322c0-.599.466-1.084 1.042-1.084h3.124c.835 0 1.589-.518 1.916-1.317a2.234 2.234 0 0 0-.412-2.351v-.002Z"/><path d="m33.619 35.087-7.258 7.878a1.89 1.89 0 0 1-1.39.617 1.89 1.89 0 0 1-1.39-.617l-7.271-7.892c-1.5-1.57-2.029-3.88-1.372-5.985.657-2.105 2.39-3.652 4.49-4.005 1.801-.318 3.638.3 4.921 1.652l.281.293a.468.468 0 0 0 .68 0l.28-.293a5.52 5.52 0 0 1 8.017.013c2.212 2.302 2.216 6.033.01 8.341l.002-.002Z" fill="#2f7ddd"/></svg>

