<svg xmlns="http://www.w3.org/2000/svg" viewBox="0 0 24 25"><path d="M20.23 6.74c.06.07.17.1.26.06.1-.04.15-.13.15-.24V1.7c0-.27-.21-.5-.48-.5H16.8a.49.49 0 00-.48.5v.6c0 .12.05.24.13.34l3.78 4.1z"/><path d="M13.17.5L23.73 12c.27.3.34.72.2 1.09-.16.36-.5.6-.9.6H21.6a.49.49 0 00-.48.5v8.5c0 .83-.65 1.5-1.44 1.5H5.28c-.8 0-1.44-.67-1.44-1.5v-8.5c0-.27-.22-.5-.48-.5H1.92a.96.96 0 01-.89-.6c-.15-.37-.07-.8.2-1.09L11.78.5c.38-.4 1-.4 1.38 0zm0 19.88l3.62-3.93a3.04 3.04 0 000-4.16 2.75 2.75 0 00-4-.01l-.14.15c-.1.1-.25.1-.34 0l-.14-.15a2.72 2.72 0 00-2.46-.82 2.87 2.87 0 00-2.24 2 3.04 3.04 0 00.69 2.98l3.63 3.94c.18.2.43.31.69.31.26 0 .51-.11.7-.3z" clip-rule="evenodd"/></svg>
