<svg viewBox="0 0 16 16" xmlns="http://www.w3.org/2000/svg">
<path fill-rule="evenodd" clip-rule="evenodd" d="M15.3276 4.59671H11.0487C10.913 4.59667 10.7916 4.5117 10.7442 4.38356C10.4277 3.53038 9.7401 2.87091 8.87904 2.59461C8.74393 2.55101 8.65209 2.4246 8.65163 2.2816V0.656864C8.65163 0.294088 8.35989 0 8 0C7.64011 0 7.34837 0.294088 7.34837 0.656864V2.28428C7.34718 2.42643 7.2554 2.55168 7.12096 2.59461C6.2599 2.87091 5.57234 3.53038 5.25582 4.38356C5.20837 4.5117 5.08697 4.59667 4.95129 4.59671H0.672447C0.434796 4.58905 0.211875 4.71248 0.0908037 4.91877C-0.0302679 5.12505 -0.0302679 5.38143 0.0908037 5.58771C0.211875 5.79399 0.434796 5.91742 0.672447 5.90976H1.33206C1.37814 5.9101 1.42199 5.92977 1.45308 5.96406C1.48391 5.99878 1.49866 6.04508 1.49364 6.09141C1.48898 6.13967 1.48632 6.18927 1.48632 6.2382C1.48632 7.05407 2.14246 7.71547 2.95183 7.71547C3.76121 7.71547 4.41735 7.05407 4.41735 6.2382C4.41735 6.18927 4.41735 6.13967 4.41003 6.09141C4.40501 6.04508 4.41976 5.99878 4.45059 5.96406C4.48184 5.9296 4.52597 5.90991 4.57227 5.90976H4.85022C4.99894 5.90987 5.1288 6.01128 5.16606 6.15642C5.49799 7.46074 6.66418 8.37279 8 8.37279C9.33582 8.37279 10.502 7.46074 10.8339 6.15642C10.871 6.01115 11.001 5.90963 11.1498 5.90976H11.4277C11.4739 5.9099 11.5179 5.92972 11.5488 5.96432C11.5797 5.99893 11.5947 6.04509 11.59 6.09141C11.5853 6.13967 11.5827 6.18927 11.5827 6.2382C11.5827 7.05407 12.2388 7.71547 13.0482 7.71547C13.8575 7.71547 14.5137 7.05407 14.5137 6.2382V6.23818C14.5137 6.18925 14.5137 6.13966 14.5064 6.09141C14.5013 6.04508 14.5161 5.99878 14.5469 5.96406C14.578 5.92977 14.6219 5.9101 14.6679 5.90976H15.3276C15.5652 5.91742 15.7881 5.79399 15.9092 5.58771C16.0303 5.38143 16.0303 5.12505 15.9092 4.91877C15.7881 4.71248 15.5652 4.58905 15.3276 4.59671ZM2.94966 6.73083C2.67975 6.73083 2.46094 6.51026 2.46094 6.23818C2.46094 5.9661 2.67975 5.74553 2.94966 5.74553C3.21958 5.74553 3.43839 5.9661 3.43839 6.23818C3.43658 6.5095 3.21882 6.729 2.94966 6.73083ZM6.74733 4.76087H9.30399C9.34551 4.76103 9.38389 4.73862 9.40442 4.70224C9.42494 4.66586 9.42443 4.62115 9.40307 4.58526C9.11605 4.09238 8.59495 3.78591 8.02806 3.7766C7.46116 3.76729 6.93043 4.05648 6.62764 4.53968C6.59987 4.5839 6.59806 4.63983 6.62292 4.68577C6.64779 4.73172 6.69541 4.76047 6.74733 4.76087ZM13.0434 6.73083C12.7735 6.73083 12.5547 6.51026 12.5547 6.23818C12.5547 5.9661 12.7735 5.74553 13.0434 5.74553C13.3133 5.74553 13.5321 5.9661 13.5321 6.23818C13.5303 6.5095 13.3126 6.729 13.0434 6.73083ZM13.3617 8.78451C13.5194 8.77028 13.6652 8.87011 13.7102 9.02313L15.6345 15.5703C15.664 15.6716 15.6445 15.7809 15.5818 15.8654C15.5192 15.95 15.4207 15.9998 15.316 16H8.99912C8.8155 16 8.66665 15.8499 8.66665 15.6648V13.654C8.66665 13.2838 8.36895 12.9837 8.00172 12.9837C7.63449 12.9837 7.33679 13.2838 7.33679 13.654V15.6648C7.33679 15.8499 7.18794 16 7.00432 16H0.687467C0.582782 15.9998 0.484281 15.95 0.421616 15.8654C0.358952 15.7809 0.339444 15.6716 0.368965 15.5703L2.2966 9.02447C2.34157 8.87145 2.48734 8.77162 2.64503 8.78585C2.71352 8.79255 2.782 8.7959 2.85182 8.7959C3.5448 8.79571 4.20631 8.5042 4.67706 7.99158C4.70891 7.95696 4.75391 7.9377 4.80074 7.93863C4.84843 7.94001 4.89323 7.96198 4.92375 7.99895C5.47765 8.67395 6.23504 9.14818 7.08079 9.34955C7.23091 9.38531 7.33691 9.52047 7.33679 9.67597V10.9729C7.33679 11.3431 7.63449 11.6432 8.00172 11.6432C8.36895 11.6432 8.66665 11.3431 8.66665 10.9729V9.67463C8.66653 9.51913 8.77253 9.38397 8.92265 9.34821C9.7684 9.14683 10.5258 8.67261 11.0797 7.99761C11.1104 7.96073 11.155 7.93859 11.2027 7.93662C11.2507 7.93524 11.297 7.95478 11.3297 7.99024C11.8005 8.50286 12.462 8.79437 13.1549 8.79456C13.2248 8.79456 13.2952 8.79121 13.3617 8.78451Z"/>
</svg>
