<svg viewBox="0 0 32 31" xmlns="http://www.w3.org/2000/svg">
<path fill-rule="evenodd" clip-rule="evenodd" d="M16 0.833313C7.17829 0.833313 0 6.81253 0 14.1627C0.0534833 17.7376 1.66827 21.1056 4.41086 23.3623L1.22175 29.8117C1.089 30.0801 1.13866 30.4041 1.34555 30.6194C1.55244 30.8346 1.87132 30.894 2.1405 30.7675L10.6941 26.7409C12.419 27.2425 14.2052 27.4954 16 27.492C24.8231 27.492 32 21.5128 32 14.1627C32 6.81253 24.8231 0.833313 16 0.833313ZM22.9808 18.1285H9.71616C9.1378 18.1285 8.66895 17.6544 8.66895 17.0696C8.66895 16.4848 9.1378 16.0107 9.71616 16.0107H22.9808C23.5592 16.0107 24.0281 16.4848 24.0281 17.0696C24.0281 17.6544 23.5592 18.1285 22.9808 18.1285ZM9.71616 9.6574C9.1378 9.6574 8.66895 10.1315 8.66895 10.7163C8.66895 11.3011 9.1378 11.7752 9.71616 11.7752H18.792C19.3704 11.7752 19.8392 11.3011 19.8392 10.7163C19.8392 10.1315 19.3704 9.6574 18.792 9.6574H9.71616Z"/>
</svg>
