<svg viewBox="0 0 24 21" xmlns="http://www.w3.org/2000/svg"><path d="M23.125 4.922H1.71c-.804 0-1.527.295-1.688 1.087C-.14 7.04.664 7.164 1.629 7.164H4.63l5.629 5.55-6.433 6.342c-.482.476-.482 1.11 0 1.586.483.476 1.126.476 1.609 0l6.432-6.342 6.433 6.342c.482.476 1.125.476 1.608 0 .482-.476.482-1.11 0-1.586l-6.433-6.342 5.629-5.55h3.186c.804 0 1.527.114 1.688-.679.161-.951-.643-1.563-1.608-1.563h.754Zm-11.257 6.206-4.02-3.964h8.04l-4.02 3.964ZM21.231.815C21.121.326 20.681 0 20.187 0h-2.309c-.33 0-.55.272-.55.544 0 .271.22.543.55.543h2.309l.33 1.087h-2.639c-1.12 0-1.982.769-2.163 1.776-.04.218.144.398.365.398h5.66a.4.4 0 0 0 .384-.513L21.23.815Z"/></svg>