<svg viewBox="0 0 24 18" xmlns="http://www.w3.org/2000/svg"><path d="M5.949 3.7c.958-.673 1.16-1.947.453-2.86-.706-.914-2.042-1.106-3-.457-.958.673-1.16 1.946-.453 2.86.68.937 2.042 1.13 3 .457ZM4.791 4.709c-1.411 0-2.47 1.274-2.117 2.596l.202.793h7.36c.53 0 .984-.409.984-.937 0-.505-.429-.938-.983-.938H7.54s-.63-.457-1.21-.889c-.48-.385-.933-.625-1.539-.625ZM23.092 9.107H.857c-.479 0-.857.36-.857.818v1.177c0 .457.378.817.857.817h.353v2.236C1.21 16.27 3 18 5.244 18h13.512c2.219 0 4.034-1.706 4.034-3.845v-2.236h.353c.479 0 .857-.36.857-.817V9.925a.911.911 0 0 0-.908-.818ZM13.84 7.28c.1.097.377.29.63.145.252-.144.352-.36.15-.77-.176-.408-.176-.889.101-1.49.278-.624.555-1.201.48-1.826-.076-.625-.48-1.058-.606-1.178a.535.535 0 0 0-.504-.048c-.201.096-.302.313-.201.673.1.36.252.601-.127 1.298-.352.721-.63 1.418-.479 2.043a2.76 2.76 0 0 0 .555 1.154ZM16.765 7.28c.1.097.378.289.63.145s.353-.36.151-.77c-.176-.408-.176-.889.101-1.49.277-.624.555-1.201.48-1.826-.102-.625-.48-1.082-.606-1.178a.535.535 0 0 0-.504-.048c-.202.096-.302.313-.202.673.101.36.252.601-.126 1.298-.353.721-.63 1.418-.479 2.043.126.649.454 1.034.555 1.154ZM19.69 7.28c.101.097.379.29.631.145.252-.144.353-.36.151-.77-.176-.408-.176-.889.101-1.49.277-.624.555-1.201.479-1.826-.076-.625-.479-1.058-.605-1.178a.535.535 0 0 0-.504-.048c-.202.096-.303.313-.202.673.1.36.252.601-.126 1.298-.353.721-.63 1.418-.479 2.043.126.65.429 1.034.555 1.154Z"/></svg>