<svg viewBox="0 0 16.4 19.2" xmlns="http://www.w3.org/2000/svg"><path d="m9.2 9.6c-.3 0-.7-.2-.8-.5s0-.7.2-.9c.1-.1.1-.2 0-.3 0-.1-.1-.2-.1-.2-.4-.4-.6-.9-.6-1.4s.3-1 .7-1.3.9-.3 1.2.1c.3.3.3.8-.1 1.1-.1.1-.1.2 0 .3s.1.2.2.3c.4.4.6.9.5 1.4 0 .5-.3 1-.7 1.3-.1 0-.3.1-.5.1zm3.7 0c-.3 0-.7-.2-.8-.5s0-.7.2-.9c.1-.1.1-.2 0-.3s-.1-.2-.2-.3c-.4-.4-.6-.9-.5-1.4s.3-1 .7-1.3c.2-.2.5-.2.8-.2.3.1.5.3.5.6.1.3 0 .6-.3.8-.1.1-.1.2 0 .3s.1.2.2.3c.4.4.6.9.5 1.4 0 .5-.3 1-.7 1.3 0 .1-.2.2-.4.2zm-6.1 1.8c1.2-.4 2.4-.6 3.7-.6 2.9 0 5.9.9 5.9 2.7 0 3.1-2.7 5.7-5.9 5.7-3.3 0-5.9-2.5-5.9-5.7v-8.3c0-2-1.7-3.6-3.8-3.6-.4 0-.8-.4-.8-.8s.4-.8.8-.8c3 0 5.4 2.3 5.4 5.2v5.8c0 .1.1.3.2.3.1.1.3.1.4.1zm-.4 2.8c0 .6 1.6 1.4 4.1 1.4 2.5 0 4.1-.8 4.1-1.4s-1.6-1.4-4.1-1.4c-2.4 0-4.1.8-4.1 1.4z"/></svg>