<svg viewBox="0 0 25 25" xmlns="http://www.w3.org/2000/svg"><path d="M11.6359 12.8087C12.545 8.56074 14.2154 4.76074 17.2826 4.76074C23.1857 4.76074 23.9153 18.8307 24.0026 23.1407C24.0073 23.42 23.9037 23.6894 23.7153 23.8882C23.5268 24.0869 23.2695 24.1981 23.0013 24.1967H16.0788C15.8137 24.1967 15.5988 23.9729 15.5988 23.6967V23.5967C15.5537 22.6677 15.1197 15.9897 11.8097 13.3087C11.6644 13.1906 11.5969 12.9963 11.6359 12.8087ZM18.6885 10.7884C18.8747 10.7884 19.0528 10.7099 19.1825 10.5707L19.8996 9.82474C20.0381 9.68067 20.0787 9.46344 20.0023 9.27574C19.3946 7.76974 18.5143 6.70074 17.2826 6.70074C16.0509 6.70074 15.1706 7.76974 14.562 9.27574C14.4856 9.46344 14.5262 9.68067 14.6647 9.82474L15.3818 10.5707C15.5116 10.7099 15.69 10.7884 15.8762 10.7884C16.0625 10.7884 16.2408 10.7099 16.3706 10.5707L16.7834 10.1407C17.062 9.86084 17.5033 9.86084 17.7818 10.1407L18.1946 10.5707C18.3242 10.7099 18.5024 10.7884 18.6885 10.7884Z" /><path d="M8.66446 13.7002C4.37038 13.7002 3.40174 20.9232 3.20686 23.1372C3.18341 23.4101 3.27115 23.6806 3.44862 23.8828C3.6261 24.085 3.87698 24.2002 4.13998 24.2002H13.6795C13.8111 24.2004 13.9369 24.1443 14.0277 24.045C14.1184 23.9458 14.1661 23.8121 14.1595 23.6752C14.1403 23.2682 13.6238 13.7002 8.66446 13.7002Z" /><path d="M3.47099 8.2004H10.0671C10.0992 8.20057 10.1313 8.19856 10.1631 8.1944C11.6588 8.02451 12.7947 6.71387 12.8045 5.14672C12.8143 3.57957 11.6949 2.25361 10.2015 2.0634C9.49884 0.892123 8.26151 0.186305 6.93563 0.200403C5.15216 0.200947 3.58511 1.43296 3.09563 3.2194C1.88189 3.36035 0.963309 4.42826 0.961547 5.7004C0.946579 6.38576 1.20806 7.04627 1.68245 7.52142C2.15684 7.99657 2.8007 8.24285 3.45755 8.2004H3.47099Z" /></svg>
