<svg viewBox="0 0 16 16" xmlns="http://www.w3.org/2000/svg"><path d="m7.63 1.232a1.408 1.408 0 0 0 -1.395-1.232h-4.829c-.775 0-1.406.63-1.406 1.406v10.375c0 .776.63 1.406 1.406 1.406h7.392l.052-.057c.113-.126.2-.223.205-.4 0-.052-1.419-11.447-1.425-11.498zm-1.882 7.728a.469.469 0 0 1 -.551-.368l-.3-1.498h-1.325l-.3 1.498a.469.469 0 0 1 -.92-.184l.938-4.688a.469.469 0 0 1 .46-.376h.969c.223 0 .415.158.46.376l.937 4.688c.05.254-.114.5-.368.552zm3.024-6.116h5.822c.775 0 1.406.662 1.406 1.437v10.313c0 .775-.63 1.406-1.406 1.406h-7.01l2.055-2.35c.26-.293.369-.668.347-1.066zm5.698 5.186h.125a.468.468 0 1 0 0-.937h-1.438v-.469a.469.469 0 1 0 -.937 0v.469h-1.406a.468.468 0 1 0 0 .937h.125a5.917 5.917 0 0 0 1.098 2.053c-.297.271-.588.5-.896.744h-.002v.001l-.15.118a.469.469 0 1 0 .586.731l.138-.108.002-.002c.34-.267.644-.507.973-.81.266.244.53.447.805.657l.002.002c.111.085.224.17.338.261a.469.469 0 1 0 .586-.731c-.111-.088-.223-.173-.333-.258a10.7 10.7 0 0 1 -.746-.605 5.947 5.947 0 0 0 1.13-2.053zm-10.135-3.749h-.2l-.376 1.875h.95zm7.583 3.75c.202.544.472.984.77 1.359.297-.375.598-.815.8-1.359zm-6.36 6.737-.081-.643h2.465l-1.574 1.732a1.417 1.417 0 0 1 -.81-1.089z"/></svg>