<svg width="22" height="39" viewBox="0 0 22 39" fill="none" xmlns="http://www.w3.org/2000/svg">
<path d="M16.4311 36.9653C16.3368 36.9354 16.2426 36.9174 16.1628 36.8755C15.474 36.5107 14.7851 36.1459 14.1107 35.7632C13.9947 35.6974 13.9222 35.5419 13.9077 35.4223C13.8279 34.7884 13.8062 34.1484 13.6829 33.5205C13.6032 33.1258 13.4509 32.7191 13.2189 32.3722C12.559 31.3735 11.8411 30.3987 11.1378 29.4059C10.9202 30.8711 10.9275 32.3304 11.3843 33.8076C11.2973 33.7478 11.2103 33.688 11.1305 33.6162C10.6084 33.1198 10.0936 32.6234 9.58603 32.1091C9.50626 32.0254 9.44825 31.8579 9.49176 31.7682C10.1734 30.5362 10.0138 29.2863 9.65854 28.0244C9.43375 27.2111 9.21622 26.3977 9.00593 25.5784C8.95517 25.3811 8.94792 25.1777 8.85366 24.9744C7.98352 26.6011 7.62096 28.2876 8.04878 30.1475C7.92551 30.0339 7.853 29.998 7.82399 29.9442C7.33092 29.1069 6.83784 28.2637 6.36651 27.4204C6.31576 27.3307 6.32301 27.1752 6.38827 27.1034C7.12063 26.2841 7.59196 25.3811 7.70798 24.3704C7.84575 23.1324 7.92551 21.8885 8.02703 20.6505C8.03428 20.5548 8.02703 20.4531 7.99077 20.3455C7.33817 21.0153 6.85959 21.7748 6.33751 22.5164C5.80092 23.2819 5.56164 24.1132 5.53988 24.9923C5.50363 24.9923 5.47462 24.9983 5.43837 24.9983C5.3586 24.7172 5.25709 24.4421 5.20633 24.161C5.08306 23.5032 4.97429 22.8453 4.87278 22.1815C4.85827 22.1097 4.88728 21.9961 4.94529 21.9542C5.6704 21.422 6.19249 20.7701 6.63481 20.0704C7.43968 18.8085 7.90376 17.439 8.38959 16.0754C8.41859 15.9917 8.44034 15.908 8.41859 15.7884C8.05603 16.0934 7.69347 16.3984 7.33092 16.6974C7.09163 16.8947 6.86684 17.1041 6.61305 17.2895C5.68491 17.9772 5.17732 18.8444 4.94529 19.8371C4.92353 19.9209 4.88003 19.9926 4.85102 20.0704C4.82202 20.0644 4.79301 20.0644 4.76401 20.0584C4.79301 19.5919 4.80026 19.1195 4.85102 18.653C4.91628 18.0908 5.02505 17.5287 5.13382 16.9665C5.15557 16.8648 5.24258 16.7393 5.3441 16.6854C6.66381 15.9857 7.74423 15.1126 8.53461 13.9703C8.97693 13.3244 9.57152 12.7563 10.1009 12.1522C10.1951 12.0446 10.2966 11.9429 10.3764 11.8113C8.65788 12.3855 7.09163 13.127 5.9822 14.4069C5.94595 14.3829 5.91694 14.365 5.88069 14.3411C6.10547 13.8447 6.31576 13.3423 6.55504 12.8519C6.77983 12.3675 7.02637 11.9788 7.75148 11.7635C9.03494 11.3807 10.0864 10.6212 11.1305 9.8916C11.6744 9.50885 12.2254 9.14404 12.7765 8.76727C12.8998 8.67756 13.0231 8.58187 13.1246 8.45628C12.3052 8.48021 11.5293 8.67158 10.7825 8.91678C10.0356 9.16198 9.32498 9.47297 8.56361 9.76601C8.59987 9.69424 8.62887 9.6165 8.68688 9.55071C9.1147 9.06629 9.54252 8.58786 9.98484 8.1154C10.0501 8.04363 10.1951 7.97785 10.3111 7.97785C11.7396 7.94794 13.0593 7.60108 14.3283 7.08675C15.0099 6.81165 15.7133 6.57243 16.4021 6.31527C16.4964 6.27939 16.5834 6.23752 16.6704 6.1538C15.0897 5.92654 13.5307 6.01027 11.9717 6.38704C12.0514 6.31527 12.1167 6.24351 12.2037 6.1837C12.356 6.07007 12.5155 5.96242 12.6678 5.84879C13.2551 5.39428 13.8062 5.04741 14.7561 5.21486C16.1338 5.45408 17.5478 5.23878 18.9328 5.09525C19.4331 5.04143 19.9407 4.99956 20.441 4.94574C20.5208 4.93976 20.6005 4.90986 20.6875 4.85005C19.0488 4.30583 17.4028 3.81543 15.5755 4.1922C15.532 4.14435 15.4885 4.09651 15.445 4.05465C15.5392 4.03073 15.6407 4.03073 15.7205 3.98886C15.996 3.84533 16.2643 3.69582 16.5254 3.53435C17.0765 3.19346 17.6566 2.94228 18.3599 2.82865C19.114 2.70306 19.7666 2.36217 20.2815 1.87177C20.7746 1.39931 21.2531 0.908913 21.7245 0.418513C21.8405 0.298903 21.9057 0.143411 22 0.00585938C21.9275 0.00585938 21.855 0.00585938 21.7825 0.00585938C21.5214 0.0895862 21.2676 0.179293 20.9993 0.26302C20.18 0.514201 19.3171 0.693615 18.5412 1.02254C17.7146 1.37539 17.1345 1.94952 17.0765 2.78678C17.0692 2.86453 16.9387 2.96022 16.8444 3.01404C16.0178 3.42072 15.1839 3.81543 14.35 4.21612C14.3065 4.24004 14.2413 4.24004 14.1905 4.24602C14.1688 4.22808 14.147 4.21612 14.118 4.19818C15.4595 3.25326 15.9888 2.00334 16.2788 0.585966C14.7198 1.30362 13.4146 2.15883 12.6025 3.41474C12.269 3.92308 12.2907 4.4972 12.5227 5.05937C12.6895 5.02947 12.8128 5.00555 12.9361 4.98162C12.9506 4.99956 12.9578 5.01751 12.9723 5.03545C12.1964 5.6335 11.4133 6.23154 10.6374 6.82959C11.1958 5.43614 10.6374 4.08455 10.5142 2.71502C9.91233 3.47454 9.33224 4.22808 8.86091 5.02947C8.22281 6.11193 8.34608 7.23029 8.86816 8.32471C8.94792 8.49217 8.91892 8.59384 8.81015 8.73139C8.31707 9.34738 7.84575 9.96935 7.36717 10.5853C7.32367 10.6392 7.27291 10.687 7.2294 10.7408C7.2004 10.7408 7.17139 10.7408 7.14239 10.7348C7.2294 9.28757 7.23665 7.85226 6.22874 6.54253C6.16348 6.66812 6.10547 6.76381 6.06922 6.86548C5.72841 7.83431 5.35135 8.79717 5.06131 9.77797C4.74951 10.8066 5.19908 11.7216 5.87343 12.5589C6.01121 12.7264 6.06196 12.834 5.9822 13.0194C5.64865 13.8567 5.3296 14.6999 5.0033 15.5372C4.97429 15.6209 4.93078 15.6987 4.89453 15.7824C4.81477 15.7106 4.80026 15.6568 4.80752 15.603C4.89453 14.688 4.60448 13.8507 4.03164 13.0732C3.79235 12.7503 3.58207 12.4154 3.35003 12.0924C3.1325 11.7934 2.89321 11.5063 2.66842 11.2133C2.62492 11.2193 2.58141 11.2312 2.53065 11.2372C2.48715 12.2958 2.42189 13.3603 2.41463 14.4188C2.40738 15.1843 2.59591 15.9259 3.08174 16.5897C3.40804 17.0383 3.81411 17.4509 4.47396 17.5227C4.40145 18.7128 4.32894 19.897 4.24918 21.0871C3.67634 19.1913 1.92881 18.031 0.333553 16.7692C0.31905 16.9127 0.355306 17.0323 0.391562 17.1579C0.609097 18.0191 0.783125 18.8982 1.05867 19.7474C1.46473 21.0153 2.21885 22.1097 3.70534 22.7317C3.93738 22.8274 4.19842 22.8693 4.45221 22.941C4.735 24.0235 5.0323 25.1598 5.3441 26.3738C5.24984 26.2781 5.20633 26.2482 5.17732 26.2064C4.706 25.4648 4.01714 24.8847 3.18326 24.4302C2.13184 23.856 1.05867 23.2939 3.80934e-07 22.7317C3.80934e-07 22.7736 3.80934e-07 22.8094 3.80934e-07 22.8513C0.0435073 22.8932 0.101515 22.935 0.13052 22.9829C0.601845 23.7723 1.09492 24.5617 1.5445 25.3631C2.36388 26.8343 3.67634 27.8151 5.56889 28.2696C5.9967 28.3713 6.03296 28.3534 6.09822 28.0304C6.77983 29.0949 7.46869 30.1714 8.20831 31.3257C6.22149 29.9501 3.91562 29.4657 1.52999 29.2086C1.8998 29.5136 2.32037 29.7767 2.61767 30.1176C3.50956 31.1403 4.67699 31.8759 6.00396 32.45C7.08438 32.9165 8.24456 33.0959 9.47001 32.8985C9.57877 32.8806 9.7528 32.9643 9.84707 33.0421C10.5867 33.676 11.3481 34.3338 12.1094 34.9857C12.1819 35.0455 12.2472 35.1173 12.3125 35.1831C12.298 35.201 12.2762 35.2249 12.2617 35.2429C11.1015 34.902 9.89783 34.7764 8.67238 34.8123C7.46869 34.8482 6.265 34.9199 5.0033 34.9797C5.08306 35.0814 5.09756 35.1053 5.11206 35.1113C6.83784 35.8708 8.54911 36.6782 10.5287 36.9234C11.7541 37.0729 12.9288 36.9593 14.031 36.4629C14.1325 36.4151 14.321 36.4509 14.437 36.4988C15.5175 36.9952 16.5979 37.5035 17.6783 38.0059" fill="white"/>
</svg>
