<svg viewBox="0 0 19 47" xmlns="http://www.w3.org/2000/svg"><path d="m14.1905 45.7129c-.0814-.037-.1628-.0591-.2317-.1109-.5949-.4512-1.1898-.9024-1.7722-1.3758-.1002-.0814-.1629-.2737-.1754-.4217-.0689-.784-.0877-1.5755-.1941-2.3522-.0689-.4882-.2004-.9912-.4008-1.4202-.5699-1.2353-1.1899-2.441-1.79731-3.6689-.18788 1.8123-.18161 3.6171.21292 5.4442-.07515-.074-.1503-.148-.21919-.2367-.45089-.614-.89551-1.2279-1.33388-1.8641-.06889-.1035-.11899-.3106-.08141-.4216.58866-1.5238.45089-3.0697.14403-4.6305-.19413-1.0059-.382-2.0119-.56361-3.0253-.04384-.2441-.0501-.4956-.13151-.7471-.75148 2.012-1.0646 4.0979-.69512 6.3984-.10646-.1406-.16908-.185-.19413-.2515-.42584-1.0356-.85168-2.0786-1.25874-3.1215-.04383-.111-.03757-.3033.01879-.3921.6325-1.0134 1.03955-2.1303 1.13975-3.3804.11898-1.5311.18787-3.0697.27554-4.6009.00626-.1183 0-.244-.03131-.3772-.56361.8285-.97693 1.7679-1.42782 2.6851-.46341.9468-.67007 1.975-.68886 3.0623-.03131 0-.05636.0074-.08767.0074-.06889-.3476-.15656-.6879-.2004-1.0356-.10646-.8136-.20039-1.6273-.28806-2.4483-.01253-.0888.01252-.2293.06262-.2811.62624-.6583 1.07713-1.4646 1.45913-2.33.69512-1.5608 1.09591-3.2547 1.51549-4.9412.02505-.1035.04384-.2071.02505-.355-.31312.3772-.62624.7544-.93935 1.1243-.20666.2441-.40079.503-.61998.7323-.80158.8506-1.23995 1.9232-1.44034 3.1511-.01879.1035-.05636.1923-.08141.2885-.02505-.0074-.0501-.0074-.07515-.0148.02505-.577.03131-1.1614.07515-1.7383.05636-.6953.1503-1.3906.24423-2.0859.01879-.1258.09394-.2811.18161-.3477 1.13975-.8654 2.07284-1.9454 2.75544-3.3582.382-.7989.89552-1.5016 1.35267-2.2487.08141-.1331.16908-.2589.23797-.4216-1.48418.7101-2.83685 1.6273-3.79499 3.2103-.03132-.0296-.05636-.0518-.08768-.0814.19414-.6139.37575-1.2353.5824-1.8418.19414-.5992.40706-1.08 1.03329-1.3463 1.10844-.4734 2.01648-1.4128 2.91826-2.3152.46968-.4734.94558-.9246 1.42158-1.3906.1064-.111.2129-.2293.3006-.3847-.7077.0296-1.37775.2663-2.02277.5696s-1.25873.6879-1.91628 1.0504c.03131-.0888.05636-.185.10646-.2663.36948-.5992.73896-1.1909 1.12096-1.7753.05636-.08875.18161-.17011.28181-.17011 1.23372-.03699 2.37342-.46601 3.46932-1.10214.5887-.34026 1.1961-.63614 1.7911-.9542.0814-.04439.1565-.09616.2317-.19972-1.3652-.28108-2.7116-.17753-4.058.28848.0688-.08876.1252-.17753.2004-.2515.1315-.14054.2692-.27368.4007-.41422.5073-.56217.9832-.99119 1.8036-.78408 1.1899.29588 2.411.02959 3.6071-.14794.4321-.06657.8705-.11835 1.3026-.18492.0689-.00739.1378-.04438.2129-.11835-1.4153-.67312-2.8368-1.27967-4.415-.81366-.0375-.05917-.0751-.11835-.1127-.17013.0814-.02959.1691-.02959.238-.08136.238-.17753.4697-.36245.6951-.56217.476-.42162.9769-.73229 1.5844-.87284.6513-.15533 1.2149-.57696 1.6595-1.1835.4259-.58436.8392-1.19091 1.2462-1.797453.1002-.147938.1566-.340258.238-.510387-.0626 0-.1252 0-.1879 0-.2254.103557-.4446.214511-.6763.318067-.7077.310671-1.4529.532578-2.1229.939413-.714.43641-1.2149 1.14652-1.265 2.18209-.0063.09616-.119.21451-.2004.28108-.7139.50299-1.4341.99118-2.1543 1.48678-.0376.02959-.0939.02959-.1378.03698-.0187-.02219-.0375-.03698-.0626-.05917 1.1586-1.16872 1.6157-2.71467 1.8662-4.467739-1.3464.887629-2.4736 1.945389-3.175 3.498739-.2881.62874-.2693 1.33884-.0689 2.03415.144-.03698.2505-.06657.3569-.09616.0126.02219.0188.04439.0314.06658-.6701.73969-1.34645 1.47938-2.01652 2.21907.4822-1.72348 0-3.39518-.10646-5.08908-.51977.93941-1.02076 1.87142-1.42782 2.86261-.55108 1.33884-.44462 2.72206.00627 4.07569.06888.2071.04383.3329-.0501.503-.42584.7619-.8329 1.5312-1.24621 2.293-.03758.0666-.08141.1258-.11899.1924-.02505 0-.0501 0-.07515-.0074.07515-1.7901.08142-3.56535-.78905-5.18527-.05636.15533-.10646.27368-.13777.39943-.29434 1.1983-.61998 2.38924-.87047 3.60234-.26928 1.2722.11898 2.404.70138 3.4395.11899.2071.16282.3403.09394.5696-.28807 1.0356-.56362 2.0785-.84542 3.1141-.02505.1035-.06263.1997-.09394.3033-.06888-.0888-.08141-.1554-.07515-.2219.07515-1.1318-.17534-2.1673-.67007-3.1289-.20665-.3995-.38826-.8137-.58866-1.2131-.18787-.3699-.39453-.7249-.58866-1.0874-.03758.0074-.07515.0222-.11899.0296-.03757 1.3093-.09393 2.6259-.10019 3.9352-.00627.9468.15655 1.864.57613 2.685.28181.5548.6325 1.0652 1.20238 1.154-.06263 1.472-.12525 2.9365-.19414 4.4085-.49472-2.3448-2.00395-3.7798-3.381671-5.3405-.012526.1775.018787.3254.050098.4808.18787 1.0651.338167 2.1525.576138 3.2028.350695 1.5682 1.001975 2.9218 2.285765 3.6911.20039.1183.42584.1701.64502.2589.24423 1.3388.50099 2.7442.77027 4.2458-.08141-.1184-.11899-.1553-.14404-.2071-.40705-.9172-1.00197-1.6347-1.72214-2.1969-.90805-.7101-1.834875-1.4054-2.74918-2.1007v.1479c.0375748.0518.0876732.1036.112722.1627.407053.9764.832896 1.9528 1.221158 2.944.70765 1.8197 1.84114 3.0328 3.47561 3.5949.36948.1258.40079.1036.45715-.2959.58867 1.3167 1.18359 2.6481 1.82235 4.0757-1.71589-1.7012-3.70732-2.3004-5.76763-2.6185.31938.3773.6826.7027.93935 1.1244.77027 1.2648 1.77851 2.1747 2.92452 2.8848.9331.5769 1.93507.7988 2.99341.5547.09394-.0222.24423.0814.32564.1776.63877.784 1.29631 1.5977 1.95382 2.404.0627.0739.119.1627.1754.2441-.0125.0221-.0313.0517-.0438.0739-1.00203-.4216-2.04158-.5769-3.09992-.5326-1.03955.0444-2.0791.1332-3.16875.2072.06888.1257.08141.1553.09393.1627 1.49045.9394 2.96836 1.938 4.67799 2.2413 1.05835.1849 2.07285.0443 3.02475-.5696.0876-.0592.2505-.0148.3507.0444.9331.6139 1.8661 1.2427 2.7992 1.864"/></svg>