<svg viewBox="0 0 16 16" fill="none" xmlns="http://www.w3.org/2000/svg">
  <path fill-rule="evenodd" clip-rule="evenodd" d="M0 8C0 3.58172 3.58172 0 8 0C12.4163 0.00477657 15.9952 3.5837 16 8C16 12.4183 12.4183 16 8 16C3.58172 16 0 12.4183 0 8ZM12.6327 7.48V7.47533C12.7048 7.2374 12.6597 6.97937 12.5113 6.77992C12.3629 6.58048 12.1286 6.46325 11.88 6.464H9.94867C9.70521 6.46399 9.47541 6.35155 9.326 6.15933C9.17714 5.96731 9.12636 5.71684 9.18867 5.482L9.53533 4.17333C9.58994 3.96689 9.54235 3.74678 9.40733 3.58133C9.27391 3.41821 9.07205 3.32665 8.86143 3.33371C8.65081 3.34077 8.45553 3.44564 8.33333 3.61733L6.41333 6.57133C6.26593 6.78019 6.0263 6.90448 5.77067 6.90467H4.50333C4.41129 6.90467 4.33667 6.97929 4.33667 7.07133V10.1293C4.33684 10.1919 4.37178 10.2492 4.42733 10.278C4.47867 10.3043 4.52989 10.33 4.58114 10.3557C4.65568 10.3931 4.73027 10.4305 4.80533 10.47C7.23249 11.6968 7.51889 11.6904 9.01828 11.6574C9.30173 11.6512 9.62853 11.644 10.0213 11.644C11.0567 11.644 11.578 10.9733 11.8827 9.98933V9.98333L12.6327 7.48Z" />
</svg>