<svg viewBox="0 0 16 14" xmlns="http://www.w3.org/2000/svg">
<path fill-rule="evenodd" clip-rule="evenodd" d="M8 13.9988H12.3333C12.8821 13.9992 13.3959 13.7432 13.7072 13.3144C14.0185 12.8856 14.0874 12.3389 13.8913 11.8526C14.5605 11.4507 14.8392 10.6575 14.558 9.955C15.2272 9.5531 15.5059 8.75988 15.2247 8.05741C15.8511 7.68093 16.1401 6.957 15.9336 6.28122C15.7271 5.60544 15.0749 5.14039 14.3333 5.14019H10.058C10.008 5.14024 9.9606 5.11889 9.92903 5.08207C9.89747 5.04525 9.88509 4.99689 9.89533 4.95043C10.1348 4.02186 10.2814 3.07393 10.3333 2.11923C10.3626 1.55299 10.1676 0.996839 9.78667 0.560051C9.46039 0.207649 8.99103 0.00420597 8.49667 0.000895924C8.10883 -0.0124074 7.73167 0.122898 7.45013 0.376333C7.1686 0.629768 7.00637 0.980017 7 1.34818C7.02723 3.6829 5.12266 5.62894 2.66667 5.77588H0.666667C0.298477 5.77588 0 6.05907 0 6.40841V12.1012C0 12.4505 0.298477 12.7337 0.666667 12.7337C3.65333 12.7337 4.622 13.1278 5.47533 13.4763C6.26137 13.8378 7.1267 14.0169 8 13.9988ZM1.49598 11.4792C1.40587 11.4771 1.33396 11.4072 1.33398 11.3217V7.19884C1.33398 7.1115 1.4086 7.0407 1.50065 7.0407H2.66732C5.85216 6.87673 8.34328 4.37414 8.33398 1.34795C8.33398 1.25939 8.60332 1.19994 8.78998 1.39918C8.94625 1.6086 9.02075 1.86312 9.00065 2.119C8.89805 3.30006 8.68227 4.4698 8.35598 5.61372C8.30325 5.80345 8.3463 6.00565 8.47252 6.16108C8.59875 6.31651 8.79385 6.40756 9.00065 6.40754H14.334C14.5181 6.40754 14.6673 6.54914 14.6673 6.72381C14.6673 6.89848 14.5181 7.04007 14.334 7.04007H13.6673C13.2991 7.04007 13.0007 7.32327 13.0007 7.6726C13.0007 8.02194 13.2991 8.30513 13.6673 8.30513C13.8514 8.30513 14.0007 8.44673 14.0007 8.62139C14.0007 8.79606 13.8514 8.93766 13.6673 8.93766H13.0007C12.6325 8.93766 12.334 9.22085 12.334 9.57019C12.334 9.91952 12.6325 10.2027 13.0007 10.2027C13.1847 10.2027 13.334 10.3443 13.334 10.519C13.334 10.6936 13.1847 10.8352 13.0007 10.8352H12.334C11.9658 10.8352 11.6673 11.1184 11.6673 11.4678C11.6673 11.8171 11.9658 12.1003 12.334 12.1003C12.5181 12.1003 12.6673 12.2419 12.6673 12.4166C12.6673 12.5912 12.5181 12.7328 12.334 12.7328H8.00065C7.30777 12.7505 6.62094 12.6063 6.00065 12.3128C4.58193 11.7242 3.04387 11.4395 1.49598 11.4792Z"/>
</svg>
