<svg viewBox="0 0 24 24" xmlns="http://www.w3.org/2000/svg"><path fill-rule="evenodd" clip-rule="evenodd" d="m21.52 3.82 2.44 15.86c.024.19.037.38.04.57 0 2.07-1.68 3.75-3.75 3.75H3.75C1.68 24 0 22.32 0 20.25c.003-.19.016-.38.04-.57L2.48 3.82A4.471 4.471 0 0 1 6.93 0h10.14a4.471 4.471 0 0 1 4.45 3.82ZM20.25 22.5a2.253 2.253 0 0 0 2.25-2.25A2.253 2.253 0 0 0 20.25 18H3.75a2.248 2.248 0 0 0-1.35 4.05.374.374 0 0 0 .6-.3 2.253 2.253 0 0 1 2.25-2.25h14a.75.75 0 0 1 0 1.5h-14a.75.75 0 0 0 0 1.5h15Z"/></svg>