<svg enable-background="new 0 0 20 16" viewBox="0 0 20 16" xmlns="http://www.w3.org/2000/svg"><path d="m3.9 5.8s.8 2.7 2.7 2.7h6.9c1.9 0 2.7-2.7 2.7-2.7.2-.9.8-1.6 1.6-1.9.1 0 .2-.3.2-.5s-.1-.3-.1-.4c-.1-.4-.2-.8-.3-1.1-.6-1.2-1.6-1.9-2.8-1.9h-9.6c-1.2 0-2.2.7-2.7 1.8-.2.4-.3.8-.4 1.2 0 .1-.1.3-.1.4 0 .2.1.5.3.6.8.2 1.4.9 1.6 1.8zm15.2-.4c-.7-.2-1.4.2-1.6 1 0 .2-1.1 3.8-4 3.8h-7c-2.9 0-3.9-3.7-4-3.8-.2-.8-.9-1.2-1.6-1-.7.2-1.1 1-.9 1.8.1.2 1.2 4.4 4.6 5.6.1 0 .1.1.1.1v.2l-.7 1.4c-.2.5-.1 1.1.3 1.3.4.3.9.1 1.2-.3l1.2-2.2c.1-.1.2-.2.4-.2h5.8c.1 0 .3.1.4.2l1.2 2.2c.2.3.4.5.8.5.3 0 .6-.2.7-.5.2-.3.1-.7 0-1l-.8-1.4c0-.1 0-.1 0-.2s.1-.1.1-.1c3.4-1.2 4.6-5.4 4.6-5.6.3-.8-.1-1.6-.8-1.8z"/></svg>