<svg viewBox="0 0 20 20" xmlns="http://www.w3.org/2000/svg"><path fill-rule="evenodd" clip-rule="evenodd" d="M17.5 8.134a3.744 3.744 0 012.5 3.533 3.75 3.75 0 01-2.084 3.351v.399c0 1.962-1.541 3.333-3.75 3.333h-1.481a1.667 1.667 0 110-1.667h1.481c1.008 0 2.084-.438 2.084-1.666v-.475a1.245 1.245 0 01-.417-.917V7.5a5.833 5.833 0 00-11.667 0v6.525A1.25 1.25 0 012.5 15.203a3.75 3.75 0 010-7.069V7.5a7.5 7.5 0 1115 0v.634zm-4.297 3.256a.694.694 0 00-.583.314h.004a3.125 3.125 0 01-5.24 0 .696.696 0 10-1.167.76 4.515 4.515 0 007.567 0 .694.694 0 00-.58-1.074zm-5.98-2.083a1.39 1.39 0 100-2.779 1.39 1.39 0 000 2.779zm6.943-1.39a1.39 1.39 0 11-2.778 0 1.39 1.39 0 012.778 0z"/></svg>