<svg xmlns="http://www.w3.org/2000/svg" viewBox="0 0 25 25">
  <path class="circle" d="M16.184 14.923a.253.253 0 00-.189.051.246.246 0 00-.1.171l-.231 2.228a.249.249 0 00.207.272c2.309.383 3.867 1.105 3.867 1.933 0 1.23-3.427 2.225-7.654 2.225s-7.654-1-7.654-2.225c0-.828 1.558-1.55 3.867-1.933a.25.25 0 00.207-.272l-.231-2.226a.246.246 0 00-.1-.17.253.253 0 00-.189-.052c-4.292.615-7.9 2.2-7.9 4.653 0 3.211 6.178 4.944 11.991 4.944s12-1.735 12-4.949c0-2.45-3.604-4.035-7.891-4.65z"/>
  <path class="user" d="M12.084 6.326a2.75 2.75 0 100-5.5 2.75 2.75 0 000 5.5zM9.084 13.826h.77c.13 0 .239.1.249.23l.443 5.311a.5.5 0 00.5.46h2.08a.5.5 0 00.5-.46l.443-5.312c.01-.13.119-.23.249-.229h.766a.5.5 0 00.5-.5v-2.5a3.5 3.5 0 10-7 0v2.5a.5.5 0 00.5.5z"/>
</svg>
