<svg viewBox="0 0 10 12" xmlns="http://www.w3.org/2000/svg">
<path fill-rule="evenodd" clip-rule="evenodd" d="M8.75 4.75H8.375V3.375C8.375 1.51104 6.86396 0 5 0C3.13604 0 1.625 1.51104 1.625 3.375V4.75H1.25C0.697715 4.75 0.25 5.19772 0.25 5.75V11C0.25 11.5523 0.697715 12 1.25 12H8.75C9.30229 12 9.75 11.5523 9.75 11V5.75C9.75 5.19772 9.30229 4.75 8.75 4.75ZM5 9.25C4.44772 9.25 4 8.80229 4 8.25C4 7.69772 4.44772 7.25 5 7.25C5.55228 7.25 6 7.69772 6 8.25C6 8.80229 5.55228 9.25 5 9.25ZM6.875 4.75C7.01307 4.75 7.125 4.63807 7.125 4.5V3.375C7.125 2.2014 6.1736 1.25 5 1.25C3.8264 1.25 2.875 2.2014 2.875 3.375V4.5C2.875 4.63807 2.98693 4.75 3.125 4.75H6.875Z"/>
</svg>
