<svg viewBox="0 0 14 16" xmlns="http://www.w3.org/2000/svg"><path clip-rule="evenodd" d="m8.00047 5.76c.00079-.93455-.35494-1.83703-1-2.53696v-1.62304c0-.883656-.74619-1.6-1.66666-1.6-.92048 0-1.66667.716344-1.66667 1.6v.33344c-1.87556.15401-3.385472 1.5426-3.6262449 3.33487-.2407731 1.79227.8527529 3.50318 2.6262449 4.10897v.41024l-.56933.54588c-.06248.0602-.09749.1417-.09734.2266.00021.0849.03517.1662.09734.2266l.56933.5465v.3751l-.56933.5465c-.13013.125-.13013.3275 0 .4525l.56933.5459v.8269c-.00016.0849.03486.1664.09733.2266l1 .96c.06254.0601.14745.094.236.094.08856 0 .17347-.0339.236-.094l1-.96c.06248-.0602.0975-.1417.09734-.2266v-4.70272c1.59468-.54509 2.66152-1.99225 2.66666-3.61728zm-4-1.92c.36819 0 .66667.28654.66667.64s-.29848.64-.66667.64c-.36818 0-.66666-.28654-.66666-.64s.29848-.64.66666-.64zm2.33334-2.24c0-.53019-.44772-.96-1-.96-.55229 0-1 .42981-1 .96v1.6h.66666v-1.1584c.47948.11938.93162.32339 1.33334.6016z" fill-rule="evenodd"/><path d="m13.9034 11.5366-3.4667-3.32795c.8752-1.73026.2678-3.81538-1.41529-4.85888-.12443-.07833-.28786-.06801-.40052.02529-.11267.0933-.14727.24698-.08482.37663 1.05089 2.17594.25995 4.7626-1.84933 6.048-.12455.07661-.18161.22281-.14014.35911.04147.1364.17155.2301.31947.2303h.004c.58657-.0053 1.1648-.134 1.694-.3769l.43334.3692v.8186c0 .1767.14923.32.33333.32h.85736l.1426.1434v.8166c0 .1767.1493.32.3334.32h.746l.6113.553c.0619.0559.1437.087.2287.087h1.4173c.1841 0 .3333-.1433.3333-.32v-1.3574c0-.0847-.035-.166-.0973-.226z"/></svg>