<svg viewBox="0 0 12 12" xmlns="http://www.w3.org/2000/svg"><path clip-rule="evenodd" d="m0 6c0-3.31371 2.68629-6 6-6 3.31222.00358242 5.9964 2.68778 6 6 0 3.31371-2.68629 6-6 6s-6-2.68629-6-6zm6.0905 2.9055 2.466-2.5725h-.0005c.59081-.59067.59092-1.54844.00025-2.13925s-1.54844-.59092-2.13925-.00025l-.329.329c-.02325.02354-.05492.03685-.088.037-.03303-.00042-.06459-.01369-.088-.037l-.329-.3295c-.38037-.39106-.94181-.54706-1.46941-.4083-.52759.13876-.93963.5508-1.07839 1.07839-.13876.5276.01724 1.08904.4083 1.46941l2.4665 2.573c.02358.0246.05618.03851.09025.03851.03408 0 .06667-.01391.09025-.03851z" fill-rule="evenodd"/></svg>