<svg viewBox="0 0 20 20" xmlns="http://www.w3.org/2000/svg"><path fill-rule="evenodd" clip-rule="evenodd" d="M11.667 12.8c.002-2.208 1.866-3.997 4.166-4 2.3.003 4.164 1.792 4.167 4 0 2.537-3.714 6.131-3.872 6.283a.426.426 0 0 1-.59 0c-.157-.152-3.871-3.746-3.871-6.283Zm2.708 0c0 .773.653 1.4 1.458 1.4.805-.001 1.458-.627 1.459-1.4 0-.773-.653-1.4-1.459-1.4-.805 0-1.458.627-1.458 1.4Z"/><path fill-rule="evenodd" clip-rule="evenodd" d="M12.5 8c-.46 0-.833-.358-.833-.8l.007-4.551a.2.2 0 0 0-.114-.176.216.216 0 0 0-.215.016l-3.667 2.51a.395.395 0 0 0-.174.326V15.57a.2.2 0 0 0 .115.174.217.217 0 0 0 .214-.014l2.243-1.542a.856.856 0 0 1 1.145.198.78.78 0 0 1-.177 1.104l-3.646 2.5a1.292 1.292 0 0 1-1.475-.015L.5 14.069a1.19 1.19 0 0 1-.5-.96V1.199C0 .74.273.322.704.122c.43-.201.942-.148 1.318.136L6.44 3.53a.43.43 0 0 0 .5.01L11.773.223a1.293 1.293 0 0 1 1.454 0l5.416 3.713c.328.226.523.59.524.977V7.2c0 .442-.373.8-.834.8-.46 0-.833-.358-.833-.8V5.326a.395.395 0 0 0-.17-.323l-3.667-2.512a.216.216 0 0 0-.216-.015.2.2 0 0 0-.114.175V7.2c0 .442-.373.8-.833.8Zm-6.782 7.688a.2.2 0 0 0 .115-.18V5.302a.395.395 0 0 0-.166-.32L2 2.261a.216.216 0 0 0-.218-.018.2.2 0 0 0-.115.178V12.71c0 .126.061.244.166.32l3.667 2.64a.216.216 0 0 0 .218.018Z"/></svg>