<svg fill="none" xmlns="http://www.w3.org/2000/svg" viewBox="0 0 21 24"><path fill-rule="evenodd" clip-rule="evenodd" d="M11.285 14.285a.325.325 0 0 1-.369.012 12.876 12.876 0 0 1-3.2-2.813 9.952 9.952 0 0 1-2.153-4.576c-.256-1.56-.012-3.06.781-4.281.32-.496.723-.936 1.19-1.3A5.848 5.848 0 0 1 11.174 0c1.29.02 2.525.517 3.462 1.39.36.325.67.699.924 1.11.846 1.367 1.029 3.125.656 4.906a10.72 10.72 0 0 1-1.757 3.933 10.895 10.895 0 0 1-3.174 2.946Zm-3.767.145v5.433l5.978 2.54v-6.999c.45-.338.877-.705 1.278-1.1v8.044l4.957-2.46V8.952l-1.905.723a12 12 0 0 0 .472-1.525l1.844-.702a.647.647 0 0 1 .483.019.633.633 0 0 1 .375.573v12.246a.638.638 0 0 1-.396.586l-6.186 3.06a.648.648 0 0 1-.58 0L6.9 20.97.928 23.932a.646.646 0 0 1-.859-.277A.633.633 0 0 1 0 23.37V10.4c0-.137.045-.27.128-.379a.64.64 0 0 1 .332-.227L3.708 8.56c.12.402.263.798.428 1.185L1.28 10.828v11.524l4.956-2.46v-6.788a15 15 0 0 0 1.281 1.326Zm3.416-11.655a2.75 2.75 0 0 1 1.511.452c.448.294.796.713 1.002 1.203.206.49.26 1.028.155 1.548a2.67 2.67 0 0 1-.744 1.372 2.758 2.758 0 0 1-2.964.58 2.712 2.712 0 0 1-1.222-.986 2.651 2.651 0 0 1 .339-3.384 2.741 2.741 0 0 1 1.923-.785Z" fill="#fff"/></svg>