<svg fill="none" xmlns="http://www.w3.org/2000/svg" viewBox="0 0 24 21"><path fill-rule="evenodd" clip-rule="evenodd" d="M21 .75c1.657 0 3 1.31 3 2.927v11.707c0 1.13-.668 2.16-1.715 2.644a.487.487 0 0 0-.285.441v1.061c0 .674-.56 1.22-1.25 1.22s-1.25-.546-1.25-1.22V18.8a.494.494 0 0 0-.5-.488H5c-.276 0-.5.218-.5.488v.732c0 .673-.56 1.219-1.25 1.219S2 20.204 2 19.53V18.47c0-.188-.11-.36-.285-.441A2.922 2.922 0 0 1 0 15.384V3.677C0 2.06 1.343.75 3 .75h18Zm-6 15.122c.552 0 1-.437 1-.975V4.165a.988.988 0 0 0-1-.976H3.5c-.552 0-1 .437-1 .976v10.732c0 .538.448.975 1 .975H15Zm4.5-.976c-.828 0-1.5-.655-1.5-1.463 0-.809.672-1.464 1.5-1.464s1.5.655 1.5 1.464c0 .808-.672 1.463-1.5 1.463ZM18 8.555c0 .808.672 1.463 1.5 1.463S21 9.364 21 8.555s-.672-1.463-1.5-1.463-1.5.655-1.5 1.463Z"/></svg>
