<svg viewBox="0 0 20 19.3" xmlns="http://www.w3.org/2000/svg"><path d="m9.2 14.1c0-2.9 2.4-5.2 5.4-5.2s5.4 2.3 5.4 5.2-2.4 5.2-5.4 5.2-5.4-2.3-5.4-5.2zm8.6-1.6c0-.2-.1-.4-.3-.5-.4-.3-.9-.2-1.2.2l-2.4 3s-.1.1-.2.1-.1 0-.2-.1l-1.1-1c-.3-.3-.9-.3-1.2 0s-.3.8 0 1.1l1.3 1.3c.3.3.7.5 1.2.4.4 0 .8-.2 1.1-.6l2.6-3.4c.4-.1.5-.3.4-.5zm-8.9-2.5c-.9-.4-1.9-.7-2.9-.7-2.8 0-5.2 1.8-6 4.3 0 .1 0 .3.1.4s.2.2.3.2h7.1c.2 0 .4-.2.4-.4.1-1.2.5-2.2 1.1-3.2.1-.1.1-.2.1-.3s-.1-.2-.2-.3zm-7-1.4c-.2 0-.4 0-.6-.1-.4-.2-.5-.7-.2-1.1.4-.6.6-1.3.5-2v-1c-.1-1.5.8-3 2.2-3.8 1.4-.8 3.1-.8 4.5 0s2.2 2.2 2.2 3.8v1c0 .7.2 1.4.5 2 .2.4.1.9-.3 1.1s-.9.1-1.1-.2-.3-.5-.4-.8c0-.1-.1-.1-.2-.1s-.1 0-.2.1c-.7.7-1.7 1.1-2.8 1.1s-2.1-.4-2.8-1.1c0 0-.1-.1-.2-.1s-.1.1-.2.1c-.1.3-.2.5-.3.8-.2.1-.4.3-.6.3zm1.8-3.5c.2 1.1 1.2 1.9 2.3 1.9 1.2 0 2.1-.8 2.3-1.9 0-.2-.1-.4-.3-.5-.7-.2-1.3-.6-1.8-1.1 0 0-.1-.1-.2-.1s-.1 0-.2.1c-.5.5-1.1.9-1.8 1.2-.2 0-.3.2-.3.4z"/></svg>