<svg viewBox="0 0 20 20" xmlns="http://www.w3.org/2000/svg"><path clip-rule="evenodd" d="m17.0833.254151c1.6109 0 2.9167 1.305839 2.9167 2.916669v9.16588c0 1.6108-1.3058 2.9166-2.9167 2.9166h-.6183c-.1151 0-.2083-.0933-.2083-.2083v-5.78585c-.002-.48986-.0811-.97635-.2342-1.44166-.021-.06329-.0101-.13279.0292-.18667.0395-.05225.1011-.08307.1666-.08333h.865c.3452 0 .625-.27983.625-.625 0-.34518-.2798-.625-.625-.625h-1.7633c-.0645.00089-.1258-.02764-.1667-.0775-.6233-.76272-1.4675-1.31377-2.4166-1.5775l-.0717-.01917c-.1006-.02774-.1651-.12562-.151-.229s.1025-.18039.2068-.18017h4.3617c.3452 0 .625-.27982.625-.625s-.2798-.625-.625-.625h-10.39833c-.01832.00003-.03655-.0025-.05417-.0075-.2925-.08-2.91666-.805-2.91666-.805-.21511-.05954-.44564.00019-.60476.15671-.15912.15651-.22265.38602-.16666.60208.05598.21606.22298.38583.43808.44538l9.0208 2.4875c1.5346.42718 2.597 1.82379 2.5992 3.41667v5.99421 2.0833c.0236.7413-.2992 1.4513-.8733 1.9208-.4074.3201-.912.4912-1.43.485-.2164-.0006-.4321-.0263-.6425-.0766l-9.2992-2.1842c-1.57781-.4358-2.692121-1.8427-2.75499878-3.4783v-10.83338c-.00064767-.70711.25685878-1.39014.72416778-1.92083.028976-.04917.068198-.09152.115-.12417.547101-.558112 1.295961-.872313 2.077501-.871669zm-5.8333 14.166649c.9205 0 1.6667-.7462 1.6667-1.6666 0-.9205-.7462-1.6667-1.6667-1.6667s-1.66666.7462-1.66666 1.6667c0 .9204.74616 1.6666 1.66666 1.6666z" fill-rule="evenodd"/></svg>