<svg viewBox="0 0 24 24" xmlns="http://www.w3.org/2000/svg"><path fill-rule="evenodd" clip-rule="evenodd" d="M21 0a3 3 0 0 1 3 3v18a3 3 0 0 1-3 3H3a3 3 0 0 1-3-3V3a3 3 0 0 1 3-3h18Zm0 22a1 1 0 0 0 1-1V3a1 1 0 0 0-1-1H3a1 1 0 0 0-1 1v18a1 1 0 0 0 1 1h18Z"/><path d="M14 12.5a3 3 0 1 0 0-6 3 3 0 0 0 0 6ZM14 5.25a.75.75 0 0 0 .75-.75V4a.75.75 0 0 0-1.5 0v.5c0 .414.336.75.75.75ZM9.934 6.494A.751.751 0 0 0 11 5.434l-.353-.354A.752.752 0 1 0 9.58 6.14l.354.354ZM8.5 10.25H9a.75.75 0 0 0 0-1.5h-.5a.75.75 0 0 0 0 1.5ZM18.064 12.506a.75.75 0 0 0-1.06 1.06l.353.354a.75.75 0 1 0 1.061-1.061l-.354-.353ZM18.25 9.5c0 .414.336.75.75.75h.5a.75.75 0 0 0 0-1.5H19a.75.75 0 0 0-.75.75ZM17.534 6.715c.2 0 .39-.08.53-.22l.354-.354a.75.75 0 1 0-1.06-1.06l-.354.353a.751.751 0 0 0 .53 1.281ZM15.8 16.086c-.492 0-.982.078-1.449.234a.25.25 0 0 0-.12.388 7.827 7.827 0 0 1 1.518 3.654.16.16 0 0 0 .159.138h3.154c.505 0 .977-.248 1.264-.663a4.607 4.607 0 0 0-4.526-3.751ZM7.914 14.55a6.875 6.875 0 0 0-4.32 1.519.25.25 0 0 0-.094.2v2.7a1.535 1.535 0 0 0 1.535 1.53h9.427a.249.249 0 0 0 .246-.295 6.909 6.909 0 0 0-6.794-5.653Z"/></svg>