<svg viewBox="0 0 24 18" xmlns="http://www.w3.org/2000/svg"><path d="M7.196 1.788c.047 1.032-.77 1.907-1.824 1.953-1.054.046-1.948-.753-1.995-1.786C3.33.923 4.147.048 5.201.002c1.054-.046 1.948.753 1.995 1.786M20.528 1.788c.047 1.032-.77 1.907-1.824 1.953-1.054.046-1.948-.753-1.995-1.786-.047-1.032.77-1.907 1.824-1.953 1.054-.046 1.948.753 1.995 1.786"/><path d="M23.17.567c-.428-.05-.83.246-.881.665-.025.123-.403 2.955-2.49 2.955h-2.44c-.805 0-1.383.492-1.786.861-.126.099-.276.247-.377.296-.377-.025-.73-.123-.98-.173l.125-.443a.663.663 0 0 0-.05-.492l-.076-.148c-.05-.098-.075-.197-.025-.295l.15-.542c.026 0 .051-.025.051-.05l.076-.246c0-.024 0-.049-.025-.073.025-.05-.025-.099-.076-.124l-.427-.123c-.05-.024-.1.025-.126.074-.025 0-.05.025-.05.05l-.076.246c0 .024 0 .049.025.074l-.15.541a.394.394 0 0 1-.177.222l-.15.074a.613.613 0 0 0-.303.394l-.653 2.388c-.05.173.05.345.226.37l.83.221c.176.05.352-.05.402-.222l.126-.467c.302.073.805.197 1.333.221h.1c.58 0 1.032-.394 1.384-.69.076-.073.176-.147.252-.22v2.806l-1.409 2.881a.71.71 0 0 0 .05.739.83.83 0 0 0 .68.37h.1c-.1.565-.15 1.132-.1 1.723l.201 2.659a.9.9 0 0 0 .905.837h.076a.913.913 0 0 0 .855-.96l-.201-2.66a5.48 5.48 0 0 1 .075-1.28l.076-.32h.729l.578 4.407c.05.444.453.788.906.788h.126c.503-.073.855-.517.78-1.01l-.554-4.185h.327a.83.83 0 0 0 .68-.37.775.775 0 0 0 .05-.738l-1.409-2.88V5.712c2.415-.32 3.37-2.88 3.546-4.284-.075-.443-.377-.813-.83-.862ZM10.946 4.359a.567.567 0 0 0-.301-.37l-.151-.073a.315.315 0 0 1-.176-.222l-.151-.566c.025 0 .05-.05.025-.074l-.076-.246c0-.025-.025-.05-.075-.05a.138.138 0 0 0-.126-.074l-.427.123a.135.135 0 0 0-.076.124v.098l.076.247c0 .024.025.049.05.049l.15.542a.405.405 0 0 1-.024.295l-.076.098a.664.664 0 0 0-.05.493l.126.418a4.964 4.964 0 0 1-1.006.173c-.1-.05-.252-.197-.378-.296-.402-.369-.98-.861-1.785-.861h-2.44c-2.088 0-2.49-2.832-2.49-2.955a.802.802 0 0 0-.88-.665.778.778 0 0 0-.68.862c.152 1.403 1.107 3.989 3.572 4.284v4.457l-.503 6.87c-.025.492.352.91.855.96h.076a.9.9 0 0 0 .905-.837l.478-6.353.755 2.29c.1.296.15.616.176.936l.251 3.152c.05.468.428.812.906.812h.075c.503-.05.88-.468.83-.96l-.251-3.152a4.82 4.82 0 0 0-.277-1.33l-.805-2.486V6.033c.075.05.15.124.201.173.352.32.805.69 1.384.69h.1c.528-.05 1.056-.148 1.358-.247l.126.468c.05.172.226.27.402.221l.83-.221a.315.315 0 0 0 .227-.394l-.73-2.364ZM11.927 8.15a.25.25 0 0 0-.251.247v.714c0 .123.1.246.251.246s.252-.098.252-.246v-.714a.25.25 0 0 0-.252-.247Z"/><path d="M12.931 7.88a.247.247 0 0 0-.352 0c-.1.099-.1.247 0 .345l.503.493c.05.049.1.073.176.073a.23.23 0 0 0 .177-.073c.1-.099.1-.247 0-.345l-.504-.493ZM10.922 7.88l-.503.493c-.1.098-.1.246 0 .345.05.049.1.074.176.074a.23.23 0 0 0 .176-.074l.503-.493c.101-.098.101-.246 0-.344-.1-.099-.276-.099-.352 0Z"/></svg>