<svg enable-background="new 0 0 23.8 23.8" viewBox="0 0 23.8 23.8" xmlns="http://www.w3.org/2000/svg"><path d="m1 14.5c-.6 0-1 .4-1 1v7.2c0 .6.4 1 1 1s1-.4 1-1v-7.2c0-.3-.1-.5-.3-.7s-.4-.3-.7-.3zm14.5 4.8h-9.1c-.3 0-.6-.3-.6-.6s.2-.7.6-.7h2.5c.3 0 .6-.2.8-.4.2-.3.2-.6.1-.9-.4-.8-1.2-1.4-2.1-1.4h-4.2c-.3 0-.5.2-.5.5v6.5c0 .3.2.5.5.5h10.8c1.2 0 2.2-1 2.2-2.2v-.3c0-.6-.4-1-1-1zm-7.3-11.5c0-4.3 3.5-7.8 7.8-7.8s7.8 3.5 7.8 7.8-3.5 7.8-7.8 7.8c-4.3-.1-7.8-3.5-7.8-7.8zm2 0c0 3.2 2.6 5.8 5.8 5.8s5.8-2.6 5.8-5.8-2.6-5.8-5.8-5.8-5.8 2.6-5.8 5.8zm8.3-.8h-1.7v-2.3c0-.4-.3-.8-.8-.8s-.8.3-.8.8v3.1c0 .4.3.8.8.8h2.5c.4 0 .8-.3.8-.8-.1-.4-.4-.8-.8-.8z"/></svg>