<svg viewBox="0 0 24 18" xmlns="http://www.w3.org/2000/svg"><path d="M23.998 11.997v-1.328a1.127 1.127 0 0 0-.024-.144.595.595 0 0 0-.58-.463h-4.23V8.465h1.585c.416 0 .832.003 1.248 0a.76.76 0 0 0 .386-.09c.27-.148.378-.434.378-.732V2.1a.363.363 0 0 0-.008-.077V2.02c-.055-.38-.34-.65-.725-.66h-2.864V.567c0-.298-.253-.582-.55-.567a.57.57 0 0 0-.552.567v.791H5.946V.568c0-.298-.253-.582-.55-.567a.57.57 0 0 0-.552.567v.791H2.171c-.182 0-.345-.005-.518.077-.469.224-.408.737-.408 1.171v4.92c0 .079-.003.161.003.24a.747.747 0 0 0 .733.707c.113.003.226 0 .341 0h2.522v1.597H.603c-.345.014-.585.275-.596.627-.016.505 0 1.015 0 1.52 0 .16-.008.324.003.482a.603.603 0 0 0 .604.568c.102.003.206 0 .308 0h.698a1410.3 1410.3 0 0 0-.45 3.594c-.024.19-.046.38-.071.57-.036.295.28.579.551.568.33-.015.513-.25.551-.568l.505-4.02c.005-.048.01-.096.019-.144h18.561c.152 1.197.3 2.394.45 3.594.024.19.046.38.071.57.036.292.226.582.551.568.268-.012.59-.253.552-.568l-.505-4.02c-.005-.048-.01-.096-.019-.144h.758c.085 0 .174.003.259 0 .35-.011.584-.281.592-.633.009-.215.003-.428.003-.638Zm-5.936-1.932H5.946V8.468h12.118v1.597h-.002Z"/></svg>