<svg version="1.1" id="Capa_1" xmlns="http://www.w3.org/2000/svg" x="0" y="0" viewBox="0 0 380.7 340" style="enable-background:new 0 0 380.7 340" xml:space="preserve"><path class="st0" d="M361.2 66.5H16.8c-8.8 0-16 7.2-16 16v241.6c0 8.8 7.2 16 16 16h344.4c8.8 0 15.9-7.2 15.9-16V82.5c0-8.8-7.1-16-15.9-16zm-2.7 178.4c0 7.9-6.4 14.3-14.3 14.3H34.6c-7.9 0-14.3-6.4-14.3-14.3V103.6c0-7.9 6.4-14.3 14.3-14.3h309.5c7.9 0 14.3 6.4 14.3 14.3l.1 141.3zM365 0H15.7C7.1 0 0 7 0 15.7v26.9c0 8.7 7.1 15.7 15.7 15.7H365c8.7 0 15.7-7.1 15.7-15.7V15.7C380.7 7 373.7 0 365 0z"/><path class="st0" d="M330.5 106.2H50.7c-5.6 0-10.1 4.5-10.1 10.1s4.5 10.1 10.1 10.1h279.8c5.6 0 10.1-4.5 10.1-10.1 0-5.5-4.5-10.1-10.1-10.1z"/></svg>