<svg viewBox="0 0 16 16" xmlns="http://www.w3.org/2000/svg">
<path fill-rule="evenodd" clip-rule="evenodd" d="M8 0C3.58172 0 0 3.58172 0 8C0 12.4183 3.58172 16 8 16C12.4183 16 16 12.4183 16 8C15.9952 3.5837 12.4163 0.00477657 8 0ZM4.024 11.3853L4.768 9.524C4.78518 9.48223 4.81031 9.44419 4.842 9.412L8.77 5.484C8.90217 5.35879 9.10917 5.35879 9.24133 5.484L10.3587 6.6C10.4208 6.66284 10.4558 6.74761 10.456 6.836C10.456 6.92423 10.421 7.00886 10.3587 7.07133L6.43 11C6.39828 11.0323 6.36012 11.0575 6.318 11.074L4.45733 11.8187C4.33311 11.8655 4.193 11.8367 4.09733 11.7447C4.00327 11.6503 3.97444 11.509 4.024 11.3853ZM11.288 6.14333L11.8467 5.58533L11.846 5.584C12.1669 5.26283 12.2629 4.78005 12.0894 4.36051C11.9158 3.94098 11.5067 3.66719 11.0527 3.66667C10.7548 3.66607 10.469 3.78437 10.2587 3.99533L9.7 4.554C9.56987 4.68417 9.56987 4.89517 9.7 5.02533L10.8167 6.14333C10.9468 6.27346 11.1578 6.27346 11.288 6.14333Z"/>
</svg>
