<svg viewBox="0 0 10 10" fill="none" xmlns="http://www.w3.org/2000/svg">
  <path d="M6.27792 1.66103C6.23891 1.62168 6.18583 1.59949 6.13042 1.59937C6.07507 1.59938 6.022 1.62141 5.98292 1.66062L1.43209 6.2127C1.35076 6.29405 1.35076 6.42593 1.43209 6.50728L3.49376 8.56895C3.57511 8.65028 3.70699 8.65028 3.78834 8.56895L8.33709 4.0202C8.41814 3.93889 8.41814 3.80734 8.33709 3.72603L6.27792 1.66103Z" fill="none" />
  <path d="M1.01251 6.99999C0.959151 6.94681 0.881244 6.92658 0.808756 6.94707C0.73615 6.96743 0.680215 7.02544 0.662506 7.09874L0.0350055 9.71416C0.0181661 9.78463 0.039152 9.85879 0.0904222 9.90999C0.141995 9.96061 0.215867 9.98136 0.286256 9.96499L2.89959 9.33999C2.97297 9.32243 3.03112 9.26657 3.05161 9.19395C3.07209 9.12133 3.05172 9.04331 2.99834 8.98999L1.01251 6.99999Z" fill="none" />
  <path d="M9.66677 1.21841L8.78219 0.333414C8.37556 -0.0724011 7.71715 -0.0724011 7.31052 0.333414L6.71969 0.923831C6.63836 1.00519 6.63836 1.13706 6.71969 1.21841L8.78219 3.2805C8.86354 3.36183 8.99542 3.36183 9.07677 3.2805L9.66677 2.68925C10.072 2.28272 10.072 1.62495 9.66677 1.21841Z" fill="none" />
</svg>