<svg viewBox="0 0 35 48" xmlns="http://www.w3.org/2000/svg"><path d="M22.078 18.854c-.892 1.812-1.712 3.346-2.575 5.103 1.269 1.79 3.52 3.857 4.898 5.585 1.63 2.042 2.45 4.442 2.906 7.15.311 3.352.532 6.042.76 9.116.082 1.104-1.098 2.057-2.113 2.18-.953.116-2.686-.603-2.878-1.665-.656-3.629-1.264-7.267-1.985-10.883-.152-.759-.577-1.558-1.1-2.128-1.99-2.17-4.006-4.325-6.14-6.345-1.528-1.445-1.826-3.072-1.304-4.98.175-.644.359-1.304.661-1.892 1.35-2.623 2.708-5.244 4.143-7.82.45-.81.763-1.251 1.408-1.926.644-.673 1.576-.897 2.479-.495.684.304 1.104.626 1.64.965.77.486 1.493 1.122 1.786 2.018.652 1.993 1.091 3.008 2.113 4.95.278.746 1.736 1.854 2.492 2.163 1.506.618 2.213.73 3.7 1.392 1.214.541 1.378 1.707 1.018 2.82-.36 1.112-1.799 1.265-2.547 1.114-2.175-.438-2.929-.707-4.663-1.32-.598-.21-2.307-1.526-2.658-1.97-.844-1.067-1.212-1.927-2.04-3.132ZM8.379 26.274l-.843-.076.63-3.283-1.04-.35-2.09 3.746a152 152 0 0 0-.846-.427l2.161-3.492c-.344-.164-.501-.245-.664-.314-2.298-.968-2.874-1.58-2.474-4.639.3-2.284 1.445-4.24 2.708-6.116.237-.353.527-.673.736-1.04C8.014 7.9 10.209 6.941 12.752 6.57c.224-.032.487-.02.689.072 1.206.541 2.399 1.113 3.68 1.716-4.696 5.086-7.409 11.096-8.742 17.917Z" fill="#2f7ddd"/><path d="M12.862 28.768c1.396 1.392 2.733 2.698 4.029 4.047.156.161.196.577.113.811-.506 1.884-.79 3.517-1.513 5.285-.22.54-1.046 2.002-1.607 2.575-2.518 2.576-4.132 3.645-6.642 5.831-.883.769-2.669.447-3.368-.343-.695-.786-1.167-2.666-.336-3.491 1.867-1.859 3.437-3.13 5.327-4.964.77-.745 1.278-1.468 1.747-2.46 1.099-2.328 1.521-4.242 2.013-6.407.06-.259.136-.511.237-.884ZM21.13 4.69c.034-2.634 2.187-4.74 4.79-4.69 2.664.055 4.736 2.24 4.677 4.937-.06 2.661-2.154 4.69-4.808 4.656-2.704-.035-4.692-2.129-4.658-4.904Z" fill="#2f7ddd"/><path d="M19.138 18.854c-.892 1.812-1.712 3.346-2.576 5.103 1.27 1.79 3.52 3.857 4.9 5.585 1.629 2.042 2.448 4.442 2.904 7.15.312 3.352.533 6.042.76 9.116.083 1.104-1.097 2.057-2.113 2.18-.952.116-2.685-.603-2.877-1.665-.656-3.629-1.264-7.267-1.985-10.883-.152-.759-.577-1.558-1.101-2.128-1.99-2.17-4.005-4.325-6.14-6.345-1.528-1.445-1.825-3.072-1.303-4.98.175-.644.358-1.304.66-1.892 1.35-2.623 2.71-5.244 4.144-7.82.45-.81.763-1.251 1.407-1.926.645-.673 1.577-.897 2.48-.495.684.304 1.104.626 1.64.965.77.486 1.493 1.122 1.786 2.018.652 1.993 1.09 3.008 2.112 4.95.279.746 1.736 1.854 2.493 2.163 1.506.618 2.213.73 3.7 1.392 1.214.541 1.378 1.707 1.018 2.82-.36 1.112-1.8 1.265-2.547 1.114-2.175-.438-2.93-.707-4.664-1.32-.597-.21-2.307-1.526-2.657-1.97-.844-1.067-1.213-1.927-2.041-3.132ZM5.438 26.274l-.842-.076.63-3.283-1.041-.35-2.089 3.746c-.368-.187-.652-.33-.846-.427.718-1.16 1.424-2.3 2.16-3.492-.343-.164-.5-.245-.663-.314C.448 21.11-.128 20.498.273 17.44c.299-2.284 1.444-4.24 2.707-6.116.238-.353.527-.673.736-1.04C5.073 7.9 7.27 6.941 9.812 6.57c.223-.032.487-.02.689.072 1.205.541 2.398 1.113 3.68 1.716-4.697 5.086-7.41 11.096-8.743 17.917Z"/><path d="M9.921 28.768c1.396 1.392 2.734 2.698 4.03 4.047.156.161.195.577.113.811-.506 1.884-.79 3.517-1.514 5.285-.22.54-1.046 2.002-1.606 2.575-2.518 2.576-4.133 3.645-6.642 5.831-.884.769-2.67.447-3.369-.343-.694-.786-1.167-2.666-.336-3.491 1.868-1.859 3.438-3.13 5.328-4.964.77-.745 1.278-1.468 1.747-2.46 1.099-2.328 1.52-4.242 2.013-6.407.06-.259.136-.511.236-.884ZM18.19 4.69C18.224 2.055 20.377-.05 22.98 0c2.664.055 4.737 2.24 4.678 4.937-.06 2.661-2.154 4.69-4.808 4.656-2.705-.035-4.692-2.129-4.659-4.904Z"/></svg>

