<svg xmlns="http://www.w3.org/2000/svg" viewBox="0 0 24 24"><path d="M21.794 19.071a3 3 0 0 0-2.294-1.065 1 1 0 1 0 0 2 1.007 1.007 0 0 1 .983 1.171 1.07 1.07 0 0 1-1.093.83H15.5a.5.5 0 0 1-.5-.5v-9.935a.494.494 0 0 0-.653-.472 6.97 6.97 0 0 1-2.347.4 6.9 6.9 0 0 1-3.477-.927.505.505 0 0 0-.715.2l-1.636 3.27c-2.764.42-4.672 2.831-4.672 5.963 0 1.326.5 3.991 2.84 3.991h15.05a3.075 3.075 0 0 0 3.066-2.5 2.988 2.988 0 0 0-.662-2.426Z"/><path fill-rule="evenodd" clip-rule="evenodd" d="M12 10a4.734 4.734 0 0 0 4.988-4.43V.552A.563.563 0 0 0 16.112.1L14.08 1.552a5.415 5.415 0 0 0-4.158 0L7.89.1a.561.561 0 0 0-.876.45v5.02A4.734 4.734 0 0 0 12 10Zm2-5.5a1 1 0 1 1 0 2 1 1 0 0 1 0-2Zm-3 1a1 1 0 1 0-2 0 1 1 0 0 0 2 0Z"/></svg>