<svg viewBox="0 0 12 16" xmlns="http://www.w3.org/2000/svg"><path clip-rule="evenodd" d="m2.66699 0h6.66667c1.10454 0 2.00004.895431 2.00004 2v12c0 1.1046-.8955 2-2.00004 2h-6.66667c-1.10457 0-1.999998-.8954-1.999998-2v-12c0-1.104569.895428-2 1.999998-2zm7 13c.1841 0 .33331-.1492.33331-.3333v-10.33337c0-.18409-.14921-.33333-.33331-.33333h-7.33333c-.1841 0-.33333.14924-.33333.33333v10.33337c0 .1841.14923.3333.33333.3333z" fill-rule="evenodd"/><path d="m6.31228 4.54932c-.05829-.11916-.17935-.19471-.312-.19471-.13264 0-.25371.07555-.312.19471l-2 5.33333c-.05315.14165-.00431.30125.11898.38885s.29012.0813.40636-.0155l1.78666-1.48935 1.78667 1.48935c.11658.0954.28227.1019.406.016.12364-.0876.17266-.2475.11933-.38935z"/></svg>