<svg viewBox="0 0 16 16" xmlns="http://www.w3.org/2000/svg"><path d="m11.4459 10.7754c-.3126-.3127-.7366-.4884-1.1787-.4884-.44207 0-.86606.1757-1.17863.4884l-.25734.2566c-1.39648-1.17147-2.68784-2.46283-3.85933-3.85931l.25733-.25734c.65064-.65083.65064-1.70583 0-2.35666l-1.41533-1.414c-.65893-.63079-1.69774-.63079-2.35667 0l-.775997.776c-.7797669.78502-.90246 2.00917-.294 2.93333 2.306977 3.47578 5.285567 6.45528 8.760667 8.76338.9271.5972 2.1439.4747 2.9333-.2954l.776-.776c.6507-.6508.6507-1.7058 0-2.3566z"/><path clip-rule="evenodd" d="m11.54 3.796c.0026-2.09361 1.6998-3.78986164 3.7934-3.79133081.1768 0 .3464.07023791.4714.19526181.125.125025.1952.294594.1952.471405v5.000004c0 .36819-.2984.66666-.6666.66666s-.6667-.29847-.6667-.66666v-.58334h-2.46c-.3682 0-.6667-.29847-.6667-.66666zm1.334-.04133h1.7927v-2.32533c-1.044.29634-1.7717 1.24025-1.7927 2.32533z" fill-rule="evenodd"/><path d="m7.51912 2.90001c.36819 0 .66667-.29848.66667-.66667-.00033-.46019.34802-.84581.80588-.89209.45786-.04629.87634.26181.96812.71276.09071.44933-.02134.59467-.63467 1.13333l-2.24733 1.984c-.208.18344-.28071.47649-.18259.73588.09813.25939.34659.43095.62392.43079h3.43738c.3681 0 .6666-.29848.6666-.66667s-.2985-.66666-.6666-.66666h-1.67405l.92335-.81534c.616-.54133 1.3133-1.156 1.0607-2.4-.2281-1.122126-1.26921-1.8889903-2.4085-1.7740463-1.13928.1149443-2.00622 1.0743063-2.00554 2.2193863.00073.36767.29899.66533.66666.66533z"/></svg>