<svg viewBox="0 0 16 16" xmlns="http://www.w3.org/2000/svg"><path d="m7.5109 1.31691c0 .72731-.58385 1.31691-1.30407 1.31691s-1.30407-.5896-1.30407-1.31691c0-.727309.58385-1.31691 1.30407-1.31691s1.30407.589601 1.30407 1.31691z"/><path d="m12.342 10.1926h.2806c.2085 0 .3775.1706.3774.3812v4.3731c0 .2105-.169.3812-.3775.3812h-.2805v.4118c0 .1436-.1153.26-.2575.26s-.2575-.1164-.2575-.26v-.4118h-1.1102v.4118c0 .1436-.1154.26-.2575.26-.1422 0-.2575-.1164-.2575-.26v-.4118h-.28059c-.20848 0-.37751-.1706-.37751-.3812v-4.3732c0-.2105.169-.3812.37751-.3812h.28059v-1.68764h-.23034c-.06873 0-.12446-.05628-.12446-.12569v-.31641l-1.42287-.91569c-.1802-.11594-.28978-.31628-.29104-.532l-.01232-2.05841c-.00232-.07256-.06192-.12988-.13381-.12869-.07189.00122-.12954.06041-.12954.133.00015 2.716.00282 3.18473.00576 3.70188.00375.65946.00795 1.39766.00795 6.97465 0 .4211-.33805.7625-.75507.7625s-.75507-.3414-.75507-.7625v-6.0947h-.32598v6.0947c0 .4211-.33804.7625-.75506.7625-.41703 0-.75507-.3414-.75507-.7625l-.00028-10.68087c0-.06763-.05416-.1225-.12115-.12269-.06697-.00016-.12146.05444-.1218.12212l-.02324 4.66814c-.00174.34978-.28316.63219-.62916.63219h-.00321c-.34749-.00175-.6278-.28766-.62603-.63859l.02324-4.66814c.00411-.82497.67207-1.49613 1.48903-1.49613h3.37798c.81696 0 1.48491.67116 1.48903 1.49613l.01024 1.71175 1.29137.8311c.2502.161.349.47075.2565.74209h1.6349c.0688 0 .1245.05629.1245.12569v.41894c0 .06941-.0557.12569-.1245.12569h-.2303zm-1.6251 0h1.1101v-1.68768h-1.1101z"/></svg>