<svg viewBox="0 0 20 20" xmlns="http://www.w3.org/2000/svg"><path d="M18.955 0h-5a.625.625 0 0 0-.625.625v7.202a.625.625 0 0 0 1.25 0V5h4.375c.345 0 .625-.28.625-.625V.625A.625.625 0 0 0 18.955 0ZM17.5 13.75h-6.25a1.251 1.251 0 0 1 0-2.5h1.365a1.87 1.87 0 0 0 3.635-.625A1.87 1.87 0 0 0 12.615 10H11.25a2.503 2.503 0 0 0-2.5 2.5c0 1.379 1.121 2.5 2.5 2.5h6.25a1.25 1.25 0 0 1 0 2.5H6.135a1.87 1.87 0 0 0-3.635.625 1.87 1.87 0 0 0 3.635.625H17.5c1.379 0 2.5-1.121 2.5-2.5s-1.121-2.5-2.5-2.5Z"/><path d="M4.375 3.23A4.38 4.38 0 0 0 0 7.607c0 3.244 3.51 7.173 3.91 7.62a.628.628 0 0 0 .93 0c.4-.447 3.91-4.376 3.91-7.62A4.38 4.38 0 0 0 4.375 3.23Zm0 6.25a1.876 1.876 0 1 1 .001-3.75 1.876 1.876 0 0 1-.001 3.75Z"/></svg>