<svg viewBox="0 0 50 50" xmlns="http://www.w3.org/2000/svg"><g clip-path="url(#a)"><path d="M47.396 0h-12.5c-.863 0-1.563.7-1.563 1.563v18.006a1.563 1.563 0 0 0 3.125 0V12.5h10.938c.862 0 1.562-.7 1.562-1.563V1.563C48.958.7 48.258 0 47.396 0ZM43.75 34.375H28.125A3.128 3.128 0 0 1 25 31.25a3.128 3.128 0 0 1 3.125-3.125h3.413c.646 1.816 2.362 3.125 4.4 3.125a4.69 4.69 0 0 0 4.687-4.688 4.69 4.69 0 0 0-4.688-4.687c-2.037 0-3.756 1.31-4.4 3.125h-3.412a6.256 6.256 0 0 0-6.25 6.25 6.256 6.256 0 0 0 6.25 6.25H43.75a3.126 3.126 0 0 1 0 6.25H15.337c-.646-1.816-2.362-3.125-4.4-3.125a4.69 4.69 0 0 0-4.687 4.688A4.69 4.69 0 0 0 10.938 50c2.037 0 3.756-1.31 4.4-3.125H43.75a6.256 6.256 0 0 0 6.25-6.25 6.256 6.256 0 0 0-6.25-6.25Z"/><circle cx="11.607" cy="18.75" fill="#2f7ddd" r="8.036"/><path d="M10.938 8.075C4.905 8.075 0 12.98 0 19.012c0 8.11 8.775 17.934 9.775 19.05a1.57 1.57 0 0 0 1.162.519c.444 0 .866-.191 1.163-.52 1-1.115 9.775-10.939 9.775-19.049 0-6.031-4.906-10.937-10.938-10.937Zm0 15.625a4.69 4.69 0 0 1-4.688-4.688 4.69 4.69 0 0 1 4.688-4.687 4.69 4.69 0 0 1 4.687 4.687 4.69 4.69 0 0 1-4.688 4.688Z"/></g><defs><clipPath id="a"><path fill="#2f7ddd" d="M0 0h50v50H0z"/></clipPath></defs></svg>

