<svg viewBox="0 0 20 20" xmlns="http://www.w3.org/2000/svg"><path d="M13.9383 15.4279c-.4586-.0371-.8617.2897-.9004.73-.0386.4403.3018.8273.7604.8644 1.0572.0748 2.1082.2145 3.1467.4184.0952.0204.163.1015.163.1952s-.0678.1748-.163.1952c-2.2879.4221-4.6157.6127-6.945.5688-2.32907.0438-4.6565-.1468-6.94417-.5688-.09523-.0204-.16296-.1015-.16296-.1952s.06773-.1748.16296-.1952c1.02749-.2022 2.06739-.3411 3.11334-.416.44843-.0487.77498-.4313.7366-.8629-.03837-.4317-.42772-.7556-.87827-.7307C0 15.9199 0 17.1199 0 17.6351c0 2.1344 6.93083 2.3648 10 2.3648 3.0692 0 10-.2304 10-2.3648 0-.5152 0-1.7152-6.0617-2.2072z"/><path fill-rule="evenodd" clip-rule="evenodd" d="M10.7018 17.7111c-.1531.2297-.4176.3688-.7017.3688-.28464.0013-.54998-.138-.70248-.3688-1.6325-2.4496-5.4275-8.42876-5.4275-11.02876 0-3.24964 2.74412-5.884 6.12916-5.884 3.38502 0 6.12922 2.63436 6.12922 5.884 0 2.6-3.795 8.57836-5.4267 11.02876zm-.7017-14.11116c-1.61081 0-2.91665 1.2536-2.91665 2.8 0 1.5464 1.30584 2.8 2.91665 2.8 1.6108 0 2.9167-1.2536 2.9167-2.8 0-1.5464-1.3059-2.8-2.9167-2.8z"/></svg>
