<svg viewBox="0 0 12 17" xmlns="http://www.w3.org/2000/svg">
    <path fill-rule="evenodd" clip-rule="evenodd" d="M0.666687 5.86458C0.669994 2.92044 3.05587 0.534557 6.00002 0.53125C8.94417 0.534557 11.33 2.92044 11.3334 5.86458C11.3334 8.20725 8.00002 13.8819 6.56802 16.2133C6.44767 16.4116 6.23206 16.5324 6.00002 16.5312C5.76842 16.5313 5.55338 16.4112 5.43202 16.2139C4.00002 13.8813 0.666687 8.20458 0.666687 5.86458ZM3.66669 5.86458C3.66669 7.15325 4.71136 8.19792 6.00002 8.19792C7.28868 8.19792 8.33335 7.15325 8.33335 5.86458C8.33335 4.57592 7.28868 3.53125 6.00002 3.53125C4.71136 3.53125 3.66669 4.57592 3.66669 5.86458Z" />
</svg>