<svg viewBox="0 0 12 12" xmlns="http://www.w3.org/2000/svg">
<path d="M10.6725 4.625H3.37952C3.31306 4.62446 3.24955 4.59747 3.20302 4.55L2.42252 3.7715C2.32878 3.67773 2.20162 3.62503 2.06902 3.625H0.577024C0.403372 3.62483 0.242067 3.71478 0.150931 3.86259C0.0597952 4.01041 0.0518806 4.19492 0.130024 4.35L1.38002 6.85C1.46411 7.01986 1.63749 7.12711 1.82702 7.1265H4.76702C4.81765 7.12641 4.86333 7.15687 4.88272 7.20363C4.90211 7.2504 4.89137 7.30425 4.85553 7.34L2.92302 9.271C2.77978 9.41389 2.73676 9.62902 2.81405 9.816C2.89134 10.003 3.0737 10.125 3.27602 10.125H5.06903C5.20162 10.125 5.32878 10.0723 5.42252 9.9785L8.20303 7.2C8.24988 7.15327 8.31335 7.12701 8.37953 7.127H10.6725C11.3629 7.127 11.9225 6.56736 11.9225 5.877C11.9225 5.18664 11.3629 4.627 10.6725 4.627V4.625Z"/>
<path d="M5.24603 4.05005C5.29288 4.09678 5.35635 4.12303 5.42253 4.12305H7.72253C7.77307 4.12294 7.81856 4.0924 7.83782 4.04568C7.85708 3.99896 7.84631 3.94524 7.81053 3.90955L5.92053 2.01955C5.82678 1.92577 5.69963 1.87308 5.56703 1.87305H4.27603C4.07383 1.87309 3.89156 1.99491 3.81419 2.18172C3.73682 2.36853 3.77958 2.58355 3.92253 2.72655L5.24603 4.05005Z" />
</svg>
