<svg viewBox="0 0 24 24" fill="none" xmlns="http://www.w3.org/2000/svg"><path d="M9.817 3.266c0 1.804-1.45 3.266-3.238 3.266-1.789 0-3.239-1.462-3.239-3.266S4.79 0 6.58 0c1.788 0 3.238 1.462 3.238 3.266ZM20.66 3.266c0 1.804-1.45 3.266-3.238 3.266-1.79 0-3.239-1.462-3.239-3.266S15.633 0 17.422 0c1.788 0 3.238 1.462 3.238 3.266Z" fill="#000"/><path d="M20.66 9.328v6.524c0 .37-.154.704-.397.944l.867 5.89a1.147 1.147 0 0 1-.957 1.302 1.14 1.14 0 0 1-1.29-.965l-.86-5.848s-.122-.485-.601-.485c-.48 0-.6.485-.6.485l-.861 5.848a1.14 1.14 0 0 1-1.29.965 1.148 1.148 0 0 1-.957-1.302l.867-5.89a1.323 1.323 0 0 1-.398-.944V9.328L12 7.126 9.177 9.973l1.803 6.205a1.055 1.055 0 0 1-1.006 1.354H9.54l.746 5.065a1.147 1.147 0 0 1-.957 1.301 1.14 1.14 0 0 1-1.29-.964l-.795-5.402H5.912l-.795 5.402a1.14 1.14 0 0 1-1.29.964 1.148 1.148 0 0 1-.956-1.3l.745-5.066h-.434a1.055 1.055 0 0 1-1.005-1.354l1.802-6.205-3.648-3.68a1.155 1.155 0 0 1 0-1.62 1.132 1.132 0 0 1 1.606 0l2.996 3.022h3.29l2.793-2.816c.166-.18.496-.541.984-.541.487 0 .818.36.983.54l3.051 3.078h2.775l3.254-3.282a1.132 1.132 0 0 1 1.606 0 1.155 1.155 0 0 1 0 1.62l-3.01 3.034Z" /></svg>