<svg viewBox="0 0 16 16" xmlns="http://www.w3.org/2000/svg"><g fill="#33ab63"><path d="m5.49984 6.83332c.73638 0 1.33333-.59695 1.33333-1.33333s-.59695-1.33333-1.33333-1.33333-1.33334.59695-1.33334 1.33333.59696 1.33333 1.33334 1.33333z"/><path d="m10.4998 11.8333c.7364 0 1.3334-.597 1.3334-1.3333 0-.73642-.597-1.33337-1.3334-1.33337-.73634 0-1.3333.59695-1.3333 1.33337 0 .7363.59696 1.3333 1.3333 1.3333z"/><path d="m11.4714 4.52866c-.2603-.26026-.6823-.26026-.9427 0l-5.99996 6.00004c-.17331.1673-.24281.4152-.1818.6483s.24304.4151.47613.4761c.23308.061.48095-.0085.64833-.1818l6-5.99998c.2603-.26033.2603-.68233 0-.94266z"/></g><circle cx="8" cy="8" fill="none" r="7.5" stroke="#33ab63"/></svg>