<svg xmlns="http://www.w3.org/2000/svg" viewBox="0 0 20 20"><path d="M6.85 16.23c.11 0 .2-.1.2-.2v-1.96a.2.2 0 0 0-.22-.2l-1 .02a15.5 15.5 0 0 1-5.16-.76.2.2 0 0 0-.29.2v1.8c0 .62 2.44 1.12 5.45 1.12.35 0 .7 0 1.02-.02ZM5.83 6.39a12.5 12.5 0 0 0 5.34-.91.2.2 0 0 0 .11-.18V3.33a.2.2 0 0 0-.28-.2c-1.67.55-3.42.8-5.17.76a15.5 15.5 0 0 1-5.17-.75.2.2 0 0 0-.28.2V5.3c0 .07.05.14.11.18 1.7.69 3.52 1 5.34.9Zm0-3.34c1.83.1 3.65-.21 5.34-.9a.2.2 0 0 0 .11-.19v-.35C11.28 1 8.84.5 5.83.5 2.83.49.38.99.38 1.6v.35c0 .08.05.15.11.19 1.7.69 3.52 1 5.34.9Zm0 10c.36 0 .7 0 1.02-.02.11 0 .2-.1.2-.21v-1.28a2 2 0 0 1 .12-.73.2.2 0 0 0-.02-.2.21.21 0 0 0-.18-.09c-.38.02-.76.04-1.14.04A15.5 15.5 0 0 1 .67 9.8a.2.2 0 0 0-.29.19v1.97c0 .07.05.14.11.18 1.7.69 3.52 1 5.34.9Zm0-3.33a17.5 17.5 0 0 0 5.34-.9.2.2 0 0 0 .1-.2V6.68a.2.2 0 0 0-.28-.2c-1.66.54-3.41.8-5.16.75a15.5 15.5 0 0 1-5.17-.75.2.2 0 0 0-.28.2v1.96c0 .08.05.15.11.19 1.7.68 3.52 1 5.34.9ZM9 13.07a.2.2 0 0 0-.28.2v1.96c0 .07.04.14.1.18 1.7.7 3.52 1 5.35.9 1.82.1 3.64-.2 5.33-.9a.2.2 0 0 0 .12-.18v-1.97a.2.2 0 0 0-.29-.2c-1.67.55-3.41.8-5.16.76A15.5 15.5 0 0 1 9 13.07Zm5.17 4.08A15.5 15.5 0 0 1 9 16.4a.2.2 0 0 0-.28.2v1.79c0 .62 2.43 1.12 5.44 1.12 3.02 0 5.45-.5 5.45-1.12v-1.8a.2.2 0 0 0-.28-.19c-1.67.54-3.41.8-5.16.75Zm-5.45-5.61v.35c0 .08.04.15.1.19 1.7.69 3.52 1 5.35.9 1.82.1 3.64-.21 5.33-.9a.2.2 0 0 0 .12-.19v-.35c0-.62-2.44-1.12-5.45-1.12-3.01 0-5.45.5-5.45 1.12Z"/></svg>