<svg viewBox="0 0 24 24" xmlns="http://www.w3.org/2000/svg">
<path d="M5.75 6C6.30228 6 6.75 5.55228 6.75 5V2H15.586L17.75 4.163V5C17.75 5.55228 18.1977 6 18.75 6C19.3023 6 19.75 5.55228 19.75 5V3.749C19.7499 3.48381 19.6445 3.22949 19.457 3.042L17 0.587C16.6246 0.212461 16.1163 0.00147089 15.586 0H6.75C5.64543 0 4.75 0.89543 4.75 2V5C4.75 5.55228 5.19772 6 5.75 6Z"/>
<path fill-rule="evenodd" clip-rule="evenodd" d="M21.5 7H2.5C1.11929 7 0 8.11929 0 9.5V14C0 15.3807 1.11929 16.5 2.5 16.5H5V22.75C5.00055 23.4401 5.55987 23.9994 6.25 24H18.25C18.9401 23.9994 19.4994 23.4401 19.5 22.75V16.5H21.5C22.163 16.5 22.7989 16.2366 23.2678 15.7678C23.7366 15.2989 24 14.663 24 14V9.5C24 8.83696 23.7366 8.20107 23.2678 7.73223C22.7989 7.26339 22.163 7 21.5 7ZM3.5 11.5C2.94772 11.5 2.5 11.0523 2.5 10.5C2.5 9.94772 2.94772 9.5 3.5 9.5C4.05228 9.5 4.5 9.94772 4.5 10.5C4.5 11.0523 4.05228 11.5 3.5 11.5ZM17 22C17.2761 22 17.5 21.7761 17.5 21.5V12.457C17.5 12.1809 17.2761 11.957 17 11.957H7.5C7.22386 11.957 7 12.1809 7 12.457V21.5C7 21.7761 7.22386 22 7.5 22H17Z" />
<path d="M15 14.749H9.5C9.08579 14.749 8.75 15.0848 8.75 15.499C8.75 15.9132 9.08579 16.249 9.5 16.249H15C15.4142 16.249 15.75 15.9132 15.75 15.499C15.75 15.0848 15.4142 14.749 15 14.749V14.749Z"/>
<path d="M13.25 18.249H9.5C9.08579 18.249 8.75 18.5848 8.75 18.999C8.75 19.4132 9.08579 19.749 9.5 19.749H13.25C13.6642 19.749 14 19.4132 14 18.999C14 18.5848 13.6642 18.249 13.25 18.249Z"/>
</svg>
