<svg viewBox="0 0 16 16" xmlns="http://www.w3.org/2000/svg"><path d="M10.4949 7.0901a.8273.8273 0 0 0 .272-.9533l-.618-1.6487 1.096-.6966a.8392.8392 0 0 0 .3333-.938.8286.8286 0 0 0-.8-.5907h-1.586L8.8102.6974a.834.834 0 0 0-1.616 0v.0074l-.38 1.558H5.217A.8333.8333 0 0 0 4.767 3.8l1.086.688-.6193 1.652a.8333.8333 0 0 0 1.2667.9673l1.5-1.0713 1.502 1.0713a.8293.8293 0 0 0 .9926-.0173ZM15.9147 11.5202a.8286.8286 0 0 0-.8-.5906h-1.6l-.3774-1.4907a.834.834 0 0 0-1.616 0l-.3786 1.49h-1.6a.8333.8333 0 0 0-.45 1.5333l1.086.6907-.612 1.654a.8334.8334 0 0 0 1.2666.9673l1.5-1.0713 1.502 1.0713a.8327.8327 0 0 0 1.2667-.9706l-.618-1.6487 1.096-.6967a.8394.8394 0 0 0 .3347-.938ZM6.4514 10.9295H4.8588l-.382-1.5653a.834.834 0 0 0-1.616 0v.0067l-.382 1.5586H.8833a.8334.8334 0 0 0-.45 1.5374l1.086.6906-.6193 1.6494a.8332.8332 0 0 0 1.2666.9673l1.5-1.0713 1.502 1.0713a.8326.8326 0 0 0 1.2667-.9707l-.618-1.6486 1.096-.6967a.8393.8393 0 0 0 .3333-.938.8287.8287 0 0 0-.7953-.5907Z" fill="#fff"/></svg>