<svg viewBox="0 0 16 16" xmlns="http://www.w3.org/2000/svg"><path clip-rule="evenodd" d="m13.2543 7.58511 1.3204-1.09479c.3058-.26098.4166-.68488.2777-1.06212-.139-.37725-.4984-.62793-.9004-.62812h-3.897c-.13582.00009-.25693-.08561-.30203-.21376l-1.3984-3.962245c-.14094-.377069-.50216-.62616344-.9047-.62387628-.40254.00228717-.7609.25547028-.89754.63411628l-1.39392 3.952005c-.04511.12815-.16622.21385-.30208.21376h-3.896325c-.403745.00001-.764331.25265-.9022276.63211-.1378965.37947-.02363.80466.2859076 1.06389l3.317765 2.752c.10157.08429.14097.2223.0992.34752l-1.39264 4.1792c-.13241.3962.00663.8326.34384 1.0792.33722.2466.7952.2468 1.13264.0005l3.36896-2.4704c.53158 1.7968 2.19885 3.0165 4.07225 2.979 1.8735-.0375 3.4906-1.3228 3.9499-3.1395.4592-1.816-.352-3.71473-1.9813-4.63849zm-4.71507 4.71699c.44577 1.0762 1.49597 1.7779 2.66077 1.7779 1.5899-.0017 2.8782-1.2901 2.88-2.88 0-1.1648-.7017-2.21498-1.7779-2.66075-1.0761-.44577-2.31488-.19937-3.13856.6243-.82367.82368-1.07008 2.06245-.62431 3.13855z" fill-rule="evenodd"/><path d="m12.2666 10.0742-1.5238 1.8861-.8032-.8032c-.18825-.182-.48763-.1795-.67287.0056-.18524.185-.18799.4844-.00617.6728l.86654.8672c.1806.1766.4279.268.6799.2511.2521-.0169.485-.1403.6404-.3394l1.5655-1.936c.1668-.2061.135-.5084-.0711-.6752-.206-.16682-.5083-.13502-.6752.071z"/></svg>