<svg viewBox="0 0 19 8" xmlns="http://www.w3.org/2000/svg"><path d="M18.006 3.094a.936.936 0 0 0-.906-.656h-1.81L14.861.78a.941.941 0 0 0-.914-.698.94.94 0 0 0-.915.698l-.428 1.656h-1.81a.94.94 0 0 0-.903.666.919.919 0 0 0 .393 1.039l1.229.768-.693 1.838a.917.917 0 0 0 .312 1.06.957.957 0 0 0 1.122.016l1.697-1.191 1.7 1.19a.956.956 0 0 0 1.127-.014.916.916 0 0 0 .307-1.064l-.7-1.833 1.24-.775a.925.925 0 0 0 .38-1.043ZM7.295 2.438H5.493L5.06.698A.941.941 0 0 0 4.146 0a.941.941 0 0 0-.914.698v.007l-.433 1.733H.994a.941.941 0 0 0-.91.666.919.919 0 0 0 .4 1.043l1.23.768-.701 1.833a.917.917 0 0 0 .311 1.06.957.957 0 0 0 1.122.016l1.698-1.191 1.7 1.19A.956.956 0 0 0 6.97 7.81a.916.916 0 0 0 .307-1.064l-.7-1.833 1.241-.775a.925.925 0 0 0-.523-1.7Z"/></svg>