<svg viewBox="0 0 16 16" xmlns="http://www.w3.org/2000/svg"><path d="M9.7869 5.376c.1964-.1253.2863-.358.2226-.576l-.3486-1.216a.1549.1549 0 0 1 .0526-.1638l.9587-.7782c.1692-.1423.2296-.37.1518-.5727-.0777-.2027-.2775-.3384-.5025-.3413H9.2002a.1668.1668 0 0 1-.1547-.1004L8.5062.3283C8.4238.1301 8.2239 0 8.0015 0c-.2223 0-.4223.13-.5046.3283l-.5407 1.2973c-.0249.0619-.087.1026-.156.1024H5.6789c-.228 0-.4319.1365-.5104.342-.0785.2056-.015.4363.159.5777l.962.7808a.1561.1561 0 0 1 .0527.1645l-.3473 1.198c-.0622.2166.0268.4471.2211.5724a.5624.5624 0 0 0 .6355-.02l1.0474-.7789a.1715.1715 0 0 1 .2046 0l1.046.7879a.563.563 0 0 0 .6374.0236ZM2.9874 8.5249l1.0467.7878a.5617.5617 0 0 0 .6367.024c.1954-.1248.2851-.356.2226-.5731l-.3486-1.216a.1561.1561 0 0 1 .0526-.1645l.9587-.7782c.1745-.1413.2384-.3722.16-.578-.0784-.2057-.2824-.3425-.5107-.3424h-1.12a.1668.1668 0 0 1-.152-.0991L3.3901 4.288c-.0824-.1983-.2823-.3284-.5047-.3284-.2223 0-.4222.13-.5046.3284L1.84 5.5854c-.025.0606-.086.1005-.154.1004H.5628c-.228.0003-.4316.137-.51.3426-.0785.2054-.0151.436.1586.5777l.962.7821a.1561.1561 0 0 1 .0527.1645l-.3473 1.198c-.0632.2169.0257.448.2203.5736a.5617.5617 0 0 0 .6363-.0212l1.048-.7789a.1708.1708 0 0 1 .204.0007ZM15.7882 6.6062c.1746-.1414.2385-.3724.1599-.5783-.0786-.2058-.2829-.3425-.5112-.342h-1.12c-.068 0-.1291-.0399-.154-.1006l-.5407-1.2972c-.0824-.1983-.2823-.3284-.5046-.3284-.2224 0-.4223.13-.5047.3284l-.5407 1.2973c-.0253.0606-.0866.1004-.1546.1004h-1.1227c-.2284-.0004-.4326.1363-.5112.3421-.0786.2059-.0147.437.1599.5783l.962.782a.1562.1562 0 0 1 .0526.1645l-.3473 1.198c-.0632.2169.0257.448.2203.5736a.5618.5618 0 0 0 .6364-.0212l1.0473-.7789a.1715.1715 0 0 1 .2047 0l1.0473.7885a.5624.5624 0 0 0 .6366.0236c.1953-.1247.2853-.3555.2234-.5727l-.3493-1.216a.1549.1549 0 0 1 .0533-.1645l.9573-.777ZM14.2093 11.6217h-1.12c-.0689.0003-.1309-.0401-.156-.1017l-.5406-1.298c-.0829-.1977-.2827-.3272-.5047-.3272-.222 0-.4218.1295-.5047.3272l-.5393 1.298c-.0255.0604-.0867.0999-.1547.0998H9.5667c-.228.0003-.4316.1371-.51.3425-.0785.2055-.0151.4362.1587.5778l.9619.7821a.156.156 0 0 1 .0527.1645l-.3473 1.1987c-.0622.2166.0268.4471.2211.5723a.5623.5623 0 0 0 .6355-.02l1.0474-.7795a.1728.1728 0 0 1 .2046 0l1.0467.7878a.5617.5617 0 0 0 .6367.0241c.1954-.1249.2852-.356.2226-.5732l-.3486-1.216a.1563.1563 0 0 1 .0526-.1645l.9587-.7724c.1742-.1415.238-.3723.1596-.578-.0783-.2058-.2821-.3427-.5103-.343v-.0013ZM7.0813 11.6218h-1.12c-.0684-.0003-.1297-.0406-.1546-.1018l-.54-1.296c-.083-.1977-.2827-.3273-.5047-.3273-.222 0-.4218.1296-.5047.3273L3.716 11.52a.1668.1668 0 0 1-.1547.0998H2.4386c-.23-.0016-.4361.1358-.515.3432-.0788.2074-.0133.44.1637.581l.962.7821a.1561.1561 0 0 1 .0527.1645l-.3474 1.1987c-.0621.2166.027.447.2212.5723a.5623.5623 0 0 0 .6355-.02l1.0473-.7795a.173.173 0 0 1 .2047 0l1.046.7878a.5624.5624 0 0 0 .6366.0236c.1953-.1247.2853-.3555.2234-.5727l-.3487-1.216a.1561.1561 0 0 1 .0527-.1645l.9587-.7763c.1742-.1415.238-.3723.1596-.578-.0783-.2058-.2821-.3427-.5103-.343v-.0012Z" fill="#fff"/></svg>