<svg viewBox="0 0 14 14" xmlns="http://www.w3.org/2000/svg"><path d="M13.9704 10.2823c-.0877-.2973-.3578-.5-.6631-.4977h-1.3261l-.3128-1.256C11.5902 8.2176 11.3145 8 10.9987 8c-.3158 0-.5915.2176-.6697.5286l-.3139 1.2554H8.689c-.306.0008-.5748.206-.661.5045-.0861.2983.031.6188.288.7875l.9001.5819-.5072 1.3936c-.1057.2894-.013.615.2283.8024a.6818.6818 0 0 0 .8215.0127l1.2433-.9027 1.245.9027a.6811.6811 0 0 0 .8247-.0113c.2422-.1887.3338-.5167.2251-.8066l-.5122-1.3891.9084-.587c.2529-.1732.3653-.4936.2774-.7903ZM5.3108 9.8283H3.9903l-.3167-1.3052A.6922.6922 0 0 0 3.0037 8a.6922.6922 0 0 0-.67.5231v.0056l-.3166 1.2996H.6944a.6914.6914 0 0 0-.6665.4997.6967.6967 0 0 0 .2934.7822l.9004.5759-.5135 1.3753a.6973.6973 0 0 0 .2284.794.6877.6877 0 0 0 .8218.0125l1.2436-.8933 1.2454.8933a.6872.6872 0 0 0 .825-.0111.6967.6967 0 0 0 .2251-.7982l-.5123-1.3747.9087-.5809a.7019.7019 0 0 0 .2763-.7821.6876.6876 0 0 0-.6594-.4926ZM13.9704 2.2823c-.0877-.2973-.3578-.5-.6631-.4977h-1.3261l-.3128-1.256C11.5902.2176 11.3145 0 10.9987 0c-.3158 0-.5915.2176-.6697.5286l-.3139 1.2554H8.689c-.306.0008-.5748.206-.661.5045-.0861.2983.031.6188.288.7875l.9001.582-.5072 1.3935c-.1057.2894-.013.615.2283.8024a.6817.6817 0 0 0 .8215.0127l1.2433-.9027 1.245.9027a.6812.6812 0 0 0 .8247-.0113c.2422-.1887.3338-.5167.2251-.8066l-.5122-1.3891.9084-.587c.2529-.1732.3653-.4935.2774-.7903ZM5.3108 1.8283H3.9903L3.6736.5231A.6922.6922 0 0 0 3.0037 0a.6922.6922 0 0 0-.67.5231v.0056l-.3166 1.2996H.6944a.6914.6914 0 0 0-.6665.4997.6968.6968 0 0 0 .2934.7822l.9004.5759-.5135 1.3753a.6972.6972 0 0 0 .2284.794.6878.6878 0 0 0 .8218.0125l1.2436-.8933 1.2454.8933a.6872.6872 0 0 0 .825-.0111.6967.6967 0 0 0 .2251-.7982l-.5123-1.3747.9087-.581a.7019.7019 0 0 0 .2763-.782.6875.6875 0 0 0-.6594-.4926Z" fill="#fff"/></svg>