<svg xmlns="http://www.w3.org/2000/svg" viewBox="0 0 24 24"><path d="M0 23.12v-9c0-.82.67-1.5 1.5-1.5h10.25c.14 0 .25.12.25.25v1.35a2 2 0 001.78 1.98c.12.02.22.13.22.25v5.77c0 .36.1.71.29 1.02a.25.25 0 01-.22.38H.5a.5.5 0 01-.5-.5zm3.75-8.5a.25.25 0 00-.25.25v6a.25.25 0 00.25.25h1a.25.25 0 00.25-.25v-2c0-.13.11-.25.25-.25h1.5c.14 0 .25.12.25.25v2a.25.25 0 00.25.25h1a.25.25 0 00.25-.25v-6a.25.25 0 00-.25-.25h-1a.25.25 0 00-.25.25v2c0 .14-.11.25-.25.25h-1.5a.25.25 0 01-.25-.25v-2a.25.25 0 00-.25-.25z" clip-rule="evenodd"/><path d="M20 16.22v6c0 .36-.1.71-.29 1.02a.25.25 0 00.22.38h3.57a.5.5 0 00.5-.5v-9c0-.82-.67-1.5-1.5-1.5h-.25a.25.25 0 00-.25.25v1.35a2 2 0 01-2 2zM10 10.62a2 2 0 00-2-2H4a2 2 0 00-2 2v.75c0 .14.11.25.25.25h7.5c.14 0 .25-.1.25-.25zM17 5.62a2.5 2.5 0 100-5 2.5 2.5 0 000 5z"/><path d="M14 15.22h.75c.14 0 .25.1.25.25v6.75a1 1 0 001 1h2a1 1 0 001-1v-6.75c0-.14.11-.25.25-.25H20a1 1 0 001-1v-5a2 2 0 00-2-2h-4a2 2 0 00-2 2v5a1 1 0 001 1zM3.5 4.62a2.5 2.5 0 005 0v-.75a.25.25 0 00-.25-.25h-4.5a.25.25 0 00-.25.25zM8.5 1.56A.9.9 0 007.9.7a5.67 5.67 0 00-3.8 0 .9.9 0 00-.6.86v.81c0 .14.11.25.25.25h4.5c.14 0 .25-.11.25-.25z"/></svg>
