<svg viewBox="0 0 16 16" xmlns="http://www.w3.org/2000/svg">
<path fill-rule="evenodd" clip-rule="evenodd" d="M0 8C0 3.58172 3.58172 0 8 0C12.4161 0.00514317 15.9949 3.58385 16 8C16 12.4183 12.4183 16 8 16C3.58172 16 0 12.4183 0 8ZM11.8418 11.3657C11.9028 11.1326 11.8333 10.8847 11.66 10.7173L9.06 8.118C9.02869 8.08685 9.01109 8.0445 9.01109 8.00033C9.01109 7.95617 9.02869 7.91382 9.06 7.88267L11.66 5.28267C11.8402 5.11703 11.9152 4.86597 11.8553 4.62864C11.7953 4.39132 11.6102 4.20592 11.373 4.14567C11.1357 4.08542 10.8846 4.16002 10.7187 4.34L8.11867 6.94C8.0874 6.97135 8.04494 6.98896 8.00067 6.98896C7.95639 6.98896 7.91393 6.97135 7.88267 6.94L5.28267 4.34C5.02254 4.07932 4.60035 4.07887 4.33967 4.339C4.07899 4.59913 4.07854 5.02132 4.33867 5.282L6.93867 7.882C6.96997 7.91315 6.98758 7.9555 6.98758 7.99967C6.98758 8.04383 6.96997 8.08618 6.93867 8.11733L4.33867 10.7173C4.07841 10.9777 4.07841 11.3997 4.33867 11.66C4.60078 11.9159 5.01922 11.9159 5.28133 11.66L7.88133 9.06C7.94676 8.99544 8.05191 8.99544 8.11733 9.06L10.7173 11.66C10.8847 11.8333 11.1326 11.9028 11.3657 11.8418C11.5988 11.7808 11.7808 11.5988 11.8418 11.3657Z" />
</svg>
