<svg fill="none" xmlns="http://www.w3.org/2000/svg" viewBox="0 0 14 14"><path d="M1.92 9.16a.58.58 0 0 0 1-.41v-.88c0-.08.06-.14.14-.14h3.06c.09 0 .15.06.15.14v5.25a.73.73 0 0 0 1.46 0V7.87c0-.08.06-.14.14-.14h3.07c.08 0 .14.06.14.14v.88a.58.58 0 0 0 1 .41l1.75-1.75a.58.58 0 0 0 0-.82l-1.75-1.75a.58.58 0 0 0-1 .41v.87c0 .09-.06.15-.14.15H7.87a.15.15 0 0 1-.14-.15V.87a.73.73 0 1 0-1.46 0v5.25c0 .09-.06.15-.15.15H3.06a.15.15 0 0 1-.14-.15v-.87a.58.58 0 0 0-1-.41L.17 6.59a.58.58 0 0 0 0 .82l1.75 1.75Z"/></svg>