<svg xmlns="http://www.w3.org/2000/svg" viewBox="0 0 24 24">
  <path d="M16.37 12.9c.4-.36.51-.94.3-1.43L15.56 8.8a.27.27 0 0 1 .06-.3l2-2c.36-.36.47-.9.3-1.37a1.17 1.17 0 0 0-1.12-.75h-2.26a.25.25 0 0 1-.23-.15L13.1 1.45l-.01-.02c-.2-.43-.63-.7-1.1-.7-.46 0-.89.28-1.1.72L9.7 4.23a.25.25 0 0 1-.23.15H7.2c-.48-.02-.93.28-1.11.75-.18.47-.07 1.02.29 1.37l2 2c.08.08.1.2.06.3l-1.11 2.66c-.21.5-.1 1.08.3 1.44.39.37.97.44 1.43.16l2.82-1.65a.24.24 0 0 1 .24 0l2.82 1.65c.46.28 1.04.21 1.43-.16ZM9.31 19.03a1.04 1.04 0 0 0-.61-.82.97.97 0 0 0-1 .14c-.28.23-.42.6-.37.97l.27 1.93a.26.26 0 0 1-.21.3l-1.85.27c-.52.08-.9.56-.86 1.1.04.55.47.98 1 .98.1 0-.09.02 2.73-.4.4-.06.75-.28 1-.6.23-.34.33-.76.27-1.17l-.37-2.7Z" />
  <path d="M6.22 20.3c.31-.26.51-.64.56-1.05L7 17.21c.06-.37-.09-.75-.38-.98a.97.97 0 0 0-1-.12c-.34.15-.57.47-.6.85l-.15 1.26c0 .07-.04.13-.09.18a.24.24 0 0 1-.18.05l-1.2-.15a1.01 1.01 0 0 0-1.1.9c-.06.57.32 1.09.85 1.17l1.95.24c.4.05.8-.06 1.1-.32ZM3.95 17c.37-.17.66-.48.8-.86l.64-1.65c.13-.34.08-.74-.14-1.03a.98.98 0 0 0-1.72.26l-.35.91c-.05.14-.2.2-.33.15l-.87-.37A.99.99 0 0 0 .69 15c-.2.53.04 1.13.54 1.35L2.8 17c.37.16.79.16 1.15 0ZM2.7 13.54c.4-.06.75-.27.99-.6l.9-1.26c.27-.4.25-.93-.06-1.3a.97.97 0 0 0-1.23-.22l-.22-2a1.04 1.04 0 0 0-.6-.83.97.97 0 0 0-1 .12c-.28.22-.43.58-.39.95l.23 2.1a.96.96 0 0 0-1.12.35c-.33.46-.24 1.11.2 1.46l1.2.93c.3.25.7.36 1.1.3ZM18.46 21.82l-1.85-.27a.26.26 0 0 1-.2-.3l.26-1.93c.07-.57-.3-1.1-.85-1.18a1 1 0 0 0-1.14.89l-.36 2.7c-.06.41.04.83.28 1.16.24.34.6.55.99.61 2.8.42 2.63.4 2.73.4.53 0 .96-.42 1-.97a1.03 1.03 0 0 0-.86-1.1Z" />
  <path d="m20.6 18.3-1.2.15a.24.24 0 0 1-.19-.05.26.26 0 0 1-.09-.17l-.15-1.27a1 1 0 0 0-1.1-.88c-.54.07-.93.57-.88 1.13l.23 2.04c.1.86.85 1.47 1.67 1.37l1.95-.25c.54-.08.92-.6.85-1.16a1.01 1.01 0 0 0-1.09-.91ZM22.02 14.41l-.88.37a.25.25 0 0 1-.32-.15l-.36-.91a.99.99 0 0 0-1.3-.58c-.51.21-.76.82-.55 1.35l.63 1.65c.15.38.44.69.8.85.37.17.79.17 1.16.01l1.57-.66c.5-.22.74-.82.54-1.35a.99.99 0 0 0-1.29-.58ZM23.8 10.85a.96.96 0 0 0-1.12-.35l.23-2.1c.04-.37-.11-.73-.4-.95a.97.97 0 0 0-1-.12c-.32.15-.55.47-.59.84l-.22 1.99a.97.97 0 0 0-1.24.22c-.3.37-.33.91-.05 1.3l.9 1.26c.24.33.6.55.99.6.39.06.79-.04 1.1-.3l1.2-.93a1.07 1.07 0 0 0 .2-1.46Z" />
</svg>