<svg enable-background="new 0 0 20 20" viewBox="0 0 20 20" xmlns="http://www.w3.org/2000/svg"><path d="m1.8 7.3c.2 0 .4.2.4.4v1.1c0 .5.4.8.8.8s.8-.4.8-.8v-1.1c0-.2.2-.4.4-.4h1.2c.4 0 .6-.1.6-.3.1-.2 0-.4-.1-.6l-.9-1.2c.2.1.5 0 .6-.2s.1-.5-.1-.6l-1.2-1.7c.2.1.5 0 .6-.2.2-.3.1-.6-.1-.8l-1.4-1.6c-.1-.1-.2-.1-.3-.1s-.3 0-.3.1l-1.5 1.6c-.2.2-.2.5-.1.7s.4.3.6.2l-1.2 1.7c-.2.1-.2.4-.1.6s.4.3.6.2v.1l-.9 1.2c-.1.1-.2.4-.1.6s.3.3.5.3zm16.7 8.1c0-.1 0-.1 0 0 .3 0 .6-.1.7-.3s.1-.5-.1-.7l-1.4-1.8s0 0 0-.1c.3.1.5 0 .7-.3.1-.2.1-.5-.1-.7l-1.7-1.8c-.1-.1-.2-.1-.3-.1s-.2 0-.3.1l-1.7 1.8c-.2.2-.3.5-.1.7.1.2.4.4.7.3v.1l-1.4 1.8c-.2.2-.2.5-.1.7s.4.3.7.2v.1l-1.1 1.4c-.2.2-.2.4-.1.6s.3.4.5.4h1.5c.2 0 .4.2.4.4v1c0 .5.4.8.8.8.5 0 .8-.4.8-.8v-1c0-.2.2-.4.4-.4h1.5c.2 0 .4-.1.5-.4.1-.2 0-.5-.1-.6zm.9-13.5c.1 0 .2 0 .3.1s.2.2.2.3v6.4c0 .2-.1.4-.3.4-.5.1-1.1.3-1.6.5-.2.1-.3 0-.4-.1l-.3-.3c-.2-.3-.6-.4-.9-.4-.4 0-.7.1-.9.4l-1.6 1.8c-.3.3-.5.6-.5 1 0 .1-.1.3-.2.3-2.4 1.9-4.3 4.4-5.4 7.2-.1.2-.2.3-.4.3h-6.6c-.1 0-.3-.1-.3-.2-.1-.1-.1-.2-.1-.4 2.5-8.9 9.9-15.6 19-17.3zm-14.7 16.4c.2-.4.3-.8.5-1.1.1-.2 0-.4-.2-.5s-.4 0-.5.2c-.2.3-.4.7-.5 1.1-.1.2 0 .5.2.5h.2c.1 0 .3-.1.3-.2zm3-5.2c-.5.6-.9 1.3-1.4 1.9-.1.1-.2.2-.4.2-.1 0-.2 0-.2-.1-.2-.1-.3-.4-.1-.6.4-.7.9-1.4 1.4-2 .1-.1.2-.2.4-.2s.3.1.3.3c.1.2.1.4 0 .5zm1.6-1.8c.6-.6 1.1-1.1 1.8-1.6.1-.1.2-.2.2-.4s-.1-.3-.3-.3c-.1-.1-.3 0-.4.1-.6.5-1.3 1.1-1.8 1.6-.1.2-.1.4 0 .6 0 .2.3.2.5 0zm5.7-4.1c-.7.3-1.4.7-2.1 1.1-.1 0-.1.1-.2.1-.2 0-.4-.1-.4-.3-.1-.2 0-.4.2-.5.7-.4 1.4-.8 2.2-1.2.2-.1.4 0 .5.2.1.3 0 .5-.2.6zm2.2-.9c.4-.1.8-.2 1.2-.3.2 0 .3-.1.3-.3 0-.1 0-.3-.1-.4s-.3-.1-.4-.1c-.4.1-.8.2-1.2.4-.2.1-.3.3-.3.5s.2.3.4.3c0 0 .1 0 .1-.1z"/></svg>