<svg viewBox="0 0 20 20" xmlns="http://www.w3.org/2000/svg"><path clip-rule="evenodd" d="m19.7634 19.1892-5.8333-18.750033c-.0811-.26136-.323-.43940617-.5967-.43916676h-2.2916c-.1151 0-.2084.09327426-.2084.20833376v1.041666c0 .46024-.3731.83333-.8333.83333-.46024 0-.83333-.37309-.83333-.83333v-1.041666c0-.1150595-.09328-.20833376-.20834-.20833376h-2.29166c-.27366-.00023941-.51556.17780676-.59667.43916676l-5.833332 18.750033c-.059082.1897-.024431.3962.093339.5562.11777.1601.304624.2546.503327.2546h8.124996c.11506 0 .20834-.0933.20834-.2083v-3.125c0-.4603.37309-.8334.83333-.8334.4602 0 .8333.3731.8333.8334v3.125c0 .115.0933.2083.2084.2083h8.125c.1987 0 .3855-.0945.5033-.2546.1178-.16.1524-.3665.0933-.5562zm-9.7633-15.64753c.4602 0 .8333.37309.8333.83333v1.875c0 .46024-.3731.83333-.8333.83333-.46024 0-.83333-.37309-.83333-.83333v-1.875c0-.46024.37309-.83333.83333-.83333zm-.83333 9.37503c0 .4602.37309.8333.83333.8333.4602 0 .8333-.3731.8333-.8333v-2.9167c0-.46024-.3731-.83333-.8333-.83333-.46024 0-.83333.37309-.83333.83333z" fill-rule="evenodd"/></svg>