<svg fill="none" xmlns="http://www.w3.org/2000/svg" viewBox="0 0 14 14"><path fill-rule="evenodd" clip-rule="evenodd" d="M5.6 4.36a4.57 4.57 0 0 0 4.85 3.99.15.15 0 0 1 .16.15 3.91 3.91 0 0 1-1.82 2.96.15.15 0 0 0-.06.16l.4 1.4a.71.71 0 1 1-1.37.4l-.34-1.18a.15.15 0 0 0-.17-.1c-.92.25-1.88.24-2.79 0a.15.15 0 0 0-.17.1l-.34 1.18a.71.71 0 1 1-1.38-.4l.44-1.5a4.28 4.28 0 0 1-1.44-1.48.15.15 0 0 0-.13-.07H.9a.76.76 0 0 1-.76-.76v-.95c0-.41.34-.75.76-.75h.16c.06 0 .12-.05.14-.11.25-.93.83-1.74 1.64-2.27.05-.04.07-.11.05-.17-.07-.2-.2-.38-.34-.52a.52.52 0 0 1 .22-.88c.78-.2 1.6.1 2.06.74.2-.03.41-.06.62-.07.07 0 .14.05.15.13ZM3.03 7.04a.52.52 0 1 0 0 1.04.52.52 0 0 0 0-1.04Z"/><path fill-rule="evenodd" clip-rule="evenodd" d="M13.86 3.78a3.72 3.72 0 1 1-7.44 0 3.72 3.72 0 0 1 7.44 0ZM10.7 1.64a.15.15 0 0 1-.14-.15v-.14a.43.43 0 1 0-.86 0v.18c0 .07-.05.13-.11.14a1.2 1.2 0 0 0-.2 2.28l1.17.47a.34.34 0 0 1-.13.65H9.28a.43.43 0 0 0 0 .86h.28c.08 0 .15.06.15.15v.14a.43.43 0 0 0 .86 0v-.18c0-.07.05-.13.11-.14a1.2 1.2 0 0 0 .2-2.28l-1.17-.47a.34.34 0 0 1 .12-.65H11a.43.43 0 0 0 0-.86h-.29Z"/></svg>