<svg fill="none" viewBox="0 0 30 30" xmlns="http://www.w3.org/2000/svg"><g clip-rule="evenodd" fill="#369" fill-rule="evenodd"><path d="m15 30c8.2843 0 15-6.7157 15-15 0-8.28427-6.7157-15-15-15-8.28427 0-15 6.71573-15 15 0 8.2843 6.71573 15 15 15z" fill-opacity=".2"/><path d="m7.3848 20.3908c-.51307.513-.51307 1.3449 0 1.858.51307.513 1.34493.513 1.858 0l5.5331-5.5332 5.7092 5.7092c.5131.5131 1.3449.5131 1.858 0s.5131-1.3449 0-1.858l-5.7092-5.7092 5.6149-5.6148c.513-.51307.513-1.34493 0-1.858-.5131-.51307-1.345-.51307-1.858 0l-5.6149 5.6148-5.43876-5.43876c-.51307-.51307-1.34492-.51307-1.85799 0s-.51307 1.34492 0 1.85799l5.43875 5.43877z" fill-opacity=".4"/></g></svg>
