<svg viewBox="0 0 18 18" xmlns="http://www.w3.org/2000/svg"><path clip-rule="evenodd" d="m13.3471 11.8497 4.3428 4.3428c.4135.4135.4135 1.0839 0 1.4974s-1.0839.4135-1.4974 0l-4.3428-4.3428c-1.2375.9271-2.77398 1.4764-4.43794 1.4764-4.09106 0-7.41176-3.3207-7.41176-7.41174 0-4.09106 3.3207-7.41176 7.41176-7.41176 4.09104 0 7.41174 3.3207 7.41174 7.41176 0 1.66396-.5493 3.20044-1.4764 4.43794zm-5.93534-9.73205c-2.92152 0-5.29411 2.37259-5.29411 5.29411 0 2.92154 2.37259 5.29414 5.29411 5.29414 2.92154 0 5.29414-2.3726 5.29414-5.29414 0-2.92152-2.3726-5.29411-5.29414-5.29411z" fill-rule="evenodd"/></svg>