<svg viewBox="0 0 20 20" fill="none" xmlns="http://www.w3.org/2000/svg">
<path d="M5.62435 5.23698C6.77494 5.23698 7.70768 4.30424 7.70768 3.15365C7.70768 2.00305 6.77494 1.07031 5.62435 1.07031C4.47376 1.07031 3.54102 2.00305 3.54102 3.15365C3.54102 4.30424 4.47376 5.23698 5.62435 5.23698Z" fill="#336699"/>
<path d="M14.2496 14.707C13.9788 12.8632 12.4007 11.4944 10.5371 11.487H9.24377C8.66999 11.4873 8.16967 11.097 8.03044 10.5403L7.25377 7.43366C7.07597 6.77635 6.40478 6.38227 5.74416 6.54732C5.08354 6.71236 4.67654 7.3758 4.82877 8.03949L5.6046 11.147C6.02224 12.8166 7.52274 13.9876 9.24377 13.987H10.5396C11.1608 13.9895 11.6868 14.4457 11.7771 15.0603L12.3038 18.3003C12.365 18.744 12.6589 19.121 13.0742 19.2886C13.4896 19.4562 13.9628 19.3888 14.3149 19.1119C14.6669 18.835 14.8439 18.3909 14.7788 17.9478L14.2496 14.707Z"/>
<path d="M9.90576 16.779C9.84988 16.3811 9.51802 16.0797 9.11659 16.0624C6.48136 16.0221 4.20448 14.2104 3.57325 11.6515C3.27575 10.4732 3.08909 9.71652 2.97242 9.23902L2.85242 8.75486C2.75961 8.38438 2.42684 8.12442 2.04492 8.12402H1.46159C1.23147 8.12402 1.04492 8.31057 1.04492 8.54069V18.5407C1.04492 19.0009 1.41802 19.374 1.87826 19.374H9.37825C9.6201 19.3741 9.85005 19.2691 10.0084 19.0863C10.1667 18.9035 10.2378 18.6609 10.2033 18.4215C10.1816 18.3007 10.0116 17.5357 9.90576 16.779Z" />
<path fill-rule="evenodd" clip-rule="evenodd" d="M13.957 0.624023H16.457C17.8377 0.624023 18.957 1.74331 18.957 3.12402V7.70736C18.957 9.08807 17.8377 10.2074 16.457 10.2074H13.957C12.5763 10.2074 11.457 9.08807 11.457 7.70736V3.12402C11.457 1.74331 12.5763 0.624023 13.957 0.624023ZM16.457 8.54069C16.9173 8.54069 17.2904 8.16759 17.2904 7.70736V3.12402C17.2904 2.66379 16.9173 2.29069 16.457 2.29069H13.957C13.4968 2.29069 13.1237 2.66379 13.1237 3.12402V7.70736C13.1237 8.16759 13.4968 8.54069 13.957 8.54069H16.457Z"/>
</svg>
