<svg viewBox="0 0 20 19.2" xmlns="http://www.w3.org/2000/svg"><path d="m3.3 4.2c1.2 0 2.1-.9 2.1-2.1s-.9-2.1-2.1-2.1c-1.1 0-2.1.9-2.1 2.1s1 2.1 2.1 2.1zm-1.8 7.9c.1 0 .2.1.2.2v6c0 .5.4.8.8.8h1.7c.5 0 .8-.4.8-.8v-6c0-.1.1-.2.2-.2h.6c.5 0 .8-.4.8-.8v-4.2c0-.9-.7-1.7-1.7-1.7h-3.2c-1 0-1.7.8-1.7 1.7v4.2c0 .5.4.8.8.8zm13.5-5h.2c.1 0 .2 0 .3-.1l2.5-2.5c.2-.2.2-.4 0-.6l-2.5-2.5c-.1-.1-.3-.2-.5-.1s-.3.2-.3.4v1.3c0 .1-.1.2-.2.2h-2.9c-.6 0-1 .5-1 1 0 .6.5 1 1 1h2.9c.1 0 .2.1.2.2v1.2c.1.3.2.5.3.5zm5 5.9c0-.7-.6-1.2-1.2-1.2h-.2c-.1 0-.2.1-.2.2v7c0 .1.1.2.2.2h.2c.7 0 1.2-.6 1.2-1.2zm-9.6-1.3c-.7 0-1.3.6-1.3 1.2v5c0 .7.6 1.2 1.3 1.2h.2c.1 0 .2-.1.2-.2v-6.9c0-.1-.1-.2-.2-.2zm4.6-2.9c1.4 0 2.5 1.1 2.5 2.5v7.7c0 .1-.1.2-.2.2h-5.4c-.1 0-.2-.1-.2-.2v-7.7c0-1.4 1.1-2.5 2.5-2.5zm.6 2.9c.1 0 .2-.1.2-.2v-.2c0-.5-.4-.8-.8-.8h-.8c-.5 0-.8.4-.8.8v.2c0 .1.1.2.2.2z"/></svg>