<svg xmlns="http://www.w3.org/2000/svg" viewBox="0 0 24 24"><path d="M4 7H1a1 1 0 000 2h3a1 1 0 000-2zM3 11H1a1 1 0 000 2h2a1 1 0 000-2zM2.25 15H1a1 1 0 000 2h1.25a1 1 0 000-2zM23.93 7.38a.14.14 0 00-.15.02l-8.33 7.31a2.36 2.36 0 01-1.54.6 1.74 1.74 0 01-1.36-.6L6.42 7.4a.12.12 0 00-.15-.03.17.17 0 00-.1.13l-1.43 9A1.25 1.25 0 006 18h14.97a1.8 1.8 0 001.71-1.5l1.32-9a.12.12 0 00-.07-.13z"/><path d="M13.46 13.92a.93.93 0 001.32 0l8.28-7.27a.42.42 0 00.14-.38c-.05-.29-.38-.27-.47-.27H7.89a.56.56 0 00-.55.27.35.35 0 00.03.38z"/></svg>
