<svg viewBox="0 0 16 16" xmlns="http://www.w3.org/2000/svg">
<path fill-rule="evenodd" clip-rule="evenodd" d="M13.4009 15.9163C14.118 15.9163 14.8005 15.6084 15.2751 15.0709C15.7496 14.5333 15.9705 13.8179 15.8816 13.1063L14.8309 4.68767V4.68301C14.827 4.65498 14.8208 4.62733 14.8123 4.60034V4.59367L14.8089 4.58234L14.1123 2.62634C14.1045 2.60553 14.0954 2.58526 14.0849 2.56567C13.8953 2.17481 13.502 1.92377 13.0676 1.91634H12.4009C12.1248 1.91634 11.9009 2.1402 11.9009 2.41634C11.9009 2.69248 12.1248 2.91634 12.4009 2.91634H13.0676C13.1171 2.92429 13.1597 2.95554 13.1823 3.00034L13.5469 4.02701C13.5648 4.0781 13.5569 4.13469 13.5257 4.17891C13.4944 4.22312 13.4437 4.24949 13.3896 4.24967H11.5689C11.4769 4.24967 11.4023 4.17506 11.4023 4.08301V3.41634C11.4023 1.57539 9.90987 0.0830078 8.06892 0.0830078C6.22797 0.0830078 4.73558 1.57539 4.73558 3.41634V4.08301C4.73558 4.17506 4.66097 4.24967 4.56892 4.24967H2.67425C2.61835 4.24981 2.5661 4.2219 2.53512 4.17537C2.50415 4.12883 2.49856 4.06986 2.52025 4.01834L2.94225 3.02234C2.96332 2.96749 3.01121 2.92741 3.06892 2.91634H3.73558C4.01173 2.91634 4.23558 2.69248 4.23558 2.41634C4.23558 2.1402 4.01173 1.91634 3.73558 1.91634H3.06892C2.62259 1.92815 2.22203 2.19337 2.03692 2.59967L1.20825 4.55301V4.55834C1.20358 4.56901 1.19958 4.58034 1.19558 4.59234V4.60167C1.18697 4.62928 1.18095 4.65762 1.17758 4.68634L0.118918 13.1063C0.0299742 13.8181 0.251034 14.5338 0.725885 15.0714C1.20074 15.609 1.88363 15.9167 2.60092 15.9163H13.4009ZM5.40825 8.82634C5.60159 8.43983 5.96893 8.16981 6.39552 8.1006C6.82211 8.0314 7.25597 8.17144 7.56158 8.47701L7.81492 8.73034C7.88034 8.7949 7.9855 8.7949 8.05092 8.73034L8.30425 8.47701C8.64177 8.12703 9.14193 7.98651 9.61232 8.10951C10.0827 8.23251 10.4501 8.59987 10.5731 9.07027C10.6961 9.54067 10.5556 10.0408 10.2056 10.3783L8.05292 12.6243C8.02156 12.6571 7.97823 12.6756 7.93292 12.6757C7.88743 12.6755 7.84395 12.657 7.81225 12.6243L5.66025 10.3783C5.25103 9.96914 5.14953 9.344 5.40825 8.82634ZM8.06758 1.41634C6.96301 1.41634 6.06758 2.31177 6.06758 3.41634V4.08301C6.06758 4.17506 6.1422 4.24967 6.23425 4.24967H9.90092C9.99296 4.24967 10.0676 4.17506 10.0676 4.08301V3.41634C10.0676 2.31177 9.17215 1.41634 8.06758 1.41634Z" />
</svg>
