<svg viewBox="0 0 24 24" xmlns="http://www.w3.org/2000/svg"><path d="M8 21.5H5a.25.25 0 0 0-.25.25v.5a1.75 1.75 0 1 0 3.5 0v-.5A.25.25 0 0 0 8 21.5ZM19 21.5h-3a.25.25 0 0 0-.25.25v.5a1.75 1.75 0 1 0 3.5 0v-.5a.25.25 0 0 0-.25-.25Z"/><path fill-rule="evenodd" clip-rule="evenodd" d="M21.75 4.253h.5A1.752 1.752 0 0 1 24 6v3a1.752 1.752 0 0 1-1.75 1.75h-.5a.25.25 0 0 0-.25.25v6.5a3 3 0 0 1-3 3h-13a3 3 0 0 1-3-3V11a.25.25 0 0 0-.25-.25h-.5A1.752 1.752 0 0 1 0 9V6a1.752 1.752 0 0 1 1.75-1.75h.5A.25.25 0 0 0 2.5 4V3a3 3 0 0 1 3-3h13a3 3 0 0 1 3 3v1a.25.25 0 0 0 .25.253ZM5.5 16.751h2a.75.75 0 0 0 0-1.5h-2a.75.75 0 0 0 0 1.5Zm13 0h-2a.75.75 0 0 1 0-1.5h2a.75.75 0 0 1 0 1.5Zm.75-3.75a.25.25 0 0 0 .25-.25V3a1 1 0 0 0-1-1h-13a1 1 0 0 0-1 1v9.751c0 .138.112.25.25.25h14.5Z"/></svg>