<svg xmlns="http://www.w3.org/2000/svg" viewBox="0 0 25 25"><path d="M12.72 18.2c.13 0 .24-.11.24-.25v-3.42c0-.55.13-1.1.38-1.59a.26.26 0 000-.2.24.24 0 00-.14-.15l-1.22-.47a.78.78 0 01-.5-.73v-.46c0-.14.11-.25.24-.25 1.28.1 2.55-.21 3.64-.9.1-.06.16-.16.18-.27a.4.4 0 00-.1-.32c-.47-.54-.8-1.19-.94-3.32C14.25 2.05 11.75.7 9.6.7 7.45.7 4.96 2.05 4.7 5.87 4.56 8 4.24 8.65 3.76 9.2a.4.4 0 00.08.6 5.9 5.9 0 003.63.9c.07-.01.13.02.17.06.05.05.08.11.08.18v.46c0 .33-.2.62-.5.73-2.78 1.07-5 1.83-5.53 2.93-.4.85-.65 1.78-.73 2.73a.4.4 0 00.1.3c.07.08.17.12.28.12h11.38z"/><path d="M13.92 24.7c.64 0 1.25-.26 1.7-.73.45-.47.7-1.1.7-1.77v-7.46c0-.12.08-.22.2-.25l5.27-1.03c.07-.01.15 0 .2.05.06.05.09.12.09.2v3.75c0 .07-.03.14-.08.19a.23.23 0 01-.18.06l-.22-.01a2.45 2.45 0 00-2.4 2.5c0 1.38 1.08 2.5 2.4 2.5 1.33 0 2.4-1.12 2.4-2.5v-6.8c0-.59-.25-1.15-.7-1.53a1.86 1.86 0 00-1.57-.43l-5.76 1.12c-.91.18-1.57 1-1.57 1.97v4.93c0 .07-.03.14-.08.19a.23.23 0 01-.18.06l-.22-.01a2.45 2.45 0 00-2.4 2.5c0 1.38 1.08 2.5 2.4 2.5z"/></svg>
