<svg viewBox="0 0 24 14" xmlns="http://www.w3.org/2000/svg"><path d="M21.375 1.704v1.895c-1.492.332-2.617 1.645-2.617 3.216V7.5H5.244v-.686c0-1.571-1.125-2.884-2.618-3.215V1.704C2.626.767 3.4 0 4.351 0h15.3c.952 0 1.725.767 1.725 1.704Z"/><path d="M24 6.815v6.713c0 .258-.225.472-.503.472H.503C.225 14 0 13.784 0 13.526V6.815c0-1.01.84-1.83 1.875-1.83 1.027 0 1.867.82 1.867 1.83v1.424c0 .405.338.737.75.737h15.015c.412 0 .75-.331.75-.737V6.815c0-1.01.84-1.83 1.867-1.83 1.035 0 1.875.82 1.875 1.83H24Z"/></svg>