<svg viewBox="0 0 24 24" xmlns="http://www.w3.org/2000/svg">
<path d="M11.1339 22.328C11.1133 21.8568 11.1742 21.3855 11.3139 20.935C11.3754 20.7337 11.3042 20.5154 11.1359 20.389C9.88357 19.5321 9.31973 17.9702 9.73586 16.511C10.0642 15.5513 10.8118 14.7934 11.7669 14.452C12.2091 14.2865 12.6767 14.1989 13.1489 14.193C13.3585 14.1896 13.5437 14.0559 13.6129 13.858C13.7277 13.5331 13.8818 13.2234 14.0719 12.936C14.1255 12.8543 14.154 12.7587 14.1539 12.661V9.5C14.1539 8.11929 13.0346 7 11.6539 7H11.0909L10.4659 5.249C10.254 4.64975 9.68746 4.24909 9.05186 4.249C9.01181 4.24953 8.97319 4.23414 8.9445 4.20619C8.91581 4.17825 8.89939 4.14005 8.89886 4.1V2.5C8.89886 2.22386 9.12272 2 9.39886 2H11.3989C11.9511 2 12.3989 1.55228 12.3989 1C12.3989 0.447715 11.9511 4.99668e-08 11.3989 4.99668e-08H4.87486C4.2778 -0.000133262 3.71189 0.266497 3.33186 0.727L1.56886 2.863C1.21706 3.28909 1.27727 3.91969 1.70336 4.2715C2.12945 4.62331 2.76006 4.56309 3.11186 4.137L4.72486 2.182C4.81988 2.06671 4.96147 1.99995 5.11086 2H6.39886C6.675 2 6.89886 2.22386 6.89886 2.5V4C6.89886 4.13641 6.78828 4.247 6.65186 4.247C6.017 4.24794 5.45148 4.64845 5.23986 5.247L4.61686 7H4.15586C2.77515 7 1.65586 8.11929 1.65586 9.5V21.5C1.65586 22.163 1.91925 22.7989 2.38809 23.2678C2.85694 23.7366 3.49282 24 4.15586 24H10.8619C11.0249 24.0003 11.1779 23.921 11.2717 23.7875C11.3655 23.6541 11.3883 23.4834 11.3329 23.33C11.2164 23.0079 11.1494 22.6701 11.1339 22.328Z"/>
<path fill-rule="evenodd" clip-rule="evenodd" d="M22.5762 16.9751C22.8117 18.1962 22.0309 19.3825 20.8162 19.6491C20.6099 19.7161 20.397 19.7606 20.1812 19.7821C20.1319 19.7872 20.0904 19.821 20.0752 19.8681C20.0602 19.9152 20.0738 19.9667 20.1102 20.0001C20.2692 20.1459 20.4123 20.3081 20.5372 20.4841C21.3638 21.4146 21.2977 22.8345 20.3882 23.6841C19.2996 24.2865 17.9292 23.9101 17.3012 22.8361C17.1731 22.6609 17.0641 22.4725 16.9762 22.2741C16.9556 22.2294 16.9109 22.2007 16.8617 22.2007C16.8124 22.2007 16.7677 22.2294 16.7472 22.2741C16.6596 22.4727 16.5506 22.6611 16.4222 22.8361C15.7941 23.9101 14.4237 24.2865 13.3352 23.6841C12.4256 22.8345 12.3595 21.4146 13.1862 20.4841C13.3139 20.3087 13.4597 20.1471 13.6212 20.0021C13.6575 19.9687 13.6712 19.9172 13.6562 19.8701C13.641 19.823 13.5994 19.7892 13.5502 19.7841C13.3343 19.7619 13.1214 19.7166 12.9152 19.6491C11.7004 19.3825 10.9196 18.1962 11.1552 16.9751C11.6816 15.8454 13.0143 15.3435 14.1552 15.8451C14.3616 15.9118 14.5604 16.0003 14.7482 16.1091C14.791 16.1336 14.8441 16.1308 14.8842 16.1021C14.9245 16.073 14.9438 16.0227 14.9332 15.9741C14.8883 15.7621 14.8658 15.5459 14.8662 15.3291C14.7439 14.0911 15.6315 12.9816 16.8662 12.8291C18.1006 12.9821 18.9879 14.0913 18.8662 15.3291C18.8662 15.5459 18.8434 15.7621 18.7982 15.9741C18.7874 16.0226 18.8064 16.0728 18.8465 16.1021C18.8867 16.1314 18.9403 16.1341 18.9832 16.1091C19.1709 16.0003 19.3697 15.9118 19.5762 15.8451C20.7171 15.3435 22.0497 15.8454 22.5762 16.9751ZM15.3702 18.8281C15.3702 19.6565 16.0417 20.3281 16.8702 20.3281C17.6986 20.3281 18.3702 19.6565 18.3702 18.8281C18.3702 17.9997 17.6986 17.3281 16.8702 17.3281C16.0417 17.3281 15.3702 17.9997 15.3702 18.8281Z"/>
</svg>
