<svg version="1.1" id="Layer_1" xmlns="http://www.w3.org/2000/svg" x="0" y="0" viewBox="0 0 113 114" style="enable-background:new 0 0 113 114" xml:space="preserve"><style>.st1{fill:#fff}</style><path class="st0" d="M111 99H2c-1.1 0-2-.9-2-2V2C0 .9.9 0 2 0h109c1.1 0 2 .9 2 2v95c0 1.1-.9 2-2 2z"/><circle class="st1" cx="32" cy="28" r="15"/><circle class="st1" cx="81" cy="28" r="15"/><circle class="st1" cx="32" cy="70" r="15"/><circle class="st1" cx="81" cy="70" r="15"/><path class="st0" d="M111 114H2c-1.1 0-2-.9-2-2v-6c0-1.1.9-2 2-2h109c1.1 0 2 .9 2 2v6c0 1.1-.9 2-2 2z"/></svg>