<svg viewBox="0 0 20 20" xmlns="http://www.w3.org/2000/svg"><path fill-rule="evenodd" clip-rule="evenodd" d="M10.0002 0C5.63.005051 2.08855 3.54651 2.0835 7.91667 2.0835 13.37 7.531 18.3225 9.201 19.7108c.46303.3847 1.1345.3847 1.5975 0 1.6667-1.3883 7.1183-6.3408 7.1183-11.79497C17.9113 3.546 14.37.00505 10.0002 0zm.4166 3.125c.6904 0 1.25.55964 1.25 1.25s-.5596 1.25-1.25 1.25c-.69033 0-1.24997-.55964-1.24997-1.25s.55964-1.25 1.24997-1.25zm1.875 10.8333c.4603 0 .8334-.3731.8334-.8333 0-.4602-.3731-.8333-.8334-.8333h-.8333V8.125c0-.92048-.7462-1.66667-1.66667-1.66667H8.9585c-.46024 0-.83334.3731-.83334.83334 0 .46023.3731.83333.83334.83333h.41666c.23012 0 .41667.18655.41667.41667V11.875c0 .2301-.18655.4167-.41667.4167H8.9585c-.46024 0-.83334.3731-.83334.8333 0 .4602.3731.8333.83334.8333h3.3333z"/></svg>
