<svg viewBox="0 0 20 18" xmlns="http://www.w3.org/2000/svg">
<path d="M7.85714 5C7.38376 5 7 5.35817 7 5.8V10.2C7 10.6418 7.38376 11 7.85714 11H12.1429C12.6162 11 13 10.6418 13 10.2C13 9.75817 12.6162 9.4 12.1429 9.4H8.92857C8.81022 9.4 8.71428 9.31046 8.71428 9.2V5.8C8.71428 5.35817 8.33053 5 7.85714 5Z"/>
<path d="M9.54554 0.00667924C13.2912 0.153595 16.5729 2.51828 17.8446 5.98681C17.8788 6.08044 17.9752 6.1375 18.0753 6.12329L19.5131 5.91062C19.6737 5.89037 19.8325 5.95897 19.926 6.08896C20.0178 6.22134 20.0247 6.39364 19.9438 6.53274L17.6633 10.4681C17.5976 10.5811 17.4823 10.6576 17.3512 10.6752C17.2201 10.6927 17.0882 10.6493 16.9942 10.5577L13.7849 7.42114C13.6703 7.30953 13.6296 7.14378 13.6799 6.99305C13.7302 6.84233 13.8628 6.73251 14.0224 6.70942L15.4823 6.49506C15.5484 6.48561 15.6062 6.44619 15.6383 6.38859C15.6704 6.331 15.6732 6.26191 15.6458 6.202C14.2422 3.07626 10.728 1.42746 7.375 2.32149C4.02201 3.21552 1.83554 6.38431 2.22906 9.77937C2.62259 13.1744 5.47811 15.7778 8.94965 15.9065C9.32981 15.9133 9.67744 16.119 9.8616 16.4462C10.0458 16.7734 10.0385 17.1724 9.84245 17.4928C9.64644 17.8133 9.2915 18.0066 8.91134 17.9998H8.87133C5.58972 17.9008 2.61348 16.0803 1.07179 13.2292C-0.469904 10.378 -0.340808 6.93305 1.4101 4.20127C3.161 1.4695 6.26542 -0.130489 9.54554 0.00835388V0.00667924Z"/>
</svg>
