<svg viewBox="0 0 16 16" xmlns="http://www.w3.org/2000/svg"><path d="m10.9893 4.99933c.5302 0 .96-.44772.96-1 0-.55229-.4298-1-.96-1s-.96.44771-.96 1c0 .55228.4298 1 .96 1z"/><path d="m8.18028 13.3627c-.08014-.0838-.19688-.117-.30678-.0874-.10991.0296-.19652.1176-.22762.2314l-.56704 2.0666c-.02775.1007-.00847.2091.05205.2927s.15525.1328.25579.1327c.02965.0001.05918-.0041.08768-.0127l1.984-.5907c.10944-.0316.19456-.1214.22366-.2357.02909-.1144-.0022-.2363-.08222-.3203z"/><path d="m12.0407 8.81799c-.125-.13012-.3275-.13012-.4525 0l-3.20447 3.34001c-.12492.1302-.12492.3412 0 .4713l1.91997 2c.125.1302.3276.1302.4525 0l3.2071-3.34c.1249-.1301.1249-.3411 0-.4713z"/><path d="m6.15575 15.2993.34816-1.2666c.01384-.0498-.00648-.103-.04935-.1293-.04288-.0262-.09739-.0188-.13241.0179-.25337.2515-.65159.2515-.90496 0l-3.95008-4.11729c-.24984-.26034-.24984-.68234 0-.94267l7.04-7.33333c.11982-.12523.28275-.19532.45248-.19467h4.27011c.1767 0 .32.14924.32.33333v4.44667.05c-.0034.04635.0119.09208.0423.12613s.073.05334.1177.0532h.0077c.302-.00064.6019.05211.887.156.0457.01709.0964.01144.1376-.01533.0411-.02644.0686-.07076.0749-.12067.0097-.08272.0146-.16598.0147-.24933v-4.78c0-.736378-.5731-1.33333194-1.28-1.33333194h-4.59201c-.50948-.00151153-.99834.20952494-1.35744.58599994l-7.04 7.333332c-.749533.781-.749533 2.047 0 2.82796l3.95008 4.1147c.3598.3752.84831.5856 1.35744.5847.04608 0 .09216 0 .13824-.0054.0679-.0047.12531-.0541.14272-.1226z"/><path d="m12.4961 7.87265c-.0612.06208-.096.14705-.0967.236 0 .08915.0338.17469.0941.238l1.92 1.99995c.0675.0583.1538.0876.2413.082.0909-.0056.1767-.0456.2413-.1126.6534-.68318.6534-1.78819 0-2.47135-.6711-.68035-1.7438-.66783-2.4.028z"/></svg>