<svg viewBox="0 0 16 16" xmlns="http://www.w3.org/2000/svg"><g clip-rule="evenodd" fill-rule="evenodd"><path d="m12.7607 5.60867-.6274.64c-.0657.06544-.156.10006-.2486.09533-1.517-.07167-2.99243.50758-4.05547 1.59214-1.06305 1.08456-1.61261 2.57126-1.51056 4.08656.00749.0926-.02531.1839-.09.2506l-.70133.714c-.24674.2544-.58561.3986-.94.4h-.008c-.3516.0011-.68906-.1383-.93734-.3873l-3.223331-3.22533c-.250165-.25007-.3907149-.58929-.3907149-.943 0-.35372.1405499-.69294.3907149-.943l7.216671-7.21867c.44563-.398633 1.01366-.6337437 1.61066-.66666667l2.8387-.00333333c.7363 0 1.3333.596954 1.3333 1.33333v2.66667c-.0326.59475-.2641 1.1613-.6573 1.60867zm-3.00936-3.27534c-.73638 0-1.33334.59696-1.33334 1.33334s.59696 1.33333 1.33334 1.33333c.73636 0 1.33336-.59695 1.33336-1.33333s-.597-1.33334-1.33336-1.33334z"/><path d="m7.30536 11.6667c0-2.39323 1.9401-4.33333 4.33334-4.33333 2.392.00294 4.3304 1.94132 4.3333 4.33333 0 2.3932-1.9401 4.3333-4.3333 4.3333-2.39324 0-4.33334-1.9401-4.33334-4.3333zm3.77404 2.1167h.0746v-.0007c.2911-.02.559-.1661.7334-.4l1.9333-2.5827c.1657-.2209.1209-.5343-.1-.7-.2209-.16564-.5343-.12087-.7.1l-1.8193 2.4294c-.0291.0385-.0735.0626-.1216.066-.0482.0035-.0955-.014-.1298-.048l-.8666-.8667c-.12552-.13-.31139-.1822-.48623-.1366-.17484.0457-.31142.1822-.35726.357-.04584.1747.0062.3607.13611.4863l.99998 1c.1856.1885.4388.2951.7034.296z"/></g></svg>