<svg viewBox="0 0 16 16" xmlns="http://www.w3.org/2000/svg"><path d="m4.66719 1.00175c.86427.02172 1.68969.36443 2.31613.96166l7.33378 7.35109c.1642.16822.2994.36267.4.57539.0185.03777.0506.06715.0897.08227.0392.01511.0826.01485.1216-.00074l.3461-.13833c.1767-.0603.3347-.16588.4581-.30626.1235-.14037.2082-.31067.2457-.494.0376-.18332.0266-.3733-.0317-.55108-.0583-.17777-.162-.33717-.3008-.46238l-7.33373-7.351089c-.439-.408863-1.00993-.6460281-1.60876-.668281h-3.33353c-.25172.00009476-.49821.0719647-.71071.207218-.21249.135254-.38222.32831-.48936.556627-.0122.025318-.01774.05334-.01611.081409s.01039.055254.02545.078979c.01502.023967.03587.043715.06059.057391.02473.013677.05251.020836.08075.020796z"/><path d="m13.6101 10.0235-7.33374-7.35113c-.44485-.40005-1.01266-.63582-1.60943-.66828h-3.33352c-.353643 0-.692801.14082-.942863.39147-.250063.25065-.390547.59061-.390547.94509v3.34141c.0324857.59815.267688 1.16727.666705 1.61323l7.333755 7.35111c.10418.1093.22894.1968.36706.2575.13812.0606.28687.0933.43765.096.06941.0001.13866-.0069.20668-.0207.18195-.0406.35072-.1266.4906-.2501.13987-.1235.24632-.2805.30944-.4563l.92671-2.3216c.0168-.0419.0418-.08.0737-.1119s.0698-.0571.1117-.0739l2.3168-.9289c.1767-.0603.3346-.1659.4581-.3062.1235-.1404.2082-.3107.2457-.494.0376-.1834.0266-.3733-.0317-.5511s-.162-.3372-.3008-.4624zm-9.94322-3.34144c-.1978 0-.39115-.05879-.55561-.16894-.16445-.11015-.29263-.26671-.36833-.44987-.07569-.18317-.09549-.38473-.05691-.57918.03859-.19445.13384-.37306.2737-.51325.13986-.1402.31805-.23567.51204-.27435.194-.03867.39508-.01882.57781.05705.18274.07587.33893.20435.44881.3692.10989.16485.16854.35865.16854.55692 0 .26585-.10536.52082-.29291.70881-.18754.18799-.44191.29361-.70714.29361z"/></svg>