<svg viewBox="0 0 24 24" xmlns="http://www.w3.org/2000/svg"><path d="M17.762 22H2.402a.49.49 0 0 0-.48.5c0 .828.645 1.5 1.44 1.5h13.44c.795 0 1.44-.672 1.44-1.5a.49.49 0 0 0-.48-.5Z"/><path fill-rule="evenodd" clip-rule="evenodd" d="M17.76 7.5c-.649 0-1.292.125-1.898.367-.22.089-.453.134-.69.133H.96a.964.964 0 0 0-.91.684c-.131.408.003.858.334 1.116l1.747 1.373c.443.35.655.933.546 1.5a44.51 44.51 0 0 0-.737 7.32.511.511 0 0 0 .136.361.47.47 0 0 0 .344.151h15.316a.47.47 0 0 0 .345-.152.512.512 0 0 0 .135-.365c-.015-.5-.04-1-.072-1.5 2.85-.195 5.034-2.715 4.93-5.688-.104-2.973-2.458-5.32-5.314-5.3Zm-6.24 9c0 .829-.645 1.5-1.44 1.5-.795 0-1.44-.671-1.44-1.5V12c0-.828.645-1.5 1.44-1.5.795 0 1.44.672 1.44 1.5v4.5Zm8.442-.856A3.564 3.564 0 0 0 21.12 13a3.56 3.56 0 0 0-1.223-2.705 3.262 3.262 0 0 0-2.783-.734.48.48 0 0 0-.32.234.518.518 0 0 0-.047.405c.55 1.892.941 3.83 1.17 5.791a.505.505 0 0 0 .198.345c.11.08.246.11.378.081a3.277 3.277 0 0 0 1.47-.773Z"/><path d="M15.447 5.818c-.623-1.683-1.944-2.98-3.593-3.531a.498.498 0 0 1-.334-.476V1.5c0-.828-.645-1.5-1.44-1.5-.795 0-1.44.672-1.44 1.5v.311c0 .217-.135.41-.334.476-1.649.55-2.97 1.848-3.593 3.531a.518.518 0 0 0 .05.464c.09.137.238.218.397.218H15a.475.475 0 0 0 .397-.218.518.518 0 0 0 .05-.464Z"/></svg>
