<svg viewBox="0 0 20 20" xmlns="http://www.w3.org/2000/svg"><path clip-rule="evenodd" d="m19.1667 9.16667c.4602 0 .8333.37309.8333.83333 0 .4602-.3731.8333-.8333.8333h-1.6517c-.0847-.0008-.1614.0497-.1942.1278-.0327.0781-.0149.1683.045.2281l1.1384 1.1383c.3158.327.3113.8467-.0102 1.1682-.3214.3214-.8412.3259-1.1682.0101l-2.4283-2.4283c-.1562-.1563-.3682-.2441-.5892-.2442h-.3333c-.184-.0005-.3466.1197-.4.2959-.0655.2096-.1492.4132-.25.6083-.0844.1613-.0544.3586.0742.4875l3.9666 3.9667c.3158.3269.3113.8467-.0101 1.1681-.3215.3215-.8412.326-1.1682.0102l-3.9667-3.9667c-.1288-.1285-.3262-.1585-.4875-.0741-.195.1009-.3986.1846-.6083.25-.1736.0546-.2917.2155-.2917.3975v.3333c.0001.221.0879.4329.2442.5892l2.4283 2.4283c.3158.327.3113.8467-.0101 1.1682-.3215.3214-.8412.3259-1.1682.0101l-1.1383-1.1383c-.0596-.0597-.1494-.0776-.2273-.0453-.078.0323-.1287.1084-.1286.1928v1.6517c0 .4602-.3731.8333-.8333.8333-.46024 0-.83333-.3731-.83333-.8333v-1.6517c.00015-.0844-.05061-.1605-.12856-.1928s-.16769-.0144-.22728.0453l-1.13833 1.1383c-.20923.2167-.51907.3035-.81042.2273-.29136-.0763-.5189-.3038-.59516-.5952-.07626-.2913.01062-.6012.22725-.8104l2.42416-2.4325c.15629-.1562.24412-.3682.24417-.5892v-.3333c.00001-.182-.11807-.3429-.29167-.3975-.2097-.0654-.41326-.149-.60833-.25-.16126-.0844-.35864-.0544-.4875.0742l-3.96667 3.9666c-.20923.2167-.51906.3035-.81042.2273-.29136-.0763-.51889-.3038-.59516-.5952-.07626-.2913.01062-.6012.22725-.8104l3.96667-3.9667c.12854-.1288.15857-.3262.07416-.4875-.10096-.195-.18462-.3986-.25-.6083-.05459-.1736-.21552-.2917-.3975-.2917h-.33333c-.221.0001-.43292.0879-.58917.2442l-2.42833 2.4283c-.20923.2167-.51906.3035-.81042.2273-.29136-.0763-.5189-.3038-.59516-.5952-.07626-.2913.01062-.6012.22725-.8104l1.13833-1.1383c.05974-.0596.07764-.1494.04533-.2273-.03231-.078-.10845-.1287-.19283-.1286h-1.651667c-.460237 0-.833333-.3731-.833333-.8333 0-.46024.373096-.83333.833333-.83333h1.651667c.08438.00015.16052-.05061.19283-.12856s.01441-.16769-.04533-.22728l-1.13833-1.13833c-.21663-.20923-.30351-.51907-.22725-.81042.07626-.29136.3038-.5189.59516-.59516s.60119.01062.81042.22725l2.43 2.42833c.15624.15629.36817.24412.58917.24417h.33333c.1829.0011.34513-.11719.4-.29167.06538-.2097.14903-.41326.25-.60833.08441-.16126.05438-.35864-.07417-.4875l-3.96666-3.96667c-.32654-.32539-.32747-.85388-.00209-1.18042.32539-.32654.85388-.32747 1.18042-.00208l3.96667 3.96667c.12886.12854.32624.15857.4875.07416.19507-.10096.39863-.18462.60833-.25.17359-.05459.29168-.21552.29167-.3975v-.33333c-.00005-.221-.08788-.43292-.24417-.58917l-2.42833-2.42833c-.31581-.32698-.3113-.84674.01015-1.16818.32144-.32145.8412-.32596 1.16818-.01015l1.13833 1.13833c.05959.05974.14933.07764.22728.04533s.12871-.10845.12856-.19283v-1.651667c0-.460237.37309-.833333.83333-.833333.4602 0 .8333.373096.8333.833333v1.651667c-.0001.08438.0506.16052.1286.19283.0779.03231.1677.01441.2273-.04533l1.1383-1.13667c.327-.31581.8467-.31129 1.1682.01015.3214.32145.3259.8412.0101 1.16819l-2.4283 2.42833c-.1563.15624-.2441.36817-.2442.58917v.33333c-.0005.18403.1197.34663.2959.4.2097.06538.4132.14903.6083.25.1613.08441.3586.05438.4875-.07417l3.9667-3.96666c.3269-.31581.8467-.3113 1.1681.01015.3215.32144.326.8412.0102 1.16818l-3.9667 3.96667c-.1285.12886-.1585.32624-.0741.4875.1009.19507.1846.39863.25.60833.0546.17359.2155.29168.3975.29167h.3333c.221-.00005.4329-.08788.5892-.24417l2.4283-2.42833c.2092-.21663.5191-.30351.8104-.22725.2914.07626.5189.3038.5952.59516.0762.29135-.0106.60119-.2273.81042l-1.1383 1.13833c-.0597.05959-.0776.14933-.0453.22728s.1084.12871.1928.12856zm-11.25003.83333c0 1.1506.93274 2.0833 2.08333 2.0833 1.1506 0 2.0833-.9327 2.0833-2.0833 0-1.15059-.9327-2.08333-2.0833-2.08333-1.15059 0-2.08333.93274-2.08333 2.08333z" fill-rule="evenodd"/></svg>