<svg xmlns="http://www.w3.org/2000/svg" viewBox="0 0 12.2 18.6"><path d="M3.797 4.402c0-.625.485-1.126 1.087-1.126s1.087.501 1.087 1.126-.484 1.126-1.087 1.126-1.087-.502-1.087-1.126z"/><path d="M.714 9.797a.705.705 0 00.346.91.632.632 0 00.267.062.662.662 0 00.613-.42 7.468 7.468 0 011.087-1.822c-.06.44-.119.88-.168 1.32-.01.052-.01.103-.01.144-.01.03-.02.072-.03.113L1.93 15.2c-.158.88 1.166 1.127 1.324.246l.741-4.238h.149c1.225 1.044 1.512 2.242.87 3.655a.703.703 0 00.325.921.68.68 0 00.9-.338c.88-1.934.474-3.777-1.117-5.21.118-.973.257-1.945.415-2.908a6.162 6.162 0 003.261-1.566h.544V0H4.569L6.12 1.402l-1.551 1.28h4.21v1.894a.641.641 0 00-.811.082c-.84.808-1.957 1.3-3.073 1.34-.03 0-.05.011-.08.011l-.494-.082a.642.642 0 00-.602.082A8.915 8.915 0 00.714 9.797z"/></svg>
