<svg viewBox="0 0 16 16" xmlns="http://www.w3.org/2000/svg"><path d="M15.165 0h-4a.5.5 0 00-.5.5V6.262a.5.5 0 001 0V4h3.5a.5.5 0 00.5-.5v-3a.5.5 0 00-.5-.5zM14 11H9a1.001 1.001 0 010-2h1.092A1.496 1.496 0 0013 8.5a1.495 1.495 0 00-2.908-.5H9c-1.103 0-2 .897-2 2s.897 2 2 2h5a1 1 0 010 2H4.908A1.496 1.496 0 002 14.5a1.495 1.495 0 002.908.5H14c1.103 0 2-.897 2-2s-.897-2-2-2z"/><path d="M3.5 2.585c-1.93 0-3.5 1.57-3.5 3.5 0 2.596 2.808 5.74 3.128 6.096a.502.502 0 00.744 0C4.192 11.824 7 8.681 7 6.085c0-1.93-1.57-3.5-3.5-3.5zm0 5a1.5 1.5 0 11.001-3 1.5 1.5 0 01-.001 3z" /></svg>