<svg xmlns="http://www.w3.org/2000/svg" viewBox="0 0 12.2 18.6"><path d="M3.212 2.508c.72 0 1.304-.561 1.304-1.254S3.932 0 3.212 0c-.72 0-1.304.561-1.304 1.254s.584 1.254 1.304 1.254zM9.623 10.47h-.281V8.864h.23a.122.122 0 00.125-.12v-.398a.122.122 0 00-.125-.12H7.937a.593.593 0 00-.256-.707L6.39 6.727l-.01-1.63c-.005-.786-.673-1.425-1.49-1.425H1.512c-.817 0-1.485.639-1.489 1.425L0 9.542a.617.617 0 00.626.608h.003a.618.618 0 00.63-.602l.023-4.445a.12.12 0 01.121-.117.12.12 0 01.122.117v10.172c0 .4.338.726.755.726s.755-.325.755-.726V9.47h.326v5.804c0 .4.338.726.755.726s.755-.325.755-.726c0-9.476-.013-4.283-.014-10.168a.13.13 0 01.13-.126.13.13 0 01.134.122l.012 1.96a.6.6 0 00.291.507l1.423.872v.302c0 .066.056.12.124.12h.23v1.606h-.28a.37.37 0 00-.377.364v4.164c0 .2.169.363.377.363h.28v.392c0 .137.116.248.258.248.142 0 .258-.111.258-.248v-.392h1.11v.392c0 .137.115.248.257.248.143 0 .258-.111.258-.248v-.392h.28a.37.37 0 00.378-.363v-4.164a.37.37 0 00-.377-.364zm-.796 0h-1.11V8.864h1.11v1.607z"/></svg>
