<svg viewBox="0 0 24 24" xmlns="http://www.w3.org/2000/svg"><path d="M1.125 20a.5.5 0 0 0-.5.5v2a1.5 1.5 0 0 0 1.5 1.5h11a1.5 1.5 0 0 0 1.5-1.5v-2a.5.5 0 0 0-.5-.5h-13ZM23.375 5.25a1.992 1.992 0 0 0-3.589-1.2.5.5 0 0 1-.4.2h-4.261a.5.5 0 0 1-.5-.5v-.5a1.25 1.25 0 0 1 2.412-.462A1.002 1.002 0 1 0 18.9 2.05 3.236 3.236 0 0 0 15.875 0h-12a3.254 3.254 0 0 0-3.25 3.25V18a.5.5 0 0 0 .5.5h13a.5.5 0 0 0 .5-.5v-1.5a.5.5 0 0 1 .5-.5h2.5a1.5 1.5 0 0 0 1.5-1.5V8.75a1 1 0 1 0-2 0v4.75a.5.5 0 0 1-.5.5h-1.5a.5.5 0 0 1-.5-.5V6.75a.5.5 0 0 1 .5-.5h4.261a.5.5 0 0 1 .4.2 1.992 1.992 0 0 0 3.589-1.2Z"/></svg>