<svg xmlns="http://www.w3.org/2000/svg" viewBox="0 0 16 16"><path fill-rule="evenodd" clip-rule="evenodd" d="m15.34 14.17-1.88-1.09a.16.16 0 0 1-.04-.24c.16-.19.25-.43.25-.68V8.28l-.34-3.8c0-1.06-.9-1.92-2-1.92h-1.16A.16.16 0 0 1 10 2.4v-.96c0-.09.07-.16.17-.16H11c.37 0 .67-.29.67-.64 0-.35-.3-.64-.67-.64H5a.65.65 0 0 0-.67.64c0 .35.3.64.67.64h.83c.1 0 .17.07.17.16v.96c0 .09-.08.16-.17.16H4.67c-1.09 0-1.98.82-2 1.87l-.34 3.85v3.88c0 .25.1.5.25.69.03.04.05.08.04.13a.16.16 0 0 1-.08.1l-1.88 1.1a.64.64 0 0 0-.34.56c0 .23.14.44.35.55.21.11.47.1.67-.02l3.41-1.96a.18.18 0 0 1 .1-.03h6.3c.04 0 .07.01.1.03l3.4 1.96c.21.12.47.13.68.02a.64.64 0 0 0 .35-.55.64.64 0 0 0-.34-.57Zm-8-12.73c0-.09.07-.16.16-.16h1c.1 0 .17.07.17.16v.96c0 .09-.08.16-.17.16h-1a.16.16 0 0 1-.17-.16v-.96ZM4 10.56c0 .53.45.96 1 .96s1-.43 1-.96a.98.98 0 0 0-1-.96c-.55 0-1 .43-1 .96Zm7 .96c-.55 0-1-.43-1-.96s.45-.96 1-.96 1 .43 1 .96-.45.96-1 .96Zm1.1-3.84a.2.2 0 0 0 .12-.05.15.15 0 0 0 .04-.12L12 4.53a.64.64 0 0 0-.18-.48.7.7 0 0 0-.49-.21H4.67a.65.65 0 0 0-.67.64l-.26 3.03c0 .04.01.09.04.12s.08.05.12.05h8.2Z" fill="#000"/></svg>