<svg xmlns="http://www.w3.org/2000/svg" viewBox="0 0 24 24"><path fill-rule="evenodd" d="M15.84 6.3c0 .11.07.21.18.24.74.2 1.26.9 1.26 1.69v2c0 .8-.52 1.49-1.26 1.68a.25.25 0 00-.18.25v4.06c0 1.02-.5 1.97-1.33 2.51a.25.25 0 00-.11.22v1.28c0 .96-.75 1.75-1.68 1.75-.93 0-1.68-.79-1.68-1.75v-.76c0-.14-.1-.25-.24-.25H6.48a.25.25 0 00-.24.25v.76c0 .96-.75 1.75-1.68 1.75-.93 0-1.68-.79-1.68-1.75v-1.28a.25.25 0 00-.11-.22 3.02 3.02 0 01-1.33-2.5v-4.07a.25.25 0 00-.18-.25C.52 11.71 0 11.02 0 10.23v-2c0-.8.52-1.5 1.26-1.69.1-.03.18-.13.18-.24V5.22c0-1.65 1.29-3 2.88-3h8.64c1.6 0 2.88 1.35 2.88 3V6.3zM4.32 16.48h.96c.4 0 .72-.34.72-.75a.74.74 0 00-.72-.75h-.96c-.4 0-.72.33-.72.75 0 .41.32.75.72.75zm8.64 0H12a.74.74 0 01-.72-.75c0-.42.32-.75.72-.75h.96c.4 0 .72.33.72.75 0 .41-.32.75-.72.75zm.72-3.5c.13 0 .24-.12.24-.26v-7.5c0-.55-.43-1-.96-1H4.32a.98.98 0 00-.96 1v7.5c0 .14.1.25.24.25h10.08z" clip-rule="evenodd"/><path d="M20.4 8.23c-1.24 0-2.31.9-2.58 2.15a2.78 2.78 0 001.48 3.09c.08.04.14.13.14.23v7.28c0 .55.43 1 .96 1s.96-.45.96-1V13.7c0-.1.05-.19.14-.23a2.78 2.78 0 001.48-3.08 2.66 2.66 0 00-2.58-2.16z"/></svg>
