<svg xmlns="http://www.w3.org/2000/svg" viewBox="0 0 24 24"><path fill-rule="evenodd" clip-rule="evenodd" d="M24 9.55a1 1 0 0 1-.8.98 1.5 1.5 0 0 0 0 2.94c.47.1.8.5.8.98v4.05c0 .83-.67 1.5-1.5 1.5h-21A1.5 1.5 0 0 1 0 18.5v-4.05a1 1 0 0 1 .8-.98 1.5 1.5 0 0 0 0-2.94 1 1 0 0 1-.8-.98V5.5C0 4.67.67 4 1.5 4h21c.83 0 1.5.67 1.5 1.5v4.05ZM4.5 17.5a.75.75 0 1 0 1.5 0 .75.75 0 0 0-1.5 0Zm.75-2.92a.75.75 0 1 1 0-1.5.75.75 0 0 1 0 1.5Zm-.75-4.41a.75.75 0 1 0 1.5 0 .75.75 0 0 0-1.5 0Zm.75-2.92a.75.75 0 1 1 0-1.5.75.75 0 0 1 0 1.5Zm6.94 8.19 6.76-4.2a1.17 1.17 0 0 0 .48-1.4 1.18 1.18 0 0 0-.85-.76c-.3-.07-.62-.01-.88.16l-1.78 1.22a.5.5 0 0 1-.46.06L11.4 9a.29.29 0 0 0-.27.04l-.77.57a.29.29 0 0 0-.01.44l2.81 1.74a.25.25 0 0 1 .01.42l-1.07.75a.5.5 0 0 1-.55.02l-1.02-.61a.23.23 0 0 0-.22.04l-1.04.91a.23.23 0 0 0 0 .36l2.47 1.75c.14.1.32.1.46 0Z"/></svg>