<svg viewBox="0 0 12.2 18.6" xmlns="http://www.w3.org/2000/svg"><path d="m7.5 7.3c-.3.7-.7 1.3-1 2 .5.7 1.4 1.5 1.9 2.2.6.8 1 1.7 1.1 2.8.1 1.3.2 2.3.3 3.5 0 .4-.4.8-.8.8s-1.1-.2-1.1-.6c-.3-1.4-.5-2.8-.8-4.2-.1-.3-.2-.6-.4-.8-.8-.8-1.6-1.7-2.4-2.5-.7-.6-.8-1.2-.6-2 .1-.2.2-.5.3-.7.5-1 1.1-2 1.6-3 .2-.4.3-.5.5-.8.3-.3.6-.3 1-.2.3.1.4.2.6.4.4.2.7.4.8.8.3.8.4 1.2.8 1.9.1.3.7.7 1 .8.6.3.8.3 1.4.6.5.2.5.7.4 1.1s-.7.5-1 .4c-.8-.2-1.1-.3-1.8-.5-.2-.1-.9-.6-1-.8-.4-.4-.5-.7-.8-1.2zm-5.4 2.9c-.1 0-.2 0-.3 0 0-.5.1-.9.2-1.3-.2-.1-.3-.1-.4-.2-.3.5-.5 1-.8 1.5-.1-.1-.3-.1-.3-.2.2-.4.5-.9.8-1.3-.2-.1-.2-.1-.3-.1-.9-.4-1.1-.7-1-1.8.1-.9.6-1.6 1.1-2.4.1-.2.2-.3.3-.4.5-.9 1.4-1.3 2.4-1.4h.3c.4.2.9.4 1.4.6-1.8 2-2.9 4.3-3.4 7zm1.7.9c.5.5 1.1 1 1.6 1.6.1.1.1.2 0 .3-.2.7-.3 1.4-.6 2-.1.2-.4.8-.6 1-1 1-1.6 1.4-2.6 2.3-.3.3-1 .2-1.3-.1-.3-.3-.5-1-.1-1.4.7-.7 1.3-1.2 2.1-1.9.3-.3.5-.6.7-1 .4-.9.6-1.6.8-2.5 0 0 0-.1 0-.3zm3.3-9.3c0-1 .8-1.8 1.9-1.8 1 0 1.9.9 1.8 1.9 0 1-.8 1.8-1.9 1.8s-1.8-.8-1.8-1.9z"/></svg>
