<svg viewBox="0 0 20 20" xmlns="http://www.w3.org/2000/svg"><path d="M3.55827 10.3999c1.38071 0 2.5-1.07451 2.5-2.39999 0-.66274-.55964-1.2-1.25-1.2-.23012 0-.41666-.17909-.41666-.4 0-.88366-.7462-1.6-1.66667-1.6-.07467-.00005-.14319-.0397-.17811-.10306-.03492-.06336-.03052-.14005.01144-.19934.92888-1.31124 2.47321-2.09655 4.125-2.0976.57258-.00045 1.14085.09512 1.67917.2824.14824.05215.25305.18025.2707.33087.01765.15061-.0549.29787-.18737.38033-.70916.44025-1.13743 1.19566-1.1375 2.0064 0 .66274.55965 1.2 1.25 1.2.23012 0 .41667.17909.41667.4 0 .88366.74619 1.6 1.66666 1.6h.8583c.1196-.00006.2334.04918.3125.1352.1191.13211.2818.22105.4609.252.4528.07863.8864-.21005.9683-.6448.4536-2.38604-.5367-4.81323-2.5578-6.26869C8.66272.618163 5.95828.384548 3.69903 1.47027 1.43978 2.55599.013976 4.77446.016605 7.19991.020518 9.50064 1.30643 11.6235 3.38744 12.7647c.39995.2187.90885.0848 1.13667-.2992.22781-.3839.08828-.8725-.31167-1.0912-.29195-.1611-.56565-.3509-.81667-.5664-.07546-.0645-.1015-.1672-.06539-.2578.0361-.0907.12681-.1504.22789-.1502z"/><path d="M19.184 8.96471c-.0052-.0164-.0224-.0264-.04-.0232L6.13654 10.9231c-.33883.0514-.61027.2968-.68395.6184-.07367.3216.06548.6537.35062.8368l2.66083 1.7112c.12616.0812.28837.0901.42334.0232L19.1665 9.00711c.0159-.0081.0233-.02606.0175-.0424zM19.9565 10.0526c-.0327-.0347-.0856-.0442-.1292-.0232l-9.86913 4.9024c-.20271.1004-.28368.3386-.18166.5344l2.13169 4.092c.1324.2538.3949.4213.69.44h.055c.2778.0003.5375-.1323.6925-.3536l6.6191-9.468c.0267-.0384.0233-.0892-.0083-.124z"/></svg>
