<svg viewBox="0 0 531 469.3"><path d="m350 366-81.5-40.8c-7.7-3.8-12.5-11.6-12.5-20.2v-28.9c2-2.4 4-5.1 6.1-8.1 10.6-14.9 19-31.6 25.2-49.5 12-5.5 19.9-17.4 19.9-30.9v-34.1c0-8.2-3.1-16.2-8.5-22.4v-45.3c.5-4.7 2.4-32.6-17.9-55.7-17.5-20-46-30.1-84.5-30.1s-67 10.1-84.5 30.1c-20.2 23-18.3 51-17.9 55.7v45.4c-5.5 6.2-8.5 14.2-8.5 22.4v34.1c0 10.4 4.7 20.1 12.8 26.5 7.8 31 24.2 54.3 29.9 61.8v28.2c0 8.3-4.5 15.8-11.8 19.8l-76.1 41.5c-24.8 13.6-40.2 39.5-40.2 67.7v36.2h392.5v-34.5c0-29.4-16.3-55.8-42.5-68.9z"/><path d="m492.3 375.7-83-35.9c-2-1-4.1-3.4-6-6.6h55.7s3.2.3 8.2.3c9.2 0 22.5-1 34.1-6 7-3 12.2-8.9 14.2-16.3 2.1-7.4.8-15.2-3.6-21.5-15.9-22.6-53.1-81.8-54.2-141.8 0-1-3.4-103.1-104.2-103.9-10.1.1-19.7 1.3-28.8 3.5 6.8 17.9 6.1 33.9 5.7 39v40.4c5.5 7.9 8.5 17.2 8.5 26.8v34.1c0 16.3-8.6 31.3-22.2 39.8-6.4 17.3-14.8 33.4-25.2 48-1.3 1.8-2.5 3.5-3.8 5.2v24.2c0 3.8 2 7 5.4 8.7l81.5 40.8c30.6 15.3 49.6 46.1 49.6 80.3v34.5h106.8v-31.5c0-26.4-14.7-50.1-38.7-62.1z"/></svg>