<svg enable-background="new 0 0 22.2 22" viewBox="0 0 22.2 22" xmlns="http://www.w3.org/2000/svg"><path d="m20.1 6.7h-5.9s0 0-.1 0c-.9-.1-1.7-.8-2.1-1.7-.3-.9-.1-2 .6-2.7.5-.3 1-.5 1.4-.6.1 0 .2-.1.3-.2.7-1 1.7-1.5 2.7-1.5 1.4 0 2.7 1 3.2 2.4.1.2.2.3.4.3.9.2 1.6 1 1.6 2 0 .5-.2 1-.5 1.4-.5.4-1 .6-1.6.6zm-19.4-1c.4-.4.9-.6 1.3-.7.1 0 .2-.1.3-.2.7-.9 1.7-1.5 2.7-1.4 1.4 0 2.7 1 3.2 2.4.1.1.2.2.4.2.9.2 1.6 1 1.6 2 0 .5-.2 1-.5 1.4-.4.4-1 .6-1.5.6h-6s0 0-.1 0c-.9 0-1.7-.7-2-1.6-.3-1 0-2 .6-2.7zm5.2 13.3c0 .2-.2.4-.4.4-.4 0-.7.3-.7.7s.3.7.7.7h2.1c.2.7.8 1.2 1.5 1.2s1.4-.3 1.7-.9c.1-.1.2-.2.4-.2h5.7c.2 0 .3.1.4.2.3.6.9 1 1.6 1s1.3-.4 1.6-1c.1-.1.2-.2.4-.2h.3c.5 0 .9-.4.9-.8.2-1 0-2-.6-2.7-.5-.6-1.2-.9-2-1-.2 0-.3-.1-.4-.3l-.2-.5c-1.1-2.6-3.6-4.3-6.3-4.3-3.2 0-5.9 2.4-6.4 5.7zm4-2.9c-.2 0-.3-.1-.4-.2s-.1-.3 0-.5c.6-1.3 1.9-2.2 3.3-2.2s2.7.9 3.3 2.2c.1.1.1.3 0 .5-.1.1-.2.2-.4.2z"/></svg>