<svg viewBox="0 0 20 20" fill="none" xmlns="http://www.w3.org/2000/svg">
<path d="M10.094 9.26932C10.1468 9.22706 10.1735 9.1602 10.1643 9.09322C10.1552 9.02623 10.1116 8.96897 10.0494 8.9424L9.34862 8.6424C9.27785 8.61202 9.2319 8.54249 9.2317 8.46547V7.5924C9.23198 7.54128 9.25244 7.49235 9.28862 7.45624C9.69286 6.97779 9.90624 6.36695 9.88785 5.74086C9.89085 5.68812 9.91531 5.63892 9.95555 5.6047C10.2375 5.31904 10.3875 4.92873 10.3694 4.52778C10.3808 4.24717 10.2946 3.97128 10.1255 3.74701C10.0786 3.68966 10.0684 3.61052 10.0994 3.54316C10.2949 3.12867 10.3377 2.65844 10.2202 2.21547C9.95785 1.14778 8.64862 0.769319 7.60708 0.769319C6.67929 0.696682 5.7734 1.07588 5.17401 1.78778C5.13885 1.84405 5.07727 1.87832 5.01093 1.87855C4.74726 1.85812 4.48978 1.9654 4.31862 2.16701C4.03247 2.54624 4.23708 3.06778 4.45401 3.49932C4.49073 3.57315 4.47651 3.66214 4.41862 3.72086C4.3721 3.76789 4.33035 3.81943 4.29401 3.8747C4.15723 4.09718 4.08752 4.35438 4.09324 4.61547C4.06962 5.01849 4.25504 5.40531 4.58401 5.63932C4.63621 5.67174 4.66968 5.72725 4.67401 5.78855C4.66984 6.40864 4.9023 7.00699 5.32401 7.46163C5.36319 7.49796 5.38548 7.54896 5.38555 7.6024V8.46547C5.38568 8.54237 5.34 8.61195 5.26939 8.6424L2.24093 9.94009C1.26247 10.3601 1.1217 11.2509 0.927853 12.4847C0.885545 12.7609 0.837853 13.0624 0.774007 13.3916C0.753126 13.5044 0.783684 13.6207 0.857341 13.7086C0.930998 13.7965 1.04007 13.847 1.15478 13.8462H7.89093C7.94386 13.8463 7.99448 13.8246 8.03087 13.7862C8.06726 13.7477 8.0862 13.696 8.08324 13.6432C8.08324 13.5832 8.07708 13.5224 8.07708 13.4616C8.07797 11.8304 8.82003 10.288 10.094 9.26932Z" fill="#336699"/>
<path fill-rule="evenodd" clip-rule="evenodd" d="M17.0308 15.7292C16.9816 15.8049 16.9922 15.9048 17.0562 15.9685L19.0055 17.9177C19.2054 18.1108 19.2856 18.3968 19.2152 18.6658C19.1448 18.9347 18.9348 19.1448 18.6659 19.2151C18.3969 19.2855 18.1109 19.2053 17.9178 19.0054L15.9685 17.0561C15.9048 16.9924 15.8053 16.9816 15.7293 17.03C13.9041 18.1907 11.4978 17.7917 10.1449 16.104C8.79196 14.4164 8.92597 11.981 10.4559 10.4519C11.9858 8.92291 14.4213 8.79034 16.1082 10.1443C17.795 11.4982 18.1926 13.9047 17.0308 15.7292ZM12.4321 10.9742C11.426 11.3909 10.7701 12.3726 10.7701 13.4615C10.7701 14.9485 11.9755 16.1538 13.4624 16.1538C14.5513 16.1538 15.533 15.4979 15.9498 14.4918C16.3665 13.4858 16.1361 12.3278 15.3661 11.5578C14.5961 10.7878 13.4381 10.5574 12.4321 10.9742Z" fill="#336699"/>
</svg>
