<svg viewBox="0 0 20 21" xmlns="http://www.w3.org/2000/svg">
<path fill-rule="evenodd" clip-rule="evenodd" d="M9.59961 15.5749C9.59961 12.5833 11.9277 10.1582 14.7996 10.1582C17.67 10.1619 19.9961 12.5849 19.9996 15.5749C19.9996 18.5664 17.6715 20.9915 14.7996 20.9915C11.9277 20.9915 9.59961 18.5664 9.59961 15.5749ZM11.4736 17.0099C12.0309 18.4112 13.3435 19.3249 14.7996 19.3249C16.7869 19.3226 18.3974 17.645 18.3996 15.5749C18.3996 14.0581 17.5225 12.6908 16.1773 12.1103C14.832 11.5299 13.2836 11.8507 12.254 12.9232C11.2244 13.9957 10.9164 15.6087 11.4736 17.0099Z" />
<path d="M17.2 15.5745C17.2 15.1143 16.8418 14.7412 16.4 14.7412H15.8C15.6895 14.7412 15.6 14.6479 15.6 14.5329V13.6995C15.6 13.2393 15.2418 12.8662 14.8 12.8662C14.3582 12.8662 14 13.2393 14 13.6995V15.5745C14 16.0348 14.3582 16.4079 14.8 16.4079H16.4C16.8418 16.4079 17.2 16.0348 17.2 15.5745Z" fill="#336699"/>
<path fill-rule="evenodd" clip-rule="evenodd" d="M10.3984 5.15788C10.3984 7.45906 8.60758 9.32454 6.39844 9.32454C4.19039 9.32179 2.40108 7.45792 2.39844 5.15788C2.39844 2.85669 4.1893 0.991211 6.39844 0.991211C8.60758 0.991211 10.3984 2.85669 10.3984 5.15788ZM4.31491 4.26035C4.19833 4.30952 4.11074 4.41293 4.07844 4.53954C4.02558 4.74105 3.99868 4.94898 3.99844 5.15788C4.00101 6.45651 4.95769 7.53686 6.20012 7.64416C7.44255 7.75147 8.55697 6.85 8.76484 5.56954C8.78231 5.43916 8.73959 5.30785 8.64964 5.21538C8.56012 5.12319 8.43415 5.08027 8.30964 5.09954C8.06361 5.13789 7.81521 5.15738 7.56644 5.15788C6.5431 5.15112 5.54135 4.85067 4.67124 4.28954C4.56347 4.222 4.43149 4.21119 4.31491 4.26035Z"/>
<path d="M9.95359 11.0084C9.9356 10.8906 9.87007 10.7866 9.77359 10.7225C8.18958 9.66601 6.22068 9.44738 4.45846 10.1323C2.69623 10.8172 1.34606 12.3259 0.813589 14.205C0.777336 14.3315 0.800793 14.4685 0.876819 14.5741C0.952844 14.6798 1.07244 14.7416 1.19919 14.7409H8.11119C8.30463 14.7408 8.47036 14.5966 8.50479 14.3984C8.69777 13.2739 9.16623 12.2205 9.86479 11.34C9.93891 11.248 9.97128 11.1271 9.95359 11.0084Z" />
</svg>
