<svg viewBox="0 0 20 20" xmlns="http://www.w3.org/2000/svg">
  <path d="M19.4 0H14.6C14.2688 0 14 0.28 14 0.625V7.82738C14 8.17238 14.2688 8.45238 14.6 8.45238C14.9312 8.45238 15.2 8.17238 15.2 7.82738V5H19.4C19.7312 5 20 4.72 20 4.375V0.625C20 0.28 19.7312 0 19.4 0Z" fill="black" />
  <path d="M17.5 13.75H11.25C10.5612 13.75 10 13.19 10 12.5C10 11.81 10.5612 11.25 11.25 11.25H12.615C12.8738 11.9762 13.56 12.5 14.375 12.5C15.41 12.5 16.25 11.66 16.25 10.625C16.25 9.59 15.41 8.75 14.375 8.75C13.56 8.75 12.8725 9.27375 12.615 10H11.25C9.87125 10 8.75 11.1213 8.75 12.5C8.75 13.8787 9.87125 15 11.25 15H17.5C18.19 15 18.75 15.56 18.75 16.25C18.75 16.94 18.19 17.5 17.5 17.5H6.135C5.87625 16.7738 5.19 16.25 4.375 16.25C3.34 16.25 2.5 17.09 2.5 18.125C2.5 19.16 3.34 20 4.375 20C5.19 20 5.8775 19.4762 6.135 18.75H17.5C18.8787 18.75 20 17.6287 20 16.25C20 14.8713 18.8787 13.75 17.5 13.75Z" fill="black" />
  <path d="M4.375 3.22998C1.9625 3.22998 0 5.19248 0 7.60498C0 10.849 3.51 14.7786 3.91 15.2249C4.02875 15.3561 4.1975 15.4324 4.375 15.4324C4.5525 15.4324 4.72125 15.3561 4.84 15.2249C5.24 14.7786 8.75 10.849 8.75 7.60498C8.75 5.19248 6.7875 3.22998 4.375 3.22998ZM4.375 9.47998C3.34 9.47998 2.5 8.63998 2.5 7.60498C2.5 6.56998 3.34 5.72998 4.375 5.72998C5.41 5.72998 6.25 6.56998 6.25 7.60498C6.25 8.63998 5.41 9.47998 4.375 9.47998Z" fill="black" />
</svg>