<svg viewBox="0 0 24 24" xmlns="http://www.w3.org/2000/svg">
<path fill-rule="evenodd" clip-rule="evenodd" d="M23 1.5C23 0.671573 22.3284 0 21.5 0H2.5C1.67157 0 1 0.671573 1 1.5V21C1.00029 21.3626 1.13374 21.7124 1.375 21.983C1.45562 22.0744 1.50007 22.1921 1.5 22.314V23C1.5 23.5523 1.94772 24 2.5 24C3.05228 24 3.5 23.5523 3.5 23C3.5 22.7239 3.72386 22.5 4 22.5H20C20.2761 22.5 20.5 22.7239 20.5 23C20.5 23.5523 20.9477 24 21.5 24C22.0523 24 22.5 23.5523 22.5 23V22.314C22.4999 22.1921 22.5444 22.0744 22.625 21.983C22.8663 21.7124 22.9997 21.3626 23 21V1.5ZM12 20.5H6.5C5.94772 20.5 5.5 20.0523 5.5 19.5C5.5 18.9477 5.94772 18.5 6.5 18.5H12C12.5523 18.5 13 18.9477 13 19.5C13 20.0523 12.5523 20.5 12 20.5ZM15 16.5C15.2761 16.5 15.5 16.2761 15.5 16V3C15.5 2.72386 15.2761 2.5 15 2.5H4C3.72386 2.5 3.5 2.72386 3.5 3V16C3.5 16.2761 3.72386 16.5 4 16.5H15ZM20.25 16.5C20.25 16.9142 19.9142 17.25 19.5 17.25C19.0858 17.25 18.75 16.9142 18.75 16.5V14.5C18.75 14.0858 19.0858 13.75 19.5 13.75C19.9142 13.75 20.25 14.0858 20.25 14.5V16.5ZM18.5 11.25H20.5C20.9142 11.25 21.25 10.9142 21.25 10.5C21.25 10.0858 20.9142 9.75 20.5 9.75H18.5C18.0858 9.75 17.75 10.0858 17.75 10.5C17.75 10.9142 18.0858 11.25 18.5 11.25ZM20.5 8.25H18.5C18.0858 8.25 17.75 7.91421 17.75 7.5C17.75 7.08579 18.0858 6.75 18.5 6.75H20.5C20.9142 6.75 21.25 7.08579 21.25 7.5C21.25 7.91421 20.9142 8.25 20.5 8.25ZM18.5 5.25H20.5C20.9142 5.25 21.25 4.91421 21.25 4.5C21.25 4.08579 20.9142 3.75 20.5 3.75H18.5C18.0858 3.75 17.75 4.08579 17.75 4.5C17.75 4.91421 18.0858 5.25 18.5 5.25Z"/>
</svg>
