<svg viewBox="0 0 20 23" xmlns="http://www.w3.org/2000/svg"><path d="M13.75 14.959c0 2.059-1.68 3.728-3.75 3.728-2.07 0-3.748-1.67-3.748-3.728 0-2.06 1.678-3.729 3.749-3.729 2.07 0 3.748 1.67 3.748 3.729Z"/><path d="M18.75 0H1.25C.918 0 .6.131.366.364a1.24 1.24 0 0 0-.366.88v4.04c0 .172.14.31.312.31h19.376a.312.312 0 0 0 .312-.31v-4.04c0-.33-.132-.647-.366-.88A1.253 1.253 0 0 0 18.75 0ZM5 4.04c-.331 0-.65-.13-.884-.364a1.239 1.239 0 0 1 0-1.758 1.253 1.253 0 0 1 2.134.88c0 .33-.132.645-.366.878A1.253 1.253 0 0 1 5 4.041Zm10.938-.31h-4.376a.938.938 0 0 1-.811-.466.928.928 0 0 1 0-.933.938.938 0 0 1 .811-.466h4.376c.334 0 .644.178.811.466a.928.928 0 0 1 0 .933.938.938 0 0 1-.811.466Zm3.75 3.108H.311a.312.312 0 0 0-.312.31v14.609c0 .33.132.646.366.879.235.233.552.364.884.364h17.5c.332 0 .65-.131.884-.364a1.24 1.24 0 0 0 .366-.88V7.15a.309.309 0 0 0-.312-.31ZM10 20.203a5.327 5.327 0 0 1-3.757-1.547 5.27 5.27 0 0 1-1.556-3.737 5.27 5.27 0 0 1 1.556-3.736A5.327 5.327 0 0 1 10 9.635c1.409 0 2.76.557 3.756 1.548a5.27 5.27 0 0 1 1.556 3.736 5.27 5.27 0 0 1-1.556 3.736A5.327 5.327 0 0 1 10 20.203Z"/></svg>