<svg xmlns="http://www.w3.org/2000/svg" viewBox="0 0 14 24"><path fill-rule="evenodd" clip-rule="evenodd" d="M8.07 4.6A2.29 2.29 0 0 1 5.8 2.3 2.32 2.32 0 0 1 7.23.16a2.25 2.25 0 0 1 2.48.52A2.31 2.31 0 0 1 8.07 4.6ZM4.33 8.29l-.17.16-.2.2L2.82 9.7a.25.25 0 0 0-.07.15l-.1 1.72-.1 1.47v.07c-.01.17-.02.34-.06.5a.91.91 0 0 1-.95.66.9.9 0 0 1-.86-.76 3.62 3.62 0 0 1 0-.66v-.09l.12-2.02.08-1.24a1.53 1.53 0 0 1 .5-1.07A11594.44 11594.44 0 0 0 4.66 5.4c.11-.1.22-.21.35-.29.34-.22.72-.24 1.11-.16l.99.2.73.15c.56.12.94.45 1.12 1 .1.28.16.57.23.86l.02.08c.15.63.37 1.22.63 1.8l.02.05c.1.25.22.5.34.74.11.22.29.37.53.47l2.26.92.35.14c.3.13.52.31.62.64a.95.95 0 0 1-.4 1.06.92.92 0 0 1-.37.14c-.22.02-.43-.01-.63-.1l-.58-.24-2.48-1a1.41 1.41 0 0 1-.7-.66c-.1-.16-.18-.32-.26-.48l-.12-.23-.03-.05-.03-.05-.03.13-.06.3-.65 3.08.1.15.15.21.4.57.82 1.11c.35.5.68 1.02.88 1.6.08.24.13.49.19.74l.03.15.37 1.66a1224.42 1224.42 0 0 0 .24 1.12c.1.44.2.88.28 1.32.16.83-.55 1.58-1.38 1.47a1.3 1.3 0 0 1-1.06-1c-.05-.25-.1-.5-.17-.76-.18-.82-.37-1.65-.53-2.48a7.08 7.08 0 0 0-1.13-2.61 149.7 149.7 0 0 1-2.7-4c-.28-.42-.36-.9-.28-1.4l.2-1.1.08-.41a1776.9 1776.9 0 0 0 .39-2.1l-.17.15Zm-.94 5.68Zm0 0c0 .07-.02.14-.04.2l-.04.25-.1.64c-.08.6-.16 1.19-.31 1.77-.12.46-.27.9-.52 1.31l-.86 1.4-.05.07-.65 1.03-.61.98c-.19.3-.25.65-.18.99.1.5.48.87 1 .97.47.09.98-.15 1.25-.56l2.35-3.74a3.69 3.69 0 0 0 .65-1.87 21.93 21.93 0 0 1 .04-.42 10.24 10.24 0 0 1-1.93-3.02Z"/></svg>