<svg xmlns="http://www.w3.org/2000/svg" viewBox="0 0 24 24"><path d="M12 4.64A7.36 7.36 0 1019.36 12 7.36 7.36 0 0012 4.64zm0 12.71A5.36 5.36 0 1117.36 12 5.36 5.36 0 0112 17.36zm0-13.88a1 1 0 001-1V1a1 1 0 00-2 0v1.47a1 1 0 001 1zm-7.45 2.5a1 1 0 101.42-1.42L4.93 3.52a1 1 0 00-1.41 1.4zM2.47 11H1a1 1 0 000 2h1.47a1 1 0 100-2zm2.08 7.03l-1.04 1.04a1 1 0 101.42 1.41l1.04-1.03a1 1 0 10-1.42-1.42z"/><path d="M12 20.53a1 1 0 00-1 1V23a1 1 0 002 0v-1.47a1 1 0 00-1-1zm7.45-2.5a1 1 0 00-1.42 1.42l1.04 1.04a1 1 0 001.41-1.42zM23 11h-1.47a1 1 0 000 2H23a1 1 0 000-2zm-4.26-4.74a1 1 0 00.7-.3l1.04-1.03a1 1 0 00-1.4-1.41l-1.05 1.03a1 1 0 00.71 1.7z"/></svg>
