<svg xmlns="http://www.w3.org/2000/svg" viewBox="0 0 24 24"><path d="M4.64 12a7.35 7.35 0 1114.71 0 7.35 7.35 0 01-14.7 0z" /><path d="M12 3.47a1 1 0 001-1V1a1 1 0 10-2 0v1.47a1 1 0 001 1zM4.55 5.97a1 1 0 101.42-1.42L4.93 3.52a1 1 0 00-1.41 1.4zM2.47 11H1a1 1 0 100 2h1.47a1 1 0 100-2zM4.55 18.03l-1.04 1.04a1 1 0 101.42 1.41l1.04-1.03a1 1 0 10-1.42-1.42zM12 20.53a1 1 0 00-1 1V23a1 1 0 102 0v-1.47a1 1 0 00-1-1zM19.45 18.03a1 1 0 00-1.42 1.42l1.04 1.03a1 1 0 001.42-1.4zM23 11h-1.47a1 1 0 100 2H23a1 1 0 100-2zM18.74 6.26a1 1 0 00.7-.3l1.04-1.03a1 1 0 00-1.41-1.41l-1.04 1.03a1 1 0 00.71 1.7z" /></svg>
