<svg viewBox="0 0 24 24" xmlns="http://www.w3.org/2000/svg"><path d="m17.559 11.022a6.367 6.367 0 1 0 6.366 6.366 6.374 6.374 0 0 0 -6.366-6.366zm3.214 5.111-2.84 3.788a1.483 1.483 0 0 1 -1.083.588c-.036 0-.072 0-.107 0a1.474 1.474 0 0 1 -1.047-.436l-1.467-1.463a.75.75 0 1 1 1.061-1.06l1.264 1.264a.25.25 0 0 0 .377-.028l2.643-3.554a.75.75 0 0 1 1.2.9z"/><path d="m15.216 8.659a1 1 0 0 0 1.414-1.414 9.76 9.76 0 0 0 -13.787 0 1 1 0 0 0 1.414 1.414 7.761 7.761 0 0 1 10.959 0z"/><path d="m17.69 5.531a1 1 0 0 0 1.41-1.414 13.266 13.266 0 0 0 -18.736 0 1 1 0 0 0 1.418 1.414 11.263 11.263 0 0 1 15.908 0z"/><path d="m13.5 11.017a1.035 1.035 0 0 0 -.271-1.387 6.26 6.26 0 0 0 -7.908.767 1 1 0 1 0 1.414 1.414 4.257 4.257 0 0 1 5.377-.523 1.02 1.02 0 0 0 1.388-.271z"/></svg>