<svg xmlns="http://www.w3.org/2000/svg" viewBox="0 0 24 25"><path d="M4.05 10.62a1.25 1.25 0 001.76 1.76 8.76 8.76 0 0112.38 0 1.25 1.25 0 002.13-.85v-.03c0-.33-.13-.65-.37-.88a11.26 11.26 0 00-15.9 0z"/><path d="M22.78 6.79a15.27 15.27 0 00-21.56 0 1.25 1.25 0 001.76 1.77 12.77 12.77 0 0118.04 0 1.25 1.25 0 101.76-1.77zM14.38 12.73a7.25 7.25 0 00-7.5 1.71 1.25 1.25 0 101.76 1.77 4.75 4.75 0 016.53-.15l.19.15a1.25 1.25 0 101.76-1.77 7.19 7.19 0 00-2.74-1.7zM12 23.07a2.5 2.5 0 100-5 2.5 2.5 0 000 5z"/></svg>
