<svg width="920" height="363" viewBox="0 0 920 363" fill="none" xmlns="http://www.w3.org/2000/svg">
    <rect width="920" height="358" rx="6" fill="#F5F5F5"/>
    <path d="M0 6C0 2.68629 2.68629 0 6 0H914C917.314 0 920 2.68629 920 6V48H0V6Z" fill="#C4C4C4"/>
    <g filter="url(#filter0_d_0_1)">
        <rect x="88" y="8" width="64" height="32" rx="16" fill="white"/>
    </g>
    <g filter="url(#filter1_d_0_1)">
        <rect x="16" y="8" width="64" height="32" rx="16" fill="#979797"/>
        <rect x="16.5" y="8.5" width="63" height="31" rx="15.5" stroke="white"/>
    </g>
    <path d="M38.6758 23.9072C38.6758 25.557 38.2178 26.8193 37.3018 27.6943C36.3857 28.5648 35.0664 29 33.3438 29H30.5479V19.0059H33.6377C35.2282 19.0059 36.4655 19.4342 37.3496 20.291C38.2337 21.1478 38.6758 22.3532 38.6758 23.9072ZM36.9531 23.9619C36.9531 21.5693 35.8343 20.373 33.5967 20.373H32.1816V27.626H33.3438C35.75 27.626 36.9531 26.4046 36.9531 23.9619ZM45.3887 29L45.0674 27.9473H45.0127C44.6481 28.4076 44.2812 28.722 43.9121 28.8906C43.543 29.0547 43.069 29.1367 42.4902 29.1367C41.7474 29.1367 41.1663 28.9362 40.7471 28.5352C40.3324 28.1341 40.125 27.5667 40.125 26.833C40.125 26.0537 40.4144 25.4658 40.9932 25.0693C41.5719 24.6729 42.4538 24.4564 43.6387 24.4199L44.9443 24.3789V23.9756C44.9443 23.4925 44.8304 23.1325 44.6025 22.8955C44.3792 22.654 44.0306 22.5332 43.5566 22.5332C43.1693 22.5332 42.7979 22.5902 42.4424 22.7041C42.0869 22.818 41.7451 22.9525 41.417 23.1074L40.8975 21.959C41.3076 21.7448 41.7565 21.583 42.2441 21.4736C42.7318 21.3597 43.1921 21.3027 43.625 21.3027C44.5866 21.3027 45.3112 21.5124 45.7988 21.9316C46.291 22.3509 46.5371 23.0094 46.5371 23.9072V29H45.3887ZM42.9961 27.9062C43.5794 27.9062 44.0465 27.7445 44.3975 27.4209C44.7529 27.0928 44.9307 26.6348 44.9307 26.0469V25.3906L43.96 25.4316C43.2035 25.459 42.652 25.5866 42.3057 25.8145C41.9639 26.0378 41.793 26.3818 41.793 26.8467C41.793 27.1839 41.8932 27.446 42.0938 27.6328C42.2943 27.8151 42.5951 27.9062 42.9961 27.9062ZM47.6309 21.4395H49.3809L50.9189 25.7256C51.1514 26.3363 51.3063 26.9105 51.3838 27.4482H51.4385C51.4795 27.1976 51.5547 26.8945 51.6641 26.5391C51.7734 26.179 52.3522 24.4792 53.4004 21.4395H55.1367L51.9033 30.0049C51.3154 31.5771 50.3356 32.3633 48.9639 32.3633C48.6084 32.3633 48.262 32.3245 47.9248 32.2471V30.9756C48.1663 31.0303 48.4421 31.0576 48.752 31.0576C49.5267 31.0576 50.0713 30.6087 50.3857 29.7109L50.666 29L47.6309 21.4395ZM64.1055 29H62.499V22.5469C62.499 21.7767 62.5173 21.166 62.5537 20.7148C62.4489 20.8242 62.319 20.945 62.1641 21.0771C62.0137 21.2093 61.5033 21.6286 60.6328 22.335L59.8262 21.3164L62.7656 19.0059H64.1055V29Z" fill="white"/>
    <g filter="url(#filter2_d_0_1)">
        <rect x="160" y="8" width="64" height="32" rx="16" fill="white"/>
    </g>
    <path d="M182.676 23.9072C182.676 25.557 182.218 26.8193 181.302 27.6943C180.386 28.5648 179.066 29 177.344 29H174.548V19.0059H177.638C179.228 19.0059 180.465 19.4342 181.35 20.291C182.234 21.1478 182.676 22.3532 182.676 23.9072ZM180.953 23.9619C180.953 21.5693 179.834 20.373 177.597 20.373H176.182V27.626H177.344C179.75 27.626 180.953 26.4046 180.953 23.9619ZM189.389 29L189.067 27.9473H189.013C188.648 28.4076 188.281 28.722 187.912 28.8906C187.543 29.0547 187.069 29.1367 186.49 29.1367C185.747 29.1367 185.166 28.9362 184.747 28.5352C184.332 28.1341 184.125 27.5667 184.125 26.833C184.125 26.0537 184.414 25.4658 184.993 25.0693C185.572 24.6729 186.454 24.4564 187.639 24.4199L188.944 24.3789V23.9756C188.944 23.4925 188.83 23.1325 188.603 22.8955C188.379 22.654 188.031 22.5332 187.557 22.5332C187.169 22.5332 186.798 22.5902 186.442 22.7041C186.087 22.818 185.745 22.9525 185.417 23.1074L184.897 21.959C185.308 21.7448 185.757 21.583 186.244 21.4736C186.732 21.3597 187.192 21.3027 187.625 21.3027C188.587 21.3027 189.311 21.5124 189.799 21.9316C190.291 22.3509 190.537 23.0094 190.537 23.9072V29H189.389ZM186.996 27.9062C187.579 27.9062 188.047 27.7445 188.397 27.4209C188.753 27.0928 188.931 26.6348 188.931 26.0469V25.3906L187.96 25.4316C187.203 25.459 186.652 25.5866 186.306 25.8145C185.964 26.0378 185.793 26.3818 185.793 26.8467C185.793 27.1839 185.893 27.446 186.094 27.6328C186.294 27.8151 186.595 27.9062 186.996 27.9062ZM191.631 21.4395H193.381L194.919 25.7256C195.151 26.3363 195.306 26.9105 195.384 27.4482H195.438C195.479 27.1976 195.555 26.8945 195.664 26.5391C195.773 26.179 196.352 24.4792 197.4 21.4395H199.137L195.903 30.0049C195.315 31.5771 194.336 32.3633 192.964 32.3633C192.608 32.3633 192.262 32.3245 191.925 32.2471V30.9756C192.166 31.0303 192.442 31.0576 192.752 31.0576C193.527 31.0576 194.071 30.6087 194.386 29.7109L194.666 29L191.631 21.4395ZM209.787 21.3027C209.787 21.9362 209.603 22.4648 209.233 22.8887C208.864 23.3079 208.345 23.5905 207.675 23.7363V23.791C208.477 23.8913 209.078 24.1419 209.479 24.543C209.881 24.9395 210.081 25.4681 210.081 26.1289C210.081 27.0905 209.742 27.8333 209.062 28.3574C208.383 28.877 207.417 29.1367 206.164 29.1367C205.057 29.1367 204.122 28.9567 203.361 28.5967V27.168C203.785 27.3776 204.234 27.5394 204.708 27.6533C205.182 27.7673 205.638 27.8242 206.075 27.8242C206.85 27.8242 207.429 27.6807 207.812 27.3936C208.194 27.1064 208.386 26.6621 208.386 26.0605C208.386 25.5273 208.174 25.1354 207.75 24.8848C207.326 24.6341 206.661 24.5088 205.754 24.5088H204.886V23.2031H205.768C207.363 23.2031 208.16 22.6517 208.16 21.5488C208.16 21.1204 208.021 20.79 207.743 20.5576C207.465 20.3252 207.055 20.209 206.513 20.209C206.134 20.209 205.77 20.2637 205.419 20.373C205.068 20.4779 204.653 20.6852 204.175 20.9951L203.389 19.874C204.305 19.1995 205.369 18.8623 206.581 18.8623C207.588 18.8623 208.374 19.0788 208.939 19.5117C209.505 19.9447 209.787 20.5417 209.787 21.3027Z" fill="#666666" fill-opacity="0.4"/>
    <g filter="url(#filter3_d_0_1)">
        <rect x="232" y="8" width="64" height="32" rx="16" fill="white"/>
    </g>
    <path d="M254.676 23.9072C254.676 25.557 254.218 26.8193 253.302 27.6943C252.386 28.5648 251.066 29 249.344 29H246.548V19.0059H249.638C251.228 19.0059 252.465 19.4342 253.35 20.291C254.234 21.1478 254.676 22.3532 254.676 23.9072ZM252.953 23.9619C252.953 21.5693 251.834 20.373 249.597 20.373H248.182V27.626H249.344C251.75 27.626 252.953 26.4046 252.953 23.9619ZM261.389 29L261.067 27.9473H261.013C260.648 28.4076 260.281 28.722 259.912 28.8906C259.543 29.0547 259.069 29.1367 258.49 29.1367C257.747 29.1367 257.166 28.9362 256.747 28.5352C256.332 28.1341 256.125 27.5667 256.125 26.833C256.125 26.0537 256.414 25.4658 256.993 25.0693C257.572 24.6729 258.454 24.4564 259.639 24.4199L260.944 24.3789V23.9756C260.944 23.4925 260.83 23.1325 260.603 22.8955C260.379 22.654 260.031 22.5332 259.557 22.5332C259.169 22.5332 258.798 22.5902 258.442 22.7041C258.087 22.818 257.745 22.9525 257.417 23.1074L256.897 21.959C257.308 21.7448 257.757 21.583 258.244 21.4736C258.732 21.3597 259.192 21.3027 259.625 21.3027C260.587 21.3027 261.311 21.5124 261.799 21.9316C262.291 22.3509 262.537 23.0094 262.537 23.9072V29H261.389ZM258.996 27.9062C259.579 27.9062 260.047 27.7445 260.397 27.4209C260.753 27.0928 260.931 26.6348 260.931 26.0469V25.3906L259.96 25.4316C259.203 25.459 258.652 25.5866 258.306 25.8145C257.964 26.0378 257.793 26.3818 257.793 26.8467C257.793 27.1839 257.893 27.446 258.094 27.6328C258.294 27.8151 258.595 27.9062 258.996 27.9062ZM263.631 21.4395H265.381L266.919 25.7256C267.151 26.3363 267.306 26.9105 267.384 27.4482H267.438C267.479 27.1976 267.555 26.8945 267.664 26.5391C267.773 26.179 268.352 24.4792 269.4 21.4395H271.137L267.903 30.0049C267.315 31.5771 266.336 32.3633 264.964 32.3633C264.608 32.3633 264.262 32.3245 263.925 32.2471V30.9756C264.166 31.0303 264.442 31.0576 264.752 31.0576C265.527 31.0576 266.071 30.6087 266.386 29.7109L266.666 29L263.631 21.4395ZM282.519 26.8193H281.172V29H279.606V26.8193H275.04V25.582L279.606 18.9785H281.172V25.4863H282.519V26.8193ZM279.606 25.4863V22.9775C279.606 22.0843 279.629 21.3529 279.675 20.7832H279.62C279.493 21.084 279.292 21.4486 279.019 21.877L276.537 25.4863H279.606Z" fill="#666666" fill-opacity="0.4"/>
    <g filter="url(#filter4_d_0_1)">
        <rect x="304" y="8" width="64" height="32" rx="16" fill="white"/>
    </g>
    <path d="M326.676 23.9072C326.676 25.557 326.218 26.8193 325.302 27.6943C324.386 28.5648 323.066 29 321.344 29H318.548V19.0059H321.638C323.228 19.0059 324.465 19.4342 325.35 20.291C326.234 21.1478 326.676 22.3532 326.676 23.9072ZM324.953 23.9619C324.953 21.5693 323.834 20.373 321.597 20.373H320.182V27.626H321.344C323.75 27.626 324.953 26.4046 324.953 23.9619ZM333.389 29L333.067 27.9473H333.013C332.648 28.4076 332.281 28.722 331.912 28.8906C331.543 29.0547 331.069 29.1367 330.49 29.1367C329.747 29.1367 329.166 28.9362 328.747 28.5352C328.332 28.1341 328.125 27.5667 328.125 26.833C328.125 26.0537 328.414 25.4658 328.993 25.0693C329.572 24.6729 330.454 24.4564 331.639 24.4199L332.944 24.3789V23.9756C332.944 23.4925 332.83 23.1325 332.603 22.8955C332.379 22.654 332.031 22.5332 331.557 22.5332C331.169 22.5332 330.798 22.5902 330.442 22.7041C330.087 22.818 329.745 22.9525 329.417 23.1074L328.897 21.959C329.308 21.7448 329.757 21.583 330.244 21.4736C330.732 21.3597 331.192 21.3027 331.625 21.3027C332.587 21.3027 333.311 21.5124 333.799 21.9316C334.291 22.3509 334.537 23.0094 334.537 23.9072V29H333.389ZM330.996 27.9062C331.579 27.9062 332.047 27.7445 332.397 27.4209C332.753 27.0928 332.931 26.6348 332.931 26.0469V25.3906L331.96 25.4316C331.203 25.459 330.652 25.5866 330.306 25.8145C329.964 26.0378 329.793 26.3818 329.793 26.8467C329.793 27.1839 329.893 27.446 330.094 27.6328C330.294 27.8151 330.595 27.9062 330.996 27.9062ZM335.631 21.4395H337.381L338.919 25.7256C339.151 26.3363 339.306 26.9105 339.384 27.4482H339.438C339.479 27.1976 339.555 26.8945 339.664 26.5391C339.773 26.179 340.352 24.4792 341.4 21.4395H343.137L339.903 30.0049C339.315 31.5771 338.336 32.3633 336.964 32.3633C336.608 32.3633 336.262 32.3245 335.925 32.2471V30.9756C336.166 31.0303 336.442 31.0576 336.752 31.0576C337.527 31.0576 338.071 30.6087 338.386 29.7109L338.666 29L335.631 21.4395ZM350.779 22.7588C351.786 22.7588 352.584 23.0254 353.172 23.5586C353.76 24.0918 354.054 24.8187 354.054 25.7393C354.054 26.8057 353.719 27.6396 353.049 28.2412C352.383 28.8382 351.436 29.1367 350.205 29.1367C349.089 29.1367 348.211 28.9567 347.573 28.5967V27.1406C347.942 27.3503 348.366 27.512 348.845 27.626C349.323 27.7399 349.768 27.7969 350.178 27.7969C350.902 27.7969 351.454 27.6351 351.832 27.3115C352.21 26.988 352.399 26.514 352.399 25.8896C352.399 24.6956 351.638 24.0986 350.116 24.0986C349.902 24.0986 349.638 24.1214 349.323 24.167C349.009 24.208 348.733 24.2559 348.496 24.3105L347.778 23.8867L348.161 19.0059H353.356V20.4346H349.576L349.351 22.9092C349.51 22.8818 349.704 22.8499 349.932 22.8135C350.164 22.777 350.447 22.7588 350.779 22.7588Z" fill="#666666" fill-opacity="0.4"/>
    <g filter="url(#filter5_d_0_1)">
        <rect x="376" y="8" width="64" height="32" rx="16" fill="white"/>
    </g>
    <path d="M398.676 23.9072C398.676 25.557 398.218 26.8193 397.302 27.6943C396.386 28.5648 395.066 29 393.344 29H390.548V19.0059H393.638C395.228 19.0059 396.465 19.4342 397.35 20.291C398.234 21.1478 398.676 22.3532 398.676 23.9072ZM396.953 23.9619C396.953 21.5693 395.834 20.373 393.597 20.373H392.182V27.626H393.344C395.75 27.626 396.953 26.4046 396.953 23.9619ZM405.389 29L405.067 27.9473H405.013C404.648 28.4076 404.281 28.722 403.912 28.8906C403.543 29.0547 403.069 29.1367 402.49 29.1367C401.747 29.1367 401.166 28.9362 400.747 28.5352C400.332 28.1341 400.125 27.5667 400.125 26.833C400.125 26.0537 400.414 25.4658 400.993 25.0693C401.572 24.6729 402.454 24.4564 403.639 24.4199L404.944 24.3789V23.9756C404.944 23.4925 404.83 23.1325 404.603 22.8955C404.379 22.654 404.031 22.5332 403.557 22.5332C403.169 22.5332 402.798 22.5902 402.442 22.7041C402.087 22.818 401.745 22.9525 401.417 23.1074L400.897 21.959C401.308 21.7448 401.757 21.583 402.244 21.4736C402.732 21.3597 403.192 21.3027 403.625 21.3027C404.587 21.3027 405.311 21.5124 405.799 21.9316C406.291 22.3509 406.537 23.0094 406.537 23.9072V29H405.389ZM402.996 27.9062C403.579 27.9062 404.047 27.7445 404.397 27.4209C404.753 27.0928 404.931 26.6348 404.931 26.0469V25.3906L403.96 25.4316C403.203 25.459 402.652 25.5866 402.306 25.8145C401.964 26.0378 401.793 26.3818 401.793 26.8467C401.793 27.1839 401.893 27.446 402.094 27.6328C402.294 27.8151 402.595 27.9062 402.996 27.9062ZM407.631 21.4395H409.381L410.919 25.7256C411.151 26.3363 411.306 26.9105 411.384 27.4482H411.438C411.479 27.1976 411.555 26.8945 411.664 26.5391C411.773 26.179 412.352 24.4792 413.4 21.4395H415.137L411.903 30.0049C411.315 31.5771 410.336 32.3633 408.964 32.3633C408.608 32.3633 408.262 32.3245 407.925 32.2471V30.9756C408.166 31.0303 408.442 31.0576 408.752 31.0576C409.527 31.0576 410.071 30.6087 410.386 29.7109L410.666 29L407.631 21.4395ZM419.416 24.7412C419.416 20.8311 421.009 18.876 424.194 18.876C424.696 18.876 425.119 18.9147 425.466 18.9922V20.332C425.119 20.2318 424.718 20.1816 424.263 20.1816C423.192 20.1816 422.387 20.4688 421.85 21.043C421.312 21.6172 421.02 22.5378 420.975 23.8047H421.057C421.271 23.4355 421.572 23.1507 421.959 22.9502C422.346 22.7451 422.802 22.6426 423.326 22.6426C424.233 22.6426 424.939 22.9206 425.445 23.4766C425.951 24.0326 426.204 24.7868 426.204 25.7393C426.204 26.7874 425.91 27.6169 425.322 28.2275C424.739 28.8337 423.941 29.1367 422.93 29.1367C422.214 29.1367 421.592 28.9658 421.063 28.624C420.535 28.2777 420.127 27.7764 419.84 27.1201C419.557 26.4593 419.416 25.6663 419.416 24.7412ZM422.902 27.8105C423.454 27.8105 423.878 27.6328 424.174 27.2773C424.475 26.9219 424.625 26.4137 424.625 25.7529C424.625 25.1787 424.484 24.7275 424.201 24.3994C423.923 24.0713 423.504 23.9072 422.943 23.9072C422.597 23.9072 422.278 23.9824 421.986 24.1328C421.695 24.2786 421.465 24.4814 421.296 24.7412C421.127 24.9964 421.043 25.2585 421.043 25.5273C421.043 26.1699 421.216 26.7122 421.562 27.1543C421.913 27.5918 422.36 27.8105 422.902 27.8105Z" fill="#666666" fill-opacity="0.4"/>
    <g filter="url(#filter6_d_0_1)">
        <rect x="448" y="8" width="64" height="32" rx="16" fill="white"/>
    </g>
    <path d="M470.676 23.9072C470.676 25.557 470.218 26.8193 469.302 27.6943C468.386 28.5648 467.066 29 465.344 29H462.548V19.0059H465.638C467.228 19.0059 468.465 19.4342 469.35 20.291C470.234 21.1478 470.676 22.3532 470.676 23.9072ZM468.953 23.9619C468.953 21.5693 467.834 20.373 465.597 20.373H464.182V27.626H465.344C467.75 27.626 468.953 26.4046 468.953 23.9619ZM477.389 29L477.067 27.9473H477.013C476.648 28.4076 476.281 28.722 475.912 28.8906C475.543 29.0547 475.069 29.1367 474.49 29.1367C473.747 29.1367 473.166 28.9362 472.747 28.5352C472.332 28.1341 472.125 27.5667 472.125 26.833C472.125 26.0537 472.414 25.4658 472.993 25.0693C473.572 24.6729 474.454 24.4564 475.639 24.4199L476.944 24.3789V23.9756C476.944 23.4925 476.83 23.1325 476.603 22.8955C476.379 22.654 476.031 22.5332 475.557 22.5332C475.169 22.5332 474.798 22.5902 474.442 22.7041C474.087 22.818 473.745 22.9525 473.417 23.1074L472.897 21.959C473.308 21.7448 473.757 21.583 474.244 21.4736C474.732 21.3597 475.192 21.3027 475.625 21.3027C476.587 21.3027 477.311 21.5124 477.799 21.9316C478.291 22.3509 478.537 23.0094 478.537 23.9072V29H477.389ZM474.996 27.9062C475.579 27.9062 476.047 27.7445 476.397 27.4209C476.753 27.0928 476.931 26.6348 476.931 26.0469V25.3906L475.96 25.4316C475.203 25.459 474.652 25.5866 474.306 25.8145C473.964 26.0378 473.793 26.3818 473.793 26.8467C473.793 27.1839 473.893 27.446 474.094 27.6328C474.294 27.8151 474.595 27.9062 474.996 27.9062ZM479.631 21.4395H481.381L482.919 25.7256C483.151 26.3363 483.306 26.9105 483.384 27.4482H483.438C483.479 27.1976 483.555 26.8945 483.664 26.5391C483.773 26.179 484.352 24.4792 485.4 21.4395H487.137L483.903 30.0049C483.315 31.5771 482.336 32.3633 480.964 32.3633C480.608 32.3633 480.262 32.3245 479.925 32.2471V30.9756C480.166 31.0303 480.442 31.0576 480.752 31.0576C481.527 31.0576 482.071 30.6087 482.386 29.7109L482.666 29L479.631 21.4395ZM492.523 29L496.475 20.4346H491.279V19.0195H498.19V20.1406L494.26 29H492.523Z" fill="#666666" fill-opacity="0.4"/>
    <path d="M110.676 23.9072C110.676 25.557 110.218 26.8193 109.302 27.6943C108.386 28.5648 107.066 29 105.344 29H102.548V19.0059H105.638C107.228 19.0059 108.465 19.4342 109.35 20.291C110.234 21.1478 110.676 22.3532 110.676 23.9072ZM108.953 23.9619C108.953 21.5693 107.834 20.373 105.597 20.373H104.182V27.626H105.344C107.75 27.626 108.953 26.4046 108.953 23.9619ZM117.389 29L117.067 27.9473H117.013C116.648 28.4076 116.281 28.722 115.912 28.8906C115.543 29.0547 115.069 29.1367 114.49 29.1367C113.747 29.1367 113.166 28.9362 112.747 28.5352C112.332 28.1341 112.125 27.5667 112.125 26.833C112.125 26.0537 112.414 25.4658 112.993 25.0693C113.572 24.6729 114.454 24.4564 115.639 24.4199L116.944 24.3789V23.9756C116.944 23.4925 116.83 23.1325 116.603 22.8955C116.379 22.654 116.031 22.5332 115.557 22.5332C115.169 22.5332 114.798 22.5902 114.442 22.7041C114.087 22.818 113.745 22.9525 113.417 23.1074L112.897 21.959C113.308 21.7448 113.757 21.583 114.244 21.4736C114.732 21.3597 115.192 21.3027 115.625 21.3027C116.587 21.3027 117.311 21.5124 117.799 21.9316C118.291 22.3509 118.537 23.0094 118.537 23.9072V29H117.389ZM114.996 27.9062C115.579 27.9062 116.047 27.7445 116.397 27.4209C116.753 27.0928 116.931 26.6348 116.931 26.0469V25.3906L115.96 25.4316C115.203 25.459 114.652 25.5866 114.306 25.8145C113.964 26.0378 113.793 26.3818 113.793 26.8467C113.793 27.1839 113.893 27.446 114.094 27.6328C114.294 27.8151 114.595 27.9062 114.996 27.9062ZM119.631 21.4395H121.381L122.919 25.7256C123.151 26.3363 123.306 26.9105 123.384 27.4482H123.438C123.479 27.1976 123.555 26.8945 123.664 26.5391C123.773 26.179 124.352 24.4792 125.4 21.4395H127.137L123.903 30.0049C123.315 31.5771 122.336 32.3633 120.964 32.3633C120.608 32.3633 120.262 32.3245 119.925 32.2471V30.9756C120.166 31.0303 120.442 31.0576 120.752 31.0576C121.527 31.0576 122.071 30.6087 122.386 29.7109L122.666 29L119.631 21.4395ZM138.163 29H131.389V27.7832L133.966 25.1924C134.727 24.4131 135.23 23.8617 135.477 23.5381C135.727 23.21 135.91 22.9023 136.023 22.6152C136.137 22.3281 136.194 22.0205 136.194 21.6924C136.194 21.2412 136.058 20.8857 135.784 20.626C135.515 20.3662 135.142 20.2363 134.663 20.2363C134.28 20.2363 133.909 20.307 133.549 20.4482C133.193 20.5895 132.781 20.8447 132.312 21.2139L131.443 20.1543C131.999 19.6849 132.539 19.3522 133.063 19.1562C133.588 18.9603 134.146 18.8623 134.738 18.8623C135.668 18.8623 136.413 19.1061 136.974 19.5938C137.534 20.0768 137.814 20.7285 137.814 21.5488C137.814 22 137.732 22.4284 137.568 22.834C137.409 23.2396 137.16 23.6589 136.823 24.0918C136.491 24.5202 135.935 25.1012 135.155 25.835L133.419 27.5166V27.585H138.163V29Z" fill="#666666" fill-opacity="0.4"/>
    <g filter="url(#filter7_d_0_1)">
        <path fill-rule="evenodd" clip-rule="evenodd" d="M486.999 253.714C494.574 253.714 500.714 247.574 500.714 239.999C500.714 232.425 494.574 226.285 486.999 226.285C479.425 226.285 473.285 232.425 473.285 239.999C473.285 247.574 479.425 253.714 486.999 253.714Z" fill="#50CAE4"/>
        <path fill-rule="evenodd" clip-rule="evenodd" d="M486.999 253.714C494.574 253.714 500.714 247.574 500.714 239.999C500.714 232.425 494.574 226.285 486.999 226.285C479.425 226.285 473.285 232.425 473.285 239.999C473.285 247.574 479.425 253.714 486.999 253.714Z" stroke="white"/>
    </g>
    <circle cx="487" cy="240" r="18" stroke="url(#paint0_radial_0_1)" stroke-opacity="0.8" stroke-width="4"/>
    <path d="M492.484 236.357C492.529 236.407 492.598 236.423 492.659 236.398C492.719 236.372 492.759 236.311 492.759 236.243V232.995C492.759 232.811 492.616 232.662 492.439 232.662H490.199C490.022 232.662 489.879 232.811 489.879 232.995V233.388C489.879 233.474 489.911 233.556 489.968 233.618L492.484 236.357Z" fill="white"/>
    <path fill-rule="evenodd" clip-rule="evenodd" d="M487.78 232.2L494.82 239.867V239.867C494.998 240.06 495.047 240.345 494.947 240.59C494.846 240.836 494.614 240.995 494.358 240.995H493.398C493.221 240.995 493.078 241.145 493.078 241.329V246.995C493.078 247.548 492.648 247.995 492.118 247.995H482.518C481.988 247.995 481.558 247.548 481.558 246.995V241.329C481.558 241.145 481.415 240.995 481.238 240.995H480.278C480.021 240.996 479.789 240.837 479.688 240.591C479.587 240.345 479.637 240.06 479.815 239.867L486.855 232.2C487.112 231.939 487.523 231.939 487.78 232.2ZM487.78 245.455L490.194 242.833L490.193 242.834C490.927 242.066 490.925 240.824 490.19 240.058C489.454 239.291 488.262 239.289 487.524 240.053L487.431 240.151C487.368 240.216 487.267 240.216 487.205 240.151L487.111 240.053C486.685 239.603 486.074 239.398 485.475 239.503C484.777 239.621 484.2 240.136 483.982 240.836C483.764 241.537 483.94 242.306 484.438 242.829L486.856 245.455C486.977 245.587 487.144 245.661 487.318 245.661C487.493 245.661 487.659 245.587 487.78 245.455Z" fill="white"/>
    <g filter="url(#filter8_dd_0_1)">
        <rect x="867" y="275" width="32" height="64" rx="4" fill="white"/>
    </g>
    <path opacity="0.15" d="M873.891 307.502H891.345" stroke="#666666" stroke-opacity="0.6" stroke-linecap="square"/>
    <mask id="mask0_0_1" style="mask-type:alpha" maskUnits="userSpaceOnUse" x="875" y="284" width="15" height="15">
        <path fill-rule="evenodd" clip-rule="evenodd" d="M889.542 292.849H883.604V298.815H881.625V292.849H875.688V290.86H881.625V284.895H883.604V290.86H889.542V292.849V292.849Z" fill="white"/>
    </mask>
    <g mask="url(#mask0_0_1)">
        <rect x="875.578" y="284.895" width="14.0672" height="13.9203" fill="#666666" fill-opacity="0.4"/>
    </g>
    <path fill-rule="evenodd" clip-rule="evenodd" d="M887.71 323.933H877.527V322.472H887.71V323.933V323.933Z" fill="#666666" fill-opacity="0.4"/>
    <mask id="mask1_0_1" style="mask-type:alpha" maskUnits="userSpaceOnUse" x="877" y="322" width="11" height="2">
        <path fill-rule="evenodd" clip-rule="evenodd" d="M887.71 323.933H877.527V322.472H887.71V323.933V323.933Z" fill="white"/>
    </mask>
    <g mask="url(#mask1_0_1)">
    </g>
    <g filter="url(#filter9_d_0_1)">
        <path fill-rule="evenodd" clip-rule="evenodd" d="M155.999 128.714C163.574 128.714 169.714 122.574 169.714 114.999C169.714 107.425 163.574 101.285 155.999 101.285C148.425 101.285 142.285 107.425 142.285 114.999C142.285 122.574 148.425 128.714 155.999 128.714Z" fill="#C0E0A5"/>
        <path fill-rule="evenodd" clip-rule="evenodd" d="M155.999 128.714C163.574 128.714 169.714 122.574 169.714 114.999C169.714 107.425 163.574 101.285 155.999 101.285C148.425 101.285 142.285 107.425 142.285 114.999C142.285 122.574 148.425 128.714 155.999 128.714Z" stroke="white"/>
    </g>
    <circle cx="156" cy="115" r="18" stroke="url(#paint1_radial_0_1)" stroke-opacity="0.8" stroke-width="4"/>
    <path d="M157.831 118.195C159.211 118.195 160.33 117.093 160.33 115.732C160.33 114.372 159.211 113.27 157.831 113.27C156.451 113.27 155.332 114.372 155.332 115.732C155.332 117.093 156.451 118.195 157.831 118.195Z" fill="white"/>
    <path fill-rule="evenodd" clip-rule="evenodd" d="M162.293 111.134H161.416C161.273 111.129 161.146 111.04 161.096 110.907L161.095 110.906C160.683 110.05 160.258 109.164 159.332 109.164H156C155.286 109.164 154.91 109.675 154.228 110.603C154.183 110.664 154.143 110.72 154.107 110.771C153.938 111.009 153.849 111.134 153.666 111.134H149.668C148.293 111.134 148.004 111.928 148.004 112.594V119.417C147.972 119.862 148.146 120.297 148.476 120.601C148.807 120.905 149.259 121.047 149.707 120.986H162.293C162.741 121.047 163.193 120.905 163.524 120.601C163.854 120.297 164.028 119.862 163.996 119.417V112.594C163.996 111.928 163.701 111.134 162.293 111.134ZM161.663 115.732C161.663 117.817 159.948 119.508 157.832 119.508C155.715 119.508 154 117.817 154 115.732C154 113.646 155.715 111.955 157.832 111.955C159.947 111.957 161.661 113.647 161.663 115.732ZM150.502 114.418C150.962 114.418 151.335 114.051 151.335 113.597C151.335 113.144 150.962 112.776 150.502 112.776C150.042 112.776 149.669 113.144 149.669 113.597C149.669 114.051 150.042 114.418 150.502 114.418Z" fill="white"/>
    <path d="M149.673 110.467L151.672 110.478V110.478C151.856 110.478 152.005 110.331 152.005 110.149V109.985C152.005 109.441 151.558 109 151.006 109H150.339C149.787 109 149.34 109.441 149.34 109.985V110.139C149.34 110.32 149.489 110.467 149.673 110.467Z" fill="white"/>
    <g filter="url(#filter10_d_0_1)">
        <path fill-rule="evenodd" clip-rule="evenodd" d="M575.999 244.714C583.574 244.714 589.714 238.574 589.714 230.999C589.714 223.425 583.574 217.285 575.999 217.285C568.425 217.285 562.285 223.425 562.285 230.999C562.285 238.574 568.425 244.714 575.999 244.714Z" fill="#81C14B"/>
        <path fill-rule="evenodd" clip-rule="evenodd" d="M575.999 244.714C583.574 244.714 589.714 238.574 589.714 230.999C589.714 223.425 583.574 217.285 575.999 217.285C568.425 217.285 562.285 223.425 562.285 230.999C562.285 238.574 568.425 244.714 575.999 244.714Z" stroke="white"/>
    </g>
    <circle cx="576" cy="231" r="18" stroke="url(#paint2_radial_0_1)" stroke-opacity="0.8" stroke-width="4"/>
    <path d="M577.831 234.195C579.211 234.195 580.33 233.093 580.33 231.732C580.33 230.372 579.211 229.27 577.831 229.27C576.451 229.27 575.332 230.372 575.332 231.732C575.332 233.093 576.451 234.195 577.831 234.195Z" fill="white"/>
    <path fill-rule="evenodd" clip-rule="evenodd" d="M582.293 227.134H581.416C581.273 227.129 581.146 227.04 581.096 226.907L581.095 226.906C580.683 226.05 580.258 225.164 579.332 225.164H576C575.286 225.164 574.91 225.675 574.228 226.603C574.183 226.664 574.143 226.72 574.107 226.771C573.938 227.009 573.849 227.134 573.666 227.134H569.668C568.293 227.134 568.004 227.928 568.004 228.594V235.417C567.972 235.862 568.146 236.297 568.476 236.601C568.807 236.905 569.259 237.047 569.707 236.986H582.293C582.741 237.047 583.193 236.905 583.524 236.601C583.854 236.297 584.028 235.862 583.996 235.417V228.594C583.996 227.928 583.701 227.134 582.293 227.134ZM581.663 231.732C581.663 233.817 579.948 235.508 577.832 235.508C575.715 235.508 574 233.817 574 231.732C574 229.646 575.715 227.955 577.832 227.955C579.947 227.957 581.661 229.647 581.663 231.732ZM570.502 230.418C570.962 230.418 571.335 230.051 571.335 229.597C571.335 229.144 570.962 228.776 570.502 228.776C570.042 228.776 569.669 229.144 569.669 229.597C569.669 230.051 570.042 230.418 570.502 230.418Z" fill="white"/>
    <path d="M569.673 226.467L571.672 226.478V226.478C571.856 226.478 572.005 226.331 572.005 226.149V225.985C572.005 225.441 571.558 225 571.006 225H570.339C569.787 225 569.34 225.441 569.34 225.985V226.139C569.34 226.32 569.489 226.467 569.673 226.467Z" fill="white"/>
    <g filter="url(#filter11_d_0_1)">
        <path fill-rule="evenodd" clip-rule="evenodd" d="M735.999 263.714C743.574 263.714 749.714 257.574 749.714 249.999C749.714 242.425 743.574 236.285 735.999 236.285C728.425 236.285 722.285 242.425 722.285 249.999C722.285 257.574 728.425 263.714 735.999 263.714Z" fill="#C0E0A5"/>
        <path fill-rule="evenodd" clip-rule="evenodd" d="M735.999 263.714C743.574 263.714 749.714 257.574 749.714 249.999C749.714 242.425 743.574 236.285 735.999 236.285C728.425 236.285 722.285 242.425 722.285 249.999C722.285 257.574 728.425 263.714 735.999 263.714Z" stroke="white"/>
    </g>
    <circle cx="736" cy="250" r="18" stroke="url(#paint3_radial_0_1)" stroke-opacity="0.8" stroke-width="4"/>
    <path d="M737.831 253.195C739.211 253.195 740.33 252.093 740.33 250.732C740.33 249.372 739.211 248.27 737.831 248.27C736.451 248.27 735.332 249.372 735.332 250.732C735.332 252.093 736.451 253.195 737.831 253.195Z" fill="white"/>
    <path fill-rule="evenodd" clip-rule="evenodd" d="M742.293 246.134H741.416C741.273 246.129 741.146 246.04 741.096 245.907L741.095 245.906C740.683 245.05 740.258 244.164 739.332 244.164H736C735.286 244.164 734.91 244.675 734.228 245.603C734.183 245.664 734.143 245.72 734.107 245.771C733.938 246.009 733.849 246.134 733.666 246.134H729.668C728.293 246.134 728.004 246.928 728.004 247.594V254.417C727.972 254.862 728.146 255.297 728.476 255.601C728.807 255.905 729.259 256.047 729.707 255.986H742.293C742.741 256.047 743.193 255.905 743.524 255.601C743.854 255.297 744.028 254.862 743.996 254.417V247.594C743.996 246.928 743.701 246.134 742.293 246.134ZM741.663 250.732C741.663 252.817 739.948 254.508 737.832 254.508C735.715 254.508 734 252.817 734 250.732C734 248.646 735.715 246.955 737.832 246.955C739.947 246.957 741.661 248.647 741.663 250.732ZM730.502 249.418C730.962 249.418 731.335 249.051 731.335 248.597C731.335 248.144 730.962 247.776 730.502 247.776C730.042 247.776 729.669 248.144 729.669 248.597C729.669 249.051 730.042 249.418 730.502 249.418Z" fill="white"/>
    <path d="M729.673 245.467L731.672 245.478V245.478C731.856 245.478 732.005 245.331 732.005 245.149V244.985C732.005 244.441 731.558 244 731.006 244H730.339C729.787 244 729.34 244.441 729.34 244.985V245.139C729.34 245.32 729.489 245.467 729.673 245.467Z" fill="white"/>
    <g filter="url(#filter12_d_0_1)">
        <path fill-rule="evenodd" clip-rule="evenodd" d="M767.999 158.714C775.574 158.714 781.714 152.574 781.714 144.999C781.714 137.425 775.574 131.285 767.999 131.285C760.425 131.285 754.285 137.425 754.285 144.999C754.285 152.574 760.425 158.714 767.999 158.714Z" fill="#C0E0A5"/>
        <path fill-rule="evenodd" clip-rule="evenodd" d="M767.999 158.714C775.574 158.714 781.714 152.574 781.714 144.999C781.714 137.425 775.574 131.285 767.999 131.285C760.425 131.285 754.285 137.425 754.285 144.999C754.285 152.574 760.425 158.714 767.999 158.714Z" stroke="white"/>
    </g>
    <circle cx="768" cy="145" r="18" stroke="url(#paint4_radial_0_1)" stroke-opacity="0.8" stroke-width="4"/>
    <path d="M768.198 143.615C769.164 143.615 769.932 143.886 770.502 144.429C771.076 144.971 771.363 145.714 771.363 146.657C771.363 147.774 771.019 148.633 770.331 149.234C769.643 149.836 768.659 150.137 767.378 150.137C766.266 150.137 765.368 149.957 764.685 149.597V147.771C765.045 147.963 765.464 148.12 765.942 148.243C766.421 148.362 766.874 148.421 767.303 148.421C768.592 148.421 769.237 147.892 769.237 146.835C769.237 145.828 768.57 145.324 767.234 145.324C766.993 145.324 766.726 145.349 766.435 145.399C766.143 145.445 765.906 145.495 765.724 145.55L764.883 145.099L765.259 140.006H770.68V141.797H767.111L766.927 143.759L767.166 143.711C767.444 143.647 767.788 143.615 768.198 143.615Z" fill="white"/>
    <g filter="url(#filter13_d_0_1)">
        <path fill-rule="evenodd" clip-rule="evenodd" d="M679.999 319.714C687.574 319.714 693.714 313.574 693.714 305.999C693.714 298.425 687.574 292.285 679.999 292.285C672.425 292.285 666.285 298.425 666.285 305.999C666.285 313.574 672.425 319.714 679.999 319.714Z" fill="#C0E0A5"/>
        <path fill-rule="evenodd" clip-rule="evenodd" d="M679.999 319.714C687.574 319.714 693.714 313.574 693.714 305.999C693.714 298.425 687.574 292.285 679.999 292.285C672.425 292.285 666.285 298.425 666.285 305.999C666.285 313.574 672.425 319.714 679.999 319.714Z" stroke="white"/>
    </g>
    <circle cx="680" cy="306" r="18" stroke="url(#paint5_radial_0_1)" stroke-opacity="0.8" stroke-width="4"/>
    <path d="M681.831 309.195C683.211 309.195 684.33 308.093 684.33 306.732C684.33 305.372 683.211 304.27 681.831 304.27C680.451 304.27 679.332 305.372 679.332 306.732C679.332 308.093 680.451 309.195 681.831 309.195Z" fill="white"/>
    <path fill-rule="evenodd" clip-rule="evenodd" d="M686.293 302.134H685.416C685.273 302.129 685.146 302.04 685.096 301.907L685.095 301.906C684.683 301.05 684.258 300.164 683.332 300.164H680C679.286 300.164 678.91 300.675 678.228 301.603C678.183 301.664 678.143 301.72 678.107 301.771C677.938 302.009 677.849 302.134 677.666 302.134H673.668C672.293 302.134 672.004 302.928 672.004 303.594V310.417C671.972 310.862 672.146 311.297 672.476 311.601C672.807 311.905 673.259 312.047 673.707 311.986H686.293C686.741 312.047 687.193 311.905 687.524 311.601C687.854 311.297 688.028 310.862 687.996 310.417V303.594C687.996 302.928 687.701 302.134 686.293 302.134ZM685.663 306.732C685.663 308.817 683.948 310.508 681.832 310.508C679.715 310.508 678 308.817 678 306.732C678 304.646 679.715 302.955 681.832 302.955C683.947 302.957 685.661 304.647 685.663 306.732ZM674.502 305.418C674.962 305.418 675.335 305.051 675.335 304.597C675.335 304.144 674.962 303.776 674.502 303.776C674.042 303.776 673.669 304.144 673.669 304.597C673.669 305.051 674.042 305.418 674.502 305.418Z" fill="white"/>
    <path d="M673.673 301.467L675.672 301.478V301.478C675.856 301.478 676.005 301.331 676.005 301.149V300.985C676.005 300.441 675.558 300 675.006 300H674.339C673.787 300 673.34 300.441 673.34 300.985V301.139C673.34 301.32 673.489 301.467 673.673 301.467Z" fill="white"/>
    <g filter="url(#filter14_d_0_1)">
        <path fill-rule="evenodd" clip-rule="evenodd" d="M222.999 212.714C230.574 212.714 236.714 206.574 236.714 198.999C236.714 191.425 230.574 185.285 222.999 185.285C215.425 185.285 209.285 191.425 209.285 198.999C209.285 206.574 215.425 212.714 222.999 212.714Z" fill="#C0E0A5"/>
        <path fill-rule="evenodd" clip-rule="evenodd" d="M222.999 212.714C230.574 212.714 236.714 206.574 236.714 198.999C236.714 191.425 230.574 185.285 222.999 185.285C215.425 185.285 209.285 191.425 209.285 198.999C209.285 206.574 215.425 212.714 222.999 212.714Z" stroke="white"/>
    </g>
    <circle cx="223" cy="199" r="18" stroke="url(#paint6_radial_0_1)" stroke-opacity="0.8" stroke-width="4"/>
    <path d="M224.831 202.195C226.211 202.195 227.33 201.093 227.33 199.732C227.33 198.372 226.211 197.27 224.831 197.27C223.451 197.27 222.332 198.372 222.332 199.732C222.332 201.093 223.451 202.195 224.831 202.195Z" fill="white"/>
    <path fill-rule="evenodd" clip-rule="evenodd" d="M229.293 195.134H228.416C228.273 195.129 228.146 195.04 228.096 194.907L228.095 194.906C227.683 194.05 227.258 193.164 226.332 193.164H223C222.286 193.164 221.91 193.675 221.228 194.603C221.183 194.664 221.143 194.72 221.107 194.771C220.938 195.009 220.849 195.134 220.666 195.134H216.668C215.293 195.134 215.004 195.928 215.004 196.594V203.417C214.972 203.862 215.146 204.297 215.476 204.601C215.807 204.905 216.259 205.047 216.707 204.986H229.293C229.741 205.047 230.193 204.905 230.524 204.601C230.854 204.297 231.028 203.862 230.996 203.417V196.594C230.996 195.928 230.701 195.134 229.293 195.134ZM228.663 199.732C228.663 201.817 226.948 203.508 224.832 203.508C222.715 203.508 221 201.817 221 199.732C221 197.646 222.715 195.955 224.832 195.955C226.947 195.957 228.661 197.647 228.663 199.732ZM217.502 198.418C217.962 198.418 218.335 198.051 218.335 197.597C218.335 197.144 217.962 196.776 217.502 196.776C217.042 196.776 216.669 197.144 216.669 197.597C216.669 198.051 217.042 198.418 217.502 198.418Z" fill="white"/>
    <path d="M216.673 194.467L218.672 194.478V194.478C218.856 194.478 219.005 194.331 219.005 194.149V193.985C219.005 193.441 218.558 193 218.006 193H217.339C216.787 193 216.34 193.441 216.34 193.985V194.139C216.34 194.32 216.489 194.467 216.673 194.467Z" fill="white"/>
    <g filter="url(#filter15_d_0_1)">
        <path fill-rule="evenodd" clip-rule="evenodd" d="M526.999 274.714C534.574 274.714 540.714 268.574 540.714 260.999C540.714 253.425 534.574 247.285 526.999 247.285C519.425 247.285 513.285 253.425 513.285 260.999C513.285 268.574 519.425 274.714 526.999 274.714Z" fill="#81C14B"/>
        <path fill-rule="evenodd" clip-rule="evenodd" d="M526.999 274.714C534.574 274.714 540.714 268.574 540.714 260.999C540.714 253.425 534.574 247.285 526.999 247.285C519.425 247.285 513.285 253.425 513.285 260.999C513.285 268.574 519.425 274.714 526.999 274.714Z" stroke="white"/>
    </g>
    <circle cx="527" cy="261" r="18" stroke="url(#paint7_radial_0_1)" stroke-opacity="0.8" stroke-width="4"/>
    <path d="M528.831 264.195C530.211 264.195 531.33 263.093 531.33 261.732C531.33 260.372 530.211 259.27 528.831 259.27C527.451 259.27 526.332 260.372 526.332 261.732C526.332 263.093 527.451 264.195 528.831 264.195Z" fill="white"/>
    <path fill-rule="evenodd" clip-rule="evenodd" d="M533.293 257.134H532.416C532.273 257.129 532.146 257.04 532.096 256.907L532.095 256.906C531.683 256.05 531.258 255.164 530.332 255.164H527C526.286 255.164 525.91 255.675 525.228 256.603C525.183 256.664 525.143 256.72 525.107 256.771C524.938 257.009 524.849 257.134 524.666 257.134H520.668C519.293 257.134 519.004 257.928 519.004 258.594V265.417C518.972 265.862 519.146 266.297 519.476 266.601C519.807 266.905 520.259 267.047 520.707 266.986H533.293C533.741 267.047 534.193 266.905 534.524 266.601C534.854 266.297 535.028 265.862 534.996 265.417V258.594C534.996 257.928 534.701 257.134 533.293 257.134ZM532.663 261.732C532.663 263.817 530.948 265.508 528.832 265.508C526.715 265.508 525 263.817 525 261.732C525 259.646 526.715 257.955 528.832 257.955C530.947 257.957 532.661 259.647 532.663 261.732ZM521.502 260.418C521.962 260.418 522.335 260.051 522.335 259.597C522.335 259.144 521.962 258.776 521.502 258.776C521.042 258.776 520.669 259.144 520.669 259.597C520.669 260.051 521.042 260.418 521.502 260.418Z" fill="white"/>
    <path d="M520.673 256.467L522.672 256.478V256.478C522.856 256.478 523.005 256.331 523.005 256.149V255.985C523.005 255.441 522.558 255 522.006 255H521.339C520.787 255 520.34 255.441 520.34 255.985V256.139C520.34 256.32 520.489 256.467 520.673 256.467Z" fill="white"/>
    <g filter="url(#filter16_d_0_1)">
        <path fill-rule="evenodd" clip-rule="evenodd" d="M297.999 251.714C305.574 251.714 311.714 245.574 311.714 237.999C311.714 230.425 305.574 224.285 297.999 224.285C290.425 224.285 284.285 230.425 284.285 237.999C284.285 245.574 290.425 251.714 297.999 251.714Z" fill="#C0E0A5"/>
        <path fill-rule="evenodd" clip-rule="evenodd" d="M297.999 251.714C305.574 251.714 311.714 245.574 311.714 237.999C311.714 230.425 305.574 224.285 297.999 224.285C290.425 224.285 284.285 230.425 284.285 237.999C284.285 245.574 290.425 251.714 297.999 251.714Z" stroke="white"/>
    </g>
    <circle cx="298" cy="238" r="18" stroke="url(#paint8_radial_0_1)" stroke-opacity="0.8" stroke-width="4"/>
    <path d="M299.831 241.195C301.211 241.195 302.33 240.093 302.33 238.732C302.33 237.372 301.211 236.27 299.831 236.27C298.451 236.27 297.332 237.372 297.332 238.732C297.332 240.093 298.451 241.195 299.831 241.195Z" fill="white"/>
    <path fill-rule="evenodd" clip-rule="evenodd" d="M304.293 234.134H303.416C303.273 234.129 303.146 234.04 303.096 233.907L303.095 233.906C302.683 233.05 302.258 232.164 301.332 232.164H298C297.286 232.164 296.91 232.675 296.228 233.603C296.183 233.664 296.143 233.72 296.107 233.771C295.938 234.009 295.849 234.134 295.666 234.134H291.668C290.293 234.134 290.004 234.928 290.004 235.594V242.417C289.972 242.862 290.146 243.297 290.476 243.601C290.807 243.905 291.259 244.047 291.707 243.986H304.293C304.741 244.047 305.193 243.905 305.524 243.601C305.854 243.297 306.028 242.862 305.996 242.417V235.594C305.996 234.928 305.701 234.134 304.293 234.134ZM303.663 238.732C303.663 240.817 301.948 242.508 299.832 242.508C297.715 242.508 296 240.817 296 238.732C296 236.646 297.715 234.955 299.832 234.955C301.947 234.957 303.661 236.647 303.663 238.732ZM292.502 237.418C292.962 237.418 293.335 237.051 293.335 236.597C293.335 236.144 292.962 235.776 292.502 235.776C292.042 235.776 291.669 236.144 291.669 236.597C291.669 237.051 292.042 237.418 292.502 237.418Z" fill="white"/>
    <path d="M291.673 233.467L293.672 233.478V233.478C293.856 233.478 294.005 233.331 294.005 233.149V232.985C294.005 232.441 293.558 232 293.006 232H292.339C291.787 232 291.34 232.441 291.34 232.985V233.139C291.34 233.32 291.489 233.467 291.673 233.467Z" fill="white"/>
    <g filter="url(#filter17_d_0_1)">
        <path fill-rule="evenodd" clip-rule="evenodd" d="M454.999 279.714C462.574 279.714 468.714 273.574 468.714 265.999C468.714 258.425 462.574 252.285 454.999 252.285C447.425 252.285 441.285 258.425 441.285 265.999C441.285 273.574 447.425 279.714 454.999 279.714Z" fill="#81C14B"/>
        <path fill-rule="evenodd" clip-rule="evenodd" d="M454.999 279.714C462.574 279.714 468.714 273.574 468.714 265.999C468.714 258.425 462.574 252.285 454.999 252.285C447.425 252.285 441.285 258.425 441.285 265.999C441.285 273.574 447.425 279.714 454.999 279.714Z" stroke="white"/>
    </g>
    <circle cx="455" cy="266" r="18" stroke="url(#paint9_radial_0_1)" stroke-opacity="0.8" stroke-width="4"/>
    <path d="M456.831 269.195C458.211 269.195 459.33 268.093 459.33 266.732C459.33 265.372 458.211 264.27 456.831 264.27C455.451 264.27 454.332 265.372 454.332 266.732C454.332 268.093 455.451 269.195 456.831 269.195Z" fill="white"/>
    <path fill-rule="evenodd" clip-rule="evenodd" d="M461.293 262.134H460.416C460.273 262.129 460.146 262.04 460.096 261.907L460.095 261.906C459.683 261.05 459.258 260.164 458.332 260.164H455C454.286 260.164 453.91 260.675 453.228 261.603C453.183 261.664 453.143 261.72 453.107 261.771C452.938 262.009 452.849 262.134 452.666 262.134H448.668C447.293 262.134 447.004 262.928 447.004 263.594V270.417C446.972 270.862 447.146 271.297 447.476 271.601C447.807 271.905 448.259 272.047 448.707 271.986H461.293C461.741 272.047 462.193 271.905 462.524 271.601C462.854 271.297 463.028 270.862 462.996 270.417V263.594C462.996 262.928 462.701 262.134 461.293 262.134ZM460.663 266.732C460.663 268.817 458.948 270.508 456.832 270.508C454.715 270.508 453 268.817 453 266.732C453 264.646 454.715 262.955 456.832 262.955C458.947 262.957 460.661 264.647 460.663 266.732ZM449.502 265.418C449.962 265.418 450.335 265.051 450.335 264.597C450.335 264.144 449.962 263.776 449.502 263.776C449.042 263.776 448.669 264.144 448.669 264.597C448.669 265.051 449.042 265.418 449.502 265.418Z" fill="white"/>
    <path d="M448.673 261.467L450.672 261.478V261.478C450.856 261.478 451.005 261.331 451.005 261.149V260.985C451.005 260.441 450.558 260 450.006 260H449.339C448.787 260 448.34 260.441 448.34 260.985V261.139C448.34 261.32 448.489 261.467 448.673 261.467Z" fill="white"/>
    <g filter="url(#filter18_d_0_1)">
        <path fill-rule="evenodd" clip-rule="evenodd" d="M336.999 129.714C344.574 129.714 350.714 123.574 350.714 115.999C350.714 108.425 344.574 102.285 336.999 102.285C329.425 102.285 323.285 108.425 323.285 115.999C323.285 123.574 329.425 129.714 336.999 129.714Z" fill="#944BBB"/>
        <path fill-rule="evenodd" clip-rule="evenodd" d="M336.999 129.714C344.574 129.714 350.714 123.574 350.714 115.999C350.714 108.425 344.574 102.285 336.999 102.285C329.425 102.285 323.285 108.425 323.285 115.999C323.285 123.574 329.425 129.714 336.999 129.714Z" stroke="white"/>
    </g>
    <circle cx="337" cy="116" r="18" stroke="url(#paint10_radial_0_1)" stroke-opacity="0.8" stroke-width="4"/>
    <path fill-rule="evenodd" clip-rule="evenodd" d="M343.781 114.545C343.774 114.596 343.791 114.647 343.826 114.684C344.364 115.238 344.665 115.978 344.665 116.75V118.083C344.663 118.767 344.242 119.38 343.604 119.627C343.541 119.652 343.499 119.714 343.498 119.782V121.08C343.498 121.909 342.827 122.58 341.998 122.58C341.17 122.58 340.498 121.909 340.498 121.08V119.914C340.498 119.822 340.424 119.747 340.332 119.747H333.665C333.573 119.747 333.498 119.822 333.498 119.914V121.08C333.498 121.909 332.827 122.58 331.998 122.58C331.17 122.58 330.498 121.909 330.498 121.08V119.78C330.498 119.711 330.456 119.65 330.392 119.624C329.755 119.377 329.334 118.764 329.332 118.08V116.747C329.333 115.977 329.633 115.238 330.168 114.686C330.204 114.649 330.221 114.597 330.214 114.546C330.206 114.496 330.176 114.451 330.132 114.426L329.598 114.117C329.12 113.841 328.956 113.229 329.232 112.75C329.508 112.272 330.12 112.108 330.598 112.384L331.307 112.794C331.355 112.821 331.412 112.823 331.462 112.8C331.511 112.776 331.546 112.73 331.555 112.676L331.822 111.088C331.979 110.121 332.815 109.413 333.794 109.415H340.2C341.178 109.413 342.014 110.121 342.172 111.086L342.439 112.675C342.448 112.729 342.483 112.775 342.532 112.798C342.581 112.822 342.639 112.82 342.686 112.792L343.396 112.382C343.706 112.204 344.087 112.204 344.397 112.383C344.706 112.562 344.897 112.892 344.897 113.249C344.897 113.607 344.706 113.937 344.396 114.116L343.863 114.424C343.819 114.45 343.788 114.494 343.781 114.545ZM340.202 110.75H333.794C333.469 110.75 333.191 110.984 333.137 111.305L332.818 113.22C332.81 113.269 332.823 113.318 332.855 113.356C332.887 113.393 332.933 113.414 332.982 113.414H341.014C341.063 113.414 341.11 113.393 341.142 113.356C341.173 113.319 341.186 113.27 341.179 113.222L340.86 111.307C340.806 110.986 340.528 110.75 340.202 110.75ZM341.998 118.083C341.446 118.083 340.998 117.635 340.998 117.083C340.998 116.531 341.446 116.083 341.998 116.083C342.551 116.083 342.998 116.531 342.998 117.083C342.998 117.635 342.551 118.083 341.998 118.083ZM331.998 116.083C331.446 116.083 330.998 116.531 330.998 117.083C330.998 117.348 331.104 117.603 331.291 117.79C331.479 117.978 331.733 118.083 331.998 118.083C332.551 118.083 332.998 117.635 332.998 117.083C332.998 116.531 332.551 116.083 331.998 116.083Z" fill="white"/>
    <g filter="url(#filter19_d_0_1)">
        <path fill-rule="evenodd" clip-rule="evenodd" d="M299.999 118.714C307.574 118.714 313.714 112.574 313.714 104.999C313.714 97.4253 307.574 91.2852 299.999 91.2852C292.425 91.2852 286.285 97.4253 286.285 104.999C286.285 112.574 292.425 118.714 299.999 118.714Z" fill="#4387D9"/>
        <path fill-rule="evenodd" clip-rule="evenodd" d="M299.999 118.714C307.574 118.714 313.714 112.574 313.714 104.999C313.714 97.4253 307.574 91.2852 299.999 91.2852C292.425 91.2852 286.285 97.4253 286.285 104.999C286.285 112.574 292.425 118.714 299.999 118.714Z" stroke="white"/>
    </g>
    <circle cx="300" cy="105" r="18" stroke="url(#paint11_radial_0_1)" stroke-opacity="0.8" stroke-width="4"/>
    <path d="M306.455 104.277L296.879 102.589C296.792 102.572 296.715 102.522 296.665 102.449L295.82 101.246C295.719 101.101 295.564 101.003 295.39 100.972L293.431 100.627C293.203 100.586 292.97 100.667 292.816 100.84C292.662 101.013 292.609 101.253 292.676 101.475L293.738 105.047C293.809 105.29 294.012 105.471 294.261 105.514L298.122 106.194C298.188 106.206 298.241 106.257 298.256 106.323C298.27 106.388 298.244 106.457 298.188 106.495L295.204 108.583C294.983 108.738 294.876 109.01 294.935 109.274C294.993 109.537 295.204 109.74 295.47 109.787L297.824 110.202C297.998 110.232 298.177 110.193 298.322 110.091L302.616 107.087C302.689 107.036 302.778 107.016 302.865 107.032L305.876 107.562C306.782 107.722 307.647 107.117 307.807 106.211C307.967 105.304 307.361 104.44 306.455 104.28L306.455 104.277Z" fill="white"/>
    <path d="M299.465 102.265C299.516 102.338 299.593 102.387 299.68 102.402L302.7 102.935C302.766 102.946 302.833 102.917 302.869 102.86C302.905 102.803 302.904 102.73 302.865 102.675L300.821 99.7553C300.72 99.6104 300.565 99.5118 300.391 99.4811L298.695 99.1822C298.43 99.1354 298.162 99.2532 298.018 99.4805C297.873 99.7079 297.879 100 298.034 100.221L299.465 102.265Z" fill="white"/>
    <g filter="url(#filter20_d_0_1)">
        <path fill-rule="evenodd" clip-rule="evenodd" d="M521.999 230.714C529.574 230.714 535.714 224.574 535.714 216.999C535.714 209.425 529.574 203.285 521.999 203.285C514.425 203.285 508.285 209.425 508.285 216.999C508.285 224.574 514.425 230.714 521.999 230.714Z" fill="#4387D9"/>
        <path fill-rule="evenodd" clip-rule="evenodd" d="M521.999 230.714C529.574 230.714 535.714 224.574 535.714 216.999C535.714 209.425 529.574 203.285 521.999 203.285C514.425 203.285 508.285 209.425 508.285 216.999C508.285 224.574 514.425 230.714 521.999 230.714Z" stroke="white"/>
    </g>
    <circle cx="522" cy="217" r="18" stroke="url(#paint12_radial_0_1)" stroke-opacity="0.8" stroke-width="4"/>
    <path fill-rule="evenodd" clip-rule="evenodd" d="M516.668 214.333C516.671 211.389 519.057 209.003 522.001 209C524.945 209.003 527.331 211.389 527.335 214.333C527.335 216.676 524.001 222.351 522.569 224.682C522.449 224.88 522.233 225.001 522.001 225C521.77 225 521.555 224.88 521.433 224.683C520.001 222.35 516.668 216.673 516.668 214.333ZM519.668 214.333C519.668 215.622 520.713 216.667 522.001 216.667C523.29 216.667 524.335 215.622 524.335 214.333C524.335 213.045 523.29 212 522.001 212C520.713 212 519.668 213.045 519.668 214.333Z" fill="white"/>
    <g filter="url(#filter21_d_0_1)">
        <path fill-rule="evenodd" clip-rule="evenodd" d="M484.999 210.714C492.574 210.714 498.714 204.574 498.714 196.999C498.714 189.425 492.574 183.285 484.999 183.285C477.425 183.285 471.285 189.425 471.285 196.999C471.285 204.574 477.425 210.714 484.999 210.714Z" fill="#C0E0A5"/>
        <path fill-rule="evenodd" clip-rule="evenodd" d="M484.999 210.714C492.574 210.714 498.714 204.574 498.714 196.999C498.714 189.425 492.574 183.285 484.999 183.285C477.425 183.285 471.285 189.425 471.285 196.999C471.285 204.574 477.425 210.714 484.999 210.714Z" stroke="white"/>
    </g>
    <path d="M488.548 202H481.562V200.53L484.07 197.994C484.813 197.233 485.299 196.707 485.526 196.415C485.754 196.119 485.918 195.845 486.019 195.595C486.119 195.344 486.169 195.084 486.169 194.815C486.169 194.414 486.057 194.116 485.834 193.92C485.615 193.724 485.321 193.626 484.952 193.626C484.565 193.626 484.189 193.715 483.824 193.893C483.46 194.07 483.079 194.323 482.683 194.651L481.534 193.291C482.026 192.872 482.434 192.576 482.758 192.402C483.081 192.229 483.435 192.097 483.817 192.006C484.2 191.91 484.629 191.862 485.103 191.862C485.727 191.862 486.278 191.976 486.757 192.204C487.235 192.432 487.607 192.751 487.871 193.161C488.135 193.571 488.268 194.041 488.268 194.569C488.268 195.03 488.186 195.463 488.021 195.868C487.862 196.269 487.611 196.682 487.27 197.105C486.932 197.529 486.335 198.133 485.479 198.917L484.193 200.127V200.223H488.548V202Z" fill="white"/>
    <circle cx="485" cy="197" r="18" stroke="url(#paint13_radial_0_1)" stroke-opacity="0.8" stroke-width="4"/>
    <g filter="url(#filter22_d_0_1)">
        <path fill-rule="evenodd" clip-rule="evenodd" d="M555.999 179.714C563.574 179.714 569.714 173.574 569.714 165.999C569.714 158.425 563.574 152.285 555.999 152.285C548.425 152.285 542.285 158.425 542.285 165.999C542.285 173.574 548.425 179.714 555.999 179.714Z" fill="#C0E0A5"/>
        <path fill-rule="evenodd" clip-rule="evenodd" d="M555.999 179.714C563.574 179.714 569.714 173.574 569.714 165.999C569.714 158.425 563.574 152.285 555.999 152.285C548.425 152.285 542.285 158.425 542.285 165.999C542.285 173.574 548.425 179.714 555.999 179.714Z" stroke="white"/>
    </g>
    <circle cx="556" cy="166" r="18" stroke="url(#paint14_radial_0_1)" stroke-opacity="0.8" stroke-width="4"/>
    <path d="M557.831 169.195C559.211 169.195 560.33 168.093 560.33 166.732C560.33 165.372 559.211 164.27 557.831 164.27C556.451 164.27 555.332 165.372 555.332 166.732C555.332 168.093 556.451 169.195 557.831 169.195Z" fill="white"/>
    <path fill-rule="evenodd" clip-rule="evenodd" d="M562.293 162.134H561.416C561.273 162.129 561.146 162.04 561.096 161.907L561.095 161.906C560.683 161.05 560.258 160.164 559.332 160.164H556C555.286 160.164 554.91 160.675 554.228 161.603C554.183 161.664 554.143 161.72 554.107 161.771C553.938 162.009 553.849 162.134 553.666 162.134H549.668C548.293 162.134 548.004 162.928 548.004 163.594V170.417C547.972 170.862 548.146 171.297 548.476 171.601C548.807 171.905 549.259 172.047 549.707 171.986H562.293C562.741 172.047 563.193 171.905 563.524 171.601C563.854 171.297 564.028 170.862 563.996 170.417V163.594C563.996 162.928 563.701 162.134 562.293 162.134ZM561.663 166.732C561.663 168.817 559.948 170.508 557.832 170.508C555.715 170.508 554 168.817 554 166.732C554 164.646 555.715 162.955 557.832 162.955C559.947 162.957 561.661 164.647 561.663 166.732ZM550.502 165.418C550.962 165.418 551.335 165.051 551.335 164.597C551.335 164.144 550.962 163.776 550.502 163.776C550.042 163.776 549.669 164.144 549.669 164.597C549.669 165.051 550.042 165.418 550.502 165.418Z" fill="white"/>
    <path d="M549.673 161.467L551.672 161.478V161.478C551.856 161.478 552.005 161.331 552.005 161.149V160.985C552.005 160.441 551.558 160 551.006 160H550.339C549.787 160 549.34 160.441 549.34 160.985V161.139C549.34 161.32 549.489 161.467 549.673 161.467Z" fill="white"/>
    <g filter="url(#filter23_d_0_1)">
        <path fill-rule="evenodd" clip-rule="evenodd" d="M418.999 228.714C426.574 228.714 432.714 222.574 432.714 214.999C432.714 207.425 426.574 201.285 418.999 201.285C411.425 201.285 405.285 207.425 405.285 214.999C405.285 222.574 411.425 228.714 418.999 228.714Z" fill="#C0E0A5"/>
        <path fill-rule="evenodd" clip-rule="evenodd" d="M418.999 228.714C426.574 228.714 432.714 222.574 432.714 214.999C432.714 207.425 426.574 201.285 418.999 201.285C411.425 201.285 405.285 207.425 405.285 214.999C405.285 222.574 411.425 228.714 418.999 228.714Z" stroke="white"/>
    </g>
    <circle cx="419" cy="215" r="18" stroke="url(#paint15_radial_0_1)" stroke-opacity="0.8" stroke-width="4"/>
    <path d="M420.831 218.195C422.211 218.195 423.33 217.093 423.33 215.732C423.33 214.372 422.211 213.27 420.831 213.27C419.451 213.27 418.332 214.372 418.332 215.732C418.332 217.093 419.451 218.195 420.831 218.195Z" fill="white"/>
    <path fill-rule="evenodd" clip-rule="evenodd" d="M425.293 211.134H424.416C424.273 211.129 424.146 211.04 424.096 210.907L424.095 210.906C423.683 210.05 423.258 209.164 422.332 209.164H419C418.286 209.164 417.91 209.675 417.228 210.603C417.183 210.664 417.143 210.72 417.107 210.771C416.938 211.009 416.849 211.134 416.666 211.134H412.668C411.293 211.134 411.004 211.928 411.004 212.594V219.417C410.972 219.862 411.146 220.297 411.476 220.601C411.807 220.905 412.259 221.047 412.707 220.986H425.293C425.741 221.047 426.193 220.905 426.524 220.601C426.854 220.297 427.028 219.862 426.996 219.417V212.594C426.996 211.928 426.701 211.134 425.293 211.134ZM424.663 215.732C424.663 217.817 422.948 219.508 420.832 219.508C418.715 219.508 417 217.817 417 215.732C417 213.646 418.715 211.955 420.832 211.955C422.947 211.957 424.661 213.647 424.663 215.732ZM413.502 214.418C413.962 214.418 414.335 214.051 414.335 213.597C414.335 213.144 413.962 212.776 413.502 212.776C413.042 212.776 412.669 213.144 412.669 213.597C412.669 214.051 413.042 214.418 413.502 214.418Z" fill="white"/>
    <path d="M412.673 210.467L414.672 210.478V210.478C414.856 210.478 415.005 210.331 415.005 210.149V209.985C415.005 209.441 414.558 209 414.006 209H413.339C412.787 209 412.34 209.441 412.34 209.985V210.139C412.34 210.32 412.489 210.467 412.673 210.467Z" fill="white"/>
    <defs>
        <filter id="filter0_d_0_1" x="84" y="4" width="72" height="40" filterUnits="userSpaceOnUse" color-interpolation-filters="sRGB">
            <feFlood flood-opacity="0" result="BackgroundImageFix"/>
            <feColorMatrix in="SourceAlpha" type="matrix" values="0 0 0 0 0 0 0 0 0 0 0 0 0 0 0 0 0 0 127 0" result="hardAlpha"/>
            <feOffset/>
            <feGaussianBlur stdDeviation="2"/>
            <feColorMatrix type="matrix" values="0 0 0 0 0 0 0 0 0 0 0 0 0 0 0 0 0 0 0.15 0"/>
            <feBlend mode="normal" in2="BackgroundImageFix" result="effect1_dropShadow_0_1"/>
            <feBlend mode="normal" in="SourceGraphic" in2="effect1_dropShadow_0_1" result="shape"/>
        </filter>
        <filter id="filter1_d_0_1" x="12" y="4" width="72" height="40" filterUnits="userSpaceOnUse" color-interpolation-filters="sRGB">
            <feFlood flood-opacity="0" result="BackgroundImageFix"/>
            <feColorMatrix in="SourceAlpha" type="matrix" values="0 0 0 0 0 0 0 0 0 0 0 0 0 0 0 0 0 0 127 0" result="hardAlpha"/>
            <feOffset/>
            <feGaussianBlur stdDeviation="2"/>
            <feColorMatrix type="matrix" values="0 0 0 0 0 0 0 0 0 0 0 0 0 0 0 0 0 0 0.15 0"/>
            <feBlend mode="normal" in2="BackgroundImageFix" result="effect1_dropShadow_0_1"/>
            <feBlend mode="normal" in="SourceGraphic" in2="effect1_dropShadow_0_1" result="shape"/>
        </filter>
        <filter id="filter2_d_0_1" x="156" y="4" width="72" height="40" filterUnits="userSpaceOnUse" color-interpolation-filters="sRGB">
            <feFlood flood-opacity="0" result="BackgroundImageFix"/>
            <feColorMatrix in="SourceAlpha" type="matrix" values="0 0 0 0 0 0 0 0 0 0 0 0 0 0 0 0 0 0 127 0" result="hardAlpha"/>
            <feOffset/>
            <feGaussianBlur stdDeviation="2"/>
            <feColorMatrix type="matrix" values="0 0 0 0 0 0 0 0 0 0 0 0 0 0 0 0 0 0 0.15 0"/>
            <feBlend mode="normal" in2="BackgroundImageFix" result="effect1_dropShadow_0_1"/>
            <feBlend mode="normal" in="SourceGraphic" in2="effect1_dropShadow_0_1" result="shape"/>
        </filter>
        <filter id="filter3_d_0_1" x="228" y="4" width="72" height="40" filterUnits="userSpaceOnUse" color-interpolation-filters="sRGB">
            <feFlood flood-opacity="0" result="BackgroundImageFix"/>
            <feColorMatrix in="SourceAlpha" type="matrix" values="0 0 0 0 0 0 0 0 0 0 0 0 0 0 0 0 0 0 127 0" result="hardAlpha"/>
            <feOffset/>
            <feGaussianBlur stdDeviation="2"/>
            <feColorMatrix type="matrix" values="0 0 0 0 0 0 0 0 0 0 0 0 0 0 0 0 0 0 0.15 0"/>
            <feBlend mode="normal" in2="BackgroundImageFix" result="effect1_dropShadow_0_1"/>
            <feBlend mode="normal" in="SourceGraphic" in2="effect1_dropShadow_0_1" result="shape"/>
        </filter>
        <filter id="filter4_d_0_1" x="300" y="4" width="72" height="40" filterUnits="userSpaceOnUse" color-interpolation-filters="sRGB">
            <feFlood flood-opacity="0" result="BackgroundImageFix"/>
            <feColorMatrix in="SourceAlpha" type="matrix" values="0 0 0 0 0 0 0 0 0 0 0 0 0 0 0 0 0 0 127 0" result="hardAlpha"/>
            <feOffset/>
            <feGaussianBlur stdDeviation="2"/>
            <feColorMatrix type="matrix" values="0 0 0 0 0 0 0 0 0 0 0 0 0 0 0 0 0 0 0.15 0"/>
            <feBlend mode="normal" in2="BackgroundImageFix" result="effect1_dropShadow_0_1"/>
            <feBlend mode="normal" in="SourceGraphic" in2="effect1_dropShadow_0_1" result="shape"/>
        </filter>
        <filter id="filter5_d_0_1" x="372" y="4" width="72" height="40" filterUnits="userSpaceOnUse" color-interpolation-filters="sRGB">
            <feFlood flood-opacity="0" result="BackgroundImageFix"/>
            <feColorMatrix in="SourceAlpha" type="matrix" values="0 0 0 0 0 0 0 0 0 0 0 0 0 0 0 0 0 0 127 0" result="hardAlpha"/>
            <feOffset/>
            <feGaussianBlur stdDeviation="2"/>
            <feColorMatrix type="matrix" values="0 0 0 0 0 0 0 0 0 0 0 0 0 0 0 0 0 0 0.15 0"/>
            <feBlend mode="normal" in2="BackgroundImageFix" result="effect1_dropShadow_0_1"/>
            <feBlend mode="normal" in="SourceGraphic" in2="effect1_dropShadow_0_1" result="shape"/>
        </filter>
        <filter id="filter6_d_0_1" x="444" y="4" width="72" height="40" filterUnits="userSpaceOnUse" color-interpolation-filters="sRGB">
            <feFlood flood-opacity="0" result="BackgroundImageFix"/>
            <feColorMatrix in="SourceAlpha" type="matrix" values="0 0 0 0 0 0 0 0 0 0 0 0 0 0 0 0 0 0 127 0" result="hardAlpha"/>
            <feOffset/>
            <feGaussianBlur stdDeviation="2"/>
            <feColorMatrix type="matrix" values="0 0 0 0 0 0 0 0 0 0 0 0 0 0 0 0 0 0 0.15 0"/>
            <feBlend mode="normal" in2="BackgroundImageFix" result="effect1_dropShadow_0_1"/>
            <feBlend mode="normal" in="SourceGraphic" in2="effect1_dropShadow_0_1" result="shape"/>
        </filter>
        <filter id="filter7_d_0_1" x="468.785" y="221.785" width="36.4297" height="36.4287" filterUnits="userSpaceOnUse" color-interpolation-filters="sRGB">
            <feFlood flood-opacity="0" result="BackgroundImageFix"/>
            <feColorMatrix in="SourceAlpha" type="matrix" values="0 0 0 0 0 0 0 0 0 0 0 0 0 0 0 0 0 0 127 0" result="hardAlpha"/>
            <feOffset/>
            <feGaussianBlur stdDeviation="2"/>
            <feColorMatrix type="matrix" values="0 0 0 0 0.4 0 0 0 0 0.4 0 0 0 0 0.4 0 0 0 0.3 0"/>
            <feBlend mode="normal" in2="BackgroundImageFix" result="effect1_dropShadow_0_1"/>
            <feBlend mode="normal" in="SourceGraphic" in2="effect1_dropShadow_0_1" result="shape"/>
        </filter>
        <filter id="filter8_dd_0_1" x="851" y="267" width="64" height="96" filterUnits="userSpaceOnUse" color-interpolation-filters="sRGB">
            <feFlood flood-opacity="0" result="BackgroundImageFix"/>
            <feColorMatrix in="SourceAlpha" type="matrix" values="0 0 0 0 0 0 0 0 0 0 0 0 0 0 0 0 0 0 127 0" result="hardAlpha"/>
            <feOffset dy="8"/>
            <feGaussianBlur stdDeviation="8"/>
            <feColorMatrix type="matrix" values="0 0 0 0 0.4 0 0 0 0 0.4 0 0 0 0 0.4 0 0 0 0.15 0"/>
            <feBlend mode="normal" in2="BackgroundImageFix" result="effect1_dropShadow_0_1"/>
            <feColorMatrix in="SourceAlpha" type="matrix" values="0 0 0 0 0 0 0 0 0 0 0 0 0 0 0 0 0 0 127 0" result="hardAlpha"/>
            <feOffset dy="2"/>
            <feGaussianBlur stdDeviation="2"/>
            <feColorMatrix type="matrix" values="0 0 0 0 0.4 0 0 0 0 0.4 0 0 0 0 0.4 0 0 0 0.1 0"/>
            <feBlend mode="normal" in2="effect1_dropShadow_0_1" result="effect2_dropShadow_0_1"/>
            <feBlend mode="normal" in="SourceGraphic" in2="effect2_dropShadow_0_1" result="shape"/>
        </filter>
        <filter id="filter9_d_0_1" x="137.785" y="96.7852" width="36.4297" height="36.4287" filterUnits="userSpaceOnUse" color-interpolation-filters="sRGB">
            <feFlood flood-opacity="0" result="BackgroundImageFix"/>
            <feColorMatrix in="SourceAlpha" type="matrix" values="0 0 0 0 0 0 0 0 0 0 0 0 0 0 0 0 0 0 127 0" result="hardAlpha"/>
            <feOffset/>
            <feGaussianBlur stdDeviation="2"/>
            <feColorMatrix type="matrix" values="0 0 0 0 0.4 0 0 0 0 0.4 0 0 0 0 0.4 0 0 0 0.3 0"/>
            <feBlend mode="normal" in2="BackgroundImageFix" result="effect1_dropShadow_0_1"/>
            <feBlend mode="normal" in="SourceGraphic" in2="effect1_dropShadow_0_1" result="shape"/>
        </filter>
        <filter id="filter10_d_0_1" x="557.785" y="212.785" width="36.4297" height="36.4287" filterUnits="userSpaceOnUse" color-interpolation-filters="sRGB">
            <feFlood flood-opacity="0" result="BackgroundImageFix"/>
            <feColorMatrix in="SourceAlpha" type="matrix" values="0 0 0 0 0 0 0 0 0 0 0 0 0 0 0 0 0 0 127 0" result="hardAlpha"/>
            <feOffset/>
            <feGaussianBlur stdDeviation="2"/>
            <feColorMatrix type="matrix" values="0 0 0 0 0.4 0 0 0 0 0.4 0 0 0 0 0.4 0 0 0 0.3 0"/>
            <feBlend mode="normal" in2="BackgroundImageFix" result="effect1_dropShadow_0_1"/>
            <feBlend mode="normal" in="SourceGraphic" in2="effect1_dropShadow_0_1" result="shape"/>
        </filter>
        <filter id="filter11_d_0_1" x="717.785" y="231.785" width="36.4297" height="36.4287" filterUnits="userSpaceOnUse" color-interpolation-filters="sRGB">
            <feFlood flood-opacity="0" result="BackgroundImageFix"/>
            <feColorMatrix in="SourceAlpha" type="matrix" values="0 0 0 0 0 0 0 0 0 0 0 0 0 0 0 0 0 0 127 0" result="hardAlpha"/>
            <feOffset/>
            <feGaussianBlur stdDeviation="2"/>
            <feColorMatrix type="matrix" values="0 0 0 0 0.4 0 0 0 0 0.4 0 0 0 0 0.4 0 0 0 0.3 0"/>
            <feBlend mode="normal" in2="BackgroundImageFix" result="effect1_dropShadow_0_1"/>
            <feBlend mode="normal" in="SourceGraphic" in2="effect1_dropShadow_0_1" result="shape"/>
        </filter>
        <filter id="filter12_d_0_1" x="749.785" y="126.785" width="36.4297" height="36.4287" filterUnits="userSpaceOnUse" color-interpolation-filters="sRGB">
            <feFlood flood-opacity="0" result="BackgroundImageFix"/>
            <feColorMatrix in="SourceAlpha" type="matrix" values="0 0 0 0 0 0 0 0 0 0 0 0 0 0 0 0 0 0 127 0" result="hardAlpha"/>
            <feOffset/>
            <feGaussianBlur stdDeviation="2"/>
            <feColorMatrix type="matrix" values="0 0 0 0 0.4 0 0 0 0 0.4 0 0 0 0 0.4 0 0 0 0.3 0"/>
            <feBlend mode="normal" in2="BackgroundImageFix" result="effect1_dropShadow_0_1"/>
            <feBlend mode="normal" in="SourceGraphic" in2="effect1_dropShadow_0_1" result="shape"/>
        </filter>
        <filter id="filter13_d_0_1" x="661.785" y="287.785" width="36.4297" height="36.4287" filterUnits="userSpaceOnUse" color-interpolation-filters="sRGB">
            <feFlood flood-opacity="0" result="BackgroundImageFix"/>
            <feColorMatrix in="SourceAlpha" type="matrix" values="0 0 0 0 0 0 0 0 0 0 0 0 0 0 0 0 0 0 127 0" result="hardAlpha"/>
            <feOffset/>
            <feGaussianBlur stdDeviation="2"/>
            <feColorMatrix type="matrix" values="0 0 0 0 0.4 0 0 0 0 0.4 0 0 0 0 0.4 0 0 0 0.3 0"/>
            <feBlend mode="normal" in2="BackgroundImageFix" result="effect1_dropShadow_0_1"/>
            <feBlend mode="normal" in="SourceGraphic" in2="effect1_dropShadow_0_1" result="shape"/>
        </filter>
        <filter id="filter14_d_0_1" x="204.785" y="180.785" width="36.4297" height="36.4287" filterUnits="userSpaceOnUse" color-interpolation-filters="sRGB">
            <feFlood flood-opacity="0" result="BackgroundImageFix"/>
            <feColorMatrix in="SourceAlpha" type="matrix" values="0 0 0 0 0 0 0 0 0 0 0 0 0 0 0 0 0 0 127 0" result="hardAlpha"/>
            <feOffset/>
            <feGaussianBlur stdDeviation="2"/>
            <feColorMatrix type="matrix" values="0 0 0 0 0.4 0 0 0 0 0.4 0 0 0 0 0.4 0 0 0 0.3 0"/>
            <feBlend mode="normal" in2="BackgroundImageFix" result="effect1_dropShadow_0_1"/>
            <feBlend mode="normal" in="SourceGraphic" in2="effect1_dropShadow_0_1" result="shape"/>
        </filter>
        <filter id="filter15_d_0_1" x="508.785" y="242.785" width="36.4297" height="36.4287" filterUnits="userSpaceOnUse" color-interpolation-filters="sRGB">
            <feFlood flood-opacity="0" result="BackgroundImageFix"/>
            <feColorMatrix in="SourceAlpha" type="matrix" values="0 0 0 0 0 0 0 0 0 0 0 0 0 0 0 0 0 0 127 0" result="hardAlpha"/>
            <feOffset/>
            <feGaussianBlur stdDeviation="2"/>
            <feColorMatrix type="matrix" values="0 0 0 0 0.4 0 0 0 0 0.4 0 0 0 0 0.4 0 0 0 0.3 0"/>
            <feBlend mode="normal" in2="BackgroundImageFix" result="effect1_dropShadow_0_1"/>
            <feBlend mode="normal" in="SourceGraphic" in2="effect1_dropShadow_0_1" result="shape"/>
        </filter>
        <filter id="filter16_d_0_1" x="279.785" y="219.785" width="36.4297" height="36.4287" filterUnits="userSpaceOnUse" color-interpolation-filters="sRGB">
            <feFlood flood-opacity="0" result="BackgroundImageFix"/>
            <feColorMatrix in="SourceAlpha" type="matrix" values="0 0 0 0 0 0 0 0 0 0 0 0 0 0 0 0 0 0 127 0" result="hardAlpha"/>
            <feOffset/>
            <feGaussianBlur stdDeviation="2"/>
            <feColorMatrix type="matrix" values="0 0 0 0 0.4 0 0 0 0 0.4 0 0 0 0 0.4 0 0 0 0.3 0"/>
            <feBlend mode="normal" in2="BackgroundImageFix" result="effect1_dropShadow_0_1"/>
            <feBlend mode="normal" in="SourceGraphic" in2="effect1_dropShadow_0_1" result="shape"/>
        </filter>
        <filter id="filter17_d_0_1" x="436.785" y="247.785" width="36.4297" height="36.4287" filterUnits="userSpaceOnUse" color-interpolation-filters="sRGB">
            <feFlood flood-opacity="0" result="BackgroundImageFix"/>
            <feColorMatrix in="SourceAlpha" type="matrix" values="0 0 0 0 0 0 0 0 0 0 0 0 0 0 0 0 0 0 127 0" result="hardAlpha"/>
            <feOffset/>
            <feGaussianBlur stdDeviation="2"/>
            <feColorMatrix type="matrix" values="0 0 0 0 0.4 0 0 0 0 0.4 0 0 0 0 0.4 0 0 0 0.3 0"/>
            <feBlend mode="normal" in2="BackgroundImageFix" result="effect1_dropShadow_0_1"/>
            <feBlend mode="normal" in="SourceGraphic" in2="effect1_dropShadow_0_1" result="shape"/>
        </filter>
        <filter id="filter18_d_0_1" x="318.785" y="97.7852" width="36.4297" height="36.4287" filterUnits="userSpaceOnUse" color-interpolation-filters="sRGB">
            <feFlood flood-opacity="0" result="BackgroundImageFix"/>
            <feColorMatrix in="SourceAlpha" type="matrix" values="0 0 0 0 0 0 0 0 0 0 0 0 0 0 0 0 0 0 127 0" result="hardAlpha"/>
            <feOffset/>
            <feGaussianBlur stdDeviation="2"/>
            <feColorMatrix type="matrix" values="0 0 0 0 0.4 0 0 0 0 0.4 0 0 0 0 0.4 0 0 0 0.3 0"/>
            <feBlend mode="normal" in2="BackgroundImageFix" result="effect1_dropShadow_0_1"/>
            <feBlend mode="normal" in="SourceGraphic" in2="effect1_dropShadow_0_1" result="shape"/>
        </filter>
        <filter id="filter19_d_0_1" x="281.785" y="86.7852" width="36.4297" height="36.4287" filterUnits="userSpaceOnUse" color-interpolation-filters="sRGB">
            <feFlood flood-opacity="0" result="BackgroundImageFix"/>
            <feColorMatrix in="SourceAlpha" type="matrix" values="0 0 0 0 0 0 0 0 0 0 0 0 0 0 0 0 0 0 127 0" result="hardAlpha"/>
            <feOffset/>
            <feGaussianBlur stdDeviation="2"/>
            <feColorMatrix type="matrix" values="0 0 0 0 0.4 0 0 0 0 0.4 0 0 0 0 0.4 0 0 0 0.3 0"/>
            <feBlend mode="normal" in2="BackgroundImageFix" result="effect1_dropShadow_0_1"/>
            <feBlend mode="normal" in="SourceGraphic" in2="effect1_dropShadow_0_1" result="shape"/>
        </filter>
        <filter id="filter20_d_0_1" x="503.785" y="198.785" width="36.4297" height="36.4287" filterUnits="userSpaceOnUse" color-interpolation-filters="sRGB">
            <feFlood flood-opacity="0" result="BackgroundImageFix"/>
            <feColorMatrix in="SourceAlpha" type="matrix" values="0 0 0 0 0 0 0 0 0 0 0 0 0 0 0 0 0 0 127 0" result="hardAlpha"/>
            <feOffset/>
            <feGaussianBlur stdDeviation="2"/>
            <feColorMatrix type="matrix" values="0 0 0 0 0.4 0 0 0 0 0.4 0 0 0 0 0.4 0 0 0 0.3 0"/>
            <feBlend mode="normal" in2="BackgroundImageFix" result="effect1_dropShadow_0_1"/>
            <feBlend mode="normal" in="SourceGraphic" in2="effect1_dropShadow_0_1" result="shape"/>
        </filter>
        <filter id="filter21_d_0_1" x="466.785" y="178.785" width="36.4297" height="36.4287" filterUnits="userSpaceOnUse" color-interpolation-filters="sRGB">
            <feFlood flood-opacity="0" result="BackgroundImageFix"/>
            <feColorMatrix in="SourceAlpha" type="matrix" values="0 0 0 0 0 0 0 0 0 0 0 0 0 0 0 0 0 0 127 0" result="hardAlpha"/>
            <feOffset/>
            <feGaussianBlur stdDeviation="2"/>
            <feColorMatrix type="matrix" values="0 0 0 0 0.4 0 0 0 0 0.4 0 0 0 0 0.4 0 0 0 0.3 0"/>
            <feBlend mode="normal" in2="BackgroundImageFix" result="effect1_dropShadow_0_1"/>
            <feBlend mode="normal" in="SourceGraphic" in2="effect1_dropShadow_0_1" result="shape"/>
        </filter>
        <filter id="filter22_d_0_1" x="537.785" y="147.785" width="36.4297" height="36.4287" filterUnits="userSpaceOnUse" color-interpolation-filters="sRGB">
            <feFlood flood-opacity="0" result="BackgroundImageFix"/>
            <feColorMatrix in="SourceAlpha" type="matrix" values="0 0 0 0 0 0 0 0 0 0 0 0 0 0 0 0 0 0 127 0" result="hardAlpha"/>
            <feOffset/>
            <feGaussianBlur stdDeviation="2"/>
            <feColorMatrix type="matrix" values="0 0 0 0 0.4 0 0 0 0 0.4 0 0 0 0 0.4 0 0 0 0.3 0"/>
            <feBlend mode="normal" in2="BackgroundImageFix" result="effect1_dropShadow_0_1"/>
            <feBlend mode="normal" in="SourceGraphic" in2="effect1_dropShadow_0_1" result="shape"/>
        </filter>
        <filter id="filter23_d_0_1" x="400.785" y="196.785" width="36.4297" height="36.4287" filterUnits="userSpaceOnUse" color-interpolation-filters="sRGB">
            <feFlood flood-opacity="0" result="BackgroundImageFix"/>
            <feColorMatrix in="SourceAlpha" type="matrix" values="0 0 0 0 0 0 0 0 0 0 0 0 0 0 0 0 0 0 127 0" result="hardAlpha"/>
            <feOffset/>
            <feGaussianBlur stdDeviation="2"/>
            <feColorMatrix type="matrix" values="0 0 0 0 0.4 0 0 0 0 0.4 0 0 0 0 0.4 0 0 0 0.3 0"/>
            <feBlend mode="normal" in2="BackgroundImageFix" result="effect1_dropShadow_0_1"/>
            <feBlend mode="normal" in="SourceGraphic" in2="effect1_dropShadow_0_1" result="shape"/>
        </filter>
        <radialGradient id="paint0_radial_0_1" cx="0" cy="0" r="1" gradientUnits="userSpaceOnUse" gradientTransform="translate(487 219.429) rotate(90) scale(48.5714)">
            <stop stop-color="white"/>
            <stop offset="1" stop-color="#50CAE4"/>
        </radialGradient>
        <radialGradient id="paint1_radial_0_1" cx="0" cy="0" r="1" gradientUnits="userSpaceOnUse" gradientTransform="translate(156 94.4286) rotate(90) scale(48.5714)">
            <stop stop-color="white"/>
            <stop offset="1" stop-color="#C0E0A5"/>
        </radialGradient>
        <radialGradient id="paint2_radial_0_1" cx="0" cy="0" r="1" gradientUnits="userSpaceOnUse" gradientTransform="translate(576 210.429) rotate(90) scale(48.5714)">
            <stop stop-color="white"/>
            <stop offset="1" stop-color="#81C14B"/>
        </radialGradient>
        <radialGradient id="paint3_radial_0_1" cx="0" cy="0" r="1" gradientUnits="userSpaceOnUse" gradientTransform="translate(736 229.429) rotate(90) scale(48.5714)">
            <stop stop-color="white"/>
            <stop offset="1" stop-color="#C0E0A5"/>
        </radialGradient>
        <radialGradient id="paint4_radial_0_1" cx="0" cy="0" r="1" gradientUnits="userSpaceOnUse" gradientTransform="translate(768 124.429) rotate(90) scale(48.5714)">
            <stop stop-color="white"/>
            <stop offset="1" stop-color="#C0E0A5"/>
        </radialGradient>
        <radialGradient id="paint5_radial_0_1" cx="0" cy="0" r="1" gradientUnits="userSpaceOnUse" gradientTransform="translate(680 285.429) rotate(90) scale(48.5714)">
            <stop stop-color="white"/>
            <stop offset="1" stop-color="#C0E0A5"/>
        </radialGradient>
        <radialGradient id="paint6_radial_0_1" cx="0" cy="0" r="1" gradientUnits="userSpaceOnUse" gradientTransform="translate(223 178.429) rotate(90) scale(48.5714)">
            <stop stop-color="white"/>
            <stop offset="1" stop-color="#C0E0A5"/>
        </radialGradient>
        <radialGradient id="paint7_radial_0_1" cx="0" cy="0" r="1" gradientUnits="userSpaceOnUse" gradientTransform="translate(527 240.429) rotate(90) scale(48.5714)">
            <stop stop-color="white"/>
            <stop offset="1" stop-color="#81C14B"/>
        </radialGradient>
        <radialGradient id="paint8_radial_0_1" cx="0" cy="0" r="1" gradientUnits="userSpaceOnUse" gradientTransform="translate(298 217.429) rotate(90) scale(48.5714)">
            <stop stop-color="white"/>
            <stop offset="1" stop-color="#C0E0A5"/>
        </radialGradient>
        <radialGradient id="paint9_radial_0_1" cx="0" cy="0" r="1" gradientUnits="userSpaceOnUse" gradientTransform="translate(455 245.429) rotate(90) scale(48.5714)">
            <stop stop-color="white"/>
            <stop offset="1" stop-color="#81C14B"/>
        </radialGradient>
        <radialGradient id="paint10_radial_0_1" cx="0" cy="0" r="1" gradientUnits="userSpaceOnUse" gradientTransform="translate(337 95.4286) rotate(90) scale(48.5714)">
            <stop stop-color="white"/>
            <stop offset="1" stop-color="#944BBB"/>
        </radialGradient>
        <radialGradient id="paint11_radial_0_1" cx="0" cy="0" r="1" gradientUnits="userSpaceOnUse" gradientTransform="translate(300 84.4286) rotate(90) scale(48.5714)">
            <stop stop-color="white"/>
            <stop offset="1" stop-color="#4387D9"/>
        </radialGradient>
        <radialGradient id="paint12_radial_0_1" cx="0" cy="0" r="1" gradientUnits="userSpaceOnUse" gradientTransform="translate(522 196.429) rotate(90) scale(48.5714)">
            <stop stop-color="white"/>
            <stop offset="1" stop-color="#4387D9"/>
        </radialGradient>
        <radialGradient id="paint13_radial_0_1" cx="0" cy="0" r="1" gradientUnits="userSpaceOnUse" gradientTransform="translate(485 176.429) rotate(90) scale(48.5714)">
            <stop stop-color="white"/>
            <stop offset="1" stop-color="#C0E0A5"/>
        </radialGradient>
        <radialGradient id="paint14_radial_0_1" cx="0" cy="0" r="1" gradientUnits="userSpaceOnUse" gradientTransform="translate(556 145.429) rotate(90) scale(48.5714)">
            <stop stop-color="white"/>
            <stop offset="1" stop-color="#C0E0A5"/>
        </radialGradient>
        <radialGradient id="paint15_radial_0_1" cx="0" cy="0" r="1" gradientUnits="userSpaceOnUse" gradientTransform="translate(419 194.429) rotate(90) scale(48.5714)">
            <stop stop-color="white"/>
            <stop offset="1" stop-color="#C0E0A5"/>
        </radialGradient>
    </defs>
</svg>
