<svg viewBox="0 0 360 550" fill="none" xmlns="http://www.w3.org/2000/svg">
    <path d="M0 48h360v502H0V48Z" fill="#F5F5F5"/>
    <g filter="url(#a)">
        <rect x="317" y="56" width="32" height="64" rx="4" fill="white"/>
    </g>
    <path opacity=".15" d="M323.887 88.502h17.454" stroke="#666666" stroke-opacity=".6" stroke-linecap="square"/>
    <mask id="b" style="mask-type:alpha" maskUnits="userSpaceOnUse" x="325" y="65" width="15" height="15">
        <path fill-rule="evenodd" clip-rule="evenodd" d="M339.542 73.849h-5.938v5.966h-1.979v-5.966h-5.937V71.86h5.937v-5.966h1.979v5.966h5.938v1.989Z" fill="white"/>
    </mask>
    <g mask="url(#b)">
        <path fill="#666666" d="M325.578 65.894h14.067v13.92h-14.067z"/>
    </g>
    <path fill-rule="evenodd" clip-rule="evenodd" d="M337.706 104.933h-10.183v-1.461h10.183v1.461Z" fill="#666666"/>
    <mask id="c" style="mask-type:alpha" maskUnits="userSpaceOnUse" x="327" y="103" width="11" height="2">
        <path fill-rule="evenodd" clip-rule="evenodd" d="M337.706 104.933h-10.183v-1.461h10.183v1.461Z" fill="white"/>
    </mask>
    <path fill="#C4C4C4" d="M0 0h360v48H0z"/>
    <g filter="url(#d)">
        <rect x="88" y="7" width="64" height="32" rx="16" fill="white"/>
    </g>
    <g filter="url(#e)">
        <rect x="16" y="7" width="64" height="32" rx="16" fill="#979797"/>
        <rect x="16.5" y="7.5" width="63" height="31" rx="15.5" stroke="white"/>
    </g>
    <path d="M38.676 22.907c0 1.65-.458 2.912-1.374 3.787-.916.87-2.236 1.306-3.958 1.306h-2.796v-9.994h3.09c1.59 0 2.828.428 3.712 1.285.884.857 1.326 2.062 1.326 3.616Zm-1.723.055c0-2.393-1.119-3.589-3.356-3.589h-1.415v7.253h1.162c2.406 0 3.61-1.221 3.61-3.664ZM45.39 28l-.322-1.053h-.054c-.365.46-.732.775-1.1.944-.37.164-.844.246-1.423.246-.743 0-1.324-.2-1.743-.602-.415-.4-.622-.968-.622-1.702 0-.78.29-1.367.868-1.764.579-.396 1.46-.613 2.646-.65l1.305-.04v-.403c0-.483-.114-.843-.342-1.08-.223-.242-.571-.363-1.045-.363a3.63 3.63 0 0 0-1.115.171 8.408 8.408 0 0 0-1.025.403l-.52-1.148a5.49 5.49 0 0 1 1.347-.485c.488-.114.948-.171 1.381-.171.962 0 1.686.21 2.174.629.492.419.738 1.077.738 1.975V28H45.39Zm-2.393-1.094c.583 0 1.05-.162 1.401-.485.356-.328.534-.786.534-1.374v-.656l-.971.04c-.757.028-1.308.156-1.654.383-.342.224-.513.568-.513 1.033 0 .337.1.599.3.786.201.182.502.273.903.273Zm4.635-6.466h1.75l1.538 4.286a8.13 8.13 0 0 1 .465 1.722h.054c.041-.25.117-.553.226-.909.11-.36.688-2.06 1.736-5.1h1.737l-3.234 8.566c-.588 1.572-1.567 2.358-2.94 2.358a4.63 4.63 0 0 1-1.038-.116v-1.271c.241.054.517.082.827.082.775 0 1.32-.45 1.634-1.347l.28-.711-3.035-7.56ZM64.106 28h-1.607v-6.453c0-.77.018-1.381.055-1.832-.105.11-.235.23-.39.362-.15.132-.66.552-1.531 1.258l-.807-1.019 2.94-2.31h1.34V28Z" fill="white"/>
    <g filter="url(#f)">
        <rect x="160" y="7" width="64" height="32" rx="16" fill="white"/>
    </g>
    <path d="M181.676 22.907c0 1.65-.458 2.912-1.374 3.787-.916.87-2.236 1.306-3.958 1.306h-2.796v-9.994h3.09c1.59 0 2.827.428 3.712 1.285.884.857 1.326 2.062 1.326 3.616Zm-1.723.055c0-2.393-1.119-3.589-3.356-3.589h-1.415v7.253h1.162c2.406 0 3.609-1.221 3.609-3.664ZM188.389 28l-.322-1.053h-.054c-.365.46-.732.775-1.101.944-.369.164-.843.246-1.422.246-.743 0-1.324-.2-1.743-.602-.415-.4-.622-.968-.622-1.702 0-.78.289-1.367.868-1.764.579-.396 1.461-.613 2.646-.65l1.305-.04v-.403c0-.483-.114-.843-.341-1.08-.224-.242-.572-.363-1.046-.363-.388 0-.759.057-1.115.171a8.427 8.427 0 0 0-1.025.403l-.52-1.148c.411-.214.86-.376 1.347-.485.488-.114.948-.171 1.381-.171.962 0 1.686.21 2.174.629.492.419.738 1.077.738 1.975V28h-1.148Zm-2.393-1.094c.583 0 1.051-.162 1.401-.485.356-.328.534-.786.534-1.374v-.656l-.971.04c-.757.028-1.308.156-1.654.383-.342.224-.513.568-.513 1.033 0 .337.1.599.301.786.2.182.501.273.902.273Zm4.635-6.466h1.75l1.538 4.286c.232.61.387 1.184.465 1.722h.054a7.13 7.13 0 0 1 .226-.909c.109-.36.688-2.06 1.736-5.1h1.737l-3.234 8.566c-.588 1.572-1.567 2.358-2.939 2.358-.356 0-.702-.038-1.039-.116v-1.271c.241.054.517.082.827.082.775 0 1.319-.45 1.634-1.347l.28-.711-3.035-7.56Zm18.156-.137c0 .633-.184 1.162-.554 1.586-.369.419-.888.701-1.558.847v.055c.802.1 1.403.35 1.804.752.402.396.602.925.602 1.586 0 .961-.339 1.704-1.019 2.228-.679.52-1.645.78-2.898.78-1.107 0-2.042-.18-2.803-.54v-1.429a6.407 6.407 0 0 0 2.714.656c.775 0 1.354-.143 1.737-.43.382-.288.574-.732.574-1.333 0-.534-.212-.926-.636-1.176-.424-.25-1.089-.376-1.996-.376h-.868v-1.306h.882c1.595 0 2.392-.551 2.392-1.654 0-.429-.139-.759-.417-.991-.278-.233-.688-.349-1.23-.349-.379 0-.743.055-1.094.164-.351.105-.766.312-1.244.622l-.786-1.121c.916-.674 1.98-1.012 3.192-1.012 1.007 0 1.793.217 2.358.65.566.433.848 1.03.848 1.79Z" fill="#666666" fill-opacity=".4"/>
    <g filter="url(#g)">
        <rect x="232" y="7" width="64" height="32" rx="16" fill="white"/>
    </g>
    <path d="M253.676 22.907c0 1.65-.458 2.912-1.374 3.787-.916.87-2.236 1.306-3.958 1.306h-2.796v-9.994h3.09c1.59 0 2.827.428 3.712 1.285.884.857 1.326 2.062 1.326 3.616Zm-1.723.055c0-2.393-1.119-3.589-3.356-3.589h-1.415v7.253h1.162c2.406 0 3.609-1.221 3.609-3.664ZM260.389 28l-.322-1.053h-.054c-.365.46-.732.775-1.101.944-.369.164-.843.246-1.422.246-.743 0-1.324-.2-1.743-.602-.415-.4-.622-.968-.622-1.702 0-.78.289-1.367.868-1.764.579-.396 1.461-.613 2.646-.65l1.305-.04v-.403c0-.483-.114-.843-.341-1.08-.224-.242-.572-.363-1.046-.363-.388 0-.759.057-1.115.171a8.427 8.427 0 0 0-1.025.403l-.52-1.148c.411-.214.86-.376 1.347-.485.488-.114.948-.171 1.381-.171.962 0 1.686.21 2.174.629.492.419.738 1.077.738 1.975V28h-1.148Zm-2.393-1.094c.583 0 1.051-.162 1.401-.485.356-.328.534-.786.534-1.374v-.656l-.971.04c-.757.028-1.308.156-1.654.383-.342.224-.513.568-.513 1.033 0 .337.1.599.301.786.2.182.501.273.902.273Zm4.635-6.466h1.75l1.538 4.286c.232.61.387 1.184.465 1.722h.054a7.13 7.13 0 0 1 .226-.909c.109-.36.688-2.06 1.736-5.1h1.737l-3.234 8.566c-.588 1.572-1.567 2.358-2.939 2.358-.356 0-.702-.038-1.039-.116v-1.271c.241.054.517.082.827.082.775 0 1.319-.45 1.634-1.347l.28-.711-3.035-7.56Zm18.888 5.38h-1.347V28h-1.566v-2.18h-4.566v-1.238l4.566-6.604h1.566v6.508h1.347v1.333Zm-2.913-1.334v-2.509c0-.893.023-1.624.069-2.194h-.055c-.127.301-.328.666-.601 1.094l-2.482 3.61h3.069Z" fill="#666666" fill-opacity=".4"/>
    <g filter="url(#h)">
        <rect x="304" y="7" width="64" height="32" rx="16" fill="white"/>
    </g>
    <path d="M326.676 22.907c0 1.65-.458 2.912-1.374 3.787-.916.87-2.236 1.306-3.958 1.306h-2.796v-9.994h3.09c1.59 0 2.827.428 3.712 1.285.884.857 1.326 2.062 1.326 3.616Zm-1.723.055c0-2.393-1.119-3.589-3.356-3.589h-1.415v7.253h1.162c2.406 0 3.609-1.221 3.609-3.664ZM333.389 28l-.322-1.053h-.054c-.365.46-.732.775-1.101.944-.369.164-.843.246-1.422.246-.743 0-1.324-.2-1.743-.602-.415-.4-.622-.968-.622-1.702 0-.78.289-1.367.868-1.764.579-.396 1.461-.613 2.646-.65l1.305-.04v-.403c0-.483-.114-.843-.341-1.08-.224-.242-.572-.363-1.046-.363-.388 0-.759.057-1.115.171a8.427 8.427 0 0 0-1.025.403l-.52-1.148c.411-.214.86-.376 1.347-.485.488-.114.948-.171 1.381-.171.962 0 1.686.21 2.174.629.492.419.738 1.077.738 1.975V28h-1.148Zm-2.393-1.094c.583 0 1.051-.162 1.401-.485.356-.328.534-.786.534-1.374v-.656l-.971.04c-.757.028-1.308.156-1.654.383-.342.224-.513.568-.513 1.033 0 .337.1.599.301.786.2.182.501.273.902.273Zm4.635-6.466h1.75l1.538 4.286c.232.61.387 1.184.465 1.722h.054a7.13 7.13 0 0 1 .226-.909c.109-.36.688-2.06 1.736-5.1h1.737l-3.234 8.566c-.588 1.572-1.567 2.358-2.939 2.358-.356 0-.702-.038-1.039-.116v-1.271c.241.054.517.082.827.082.775 0 1.319-.45 1.634-1.347l.28-.711-3.035-7.56Zm15.148 1.319c1.007 0 1.805.266 2.393.8.588.533.882 1.26.882 2.18 0 1.067-.335 1.9-1.005 2.502-.666.597-1.613.896-2.844.896-1.116 0-1.994-.18-2.632-.54V26.14c.369.21.793.371 1.272.485.478.114.923.17 1.333.17.724 0 1.276-.16 1.654-.485.378-.323.567-.797.567-1.421 0-1.194-.761-1.791-2.283-1.791-.214 0-.478.022-.793.068-.314.041-.59.089-.827.143l-.718-.423.383-4.881h5.195v1.429h-3.78l-.225 2.474c.159-.027.353-.06.581-.095.232-.037.515-.055.847-.055Z" fill="#666666" fill-opacity=".4"/>
    <path d="M109.676 22.907c0 1.65-.458 2.912-1.374 3.787-.916.87-2.236 1.306-3.958 1.306h-2.796v-9.994h3.09c1.59 0 2.827.428 3.712 1.285.884.857 1.326 2.062 1.326 3.616Zm-1.723.055c0-2.393-1.119-3.589-3.356-3.589h-1.415v7.253h1.162c2.406 0 3.609-1.221 3.609-3.664ZM116.389 28l-.322-1.053h-.054c-.365.46-.732.775-1.101.944-.369.164-.843.246-1.422.246-.743 0-1.324-.2-1.743-.602-.415-.4-.622-.968-.622-1.702 0-.78.289-1.367.868-1.764.579-.396 1.461-.613 2.646-.65l1.305-.04v-.403c0-.483-.114-.843-.341-1.08-.224-.242-.572-.363-1.046-.363-.388 0-.759.057-1.115.171a8.427 8.427 0 0 0-1.025.403l-.52-1.148c.411-.214.86-.376 1.347-.485.488-.114.948-.171 1.381-.171.962 0 1.686.21 2.174.629.492.419.738 1.077.738 1.975V28h-1.148Zm-2.393-1.094c.583 0 1.051-.162 1.401-.485.356-.328.534-.786.534-1.374v-.656l-.971.04c-.757.028-1.308.156-1.654.383-.342.224-.513.568-.513 1.033 0 .337.1.599.301.786.2.182.501.273.902.273Zm4.635-6.466h1.75l1.538 4.286c.232.61.387 1.184.465 1.722h.054a7.13 7.13 0 0 1 .226-.909c.109-.36.688-2.06 1.736-5.1h1.737l-3.234 8.566c-.588 1.572-1.567 2.358-2.939 2.358-.356 0-.702-.038-1.039-.116v-1.271c.241.054.517.082.827.082.775 0 1.319-.45 1.634-1.347l.28-.711-3.035-7.56ZM137.163 28h-6.774v-1.217l2.577-2.59c.761-.78 1.264-1.331 1.511-1.655.25-.328.433-.636.546-.923.114-.287.171-.595.171-.923 0-.45-.136-.806-.41-1.066-.269-.26-.642-.39-1.121-.39-.383 0-.754.071-1.114.212-.356.142-.768.397-1.237.766l-.869-1.06c.556-.47 1.096-.802 1.62-.998a4.75 4.75 0 0 1 1.675-.294c.93 0 1.675.244 2.236.732.56.483.84 1.134.84 1.955 0 .451-.082.88-.246 1.285a5.125 5.125 0 0 1-.745 1.258c-.332.428-.888 1.01-1.668 1.743l-1.736 1.682v.068h4.744V28Z" fill="#666666" fill-opacity=".4"/>
    <g filter="url(#i)" clip-rule="evenodd">
        <path fill-rule="evenodd" d="M227.999 262.714c7.575 0 13.715-6.14 13.715-13.715 0-7.574-6.14-13.714-13.715-13.714-7.574 0-13.714 6.14-13.714 13.714 0 7.575 6.14 13.715 13.714 13.715Z" fill="#50CAE4"/>
        <path d="M227.999 262.714c7.575 0 13.715-6.14 13.715-13.715 0-7.574-6.14-13.714-13.715-13.714-7.574 0-13.714 6.14-13.714 13.714 0 7.575 6.14 13.715 13.714 13.715Z" stroke="white"/>
    </g>
    <circle cx="228" cy="249" r="18" stroke="url(#j)" stroke-opacity=".8" stroke-width="4"/>
    <path d="M233.484 245.357c.045.05.114.066.175.041.06-.026.1-.087.1-.155v-3.248a.326.326 0 0 0-.32-.333h-2.24a.326.326 0 0 0-.32.333v.393a.34.34 0 0 0 .089.23l2.516 2.739Z" fill="white"/>
    <path fill-rule="evenodd" clip-rule="evenodd" d="m228.78 241.2 7.04 7.667a.688.688 0 0 1 .127.723.64.64 0 0 1-.589.405h-.96c-.177 0-.32.15-.32.334v5.666c0 .553-.43 1-.96 1h-9.6c-.53 0-.96-.447-.96-1v-5.666a.327.327 0 0 0-.32-.334h-.96a.638.638 0 0 1-.59-.404.687.687 0 0 1 .127-.724l7.04-7.667a.644.644 0 0 1 .925 0Zm0 13.255 2.414-2.622-.001.001a2.024 2.024 0 0 0-.003-2.776 1.835 1.835 0 0 0-2.666-.005l-.093.098a.155.155 0 0 1-.226 0l-.094-.098a1.817 1.817 0 0 0-1.636-.55 1.913 1.913 0 0 0-1.493 1.333 2.027 2.027 0 0 0 .456 1.993l2.418 2.626a.627.627 0 0 0 .462.206.625.625 0 0 0 .462-.206Z" fill="white"/>
    <g filter="url(#k)" clip-rule="evenodd">
        <path fill-rule="evenodd" d="M316.999 253.714c7.575 0 13.715-6.14 13.715-13.715 0-7.574-6.14-13.714-13.715-13.714-7.574 0-13.714 6.14-13.714 13.714 0 7.575 6.14 13.715 13.714 13.715Z" fill="#81C14B"/>
        <path d="M316.999 253.714c7.575 0 13.715-6.14 13.715-13.715 0-7.574-6.14-13.714-13.715-13.714-7.574 0-13.714 6.14-13.714 13.714 0 7.575 6.14 13.715 13.714 13.715Z" stroke="white"/>
    </g>
    <circle cx="317" cy="240" r="18" stroke="url(#l)" stroke-opacity=".8" stroke-width="4"/>
    <path d="M318.831 243.195c1.38 0 2.499-1.102 2.499-2.463 0-1.36-1.119-2.462-2.499-2.462-1.38 0-2.499 1.102-2.499 2.462 0 1.361 1.119 2.463 2.499 2.463Z" fill="white"/>
    <path fill-rule="evenodd" clip-rule="evenodd" d="M323.293 236.134h-.877a.354.354 0 0 1-.32-.227l-.001-.001c-.412-.856-.837-1.742-1.763-1.742H317c-.714 0-1.09.511-1.772 1.439a9.773 9.773 0 0 0-.121.168c-.169.238-.258.363-.441.363h-3.998c-1.375 0-1.664.794-1.664 1.46v6.823c-.032.445.142.88.472 1.184.331.304.783.446 1.231.385h12.586c.448.061.9-.081 1.231-.385.33-.304.504-.739.472-1.184v-6.823c0-.666-.295-1.46-1.703-1.46Zm-.63 4.598c0 2.085-1.715 3.776-3.831 3.776-2.117 0-3.832-1.691-3.832-3.776 0-2.086 1.715-3.777 3.832-3.777 2.115.002 3.829 1.692 3.831 3.777Zm-11.161-1.314c.46 0 .833-.367.833-.821a.827.827 0 0 0-.833-.821.827.827 0 0 0-.833.821c0 .454.373.821.833.821Z" fill="white"/>
    <path d="m310.673 235.467 1.999.011a.33.33 0 0 0 .333-.329v-.164a.992.992 0 0 0-.999-.985h-.667a.992.992 0 0 0-.999.985v.154a.33.33 0 0 0 .333.328Z" fill="white"/>
    <g filter="url(#m)" clip-rule="evenodd">
        <path fill-rule="evenodd" d="M204.999 444.714c7.575 0 13.715-6.14 13.715-13.715 0-7.574-6.14-13.714-13.715-13.714-7.574 0-13.714 6.14-13.714 13.714 0 7.575 6.14 13.715 13.714 13.715Z" fill="#C0E0A5"/>
        <path d="M204.999 444.714c7.575 0 13.715-6.14 13.715-13.715 0-7.574-6.14-13.714-13.715-13.714-7.574 0-13.714 6.14-13.714 13.714 0 7.575 6.14 13.715 13.714 13.715Z" stroke="white"/>
    </g>
    <circle cx="205" cy="431" r="18" stroke="url(#n)" stroke-opacity=".8" stroke-width="4"/>
    <path d="M206.831 434.195c1.38 0 2.499-1.102 2.499-2.463 0-1.36-1.119-2.462-2.499-2.462-1.38 0-2.499 1.102-2.499 2.462 0 1.361 1.119 2.463 2.499 2.463Z" fill="white"/>
    <path fill-rule="evenodd" clip-rule="evenodd" d="M211.293 427.134h-.877a.354.354 0 0 1-.32-.227l-.001-.001c-.412-.856-.837-1.742-1.763-1.742H205c-.714 0-1.09.511-1.772 1.439a9.773 9.773 0 0 0-.121.168c-.169.238-.258.363-.441.363h-3.998c-1.375 0-1.664.794-1.664 1.46v6.823c-.032.445.142.88.472 1.184.331.304.783.446 1.231.385h12.586c.448.061.9-.081 1.231-.385.33-.304.504-.739.472-1.184v-6.823c0-.666-.295-1.46-1.703-1.46Zm-.63 4.598c0 2.085-1.715 3.776-3.831 3.776-2.117 0-3.832-1.691-3.832-3.776 0-2.086 1.715-3.777 3.832-3.777 2.115.002 3.829 1.692 3.831 3.777Zm-11.161-1.314c.46 0 .833-.367.833-.821a.827.827 0 0 0-.833-.821.827.827 0 0 0-.833.821c0 .454.373.821.833.821Z" fill="white"/>
    <path d="m198.673 426.467 1.999.011a.33.33 0 0 0 .333-.329v-.164a.992.992 0 0 0-.999-.985h-.667a.992.992 0 0 0-.999.985v.154a.33.33 0 0 0 .333.328Z" fill="white"/>
    <g filter="url(#o)" clip-rule="evenodd">
        <path fill-rule="evenodd" d="M236.999 339.714c7.575 0 13.715-6.14 13.715-13.715 0-7.574-6.14-13.714-13.715-13.714-7.574 0-13.714 6.14-13.714 13.714 0 7.575 6.14 13.715 13.714 13.715Z" fill="#C0E0A5"/>
        <path d="M236.999 339.714c7.575 0 13.715-6.14 13.715-13.715 0-7.574-6.14-13.714-13.715-13.714-7.574 0-13.714 6.14-13.714 13.714 0 7.575 6.14 13.715 13.714 13.715Z" stroke="white"/>
    </g>
    <circle cx="237" cy="326" r="18" stroke="url(#p)" stroke-opacity=".8" stroke-width="4"/>
    <path d="M237.198 324.615c.966 0 1.734.271 2.304.814.574.542.861 1.285.861 2.228 0 1.117-.344 1.976-1.032 2.577-.688.602-1.672.903-2.953.903-1.112 0-2.01-.18-2.693-.54v-1.826c.36.192.779.349 1.257.472.479.119.932.178 1.361.178 1.289 0 1.934-.529 1.934-1.586 0-1.007-.667-1.511-2.003-1.511-.241 0-.508.025-.799.075a5.503 5.503 0 0 0-.711.151l-.841-.451.376-5.093h5.421v1.791h-3.569l-.184 1.962.239-.048a4.69 4.69 0 0 1 1.032-.096Z" fill="white"/>
    <g filter="url(#q)" clip-rule="evenodd">
        <path fill-rule="evenodd" d="M156.999 500.714c7.575 0 13.715-6.14 13.715-13.715 0-7.574-6.14-13.714-13.715-13.714-7.574 0-13.714 6.14-13.714 13.714 0 7.575 6.14 13.715 13.714 13.715Z" fill="#C0E0A5"/>
        <path d="M156.999 500.714c7.575 0 13.715-6.14 13.715-13.715 0-7.574-6.14-13.714-13.715-13.714-7.574 0-13.714 6.14-13.714 13.714 0 7.575 6.14 13.715 13.714 13.715Z" stroke="white"/>
    </g>
    <circle cx="157" cy="487" r="18" stroke="url(#r)" stroke-opacity=".8" stroke-width="4"/>
    <path d="M158.831 490.195c1.38 0 2.499-1.102 2.499-2.463 0-1.36-1.119-2.462-2.499-2.462-1.38 0-2.499 1.102-2.499 2.462 0 1.361 1.119 2.463 2.499 2.463Z" fill="white"/>
    <path fill-rule="evenodd" clip-rule="evenodd" d="M163.293 483.134h-.877a.354.354 0 0 1-.32-.227l-.001-.001c-.412-.856-.837-1.742-1.763-1.742H157c-.714 0-1.09.511-1.772 1.439a9.773 9.773 0 0 0-.121.168c-.169.238-.258.363-.441.363h-3.998c-1.375 0-1.664.794-1.664 1.46v6.823c-.032.445.142.88.472 1.184.331.304.783.446 1.231.385h12.586c.448.061.9-.081 1.231-.385.33-.304.504-.739.472-1.184v-6.823c0-.666-.295-1.46-1.703-1.46Zm-.63 4.598c0 2.085-1.715 3.776-3.831 3.776-2.117 0-3.832-1.691-3.832-3.776 0-2.086 1.715-3.777 3.832-3.777 2.115.002 3.829 1.692 3.831 3.777Zm-11.161-1.314c.46 0 .833-.367.833-.821a.827.827 0 0 0-.833-.821.827.827 0 0 0-.833.821c0 .454.373.821.833.821Z" fill="white"/>
    <path d="m150.673 482.467 1.999.011a.33.33 0 0 0 .333-.329v-.164a.992.992 0 0 0-.999-.985h-.667a.992.992 0 0 0-.999.985v.154a.33.33 0 0 0 .333.328Z" fill="white"/>
    <g filter="url(#s)" clip-rule="evenodd">
        <path fill-rule="evenodd" d="M37 332.714c7.574 0 13.714-6.14 13.714-13.715 0-7.574-6.14-13.714-13.715-13.714-7.574 0-13.714 6.14-13.714 13.714 0 7.575 6.14 13.715 13.714 13.715Z" fill="#C0E0A5"/>
        <path d="M37 332.714c7.574 0 13.714-6.14 13.714-13.715 0-7.574-6.14-13.714-13.715-13.714-7.574 0-13.714 6.14-13.714 13.714 0 7.575 6.14 13.715 13.714 13.715Z" stroke="white"/>
    </g>
    <circle cx="37" cy="319" r="18" stroke="url(#t)" stroke-opacity=".8" stroke-width="4"/>
    <path d="M38.83 322.195c1.381 0 2.5-1.102 2.5-2.463 0-1.36-1.119-2.462-2.5-2.462-1.38 0-2.498 1.102-2.498 2.462 0 1.361 1.119 2.463 2.499 2.463Z" fill="white"/>
    <path fill-rule="evenodd" clip-rule="evenodd" d="M43.293 315.134h-.877a.355.355 0 0 1-.32-.227l-.001-.001c-.412-.856-.837-1.742-1.763-1.742H37c-.714 0-1.09.511-1.772 1.439a10.26 10.26 0 0 0-.12.168c-.17.238-.259.363-.442.363h-3.998c-1.375 0-1.664.794-1.664 1.46v6.823c-.032.445.142.88.472 1.184.33.304.783.446 1.23.385h12.587c.448.061.9-.081 1.23-.385.331-.304.505-.739.473-1.184v-6.823c0-.666-.295-1.46-1.703-1.46Zm-.63 4.598c0 2.085-1.715 3.776-3.831 3.776-2.117 0-3.832-1.691-3.832-3.776 0-2.086 1.715-3.777 3.832-3.777 2.115.002 3.829 1.692 3.831 3.777Zm-11.16-1.314c.46 0 .832-.367.832-.821a.827.827 0 0 0-.833-.821.827.827 0 0 0-.833.821c0 .454.373.821.833.821Z" fill="white"/>
    <path d="m30.673 314.467 2 .011a.33.33 0 0 0 .332-.329v-.164a.992.992 0 0 0-1-.985h-.666c-.552 0-1 .441-1 .985v.154c0 .181.15.328.334.328Z" fill="white"/>
    <g filter="url(#u)" clip-rule="evenodd">
        <path fill-rule="evenodd" d="M143.999 372.714c7.575 0 13.715-6.14 13.715-13.715 0-7.574-6.14-13.714-13.715-13.714-7.574 0-13.714 6.14-13.714 13.714 0 7.575 6.14 13.715 13.714 13.715Z" fill="#C0E0A5"/>
        <path d="M143.999 372.714c7.575 0 13.715-6.14 13.715-13.715 0-7.574-6.14-13.714-13.715-13.714-7.574 0-13.714 6.14-13.714 13.714 0 7.575 6.14 13.715 13.714 13.715Z" stroke="white"/>
    </g>
    <circle cx="144" cy="359" r="18" stroke="url(#v)" stroke-opacity=".8" stroke-width="4"/>
    <path d="M145.831 362.195c1.38 0 2.499-1.102 2.499-2.463 0-1.36-1.119-2.462-2.499-2.462-1.38 0-2.499 1.102-2.499 2.462 0 1.361 1.119 2.463 2.499 2.463Z" fill="white"/>
    <path fill-rule="evenodd" clip-rule="evenodd" d="M150.293 355.134h-.877a.354.354 0 0 1-.32-.227l-.001-.001c-.412-.856-.837-1.742-1.763-1.742H144c-.714 0-1.09.511-1.772 1.439a9.773 9.773 0 0 0-.121.168c-.169.238-.258.363-.441.363h-3.998c-1.375 0-1.664.794-1.664 1.46v6.823c-.032.445.142.88.472 1.184.331.304.783.446 1.231.385h12.586c.448.061.9-.081 1.231-.385.33-.304.504-.739.472-1.184v-6.823c0-.666-.295-1.46-1.703-1.46Zm-.63 4.598c0 2.085-1.715 3.776-3.831 3.776-2.117 0-3.832-1.691-3.832-3.776 0-2.086 1.715-3.777 3.832-3.777 2.115.002 3.829 1.692 3.831 3.777Zm-11.161-1.314c.46 0 .833-.367.833-.821a.827.827 0 0 0-.833-.821.827.827 0 0 0-.833.821c0 .454.373.821.833.821Z" fill="white"/>
    <path d="m137.673 354.467 1.999.011a.33.33 0 0 0 .333-.329v-.164a.992.992 0 0 0-.999-.985h-.667a.992.992 0 0 0-.999.985v.154a.33.33 0 0 0 .333.328Z" fill="white"/>
    <g filter="url(#w)" clip-rule="evenodd">
        <path fill-rule="evenodd" d="M267.999 283.714c7.575 0 13.715-6.14 13.715-13.715 0-7.574-6.14-13.714-13.715-13.714-7.574 0-13.714 6.14-13.714 13.714 0 7.575 6.14 13.715 13.714 13.715Z" fill="#81C14B"/>
        <path d="M267.999 283.714c7.575 0 13.715-6.14 13.715-13.715 0-7.574-6.14-13.714-13.715-13.714-7.574 0-13.714 6.14-13.714 13.714 0 7.575 6.14 13.715 13.714 13.715Z" stroke="white"/>
    </g>
    <circle cx="268" cy="270" r="18" stroke="url(#x)" stroke-opacity=".8" stroke-width="4"/>
    <path d="M269.831 273.195c1.38 0 2.499-1.102 2.499-2.463 0-1.36-1.119-2.462-2.499-2.462-1.38 0-2.499 1.102-2.499 2.462 0 1.361 1.119 2.463 2.499 2.463Z" fill="white"/>
    <path fill-rule="evenodd" clip-rule="evenodd" d="M274.293 266.134h-.877a.354.354 0 0 1-.32-.227l-.001-.001c-.412-.856-.837-1.742-1.763-1.742H268c-.714 0-1.09.511-1.772 1.439a9.773 9.773 0 0 0-.121.168c-.169.238-.258.363-.441.363h-3.998c-1.375 0-1.664.794-1.664 1.46v6.823c-.032.445.142.88.472 1.184.331.304.783.446 1.231.385h12.586c.448.061.9-.081 1.231-.385.33-.304.504-.739.472-1.184v-6.823c0-.666-.295-1.46-1.703-1.46Zm-.63 4.598c0 2.085-1.715 3.776-3.831 3.776-2.117 0-3.832-1.691-3.832-3.776 0-2.086 1.715-3.777 3.832-3.777 2.115.002 3.829 1.692 3.831 3.777Zm-11.161-1.314c.46 0 .833-.367.833-.821a.827.827 0 0 0-.833-.821.827.827 0 0 0-.833.821c0 .454.373.821.833.821Z" fill="white"/>
    <path d="m261.673 265.467 1.999.011a.33.33 0 0 0 .333-.329v-.164a.992.992 0 0 0-.999-.985h-.667a.992.992 0 0 0-.999.985v.154a.33.33 0 0 0 .333.328Z" fill="white"/>
    <g filter="url(#y)" clip-rule="evenodd">
        <path fill-rule="evenodd" d="M39 260.714c7.574 0 13.714-6.14 13.714-13.715 0-7.574-6.14-13.714-13.715-13.714-7.574 0-13.714 6.14-13.714 13.714 0 7.575 6.14 13.715 13.714 13.715Z" fill="#C0E0A5"/>
        <path d="M39 260.714c7.574 0 13.714-6.14 13.714-13.715 0-7.574-6.14-13.714-13.715-13.714-7.574 0-13.714 6.14-13.714 13.714 0 7.575 6.14 13.715 13.714 13.715Z" stroke="white"/>
    </g>
    <circle cx="39" cy="247" r="18" stroke="url(#z)" stroke-opacity=".8" stroke-width="4"/>
    <path d="M40.83 250.195c1.381 0 2.5-1.102 2.5-2.463 0-1.36-1.119-2.462-2.5-2.462-1.38 0-2.498 1.102-2.498 2.462 0 1.361 1.119 2.463 2.499 2.463Z" fill="white"/>
    <path fill-rule="evenodd" clip-rule="evenodd" d="M45.293 243.134h-.877a.355.355 0 0 1-.32-.227l-.001-.001c-.412-.856-.837-1.742-1.763-1.742H39c-.714 0-1.09.511-1.772 1.439a10.26 10.26 0 0 0-.12.168c-.17.238-.259.363-.442.363h-3.998c-1.375 0-1.664.794-1.664 1.46v6.823c-.032.445.142.88.472 1.184.33.304.783.446 1.23.385h12.587c.448.061.9-.081 1.23-.385.331-.304.505-.739.473-1.184v-6.823c0-.666-.295-1.46-1.703-1.46Zm-.63 4.598c0 2.085-1.715 3.776-3.831 3.776-2.117 0-3.832-1.691-3.832-3.776 0-2.086 1.715-3.777 3.832-3.777 2.115.002 3.829 1.692 3.831 3.777Zm-11.16-1.314c.46 0 .832-.367.832-.821a.827.827 0 0 0-.833-.821.827.827 0 0 0-.833.821c0 .454.373.821.833.821Z" fill="white"/>
    <path d="m32.673 242.467 2 .011a.33.33 0 0 0 .332-.329v-.164a.992.992 0 0 0-1-.985h-.666c-.552 0-1 .441-1 .985v.154c0 .181.15.328.334.328Z" fill="white"/>
    <g filter="url(#A)" clip-rule="evenodd">
        <path fill-rule="evenodd" d="M195.999 288.714c7.575 0 13.715-6.14 13.715-13.715 0-7.574-6.14-13.714-13.715-13.714-7.574 0-13.714 6.14-13.714 13.714 0 7.575 6.14 13.715 13.714 13.715Z" fill="#81C14B"/>
        <path d="M195.999 288.714c7.575 0 13.715-6.14 13.715-13.715 0-7.574-6.14-13.714-13.715-13.714-7.574 0-13.714 6.14-13.714 13.714 0 7.575 6.14 13.715 13.714 13.715Z" stroke="white"/>
    </g>
    <circle cx="196" cy="275" r="18" stroke="url(#B)" stroke-opacity=".8" stroke-width="4"/>
    <path d="M197.831 278.195c1.38 0 2.499-1.102 2.499-2.463 0-1.36-1.119-2.462-2.499-2.462-1.38 0-2.499 1.102-2.499 2.462 0 1.361 1.119 2.463 2.499 2.463Z" fill="white"/>
    <path fill-rule="evenodd" clip-rule="evenodd" d="M202.293 271.134h-.877a.354.354 0 0 1-.32-.227l-.001-.001c-.412-.856-.837-1.742-1.763-1.742H196c-.714 0-1.09.511-1.772 1.439a9.773 9.773 0 0 0-.121.168c-.169.238-.258.363-.441.363h-3.998c-1.375 0-1.664.794-1.664 1.46v6.823c-.032.445.142.88.472 1.184.331.304.783.446 1.231.385h12.586c.448.061.9-.081 1.231-.385.33-.304.504-.739.472-1.184v-6.823c0-.666-.295-1.46-1.703-1.46Zm-.63 4.598c0 2.085-1.715 3.776-3.831 3.776-2.117 0-3.832-1.691-3.832-3.776 0-2.086 1.715-3.777 3.832-3.777 2.115.002 3.829 1.692 3.831 3.777Zm-11.161-1.314c.46 0 .833-.367.833-.821a.827.827 0 0 0-.833-.821.827.827 0 0 0-.833.821c0 .454.373.821.833.821Z" fill="white"/>
    <path d="m189.673 270.467 1.999.011a.33.33 0 0 0 .333-.329v-.164a.992.992 0 0 0-.999-.985h-.667a.992.992 0 0 0-.999.985v.154a.33.33 0 0 0 .333.328Z" fill="white"/>
    <g filter="url(#C)" clip-rule="evenodd">
        <path fill-rule="evenodd" d="M78 138.714c7.574 0 13.714-6.14 13.714-13.715 0-7.574-6.14-13.714-13.715-13.714-7.574 0-13.714 6.14-13.714 13.714 0 7.575 6.14 13.715 13.714 13.715Z" fill="#944BBB"/>
        <path d="M78 138.714c7.574 0 13.714-6.14 13.714-13.715 0-7.574-6.14-13.714-13.715-13.714-7.574 0-13.714 6.14-13.714 13.714 0 7.575 6.14 13.715 13.714 13.715Z" stroke="white"/>
    </g>
    <circle cx="78" cy="125" r="18" stroke="url(#D)" stroke-opacity=".8" stroke-width="4"/>
    <path fill-rule="evenodd" clip-rule="evenodd" d="M84.781 123.545a.167.167 0 0 0 .045.139c.538.554.839 1.294.839 2.066v1.333a1.661 1.661 0 0 1-1.06 1.544.167.167 0 0 0-.107.155v1.298a1.5 1.5 0 1 1-3 0v-1.166a.167.167 0 0 0-.166-.167h-6.667a.167.167 0 0 0-.167.167v1.166a1.5 1.5 0 1 1-3 0v-1.3a.169.169 0 0 0-.106-.156 1.661 1.661 0 0 1-1.06-1.544v-1.333c0-.77.3-1.509.836-2.061a.165.165 0 0 0-.037-.26l-.533-.309a1 1 0 1 1 1-1.733l.709.41a.169.169 0 0 0 .155.006.17.17 0 0 0 .093-.124l.267-1.588a1.994 1.994 0 0 1 1.972-1.673H81.2a1.995 1.995 0 0 1 1.972 1.671l.267 1.589c.009.054.044.1.093.123.05.024.107.022.154-.006l.71-.41a1.002 1.002 0 0 1 1 1.734l-.533.308a.168.168 0 0 0-.082.121Zm-3.579-3.795h-6.408a.666.666 0 0 0-.657.555l-.32 1.915a.168.168 0 0 0 .038.136.167.167 0 0 0 .127.058h8.032a.167.167 0 0 0 .128-.058.17.17 0 0 0 .037-.134l-.32-1.915a.667.667 0 0 0-.657-.557Zm1.796 7.333a1 1 0 1 1 0-2 1 1 0 0 1 0 2Zm-10-2a1 1 0 1 0 0 2 1 1 0 0 0 0-2Z" fill="white"/>
    <g filter="url(#E)" clip-rule="evenodd">
        <path fill-rule="evenodd" d="M41 127.714c7.574 0 13.714-6.14 13.714-13.715 0-7.574-6.14-13.714-13.715-13.714-7.574 0-13.714 6.14-13.714 13.714 0 7.575 6.14 13.715 13.714 13.715Z" fill="#4387D9"/>
        <path d="M41 127.714c7.574 0 13.714-6.14 13.714-13.715 0-7.574-6.14-13.714-13.715-13.714-7.574 0-13.714 6.14-13.714 13.714 0 7.575 6.14 13.715 13.714 13.715Z" stroke="white"/>
    </g>
    <circle cx="41" cy="114" r="18" stroke="url(#F)" stroke-opacity=".8" stroke-width="4"/>
    <path d="m47.455 113.277-9.576-1.688a.338.338 0 0 1-.214-.14l-.845-1.203a.667.667 0 0 0-.43-.274l-1.96-.345a.665.665 0 0 0-.754.848l1.062 3.572a.662.662 0 0 0 .523.467l3.86.68c.067.012.12.063.135.129a.166.166 0 0 1-.068.172l-2.984 2.088a.668.668 0 0 0 .266 1.204l2.354.415a.667.667 0 0 0 .498-.111l4.294-3.004a.328.328 0 0 1 .25-.055l3.01.53a1.666 1.666 0 1 0 .579-3.282v-.003Z" fill="white"/>
    <path d="M40.465 111.265a.33.33 0 0 0 .215.137l3.02.533a.166.166 0 0 0 .165-.26l-2.044-2.92a.667.667 0 0 0-.43-.274l-1.695-.299a.666.666 0 0 0-.662 1.039l1.431 2.044Z" fill="white"/>
    <g filter="url(#G)" clip-rule="evenodd">
        <path fill-rule="evenodd" d="M262.999 239.714c7.575 0 13.715-6.14 13.715-13.715 0-7.574-6.14-13.714-13.715-13.714-7.574 0-13.714 6.14-13.714 13.714 0 7.575 6.14 13.715 13.714 13.715Z" fill="#4387D9"/>
        <path d="M262.999 239.714c7.575 0 13.715-6.14 13.715-13.715 0-7.574-6.14-13.714-13.715-13.714-7.574 0-13.714 6.14-13.714 13.714 0 7.575 6.14 13.715 13.714 13.715Z" stroke="white"/>
    </g>
    <circle cx="263" cy="226" r="18" stroke="url(#H)" stroke-opacity=".8" stroke-width="4"/>
    <path fill-rule="evenodd" clip-rule="evenodd" d="M257.668 223.333a5.339 5.339 0 0 1 5.333-5.333 5.34 5.34 0 0 1 5.334 5.333c0 2.343-3.334 8.018-4.766 10.349a.669.669 0 0 1-1.136.001c-1.432-2.333-4.765-8.01-4.765-10.35Zm3 0a2.334 2.334 0 1 0 4.668 0 2.334 2.334 0 0 0-4.668 0Z" fill="white"/>
    <g filter="url(#I)" clip-rule="evenodd">
        <path fill-rule="evenodd" d="M225.999 219.714c7.575 0 13.715-6.14 13.715-13.715 0-7.574-6.14-13.714-13.715-13.714-7.574 0-13.714 6.14-13.714 13.714 0 7.575 6.14 13.715 13.714 13.715Z" fill="#C0E0A5"/>
        <path d="M225.999 219.714c7.575 0 13.715-6.14 13.715-13.715 0-7.574-6.14-13.714-13.715-13.714-7.574 0-13.714 6.14-13.714 13.714 0 7.575 6.14 13.715 13.714 13.715Z" stroke="white"/>
    </g>
    <path d="M229.548 211h-6.986v-1.47l2.508-2.536c.743-.761 1.229-1.287 1.456-1.579.228-.296.392-.57.493-.82.1-.251.15-.511.15-.78 0-.401-.112-.699-.335-.895-.219-.196-.513-.294-.882-.294-.387 0-.763.089-1.128.267-.364.177-.745.43-1.141.758l-1.149-1.36c.492-.419.9-.715 1.224-.889a4.388 4.388 0 0 1 1.059-.396 5.298 5.298 0 0 1 1.286-.144c.624 0 1.175.114 1.654.342.478.228.85.547 1.114.957.264.41.397.88.397 1.408 0 .461-.082.894-.247 1.299-.159.401-.41.814-.751 1.237-.338.424-.935 1.028-1.791 1.812l-1.286 1.21v.096h4.355V211Z" fill="white"/>
    <circle cx="226" cy="206" r="18" stroke="url(#J)" stroke-opacity=".8" stroke-width="4"/>
    <g filter="url(#K)" clip-rule="evenodd">
        <path fill-rule="evenodd" d="M296.999 188.714c7.575 0 13.715-6.14 13.715-13.715 0-7.574-6.14-13.714-13.715-13.714-7.574 0-13.714 6.14-13.714 13.714 0 7.575 6.14 13.715 13.714 13.715Z" fill="#C0E0A5"/>
        <path d="M296.999 188.714c7.575 0 13.715-6.14 13.715-13.715 0-7.574-6.14-13.714-13.715-13.714-7.574 0-13.714 6.14-13.714 13.714 0 7.575 6.14 13.715 13.714 13.715Z" stroke="white"/>
    </g>
    <circle cx="297" cy="175" r="18" stroke="url(#L)" stroke-opacity=".8" stroke-width="4"/>
    <path d="M298.831 178.195c1.38 0 2.499-1.102 2.499-2.463 0-1.36-1.119-2.462-2.499-2.462-1.38 0-2.499 1.102-2.499 2.462 0 1.361 1.119 2.463 2.499 2.463Z" fill="white"/>
    <path fill-rule="evenodd" clip-rule="evenodd" d="M303.293 171.134h-.877a.354.354 0 0 1-.32-.227l-.001-.001c-.412-.856-.837-1.742-1.763-1.742H297c-.714 0-1.09.511-1.772 1.439a9.773 9.773 0 0 0-.121.168c-.169.238-.258.363-.441.363h-3.998c-1.375 0-1.664.794-1.664 1.46v6.823c-.032.445.142.88.472 1.184.331.304.783.446 1.231.385h12.586c.448.061.9-.081 1.231-.385.33-.304.504-.739.472-1.184v-6.823c0-.666-.295-1.46-1.703-1.46Zm-.63 4.598c0 2.085-1.715 3.776-3.831 3.776-2.117 0-3.832-1.691-3.832-3.776 0-2.086 1.715-3.777 3.832-3.777 2.115.002 3.829 1.692 3.831 3.777Zm-11.161-1.314c.46 0 .833-.367.833-.821a.827.827 0 0 0-.833-.821.827.827 0 0 0-.833.821c0 .454.373.821.833.821Z" fill="white"/>
    <path d="m290.673 170.467 1.999.011a.33.33 0 0 0 .333-.329v-.164a.992.992 0 0 0-.999-.985h-.667a.992.992 0 0 0-.999.985v.154a.33.33 0 0 0 .333.328Z" fill="white"/>
    <g filter="url(#M)" clip-rule="evenodd">
        <path fill-rule="evenodd" d="M159.999 237.714c7.575 0 13.715-6.14 13.715-13.715 0-7.574-6.14-13.714-13.715-13.714-7.574 0-13.714 6.14-13.714 13.714 0 7.575 6.14 13.715 13.714 13.715Z" fill="#C0E0A5"/>
        <path d="M159.999 237.714c7.575 0 13.715-6.14 13.715-13.715 0-7.574-6.14-13.714-13.715-13.714-7.574 0-13.714 6.14-13.714 13.714 0 7.575 6.14 13.715 13.714 13.715Z" stroke="white"/>
    </g>
    <circle cx="160" cy="224" r="18" stroke="url(#N)" stroke-opacity=".8" stroke-width="4"/>
    <path d="M161.831 227.195c1.38 0 2.499-1.102 2.499-2.463 0-1.36-1.119-2.462-2.499-2.462-1.38 0-2.499 1.102-2.499 2.462 0 1.361 1.119 2.463 2.499 2.463Z" fill="white"/>
    <path fill-rule="evenodd" clip-rule="evenodd" d="M166.293 220.134h-.877a.354.354 0 0 1-.32-.227l-.001-.001c-.412-.856-.837-1.742-1.763-1.742H160c-.714 0-1.09.511-1.772 1.439a9.773 9.773 0 0 0-.121.168c-.169.238-.258.363-.441.363h-3.998c-1.375 0-1.664.794-1.664 1.46v6.823c-.032.445.142.88.472 1.184.331.304.783.446 1.231.385h12.586c.448.061.9-.081 1.231-.385.33-.304.504-.739.472-1.184v-6.823c0-.666-.295-1.46-1.703-1.46Zm-.63 4.598c0 2.085-1.715 3.776-3.831 3.776-2.117 0-3.832-1.691-3.832-3.776 0-2.086 1.715-3.777 3.832-3.777 2.115.002 3.829 1.692 3.831 3.777Zm-11.161-1.314c.46 0 .833-.367.833-.821a.827.827 0 0 0-.833-.821.827.827 0 0 0-.833.821c0 .454.373.821.833.821Z" fill="white"/>
    <path d="m153.673 219.467 1.999.011a.33.33 0 0 0 .333-.329v-.164a.992.992 0 0 0-.999-.985h-.667a.992.992 0 0 0-.999.985v.154a.33.33 0 0 0 .333.328Z" fill="white"/>
    <defs>
        <filter id="a" x="301" y="48" width="64" height="96" filterUnits="userSpaceOnUse" color-interpolation-filters="sRGB">
            <feFlood flood-opacity="0" result="BackgroundImageFix"/>
            <feColorMatrix in="SourceAlpha" values="0 0 0 0 0 0 0 0 0 0 0 0 0 0 0 0 0 0 127 0" result="hardAlpha"/>
            <feOffset dy="8"/>
            <feGaussianBlur stdDeviation="8"/>
            <feColorMatrix values="0 0 0 0 0.4 0 0 0 0 0.4 0 0 0 0 0.4 0 0 0 0.15 0"/>
            <feBlend in2="BackgroundImageFix" result="effect1_dropShadow_0_1"/>
            <feColorMatrix in="SourceAlpha" values="0 0 0 0 0 0 0 0 0 0 0 0 0 0 0 0 0 0 127 0" result="hardAlpha"/>
            <feOffset dy="2"/>
            <feGaussianBlur stdDeviation="2"/>
            <feColorMatrix values="0 0 0 0 0.4 0 0 0 0 0.4 0 0 0 0 0.4 0 0 0 0.1 0"/>
            <feBlend in2="effect1_dropShadow_0_1" result="effect2_dropShadow_0_1"/>
            <feBlend in="SourceGraphic" in2="effect2_dropShadow_0_1" result="shape"/>
        </filter>
        <filter id="d" x="84" y="3" width="72" height="40" filterUnits="userSpaceOnUse" color-interpolation-filters="sRGB">
            <feFlood flood-opacity="0" result="BackgroundImageFix"/>
            <feColorMatrix in="SourceAlpha" values="0 0 0 0 0 0 0 0 0 0 0 0 0 0 0 0 0 0 127 0" result="hardAlpha"/>
            <feOffset/>
            <feGaussianBlur stdDeviation="2"/>
            <feColorMatrix values="0 0 0 0 0 0 0 0 0 0 0 0 0 0 0 0 0 0 0.15 0"/>
            <feBlend in2="BackgroundImageFix" result="effect1_dropShadow_0_1"/>
            <feBlend in="SourceGraphic" in2="effect1_dropShadow_0_1" result="shape"/>
        </filter>
        <filter id="e" x="12" y="3" width="72" height="40" filterUnits="userSpaceOnUse" color-interpolation-filters="sRGB">
            <feFlood flood-opacity="0" result="BackgroundImageFix"/>
            <feColorMatrix in="SourceAlpha" values="0 0 0 0 0 0 0 0 0 0 0 0 0 0 0 0 0 0 127 0" result="hardAlpha"/>
            <feOffset/>
            <feGaussianBlur stdDeviation="2"/>
            <feColorMatrix values="0 0 0 0 0 0 0 0 0 0 0 0 0 0 0 0 0 0 0.15 0"/>
            <feBlend in2="BackgroundImageFix" result="effect1_dropShadow_0_1"/>
            <feBlend in="SourceGraphic" in2="effect1_dropShadow_0_1" result="shape"/>
        </filter>
        <filter id="f" x="156" y="3" width="72" height="40" filterUnits="userSpaceOnUse" color-interpolation-filters="sRGB">
            <feFlood flood-opacity="0" result="BackgroundImageFix"/>
            <feColorMatrix in="SourceAlpha" values="0 0 0 0 0 0 0 0 0 0 0 0 0 0 0 0 0 0 127 0" result="hardAlpha"/>
            <feOffset/>
            <feGaussianBlur stdDeviation="2"/>
            <feColorMatrix values="0 0 0 0 0 0 0 0 0 0 0 0 0 0 0 0 0 0 0.15 0"/>
            <feBlend in2="BackgroundImageFix" result="effect1_dropShadow_0_1"/>
            <feBlend in="SourceGraphic" in2="effect1_dropShadow_0_1" result="shape"/>
        </filter>
        <filter id="g" x="228" y="3" width="72" height="40" filterUnits="userSpaceOnUse" color-interpolation-filters="sRGB">
            <feFlood flood-opacity="0" result="BackgroundImageFix"/>
            <feColorMatrix in="SourceAlpha" values="0 0 0 0 0 0 0 0 0 0 0 0 0 0 0 0 0 0 127 0" result="hardAlpha"/>
            <feOffset/>
            <feGaussianBlur stdDeviation="2"/>
            <feColorMatrix values="0 0 0 0 0 0 0 0 0 0 0 0 0 0 0 0 0 0 0.15 0"/>
            <feBlend in2="BackgroundImageFix" result="effect1_dropShadow_0_1"/>
            <feBlend in="SourceGraphic" in2="effect1_dropShadow_0_1" result="shape"/>
        </filter>
        <filter id="h" x="300" y="3" width="72" height="40" filterUnits="userSpaceOnUse" color-interpolation-filters="sRGB">
            <feFlood flood-opacity="0" result="BackgroundImageFix"/>
            <feColorMatrix in="SourceAlpha" values="0 0 0 0 0 0 0 0 0 0 0 0 0 0 0 0 0 0 127 0" result="hardAlpha"/>
            <feOffset/>
            <feGaussianBlur stdDeviation="2"/>
            <feColorMatrix values="0 0 0 0 0 0 0 0 0 0 0 0 0 0 0 0 0 0 0.15 0"/>
            <feBlend in2="BackgroundImageFix" result="effect1_dropShadow_0_1"/>
            <feBlend in="SourceGraphic" in2="effect1_dropShadow_0_1" result="shape"/>
        </filter>
        <filter id="i" x="209.785" y="230.785" width="36.43" height="36.429" filterUnits="userSpaceOnUse" color-interpolation-filters="sRGB">
            <feFlood flood-opacity="0" result="BackgroundImageFix"/>
            <feColorMatrix in="SourceAlpha" values="0 0 0 0 0 0 0 0 0 0 0 0 0 0 0 0 0 0 127 0" result="hardAlpha"/>
            <feOffset/>
            <feGaussianBlur stdDeviation="2"/>
            <feColorMatrix values="0 0 0 0 0.4 0 0 0 0 0.4 0 0 0 0 0.4 0 0 0 0.3 0"/>
            <feBlend in2="BackgroundImageFix" result="effect1_dropShadow_0_1"/>
            <feBlend in="SourceGraphic" in2="effect1_dropShadow_0_1" result="shape"/>
        </filter>
        <filter id="k" x="298.785" y="221.785" width="36.43" height="36.429" filterUnits="userSpaceOnUse" color-interpolation-filters="sRGB">
            <feFlood flood-opacity="0" result="BackgroundImageFix"/>
            <feColorMatrix in="SourceAlpha" values="0 0 0 0 0 0 0 0 0 0 0 0 0 0 0 0 0 0 127 0" result="hardAlpha"/>
            <feOffset/>
            <feGaussianBlur stdDeviation="2"/>
            <feColorMatrix values="0 0 0 0 0.4 0 0 0 0 0.4 0 0 0 0 0.4 0 0 0 0.3 0"/>
            <feBlend in2="BackgroundImageFix" result="effect1_dropShadow_0_1"/>
            <feBlend in="SourceGraphic" in2="effect1_dropShadow_0_1" result="shape"/>
        </filter>
        <filter id="m" x="186.785" y="412.785" width="36.43" height="36.429" filterUnits="userSpaceOnUse" color-interpolation-filters="sRGB">
            <feFlood flood-opacity="0" result="BackgroundImageFix"/>
            <feColorMatrix in="SourceAlpha" values="0 0 0 0 0 0 0 0 0 0 0 0 0 0 0 0 0 0 127 0" result="hardAlpha"/>
            <feOffset/>
            <feGaussianBlur stdDeviation="2"/>
            <feColorMatrix values="0 0 0 0 0.4 0 0 0 0 0.4 0 0 0 0 0.4 0 0 0 0.3 0"/>
            <feBlend in2="BackgroundImageFix" result="effect1_dropShadow_0_1"/>
            <feBlend in="SourceGraphic" in2="effect1_dropShadow_0_1" result="shape"/>
        </filter>
        <filter id="o" x="218.785" y="307.785" width="36.43" height="36.429" filterUnits="userSpaceOnUse" color-interpolation-filters="sRGB">
            <feFlood flood-opacity="0" result="BackgroundImageFix"/>
            <feColorMatrix in="SourceAlpha" values="0 0 0 0 0 0 0 0 0 0 0 0 0 0 0 0 0 0 127 0" result="hardAlpha"/>
            <feOffset/>
            <feGaussianBlur stdDeviation="2"/>
            <feColorMatrix values="0 0 0 0 0.4 0 0 0 0 0.4 0 0 0 0 0.4 0 0 0 0.3 0"/>
            <feBlend in2="BackgroundImageFix" result="effect1_dropShadow_0_1"/>
            <feBlend in="SourceGraphic" in2="effect1_dropShadow_0_1" result="shape"/>
        </filter>
        <filter id="q" x="138.785" y="468.785" width="36.43" height="36.429" filterUnits="userSpaceOnUse" color-interpolation-filters="sRGB">
            <feFlood flood-opacity="0" result="BackgroundImageFix"/>
            <feColorMatrix in="SourceAlpha" values="0 0 0 0 0 0 0 0 0 0 0 0 0 0 0 0 0 0 127 0" result="hardAlpha"/>
            <feOffset/>
            <feGaussianBlur stdDeviation="2"/>
            <feColorMatrix values="0 0 0 0 0.4 0 0 0 0 0.4 0 0 0 0 0.4 0 0 0 0.3 0"/>
            <feBlend in2="BackgroundImageFix" result="effect1_dropShadow_0_1"/>
            <feBlend in="SourceGraphic" in2="effect1_dropShadow_0_1" result="shape"/>
        </filter>
        <filter id="s" x="18.785" y="300.785" width="36.43" height="36.429" filterUnits="userSpaceOnUse" color-interpolation-filters="sRGB">
            <feFlood flood-opacity="0" result="BackgroundImageFix"/>
            <feColorMatrix in="SourceAlpha" values="0 0 0 0 0 0 0 0 0 0 0 0 0 0 0 0 0 0 127 0" result="hardAlpha"/>
            <feOffset/>
            <feGaussianBlur stdDeviation="2"/>
            <feColorMatrix values="0 0 0 0 0.4 0 0 0 0 0.4 0 0 0 0 0.4 0 0 0 0.3 0"/>
            <feBlend in2="BackgroundImageFix" result="effect1_dropShadow_0_1"/>
            <feBlend in="SourceGraphic" in2="effect1_dropShadow_0_1" result="shape"/>
        </filter>
        <filter id="u" x="125.785" y="340.785" width="36.43" height="36.429" filterUnits="userSpaceOnUse" color-interpolation-filters="sRGB">
            <feFlood flood-opacity="0" result="BackgroundImageFix"/>
            <feColorMatrix in="SourceAlpha" values="0 0 0 0 0 0 0 0 0 0 0 0 0 0 0 0 0 0 127 0" result="hardAlpha"/>
            <feOffset/>
            <feGaussianBlur stdDeviation="2"/>
            <feColorMatrix values="0 0 0 0 0.4 0 0 0 0 0.4 0 0 0 0 0.4 0 0 0 0.3 0"/>
            <feBlend in2="BackgroundImageFix" result="effect1_dropShadow_0_1"/>
            <feBlend in="SourceGraphic" in2="effect1_dropShadow_0_1" result="shape"/>
        </filter>
        <filter id="w" x="249.785" y="251.785" width="36.43" height="36.429" filterUnits="userSpaceOnUse" color-interpolation-filters="sRGB">
            <feFlood flood-opacity="0" result="BackgroundImageFix"/>
            <feColorMatrix in="SourceAlpha" values="0 0 0 0 0 0 0 0 0 0 0 0 0 0 0 0 0 0 127 0" result="hardAlpha"/>
            <feOffset/>
            <feGaussianBlur stdDeviation="2"/>
            <feColorMatrix values="0 0 0 0 0.4 0 0 0 0 0.4 0 0 0 0 0.4 0 0 0 0.3 0"/>
            <feBlend in2="BackgroundImageFix" result="effect1_dropShadow_0_1"/>
            <feBlend in="SourceGraphic" in2="effect1_dropShadow_0_1" result="shape"/>
        </filter>
        <filter id="y" x="20.785" y="228.785" width="36.43" height="36.429" filterUnits="userSpaceOnUse" color-interpolation-filters="sRGB">
            <feFlood flood-opacity="0" result="BackgroundImageFix"/>
            <feColorMatrix in="SourceAlpha" values="0 0 0 0 0 0 0 0 0 0 0 0 0 0 0 0 0 0 127 0" result="hardAlpha"/>
            <feOffset/>
            <feGaussianBlur stdDeviation="2"/>
            <feColorMatrix values="0 0 0 0 0.4 0 0 0 0 0.4 0 0 0 0 0.4 0 0 0 0.3 0"/>
            <feBlend in2="BackgroundImageFix" result="effect1_dropShadow_0_1"/>
            <feBlend in="SourceGraphic" in2="effect1_dropShadow_0_1" result="shape"/>
        </filter>
        <filter id="A" x="177.785" y="256.785" width="36.43" height="36.429" filterUnits="userSpaceOnUse" color-interpolation-filters="sRGB">
            <feFlood flood-opacity="0" result="BackgroundImageFix"/>
            <feColorMatrix in="SourceAlpha" values="0 0 0 0 0 0 0 0 0 0 0 0 0 0 0 0 0 0 127 0" result="hardAlpha"/>
            <feOffset/>
            <feGaussianBlur stdDeviation="2"/>
            <feColorMatrix values="0 0 0 0 0.4 0 0 0 0 0.4 0 0 0 0 0.4 0 0 0 0.3 0"/>
            <feBlend in2="BackgroundImageFix" result="effect1_dropShadow_0_1"/>
            <feBlend in="SourceGraphic" in2="effect1_dropShadow_0_1" result="shape"/>
        </filter>
        <filter id="C" x="59.785" y="106.785" width="36.43" height="36.429" filterUnits="userSpaceOnUse" color-interpolation-filters="sRGB">
            <feFlood flood-opacity="0" result="BackgroundImageFix"/>
            <feColorMatrix in="SourceAlpha" values="0 0 0 0 0 0 0 0 0 0 0 0 0 0 0 0 0 0 127 0" result="hardAlpha"/>
            <feOffset/>
            <feGaussianBlur stdDeviation="2"/>
            <feColorMatrix values="0 0 0 0 0.4 0 0 0 0 0.4 0 0 0 0 0.4 0 0 0 0.3 0"/>
            <feBlend in2="BackgroundImageFix" result="effect1_dropShadow_0_1"/>
            <feBlend in="SourceGraphic" in2="effect1_dropShadow_0_1" result="shape"/>
        </filter>
        <filter id="E" x="22.785" y="95.785" width="36.43" height="36.429" filterUnits="userSpaceOnUse" color-interpolation-filters="sRGB">
            <feFlood flood-opacity="0" result="BackgroundImageFix"/>
            <feColorMatrix in="SourceAlpha" values="0 0 0 0 0 0 0 0 0 0 0 0 0 0 0 0 0 0 127 0" result="hardAlpha"/>
            <feOffset/>
            <feGaussianBlur stdDeviation="2"/>
            <feColorMatrix values="0 0 0 0 0.4 0 0 0 0 0.4 0 0 0 0 0.4 0 0 0 0.3 0"/>
            <feBlend in2="BackgroundImageFix" result="effect1_dropShadow_0_1"/>
            <feBlend in="SourceGraphic" in2="effect1_dropShadow_0_1" result="shape"/>
        </filter>
        <filter id="G" x="244.785" y="207.785" width="36.43" height="36.429" filterUnits="userSpaceOnUse" color-interpolation-filters="sRGB">
            <feFlood flood-opacity="0" result="BackgroundImageFix"/>
            <feColorMatrix in="SourceAlpha" values="0 0 0 0 0 0 0 0 0 0 0 0 0 0 0 0 0 0 127 0" result="hardAlpha"/>
            <feOffset/>
            <feGaussianBlur stdDeviation="2"/>
            <feColorMatrix values="0 0 0 0 0.4 0 0 0 0 0.4 0 0 0 0 0.4 0 0 0 0.3 0"/>
            <feBlend in2="BackgroundImageFix" result="effect1_dropShadow_0_1"/>
            <feBlend in="SourceGraphic" in2="effect1_dropShadow_0_1" result="shape"/>
        </filter>
        <filter id="I" x="207.785" y="187.785" width="36.43" height="36.429" filterUnits="userSpaceOnUse" color-interpolation-filters="sRGB">
            <feFlood flood-opacity="0" result="BackgroundImageFix"/>
            <feColorMatrix in="SourceAlpha" values="0 0 0 0 0 0 0 0 0 0 0 0 0 0 0 0 0 0 127 0" result="hardAlpha"/>
            <feOffset/>
            <feGaussianBlur stdDeviation="2"/>
            <feColorMatrix values="0 0 0 0 0.4 0 0 0 0 0.4 0 0 0 0 0.4 0 0 0 0.3 0"/>
            <feBlend in2="BackgroundImageFix" result="effect1_dropShadow_0_1"/>
            <feBlend in="SourceGraphic" in2="effect1_dropShadow_0_1" result="shape"/>
        </filter>
        <filter id="K" x="278.785" y="156.785" width="36.43" height="36.429" filterUnits="userSpaceOnUse" color-interpolation-filters="sRGB">
            <feFlood flood-opacity="0" result="BackgroundImageFix"/>
            <feColorMatrix in="SourceAlpha" values="0 0 0 0 0 0 0 0 0 0 0 0 0 0 0 0 0 0 127 0" result="hardAlpha"/>
            <feOffset/>
            <feGaussianBlur stdDeviation="2"/>
            <feColorMatrix values="0 0 0 0 0.4 0 0 0 0 0.4 0 0 0 0 0.4 0 0 0 0.3 0"/>
            <feBlend in2="BackgroundImageFix" result="effect1_dropShadow_0_1"/>
            <feBlend in="SourceGraphic" in2="effect1_dropShadow_0_1" result="shape"/>
        </filter>
        <filter id="M" x="141.785" y="205.785" width="36.43" height="36.429" filterUnits="userSpaceOnUse" color-interpolation-filters="sRGB">
            <feFlood flood-opacity="0" result="BackgroundImageFix"/>
            <feColorMatrix in="SourceAlpha" values="0 0 0 0 0 0 0 0 0 0 0 0 0 0 0 0 0 0 127 0" result="hardAlpha"/>
            <feOffset/>
            <feGaussianBlur stdDeviation="2"/>
            <feColorMatrix values="0 0 0 0 0.4 0 0 0 0 0.4 0 0 0 0 0.4 0 0 0 0.3 0"/>
            <feBlend in2="BackgroundImageFix" result="effect1_dropShadow_0_1"/>
            <feBlend in="SourceGraphic" in2="effect1_dropShadow_0_1" result="shape"/>
        </filter>
        <radialGradient id="j" cx="0" cy="0" r="1" gradientUnits="userSpaceOnUse" gradientTransform="rotate(90 -.215 228.215) scale(48.5714)">
            <stop stop-color="white"/>
            <stop offset="1" stop-color="#50CAE4"/>
        </radialGradient>
        <radialGradient id="l" cx="0" cy="0" r="1" gradientUnits="userSpaceOnUse" gradientTransform="rotate(90 48.785 268.215) scale(48.5714)">
            <stop stop-color="white"/>
            <stop offset="1" stop-color="#81C14B"/>
        </radialGradient>
        <radialGradient id="n" cx="0" cy="0" r="1" gradientUnits="userSpaceOnUse" gradientTransform="matrix(0 48.5714 -48.5714 0 205 410.429)">
            <stop stop-color="white"/>
            <stop offset="1" stop-color="#C0E0A5"/>
        </radialGradient>
        <radialGradient id="p" cx="0" cy="0" r="1" gradientUnits="userSpaceOnUse" gradientTransform="matrix(0 48.5714 -48.5714 0 237 305.429)">
            <stop stop-color="white"/>
            <stop offset="1" stop-color="#C0E0A5"/>
        </radialGradient>
        <radialGradient id="r" cx="0" cy="0" r="1" gradientUnits="userSpaceOnUse" gradientTransform="matrix(0 48.5714 -48.5714 0 157 466.429)">
            <stop stop-color="white"/>
            <stop offset="1" stop-color="#C0E0A5"/>
        </radialGradient>
        <radialGradient id="t" cx="0" cy="0" r="1" gradientUnits="userSpaceOnUse" gradientTransform="matrix(0 48.5714 -48.5714 0 37 298.429)">
            <stop stop-color="white"/>
            <stop offset="1" stop-color="#C0E0A5"/>
        </radialGradient>
        <radialGradient id="v" cx="0" cy="0" r="1" gradientUnits="userSpaceOnUse" gradientTransform="matrix(0 48.5714 -48.5714 0 144 338.429)">
            <stop stop-color="white"/>
            <stop offset="1" stop-color="#C0E0A5"/>
        </radialGradient>
        <radialGradient id="x" cx="0" cy="0" r="1" gradientUnits="userSpaceOnUse" gradientTransform="rotate(90 9.285 258.715) scale(48.5714)">
            <stop stop-color="white"/>
            <stop offset="1" stop-color="#81C14B"/>
        </radialGradient>
        <radialGradient id="z" cx="0" cy="0" r="1" gradientUnits="userSpaceOnUse" gradientTransform="matrix(0 48.5714 -48.5714 0 39 226.429)">
            <stop stop-color="white"/>
            <stop offset="1" stop-color="#C0E0A5"/>
        </radialGradient>
        <radialGradient id="B" cx="0" cy="0" r="1" gradientUnits="userSpaceOnUse" gradientTransform="matrix(0 48.5714 -48.5714 0 196 254.429)">
            <stop stop-color="white"/>
            <stop offset="1" stop-color="#81C14B"/>
        </radialGradient>
        <radialGradient id="D" cx="0" cy="0" r="1" gradientUnits="userSpaceOnUse" gradientTransform="matrix(0 48.5714 -48.5714 0 78 104.429)">
            <stop stop-color="white"/>
            <stop offset="1" stop-color="#944BBB"/>
        </radialGradient>
        <radialGradient id="F" cx="0" cy="0" r="1" gradientUnits="userSpaceOnUse" gradientTransform="matrix(0 48.5714 -48.5714 0 41 93.429)">
            <stop stop-color="white"/>
            <stop offset="1" stop-color="#4387D9"/>
        </radialGradient>
        <radialGradient id="H" cx="0" cy="0" r="1" gradientUnits="userSpaceOnUse" gradientTransform="rotate(90 28.785 234.215) scale(48.5714)">
            <stop stop-color="white"/>
            <stop offset="1" stop-color="#4387D9"/>
        </radialGradient>
        <radialGradient id="J" cx="0" cy="0" r="1" gradientUnits="userSpaceOnUse" gradientTransform="rotate(90 20.285 205.715) scale(48.5714)">
            <stop stop-color="white"/>
            <stop offset="1" stop-color="#C0E0A5"/>
        </radialGradient>
        <radialGradient id="L" cx="0" cy="0" r="1" gradientUnits="userSpaceOnUse" gradientTransform="rotate(90 71.285 225.715) scale(48.5714)">
            <stop stop-color="white"/>
            <stop offset="1" stop-color="#C0E0A5"/>
        </radialGradient>
        <radialGradient id="N" cx="0" cy="0" r="1" gradientUnits="userSpaceOnUse" gradientTransform="matrix(0 48.5714 -48.5714 0 160 203.429)">
            <stop stop-color="white"/>
            <stop offset="1" stop-color="#C0E0A5"/>
        </radialGradient>
    </defs>
</svg>